<svg xmlns="http://www.w3.org/2000/svg"  viewBox="0 0 48 48" width="48px" height="48px" clip-rule="evenodd" baseProfile="basic"><linearGradient id="jFdG-76_seIEvf-hbjSsaa" x1="1688.489" x2="1685.469" y1="-883.003" y2="-881.443" gradientTransform="matrix(11.64 0 0 22.55 -19615.32 19904.924)" gradientUnits="userSpaceOnUse"><stop offset="0" stop-color="#047ed6"/><stop offset="1" stop-color="#50e6ff"/></linearGradient><path fill="url(#jFdG-76_seIEvf-hbjSsaa)" fill-rule="evenodd" d="M7.809,4.608c-0.45,0.483-0.708,1.227-0.708,2.194	v34.384c0,0.967,0.258,1.711,0.725,2.177l0.122,0.103L27.214,24.2v-0.433L7.931,4.505L7.809,4.608z" clip-rule="evenodd"/><linearGradient id="jFdG-76_seIEvf-hbjSsab" x1="1645.286" x2="1642.929" y1="-897.055" y2="-897.055" gradientTransform="matrix(9.145 0 0 7.7 -15001.938 6931.316)" gradientUnits="userSpaceOnUse"><stop offset="0" stop-color="#ffda1c"/><stop offset="1" stop-color="#feb705"/></linearGradient><path fill="url(#jFdG-76_seIEvf-hbjSsab)" fill-rule="evenodd" d="M33.623,30.647l-6.426-6.428v-0.45l6.428-6.428	l0.139,0.086l7.603,4.321c2.177,1.227,2.177,3.249,0,4.493l-7.603,4.321C33.762,30.561,33.623,30.647,33.623,30.647z" clip-rule="evenodd"/><linearGradient id="jFdG-76_seIEvf-hbjSsac" x1="1722.978" x2="1720.622" y1="-889.412" y2="-886.355" gradientTransform="matrix(15.02 0 0 11.5775 -25848.943 10324.73)" gradientUnits="userSpaceOnUse"><stop offset="0" stop-color="#d9414f"/><stop offset="1" stop-color="#8c193f"/></linearGradient><path fill="url(#jFdG-76_seIEvf-hbjSsac)" fill-rule="evenodd" d="M33.762,30.561l-6.565-6.567L7.809,43.382	c0.708,0.761,1.9,0.847,3.232,0.103L33.762,30.561" clip-rule="evenodd"/><linearGradient id="jFdG-76_seIEvf-hbjSsad" x1="1721.163" x2="1722.215" y1="-891.39" y2="-890.024" gradientTransform="matrix(15.02 0 0 11.5715 -25848.943 10307.886)" gradientUnits="userSpaceOnUse"><stop offset="0" stop-color="#33c481"/><stop offset="1" stop-color="#61e3a7"/></linearGradient><path fill="url(#jFdG-76_seIEvf-hbjSsad)" fill-rule="evenodd" d="M33.762,17.429L11.041,4.522	c-1.33-0.761-2.524-0.658-3.232,0.103l19.386,19.369L33.762,17.429z" clip-rule="evenodd"/></svg>