<svg xmlns="http://www.w3.org/2000/svg" xmlns:xlink="http://www.w3.org/1999/xlink" viewBox="0,0,256,256" width="100px" height="100px" fill-rule="nonzero"><g fill="none" fill-rule="nonzero" stroke="none" stroke-width="1" stroke-linecap="butt" stroke-linejoin="miter" stroke-miterlimit="10" stroke-dasharray="" stroke-dashoffset="0" font-family="none" font-weight="none" font-size="none" text-anchor="none" style="mix-blend-mode: normal"><g transform="scale(2.56,2.56)"><path d="M77.416,50.262c-0.085,-4.08 2.123,-6.664 5.821,-8.097c-0.226,-2.229 -2.82,-8.492 -4.133,-9.984c-3.549,1.661 -6.911,1.409 -9.74,-1.385c-2.875,-2.838 -3.101,-6.234 -1.431,-9.859c-3.119,-1.919 -6.462,-3.306 -10.037,-4.136c-1.209,3.517 -3.554,5.721 -7.231,5.992c-4.357,0.321 -7.181,-1.931 -8.675,-5.957c-3.576,0.875 -6.907,2.257 -9.998,4.192c1.701,3.592 1.481,6.951 -1.316,9.794c-2.831,2.879 -6.218,3.146 -9.855,1.473c-1.895,3.118 -3.256,6.454 -4.072,10.027c3.635,1.333 5.827,3.826 5.919,7.694c0.095,4.023 -2.073,6.655 -5.808,8.107c0.86,3.544 2.262,6.842 4.196,9.93c3.527,-1.571 6.82,-1.311 9.599,1.392c2.833,2.755 3.175,6.083 1.609,9.68c3.119,1.897 6.438,3.253 9.989,4.073c0.053,-0.106 0.093,-0.169 0.119,-0.237c1.283,-3.345 4.199,-5.485 7.534,-5.527c3.566,-0.045 6.52,1.943 7.886,5.34c0.149,0.371 0.319,0.362 0.637,0.282c3.213,-0.812 6.243,-2.064 9.09,-3.76c0.155,-0.093 0.303,-0.199 0.426,-0.28c-1.447,-3.263 -1.315,-6.358 0.998,-9.053c2.78,-3.239 6.275,-3.715 10.163,-2.06c1.918,-3.101 3.301,-6.406 4.142,-9.944c-3.582,-1.372 -5.751,-3.827 -5.832,-7.697zM49.991,55.833c-3.239,-0.015 -5.848,-2.639 -5.833,-5.867c0.015,-3.235 2.652,-5.83 5.915,-5.799c3.26,0.031 5.861,2.733 5.767,6.004c-0.087,3.042 -2.56,5.644 -5.849,5.662z" fill="#73e9c7"></path><path d="M42.215,84.194c-0.062,0 -0.125,-0.007 -0.187,-0.021c-3.623,-0.837 -7.083,-2.248 -10.284,-4.193c-0.427,-0.26 -0.597,-0.795 -0.397,-1.254c1.485,-3.409 1.031,-6.211 -1.389,-8.563c-2.362,-2.299 -5.143,-2.688 -8.494,-1.196c-0.454,0.201 -0.989,0.041 -1.255,-0.383c-1.992,-3.182 -3.445,-6.622 -4.319,-10.226c-0.118,-0.486 0.143,-0.985 0.609,-1.167c3.561,-1.386 5.252,-3.725 5.17,-7.152c-0.078,-3.291 -1.8,-5.509 -5.264,-6.779c-0.473,-0.173 -0.742,-0.671 -0.63,-1.161c0.832,-3.643 2.243,-7.116 4.192,-10.323c0.264,-0.433 0.811,-0.603 1.272,-0.389c3.465,1.595 6.317,1.182 8.724,-1.266c2.375,-2.414 2.742,-5.249 1.125,-8.665c-0.218,-0.458 -0.057,-1.007 0.373,-1.275c3.128,-1.957 6.591,-3.409 10.291,-4.316c0.503,-0.12 1,0.148 1.176,0.624c1.428,3.847 3.93,5.579 7.664,5.308c3.083,-0.228 5.223,-2.017 6.358,-5.319c0.166,-0.485 0.672,-0.766 1.172,-0.648c3.639,0.845 7.116,2.277 10.334,4.258c0.431,0.265 0.596,0.811 0.384,1.27c-1.602,3.478 -1.201,6.333 1.226,8.729c2.381,2.35 5.277,2.752 8.613,1.19c0.399,-0.188 0.88,-0.089 1.175,0.245c1.433,1.628 4.133,8.133 4.377,10.545c0.045,0.447 -0.214,0.87 -0.634,1.033c-3.559,1.38 -5.254,3.716 -5.182,7.143c0,0.001 0,0.001 0,0.001c0.067,3.253 1.765,5.473 5.189,6.784c0.468,0.179 0.731,0.677 0.615,1.165c-0.854,3.602 -2.289,7.046 -4.264,10.239c-0.261,0.42 -0.791,0.589 -1.242,0.394c-3.684,-1.568 -6.633,-0.983 -9.013,1.791c-1.947,2.27 -2.223,4.886 -0.843,7.997c0.198,0.446 0.044,0.972 -0.364,1.24l-0.11,0.074c-0.108,0.074 -0.229,0.155 -0.353,0.229c-2.913,1.734 -6.062,3.036 -9.357,3.87c-1.084,0.274 -1.587,-0.323 -1.811,-0.877c-1.189,-2.959 -3.742,-4.716 -6.842,-4.716c-0.034,0 -0.069,0 -0.104,0.001c-2.938,0.037 -5.473,1.909 -6.614,4.886c-0.026,0.072 -0.065,0.152 -0.117,0.25c-0.176,0.355 -0.574,0.623 -0.97,0.623zM33.51,78.7c2.572,1.477 5.312,2.593 8.165,3.328c1.547,-3.384 4.705,-5.55 8.219,-5.594c3.845,-0.021 7.061,2.021 8.651,5.557c2.904,-0.772 5.625,-1.901 8.159,-3.374c-1.282,-3.471 -0.777,-6.673 1.48,-9.305c2.757,-3.213 6.372,-4.123 10.5,-2.646c1.497,-2.561 2.633,-5.283 3.384,-8.115c-3.672,-1.664 -5.572,-4.442 -5.652,-8.267v0c-0.084,-3.992 1.883,-6.995 5.699,-8.731c-0.498,-2.171 -2.221,-6.354 -3.348,-8.137c-3.815,1.52 -7.297,0.866 -10.106,-1.907c-2.813,-2.778 -3.492,-6.277 -1.989,-10.16c-2.571,-1.492 -5.308,-2.621 -8.156,-3.364c-1.485,3.538 -4.158,5.54 -7.776,5.806c-4.316,0.328 -7.536,-1.672 -9.346,-5.768c-2.895,0.786 -5.624,1.929 -8.136,3.407c1.521,3.821 0.884,7.296 -1.868,10.094c-2.784,2.831 -6.278,3.526 -10.151,2.033c-1.471,2.567 -2.582,5.305 -3.313,8.16c3.673,1.617 5.653,4.463 5.744,8.275c0.094,3.972 -1.847,6.969 -5.626,8.715c0.766,2.83 1.915,5.548 3.425,8.099c3.747,-1.395 7.149,-0.737 9.885,1.924c2.8,2.723 3.537,6.155 2.156,9.97zM49.991,56.833c-0.002,0 -0.003,0 -0.005,0c-3.782,-0.019 -6.846,-3.101 -6.828,-6.872c0.008,-1.828 0.729,-3.541 2.027,-4.822c1.307,-1.289 2.997,-2.002 4.897,-1.972c1.845,0.018 3.567,0.759 4.848,2.089c1.284,1.333 1.962,3.089 1.91,4.943c-0.106,3.699 -3.112,6.612 -6.844,6.634c-0.001,0 -0.003,0 -0.005,0zM50.014,45.167c-1.296,0 -2.511,0.494 -3.425,1.396c-0.917,0.905 -1.426,2.115 -1.432,3.408c-0.012,2.666 2.155,4.847 4.832,4.862c2.646,-0.018 4.776,-2.077 4.851,-4.69c0.038,-1.313 -0.442,-2.556 -1.351,-3.499c-0.905,-0.94 -2.122,-1.465 -3.427,-1.477c-0.015,0 -0.031,0 -0.048,0z" fill="#1b0f24"></path><path d="M70.876,44.686c-2.935,-11.529 -14.661,-18.496 -26.19,-15.561c-11.529,2.935 -18.496,14.661 -15.561,26.19c2.935,11.529 14.661,18.496 26.19,15.561c11.529,-2.935 18.496,-14.661 15.561,-26.19zM54.244,66.67c-9.207,2.344 -18.571,-3.22 -20.914,-12.427c-2.344,-9.207 3.22,-18.571 12.427,-20.914c9.207,-2.344 18.571,3.22 20.914,12.427c2.343,9.207 -3.22,18.571 -12.427,20.914z" fill="#6930c3"></path><path d="M50.077,67.915c-7.808,0 -14.941,-5.273 -16.953,-13.179c-2.38,-9.347 3.289,-18.888 12.636,-21.267c9.338,-2.381 18.888,3.288 21.267,12.636c2.38,9.347 -3.289,18.888 -12.636,21.267v0c-1.442,0.368 -2.889,0.543 -4.314,0.543zM50.073,33.919c-1.344,0 -2.709,0.166 -4.069,0.512c-8.816,2.244 -14.163,11.244 -11.919,20.062c2.245,8.817 11.246,14.161 20.062,11.919v0c8.816,-2.244 14.163,-11.244 11.919,-20.062c-1.899,-7.456 -8.629,-12.431 -15.993,-12.431zM54.268,66.892h0.01zM29.622,43.274c-0.056,0 -0.112,-0.01 -0.168,-0.029c-0.258,-0.093 -0.392,-0.377 -0.299,-0.635c2.496,-6.949 8.253,-12.184 15.399,-14.002c0.271,-0.067 0.536,0.093 0.603,0.358c0.067,0.266 -0.093,0.535 -0.358,0.603c-6.826,1.737 -12.325,6.738 -14.71,13.377c-0.073,0.202 -0.264,0.328 -0.467,0.328z" fill="#1b0f24"></path><path d="M50.532,71.941c-2.229,0 -4.499,-0.327 -6.749,-0.996c-7.674,-2.279 -13.37,-8.033 -15.239,-15.392c-0.067,-0.266 0.093,-0.535 0.358,-0.603c0.271,-0.069 0.536,0.094 0.603,0.358c1.782,7.017 7.226,12.506 14.561,14.685c7.39,2.197 15.009,0.55 20.382,-4.401c0.2,-0.186 0.515,-0.173 0.701,0.029c0.186,0.201 0.173,0.515 -0.029,0.701c-3.993,3.679 -9.163,5.619 -14.588,5.619z" fill="#1b0f24"></path><path d="M69.035,60.477c-0.447,0.819 -0.945,1.61 -1.492,2.366" fill="#73e9c7"></path><path d="M67.544,63.339c-0.102,0 -0.203,-0.03 -0.291,-0.094c-0.222,-0.161 -0.271,-0.471 -0.111,-0.693c0.53,-0.731 1.021,-1.51 1.459,-2.312c0.132,-0.241 0.437,-0.326 0.673,-0.198c0.241,0.132 0.329,0.433 0.198,0.673c-0.458,0.84 -0.972,1.653 -1.525,2.42c-0.099,0.133 -0.25,0.204 -0.403,0.204z" fill="#1b0f24"></path><path d="M71.154,54.892c-0.297,1.3 -0.714,2.572 -1.244,3.796" fill="#73e9c7"></path><path d="M69.91,59.184c-0.066,0 -0.133,-0.013 -0.197,-0.041c-0.251,-0.108 -0.367,-0.401 -0.258,-0.652c0.517,-1.193 0.926,-2.441 1.216,-3.709c0.061,-0.268 0.325,-0.436 0.594,-0.373c0.268,0.061 0.435,0.327 0.373,0.594c-0.303,1.327 -0.731,2.634 -1.272,3.883c-0.082,0.187 -0.265,0.298 -0.456,0.298zM71.019,45.237c-0.222,0 -0.424,-0.149 -0.48,-0.374c-1.757,-6.902 -6.827,-12.427 -13.563,-14.776c-0.259,-0.091 -0.396,-0.373 -0.306,-0.632c0.09,-0.26 0.376,-0.396 0.632,-0.306c7.052,2.46 12.358,8.243 14.197,15.47c0.067,0.266 -0.093,0.535 -0.358,0.603c-0.041,0.01 -0.082,0.015 -0.122,0.015z" fill="#1b0f24"></path><path d="M57.726,34.706l5.758,-1.394" fill="#73e9c7"></path><path d="M57.725,35.202c-0.225,0 -0.427,-0.152 -0.482,-0.38c-0.064,-0.266 0.1,-0.534 0.366,-0.599l5.759,-1.394c0.268,-0.061 0.533,0.1 0.599,0.366c0.064,0.266 -0.1,0.534 -0.366,0.599l-5.759,1.394c-0.04,0.009 -0.079,0.014 -0.117,0.014z" fill="#1b0f24"></path><path d="M62.746,38.015l4.332,-0.716" fill="#73e9c7"></path><path d="M62.745,38.511c-0.238,0 -0.448,-0.172 -0.488,-0.415c-0.045,-0.271 0.138,-0.525 0.408,-0.57l4.332,-0.716c0.262,-0.051 0.525,0.137 0.57,0.408c0.045,0.271 -0.138,0.525 -0.408,0.57l-4.332,0.716c-0.028,0.005 -0.055,0.007 -0.082,0.007z" fill="#1b0f24"></path><path d="M65.554,42.459l4.394,-0.473" fill="#73e9c7"></path><path d="M65.553,42.955c-0.25,0 -0.465,-0.188 -0.492,-0.443c-0.029,-0.271 0.168,-0.517 0.44,-0.546l4.394,-0.474c0.254,-0.032 0.517,0.166 0.546,0.44c0.029,0.271 -0.168,0.517 -0.44,0.546l-4.394,0.474c-0.018,0.002 -0.035,0.003 -0.054,0.003z" fill="#1b0f24"></path><path d="M41.772,30.321l0.433,4.023" fill="#73e9c7"></path><path d="M42.205,34.839c-0.25,0 -0.465,-0.188 -0.492,-0.443l-0.434,-4.021c-0.029,-0.271 0.168,-0.517 0.44,-0.546c0.252,-0.028 0.517,0.167 0.546,0.44l0.434,4.021c0.029,0.271 -0.168,0.517 -0.44,0.546c-0.018,0.002 -0.036,0.003 -0.054,0.003z" fill="#1b0f24"></path><path d="M37.499,32.575l1.326,4.446" fill="#73e9c7"></path><path d="M38.825,37.517c-0.214,0 -0.411,-0.139 -0.476,-0.354l-1.326,-4.445c-0.078,-0.263 0.071,-0.539 0.334,-0.617c0.263,-0.075 0.539,0.07 0.617,0.334l1.326,4.445c0.078,0.263 -0.071,0.539 -0.334,0.617c-0.046,0.013 -0.094,0.02 -0.141,0.02z" fill="#1b0f24"></path><path d="M33.21,36.504l2.613,3.87" fill="#73e9c7"></path><path d="M35.823,40.87c-0.159,0 -0.315,-0.076 -0.411,-0.219l-2.612,-3.87c-0.153,-0.227 -0.094,-0.535 0.134,-0.688c0.227,-0.154 0.535,-0.095 0.688,0.134l2.612,3.87c0.153,0.227 0.094,0.535 -0.134,0.688c-0.085,0.058 -0.181,0.085 -0.277,0.085z" fill="#1b0f24"></path><path d="M30.09,58.195l4.456,-0.232" fill="#73e9c7"></path><path d="M30.09,58.691c-0.263,0 -0.481,-0.205 -0.495,-0.471c-0.015,-0.273 0.195,-0.507 0.47,-0.521l4.455,-0.231c0.304,-0.015 0.507,0.196 0.521,0.47c0.015,0.273 -0.195,0.507 -0.47,0.521l-4.455,0.231c-0.009,0.001 -0.018,0.001 -0.026,0.001z" fill="#1b0f24"></path><path d="M32.774,63.031l4.324,-1.289" fill="#73e9c7"></path><path d="M32.774,63.528c-0.214,0 -0.411,-0.139 -0.476,-0.354c-0.078,-0.263 0.071,-0.539 0.334,-0.617l4.324,-1.29c0.261,-0.076 0.539,0.071 0.617,0.334c0.078,0.263 -0.071,0.539 -0.334,0.617l-4.324,1.29c-0.046,0.013 -0.094,0.02 -0.141,0.02z" fill="#1b0f24"></path><path d="M37.425,67.076l3.65,-1.875" fill="#73e9c7"></path><path d="M37.424,67.573c-0.18,0 -0.354,-0.099 -0.441,-0.27c-0.125,-0.243 -0.029,-0.543 0.215,-0.668l3.65,-1.875c0.24,-0.123 0.542,-0.029 0.668,0.215c0.125,0.243 0.029,0.543 -0.215,0.668l-3.65,1.875c-0.072,0.037 -0.149,0.055 -0.227,0.055z" fill="#1b0f24"></path><path d="M43.379,69.86l2.697,-2.578" fill="#73e9c7"></path><path d="M43.379,70.357c-0.131,0 -0.261,-0.052 -0.358,-0.153c-0.189,-0.198 -0.183,-0.512 0.016,-0.701l2.697,-2.579c0.197,-0.189 0.512,-0.182 0.701,0.016c0.189,0.198 0.183,0.512 -0.016,0.701l-2.697,2.579c-0.096,0.091 -0.22,0.137 -0.343,0.137z" fill="#1b0f24"></path><path d="M49.804,71.421l2.094,-3.901" fill="#73e9c7"></path><path d="M49.803,71.917c-0.08,0 -0.16,-0.019 -0.234,-0.059c-0.241,-0.13 -0.332,-0.431 -0.203,-0.672l2.095,-3.901c0.131,-0.243 0.434,-0.332 0.672,-0.203c0.241,0.13 0.332,0.431 0.203,0.672l-2.095,3.901c-0.09,0.168 -0.261,0.262 -0.438,0.262z" fill="#1b0f24"></path><g><path d="M56.737,70.305l0.329,-4.101" fill="#73e9c7"></path><path d="M56.738,70.801c-0.014,0 -0.027,-0.001 -0.041,-0.002c-0.272,-0.021 -0.477,-0.261 -0.454,-0.534l0.329,-4.102c0.021,-0.272 0.267,-0.473 0.534,-0.454c0.272,0.021 0.477,0.261 0.454,0.534l-0.329,4.102c-0.02,0.259 -0.237,0.456 -0.493,0.456z" fill="#1b0f24"></path></g><g><path d="M46.887,28.598c1.321,-0.181 2.659,-0.239 3.991,-0.174" fill="#73e9c7"></path><path d="M46.886,29.094c-0.244,0 -0.456,-0.181 -0.49,-0.429c-0.037,-0.271 0.152,-0.521 0.424,-0.559c1.346,-0.185 2.718,-0.245 4.082,-0.178c0.273,0.013 0.484,0.245 0.471,0.52c-0.013,0.272 -0.208,0.506 -0.52,0.471c-1.3,-0.063 -2.613,-0.005 -3.898,0.17c-0.024,0.003 -0.046,0.005 -0.069,0.005z" fill="#1b0f24"></path></g></g></g></svg>