<svg xmlns="http://www.w3.org/2000/svg"  viewBox="0 0 48 48" width="48px" height="48px"><linearGradient id="YapdnIsyxQ8gflspY1m_ba" x1="24.094" x2="23.903" y1="6.252" y2="46.369" gradientTransform="matrix(1 0 0 -1 0 50)" gradientUnits="userSpaceOnUse"><stop offset="0" stop-color="#2e64e3"/><stop offset=".517" stop-color="#398dea"/><stop offset="1" stop-color="#45b7f1"/></linearGradient><path fill="url(#YapdnIsyxQ8gflspY1m_ba)" d="M40,6H8C6.895,6,6,6.895,6,8v32c0,1.105,0.895,2,2,2h32c1.105,0,2-0.895,2-2V8 C42,6.895,41.105,6,40,6z"/><linearGradient id="YapdnIsyxQ8gflspY1m_bb" x1="9.245" x2="38.755" y1="26" y2="26" gradientTransform="matrix(1 0 0 -1 0 50)" gradientUnits="userSpaceOnUse"><stop offset="0" stop-color="#3395ec"/><stop offset=".068" stop-color="#3a9aed"/><stop offset=".263" stop-color="#47a4ef"/><stop offset=".513" stop-color="#4fa9f0"/><stop offset="1" stop-color="#51abf0"/></linearGradient><path fill="url(#YapdnIsyxQ8gflspY1m_bb)" d="M24,9.245 C15.851,9.245,9.245,15.851,9.245,24S15.851,38.755,24,38.755S38.755,32.149,38.755,24S32.149,9.245,24,9.245z M23.987,35.279 c-6.222,0-11.266-5.044-11.266-11.266s5.044-11.266,11.266-11.266s11.266,5.044,11.266,11.266S30.209,35.279,23.987,35.279z"/><path d="M29.178,9.652l-0.47-0.17l-0.17,0.47l-0.17,0.471l-0.17,0.47l0.47,0.17 C34.1,13.023,37.75,18.222,37.75,24c0,1.804-0.362,3.615-1.051,5.278l-1.264-0.896c0.541-1.409,0.815-2.881,0.815-4.382 c0-4.708-2.75-9.055-7.005-11.074l-0.451-0.214l-0.214,0.451l-0.215,0.452l-0.215,0.452l0.452,0.214 c3.735,1.771,6.149,5.586,6.149,9.718c0,1.193-0.195,2.363-0.58,3.485l-2.861-2.028c-0.766-0.542-1.616-0.93-2.527-1.153 l-3.241-0.79c0.131-0.217,0.183-0.447,0.177-0.618l0.478-8.64l0.002-0.04l-0.004-0.04c-0.376-3.559-1.131-5.426-2.244-5.549 c-0.067-0.008-0.134-0.012-0.199-0.012c-0.25,0-0.485,0.054-0.713,0.165l-0.078,0.005C14.99,9.325,8.75,16.008,8.75,24v0.5h0.5h0.5 h0.5V24c0-6.813,5.149-12.666,11.838-13.605v0.001l-0.063,1.517C16.138,12.867,11.75,17.99,11.75,24v0.5h0.5h0.5h0.5V24 c0-5.155,3.704-9.588,8.71-10.55l-0.21,5.019l-0.003,0.076l0.019,0.112l1.182,4.411c-0.213-0.047-0.414-0.064-0.556-0.064 c-0.081,0-0.137,0.004-0.158,0.005l-0.11,0.008l-0.097,0.054l-7.739,4.292l-0.055,0.031l-0.046,0.044l-2.837,2.688 c-0.403,0.307-0.602,0.792-0.548,1.267l-0.105,0.064l0.25,0.432c2.792,4.61,7.672,7.362,13.054,7.362 c2.437,0,4.86-0.589,7.009-1.703l0.444-0.23l-0.23-0.444l-0.23-0.444l-0.23-0.444l-0.444,0.23c-1.935,1.004-4.12,1.535-6.319,1.535 c-4.37,0-8.317-1.961-10.929-5.404l1.378-0.707c2.319,2.895,5.858,4.611,9.551,4.611c1.951,0,3.893-0.47,5.614-1.359l0.443-0.229 l-0.228-0.444l-0.229-0.444l-0.229-0.445l-0.445,0.23c-1.533,0.789-3.191,1.19-4.927,1.19c-3.132,0-6.149-1.415-8.184-3.812 l4.43-2.272l0.058-0.03l0.048-0.044l3.293-2.963l0.288,0.231l6.17,4.39l0.026,0.018l0.028,0.015 c0.059,0.032,1.466,0.778,2.693,0.965c0.804,0.122,2.181,0.495,2.868,0.696l0.479,0.14l0.02-0.065 c0.284-0.009,0.557-0.105,0.782-0.269l0.108,0.061l0.239-0.424l0.013-0.018l0.004-0.013c1.235-2.24,1.888-4.783,1.888-7.356 C39.25,17.592,35.202,11.826,29.178,9.652z" opacity=".05"/><path d="M29.347,9.262l-0.47-0.17l-0.47-0.17l-0.17,0.47l-0.17,0.47l-0.17,0.471 l-0.17,0.47l-0.17,0.47l0.47,0.17l0.47,0.17c5.235,1.889,8.752,6.899,8.752,12.467c0,1.519-0.27,3.061-0.786,4.499l-0.428-0.304 c0.474-1.355,0.714-2.764,0.714-4.195c0-4.9-2.862-9.424-7.291-11.526l-0.451-0.214l-0.451-0.214l-0.214,0.451l-0.214,0.451 l-0.215,0.452l-0.215,0.452l-0.215,0.452l0.452,0.214l0.452,0.214c3.562,1.689,5.863,5.326,5.863,9.266 c0,0.909-0.119,1.807-0.355,2.677l-2.297-1.628c-0.817-0.579-1.725-0.992-2.697-1.23l-2.703-0.659 c0.016-0.095,0.023-0.188,0.02-0.279l0.477-8.597l0.002-0.04l-0.002-0.08c-0.42-3.972-1.273-5.876-2.69-6.034 c-0.084-0.01-0.171-0.015-0.255-0.015c-0.294,0-0.568,0.056-0.836,0.172C14.689,8.932,8.25,15.831,8.25,24.081v0.5v0.5h0.5h0.5h0.5 h0.5h0.5v-0.5v-0.5c0-6.359,4.608-11.85,10.813-13.013l-0.021,0.504c-5.988,1.164-10.292,6.36-10.292,12.509v0.5v0.5h0.5h0.5h0.5 h0.5h0.5v-0.5v-0.5c0-4.69,3.195-8.765,7.684-9.92l-0.183,4.368l-0.003,0.077l-0.002,0.052l0.009,0.051l0.019,0.112l1.007,3.766 c-0.039,0.001-0.067,0.003-0.081,0.004l-0.111,0.008l-0.11,0.008l-0.097,0.054l-0.097,0.054l-7.739,4.292l-0.055,0.031 l-0.055,0.031l-0.046,0.044l-0.046,0.044l-2.819,2.671c-0.427,0.336-0.69,0.839-0.726,1.369l-0.279,0.169l0.246,0.424l0.25,0.432 c2.888,4.769,7.928,7.611,13.486,7.611c2.516,0,5.02-0.608,7.24-1.759l0.444-0.23l0.444-0.23L31.9,37.17l-0.23-0.444l-0.23-0.444 l-0.23-0.444l-0.23-0.444l-0.444,0.23l-0.444,0.23c-1.865,0.967-3.97,1.479-6.088,1.479c-3.981,0-7.65-1.719-10.159-4.737 l0.478-0.245c2.41,2.814,5.998,4.483,9.68,4.483c2.031,0,4.051-0.489,5.844-1.415l0.443-0.229l0.443-0.229l-0.228-0.444 l-0.228-0.444l-0.229-0.444l-0.229-0.445l-0.229-0.445l-0.445,0.23l-0.445,0.23c-1.461,0.754-3.042,1.137-4.698,1.137 c-2.743,0-5.455-1.173-7.376-3.164l3.85-1.975l0.058-0.03l0.058-0.03l0.048-0.044l0.048-0.044l2.979-2.681l6.147,4.374l0.026,0.019 l0.054,0.034c0.184,0.098,1.593,0.837,2.881,1.033c0.778,0.118,2.128,0.484,2.802,0.681l0.479,0.14l0.476,0.139l0.07-0.232 c0.139-0.032,0.274-0.08,0.403-0.143l0.291,0.164l0.245-0.435l0.227-0.402l0.028-0.039l0.017-0.042 c1.268-2.308,1.938-4.927,1.938-7.575C39.75,17.463,35.569,11.508,29.347,9.262z" opacity=".05"/><path fill="#fff" d="M23.895,9.125c-0.286-0.033-0.517,0.033-0.719,0.148l-0.188,0.011C15.284,9.806,9.25,16.27,9.25,24 h0.5c0-7.354,5.657-13.51,12.946-14.179c-0.115,0.303-0.108,0.59-0.108,0.594l-0.081,1.932C16.653,13.091,12.25,18.081,12.25,24 h0.5c0-5.638,4.174-10.394,9.736-11.143l-0.237,5.671l1.316,4.913l0.132,0.041c0.268,0.083,0.502,0.125,0.703,0.125 c0.314,0,0.546-0.102,0.691-0.306c0.079-0.112,0.132-0.278,0.127-0.415l0.479-8.657C25.573,13.065,25.079,9.257,23.895,9.125z M24.714,22.939c-0.007,0.033-0.023,0.075-0.062,0.105c-0.054,0.042-0.222,0.119-0.675-0.002l-1.225-4.57l0.336-8.056 c-0.004-0.123,0.029-0.48,0.23-0.667c0.121-0.112,0.293-0.154,0.521-0.128c0.524,0.059,1.126,2.457,1.358,4.621L24.714,22.939z"/><path fill="#fff" d="M38.749,24c0-6.198-3.915-11.775-9.742-13.878l-0.17,0.471c5.63,2.032,9.412,7.419,9.412,13.407 c0,2.11-0.469,4.198-1.364,6.091c-0.055-0.075-0.113-0.148-0.193-0.205l-1.868-1.324c0.604-1.437,0.926-2.989,0.926-4.562 c0-4.516-2.638-8.685-6.72-10.622l-0.215,0.452c3.91,1.854,6.435,5.846,6.435,10.17c0,1.469-0.288,2.921-0.84,4.268l-3.391-2.404 c-0.714-0.507-1.508-0.868-2.357-1.075l-3.601-0.877c-0.484-0.119-0.97,0.179-1.088,0.662c-0.079,0.324,0.04,0.641,0.266,0.856 l-0.017,0.024l6.17,4.389c0.057,0.03,1.402,0.74,2.532,0.912c1.072,0.163,2.917,0.705,2.936,0.711l0.002-0.006 c0.101,0.037,0.204,0.061,0.309,0.061c0.282,0,0.56-0.133,0.735-0.38c0.002-0.003,0.003-0.008,0.005-0.011l0.003,0.002 C38.115,28.962,38.75,26.496,38.749,24z M33.001,30.261c-1.038-0.158-2.342-0.843-2.347-0.843l-4.892-3.482l2.474,0.603 c0.628,0.152,1.214,0.419,1.742,0.794l4.613,3.27C34.056,30.468,33.467,30.332,33.001,30.261z"/><path fill="#fff" d="M30.549,36.659C28.542,37.7,26.277,38.25,24,38.25c-4.736,0-9.056-2.282-11.721-6.146 c0.107-0.011,0.216-0.025,0.318-0.077l1.993-1.022c2.216,2.972,5.687,4.746,9.411,4.746c1.871,0,3.734-0.451,5.385-1.303 l-0.229-0.444c-1.604,0.828-3.339,1.248-5.156,1.248c-3.537,0-6.835-1.673-8.959-4.478l4.975-2.552l3.376-3.036 c0.287-0.261,0.358-0.663,0.22-1.002c-0.041-0.136-0.104-0.262-0.21-0.361c-0.387-0.359-1.059-0.321-1.133-0.314l-7.739,4.292 l-2.86,2.71c-0.35,0.253-0.485,0.717-0.288,1.115l-0.008,0.005c2.7,4.459,7.42,7.121,12.626,7.121c2.357,0,4.701-0.569,6.779-1.647 L30.549,36.659z M14.8,28.221l6.678-3.726l-2.39,2.18l-5.778,2.964L14.8,28.221z"/></svg>