<svg xmlns="http://www.w3.org/2000/svg" xmlns:xlink="http://www.w3.org/1999/xlink" viewBox="0,0,256,256" width="128px" height="128px"><g fill="none" fill-rule="nonzero" stroke="none" stroke-width="1" stroke-linecap="butt" stroke-linejoin="miter" stroke-miterlimit="10" stroke-dasharray="" stroke-dashoffset="0" font-family="none" font-weight="none" font-size="none" text-anchor="none" style="mix-blend-mode: normal"><g transform="scale(4,4)"><path transform="translate(-4.68968,9.6701) rotate(-45)" d="M6,5.66h6.61c3.31371,0 6,2.68629 6,6v3.66h-18.61v-3.66c0,-3.31371 2.68629,-6 6,-6z" fill="#e8d6ee"></path><path transform="translate(81.04048,54.56007) rotate(-135)" d="M42.52,5.66h18.6v3.66c0,3.31371 -2.68629,6 -6,6h-6.6c-3.31371,0 -6,-2.68629 -6,-6z" fill="#e8d6ee"></path><path d="M11,63l-2,-1l2,-8l5,3zM51,63l2,-1l-2,-8l-5,3z" fill="#e8d6ee"></path><path d="M31,5c-15.46397,0 -28,12.53603 -28,28c0,15.46397 12.53603,28 28,28c15.46397,0 28,-12.53603 28,-28c0,-15.46397 -12.53603,-28 -28,-28z" fill="#e8d6ee"></path><path d="M12.71,54.29c2.65046,2.52102 5.76921,4.49826 9.18,5.82l34.11,-34.11v-6.43c-1.05621,-1.75012 -2.30024,-3.37976 -3.71,-4.86zM10.76,52.24l39.24,-39.24h-6l-35.78,35.78c0.75715,1.21645 1.6063,2.37316 2.54,3.46zM7.79,45.21l33.21,-33.21l-3,-2l-31.64,31.64c0.39372,1.22157 0.87153,2.41442 1.43,3.57z" fill="#f1e6f4"></path><path d="M31,5c-15.46397,0 -28,12.53603 -28,28c0,15.46397 12.53603,28 28,28c15.46397,0 28,-12.53603 28,-28c0,-15.46397 -12.53603,-28 -28,-28zM31,55c-9.89151,0.00157 -18.56791,-6.59855 -21.20639,-16.13167c-2.63848,-9.53312 1.40975,-19.65504 9.89448,-24.73947c8.48473,-5.08442 19.31956,-3.88108 26.48191,2.94114l0.68,0.67c0.26,0.26667 0.51,0.54 0.75,0.82c5.65876,6.50435 6.99678,15.71456 3.42275,23.56022c-3.57404,7.84566 -11.40137,12.88065 -20.02275,12.87978z" fill="#19e6ac"></path><path d="M31,55c-12.15026,0 -22,-9.84974 -22,-22h-1.66c-1.18747,-0.00401 -2.31534,0.51979 -3.07839,1.42965c-0.76305,0.90987 -1.08239,2.11173 -0.87161,3.28035c2.28563,13.46288 13.94948,23.31343 27.605,23.31343c13.65552,0 25.31937,-9.85054 27.605,-23.31343c0.21047,-1.1669 -0.10762,-2.36703 -0.86841,-3.2765c-0.76079,-0.90947 -1.88587,-1.43454 -3.07159,-1.4335h-1.66c0,12.15026 -9.84974,22 -22,22z" fill="#14b88a"></path><path d="M31,20c0.55228,0 1,-0.44772 1,-1v-2c0,-0.55228 -0.44772,-1 -1,-1c-0.55228,0 -1,0.44772 -1,1v2c0,0.55228 0.44772,1 1,1z" fill="#6930c3"></path><path d="M15,32c-0.55228,0 -1,0.44772 -1,1c0,0.55228 0.44772,1 1,1h2c0.55228,0 1,-0.44772 1,-1c0,-0.55228 -0.44772,-1 -1,-1z" fill="#1b0f24"></path><path d="M48,33c0,-0.55228 -0.44772,-1 -1,-1h-2c-0.55228,0 -1,0.44772 -1,1c0,0.55228 0.44772,1 1,1h2c0.55228,0 1,-0.44772 1,-1z" fill="#6930c3"></path><path d="M30,47v2c0,0.55228 0.44772,1 1,1c0.55228,0 1,-0.44772 1,-1v-2c0,-0.55228 -0.44772,-1 -1,-1c-0.55228,0 -1,0.44772 -1,1z" fill="#1b0f24"></path><path d="M35.87,20.95c0.51085,0.20599 1.0921,-0.03992 1.3,-0.55l0.75,-1.85c0.1682,-0.50103 -0.08252,-1.04643 -0.5723,-1.24499c-0.48979,-0.19856 -1.04952,0.01828 -1.2777,0.49499l-0.75,1.85c-0.20599,0.51085 0.03992,1.0921 0.55,1.3zM45.46,39.92c0.50103,0.1682 1.04643,-0.08252 1.24499,-0.5723c0.19856,-0.48979 -0.01828,-1.04952 -0.49499,-1.2777l-1.85,-0.75c-0.50103,-0.1682 -1.04643,0.08252 -1.24499,0.5723c-0.19856,0.48979 0.01828,1.04952 0.49499,1.2777zM40,22.23c-0.38384,0.39765 -0.37265,1.03116 0.025,1.415c0.39765,0.38384 1.03116,0.37265 1.415,-0.025l1.39,-1.44c0.30981,-0.40351 0.2673,-0.9753 -0.09876,-1.32856c-0.36606,-0.35326 -0.939,-0.3754 -1.33124,-0.05144zM41.77,42c-0.39765,-0.38384 -1.03116,-0.37265 -1.415,0.025c-0.38384,0.39765 -0.37265,1.03116 0.025,1.415l1.44,1.39c0.40351,0.30981 0.9753,0.2673 1.32856,-0.09876c0.35326,-0.36606 0.3754,-0.939 0.05144,-1.33124zM45.21,25.58l-1.83,0.81c-0.50534,0.22368 -0.73368,0.81466 -0.51,1.32c0.22368,0.50534 0.81466,0.73368 1.32,0.51l1.81,-0.81c0.50534,-0.22368 0.73368,-0.81466 0.51,-1.32c-0.22368,-0.50534 -0.81466,-0.73368 -1.32,-0.51z" fill="#6930c3"></path><path d="M38.5,41.5c0.40627,0.00236 0.77358,-0.2413 0.92937,-0.61652c0.15579,-0.37521 0.06909,-0.80739 -0.21937,-1.09348l-6.28,-6.28c0.24722,-0.86921 -0.13845,-1.794 -0.93,-2.23v-8.28c0,-0.55228 -0.44772,-1 -1,-1c-0.55228,0 -1,0.44772 -1,1v8.28c-0.83767,0.51418 -1.17757,1.56082 -0.80184,2.46906c0.37574,0.90824 1.35573,1.40884 2.31184,1.18094l6.28,6.28c0.18872,0.18719 0.4442,0.29154 0.71,0.29z" fill="#1b0f24"></path><path d="M52.11,52.85c8.4972,-9.00226 10.32247,-22.4144 4.54,-33.36l1.13,-1.13c1.31291,-1.31278 2.05051,-3.09336 2.05051,-4.95c0,-1.85664 -0.7376,-3.63722 -2.05051,-4.95l-1.67,-1.66l0.89,-0.8c0.33978,-0.39676 0.31693,-0.98819 -0.05244,-1.35756c-0.36937,-0.36937 -0.9608,-0.39221 -1.35756,-0.05244l-0.84,0.84l-1.21,-1.21c-1.31278,-1.31291 -3.09336,-2.05051 -4.95,-2.05051c-1.85664,0 -3.63722,0.7376 -4.95,2.05051l-1.87,1.86c-7.19719,-2.89063 -15.25403,-2.76812 -22.36,0.34l-2.2,-2.2c-1.31278,-1.31291 -3.09336,-2.05051 -4.95,-2.05051c-1.85664,0 -3.63722,0.7376 -4.95,2.05051l-1.59,1.59l-1.07,-1.08c-0.39212,-0.39212 -1.02788,-0.39212 -1.42,0c-0.39212,0.39212 -0.39212,1.02788 0,1.42l1.08,1.07l-1.24,1.24c-1.31291,1.31278 -2.05051,3.09336 -2.05051,4.95c0,1.85664 0.7376,3.63722 2.05051,4.95l1.65,1.64c0.0796,0.0743 0.1708,0.1351 0.27,0.18c-5.3545,10.84059 -3.39999,23.868 4.9,32.66l-2.22,7.69c-0.34864,1.19401 0.1571,2.4724 1.22827,3.10472c1.07117,0.63232 2.43479,0.45744 3.31173,-0.42472l4.5,-4.5c0.11,-0.11 0.31,-0.31 0.35,-0.29c8.67207,4.76425 19.17793,4.76425 27.85,0c0.05,0 0.28,0.17 0.38,0.27l4.5,4.5c0.87694,0.88216 2.24056,1.05704 3.31173,0.42472c1.07117,-0.63232 1.57691,-1.91071 1.22827,-3.10472zM45.05,5.64c1.9525,-1.95191 5.1175,-1.95191 7.07,0l4.24,4.24c1.95191,1.9525 1.95191,5.1175 0,7.07l-0.75,0.75c-2.88741,-4.60246 -7.00165,-8.30804 -11.88,-10.7zM4.48,16.95c-1.95191,-1.9525 -1.95191,-5.1175 0,-7.07l4.25,-4.24c1.9525,-1.95191 5.1175,-1.95191 7.07,0l1.7,1.7c-4.80682,2.54551 -8.80711,6.38302 -11.55,11.08zM10.8,61.79c-0.15107,0.14287 -0.35527,0.2156 -0.56264,0.20038c-0.20737,-0.01522 -0.39877,-0.11698 -0.52736,-0.28038c-0.13797,-0.17894 -0.18253,-0.41287 -0.12,-0.63l1.91,-6.63c1.17006,1.05983 2.42418,2.02299 3.75,2.88zM4,33c0,-14.91169 12.08831,-27 27,-27c14.91169,0 27,12.08831 27,27c0,14.91169 -12.08831,27 -27,27c-14.91169,0 -27,-12.08831 -27,-27zM52.29,61.71c-0.12859,0.1634 -0.31999,0.26516 -0.52736,0.28038c-0.20737,0.01522 -0.41158,-0.05751 -0.56264,-0.20038l-4.46,-4.46c1.32582,-0.85701 2.57994,-1.82017 3.75,-2.88l1.91,6.63c0.06534,0.21556 0.02452,0.44934 -0.11,0.63z" fill="#1b0f24"></path><path d="M31,56c-12.70255,0 -23,-10.29745 -23,-23c0,-12.70255 10.29745,-23 23,-23c1.12433,-0.00128 2.24727,0.07893 3.36,0.24c0.55228,0.08008 0.93508,0.59272 0.855,1.145c-0.08008,0.55228 -0.59272,0.93508 -1.145,0.855c-8.68191,-1.28299 -17.24607,2.9682 -21.47335,10.65922c-4.22727,7.69102 -3.22605,17.19971 2.51041,23.84159c5.73646,6.64188 14.99825,9.01608 23.22253,5.95294c8.22428,-3.06314 13.67642,-10.91755 13.6704,-19.69374c0.02496,-6.44602 -2.92735,-12.54256 -8,-16.52c-0.43354,-0.34242 -0.50742,-0.97146 -0.165,-1.405c0.34242,-0.43354 0.97146,-0.50742 1.405,-0.165c7.71808,6.06007 10.74131,16.34947 7.52807,25.62138c-3.21324,9.27191 -11.95517,15.48402 -21.76807,15.46862z" fill="#1b0f24"></path><path d="M41,14.4c-0.15992,0.00064 -0.31767,-0.03708 -0.46,-0.11c-0.74931,-0.37922 -1.5207,-0.71316 -2.31,-1c-0.51915,-0.19054 -0.78554,-0.76585 -0.595,-1.285c0.19054,-0.51915 0.76585,-0.78554 1.285,-0.595c0.86489,0.31879 1.70975,0.68946 2.53,1.11c0.39922,0.21516 0.60368,0.67203 0.49811,1.11308c-0.10557,0.44105 -0.49473,0.75584 -0.94811,0.76692z" fill="#1b0f24"></path></g></g></svg>