<svg xmlns="http://www.w3.org/2000/svg" xmlns:xlink="http://www.w3.org/1999/xlink" viewBox="0,0,256,256" width="128px" height="128px"><g fill="none" fill-rule="nonzero" stroke="none" stroke-width="1" stroke-linecap="butt" stroke-linejoin="miter" stroke-miterlimit="10" stroke-dasharray="" stroke-dashoffset="0" font-family="none" font-weight="none" font-size="none" text-anchor="none" style="mix-blend-mode: normal"><g transform="scale(4,4)"><path d="M31,3c-15.46397,0 -28,12.53603 -28,28c0,15.46397 12.53603,28 28,28c15.46397,0 28,-12.53603 28,-28c0,-15.46397 -12.53603,-28 -28,-28z" fill="#6930c3"></path><path d="M12.71,52.29c2.65046,2.52102 5.76921,4.49826 9.18,5.82l34.11,-34.11v-6.43c-1.05621,-1.75012 -2.30024,-3.37976 -3.71,-4.86zM10.76,50.24l39.24,-39.24h-6l-35.78,35.78c0.75715,1.21645 1.6063,2.37316 2.54,3.46zM7.79,43.21l33.21,-33.21l-3,-2l-31.64,31.64c0.39372,1.22157 0.87153,2.41442 1.43,3.57z" fill="#7845c9"></path><path d="M31,3c-15.46397,0 -28,12.53603 -28,28c0,15.46397 12.53603,28 28,28c15.46397,0 28,-12.53603 28,-28c0,-15.46397 -12.53603,-28 -28,-28zM31,53c-9.89151,0.00157 -18.56791,-6.59855 -21.20639,-16.13167c-2.63848,-9.53312 1.40975,-19.65504 9.89448,-24.73947c8.48473,-5.08442 19.31956,-3.88108 26.48191,2.94114l0.68,0.67c0.26,0.26667 0.51,0.54 0.75,0.82c5.65876,6.50435 6.99678,15.71456 3.42275,23.56022c-3.57404,7.84566 -11.40137,12.88065 -20.02275,12.87978z" fill="#7845c9"></path><path d="M31,53c-12.15026,0 -22,-9.84974 -22,-22h-1.66c-1.18747,-0.00401 -2.31534,0.51979 -3.07839,1.42965c-0.76305,0.90987 -1.08239,2.11173 -0.87161,3.28035c2.28563,13.46288 13.94948,23.31343 27.605,23.31343c13.65552,0 25.31937,-9.85054 27.605,-23.31343c0.21047,-1.1669 -0.10762,-2.36703 -0.86841,-3.2765c-0.76079,-0.90947 -1.88587,-1.43454 -3.07159,-1.4335h-1.66c0,12.15026 -9.84974,22 -22,22z" fill="#6930c3"></path><path d="M28,43h6l-8.67,-10h17.67v-4h-17.67l8.67,-10h-6l-10,12z" fill="#e8d6ee"></path><path d="M31,2c-16.01626,0 -29,12.98374 -29,29c0,16.01626 12.98374,29 29,29c16.01626,0 29,-12.98374 29,-29c0,-16.01626 -12.98374,-29 -29,-29zM31,58c-14.91169,0 -27,-12.08831 -27,-27c0,-14.91169 12.08831,-27 27,-27c14.91169,0 27,12.08831 27,27c0,14.91169 -12.08831,27 -27,27z" fill="#1b0f24"></path><path d="M31,50c-0.55228,0 -1,0.44772 -1,1v2c0,0.55228 0.44772,1 1,1c0.55228,0 1,-0.44772 1,-1v-2c0,-0.55228 -0.44772,-1 -1,-1zM37,50.08c-0.15796,-0.51527 -0.69585,-0.81268 -1.21624,-0.67247c-0.52039,0.14021 -0.83605,0.66758 -0.71376,1.19247l0.52,1.93c0.14636,0.53572 0.69928,0.85136 1.235,0.705c0.53572,-0.14636 0.85136,-0.69928 0.705,-1.235zM21.75,47.52c-0.23052,-0.13355 -0.50481,-0.16958 -0.762,-0.10012c-0.2572,0.06946 -0.47605,0.23868 -0.608,0.47012l-1,1.73c-0.2484,0.47485 -0.07832,1.06111 0.38564,1.32929c0.46396,0.26819 1.05686,0.12296 1.34436,-0.32929l1,-1.73c0.13437,-0.22931 0.17194,-0.50268 0.10439,-0.75973c-0.06755,-0.25705 -0.23464,-0.47664 -0.46439,-0.61027zM41.62,47.89c-0.2875,-0.45225 -0.8804,-0.59748 -1.34436,-0.32929c-0.46396,0.26819 -0.63404,0.85444 -0.38564,1.32929l1,1.73c0.17026,0.32548 0.50526,0.53141 0.87255,0.53638c0.36729,0.00497 0.70774,-0.19182 0.88675,-0.51257c0.17901,-0.32075 0.16776,-0.71382 -0.0293,-1.02381zM26.21,49.37c-0.5328,-0.13972 -1.07828,0.17772 -1.22,0.71l-0.52,1.92c-0.10711,0.34939 -0.0151,0.72939 0.23998,0.99109c0.25508,0.2617 0.63259,0.36341 0.98462,0.26529c0.35202,-0.09813 0.62249,-0.38046 0.70541,-0.73637l0.52,-1.93c0.13972,-0.5328 -0.17772,-1.07828 -0.71,-1.22zM38.35,11.32c0.71616,0.26838 1.41719,0.5755 2.1,0.92c0.13932,0.07138 0.29346,0.10906 0.45,0.11c0.46084,-0.00273 0.86014,-0.32005 0.96688,-0.76836c0.10674,-0.44832 -0.10672,-0.91153 -0.51688,-1.12164c-0.74766,-0.37544 -1.5155,-0.70929 -2.3,-1c-0.50623,-0.15711 -1.04712,0.10807 -1.23294,0.60449c-0.18582,0.49641 0.04797,1.05158 0.53294,1.26551zM16.15,16.15c4.77413,-4.75612 11.53524,-6.94168 18.19,-5.88c0.55228,0.08837 1.07163,-0.28772 1.16,-0.84c0.08837,-0.55228 -0.28772,-1.07163 -0.84,-1.16c-9.86117,-1.60342 -19.62969,3.34258 -24.17414,12.23985c-4.54445,8.89727 -2.8254,19.71077 4.25414,26.76015c0.39676,0.33978 0.98819,0.31693 1.35756,-0.05244c0.36937,-0.36937 0.39221,-0.9608 0.05244,-1.35756c-3.94179,-3.93873 -6.15652,-9.28263 -6.15652,-14.855c0,-5.57237 2.21473,-10.91627 6.15652,-14.855zM47.26,14.74c-0.65855,-0.66155 -1.35649,-1.28268 -2.09,-1.86c-0.27721,-0.25267 -0.67251,-0.32897 -1.02384,-0.19762c-0.35133,0.13135 -0.59962,0.44827 -0.64307,0.82083c-0.04345,0.37256 0.12524,0.73811 0.43691,0.94679c0.67018,0.52785 1.308,1.09554 1.91,1.7c3.93873,3.93833 6.15152,9.28008 6.15152,14.85c0,5.56992 -2.21279,10.91167 -6.15152,14.85c-0.28538,0.24439 -0.40968,0.62812 -0.32181,0.99342c0.08787,0.3653 0.37309,0.65052 0.73839,0.73839c0.3653,0.08787 0.74903,-0.03643 0.99342,-0.32181c8.97745,-8.98127 8.97745,-23.53873 0,-32.52z" fill="#1b0f24"></path><path d="M43,28h-15.48l7.23,-8.34c0.25906,-0.29488 0.32165,-0.71404 0.16004,-1.07173c-0.16161,-0.35769 -0.51753,-0.58777 -0.91004,-0.58827h-6c-0.29743,-0.00048 -0.57964,0.13146 -0.77,0.36l-10,12c-0.30883,0.37078 -0.30883,0.90922 0,1.28l10,12c0.19036,0.22854 0.47257,0.36048 0.77,0.36h6c0.39432,0.00346 0.75385,-0.22514 0.91801,-0.58368c0.16415,-0.35854 0.10227,-0.78008 -0.15801,-1.07632l-7.24,-8.34h15.48c0.55228,0 1,-0.44772 1,-1v-4c0,-0.55228 -0.44772,-1 -1,-1zM42,32h-16.67c-0.39432,-0.00346 -0.75385,0.22514 -0.91801,0.58368c-0.16415,0.35854 -0.10227,0.78008 0.15801,1.07632l7.24,8.34h-3.34l-9.17,-11l9.17,-11h3.34l-7.23,8.34c-0.25906,0.29488 -0.32165,0.71404 -0.16004,1.07173c0.16161,0.35769 0.51753,0.58777 0.91004,0.58827h16.67z" fill="#1b0f24"></path></g></g></svg>