<svg
  xmlns="http://www.w3.org/2000/svg"
  viewBox="0 0 64 64"
  width="64px"
  height="64px"
  style="fill: currentColor;"
><path
    d="M 18 14 C 17.746094 14 17.488281 14.097656 17.292969 14.292969 L 0.292969 31.292969 C -0.0976563 31.683594 -0.0976563 32.316406 0.292969 32.707031 L 17.292969 49.707031 C 17.488281 49.902344 17.742188 50 18 50 C 18.257813 50 18.511719 49.902344 18.707031 49.707031 L 22.707031 45.707031 C 23.097656 45.316406 23.097656 44.683594 22.707031 44.292969 L 14.414063 36 L 63 36 C 63.550781 36 64 35.550781 64 35 L 64 29 C 64 28.449219 63.550781 28 63 28 L 14.414063 28 L 22.707031 19.707031 C 23.097656 19.316406 23.097656 18.683594 22.707031 18.292969 L 18.707031 14.292969 C 18.511719 14.097656 18.253906 14 18 14 Z M 18 16.414063 L 20.585938 19 L 11.292969 28.292969 C 11.007813 28.578125 10.921875 29.007813 11.078125 29.382813 C 11.230469 29.753906 11.597656 30 12 30 L 62 30 L 62 34 L 12 34 C 11.597656 34 11.230469 34.246094 11.078125 34.617188 C 10.921875 34.992188 11.007813 35.421875 11.292969 35.707031 L 20.585938 45 L 18 47.585938 L 2.414063 32 Z M 23 38 C 22.449219 38 22 38.449219 22 39 L 22 41 C 22 41.550781 22.449219 42 23 42 C 23.550781 42 24 41.550781 24 41 L 24 39 C 24 38.449219 23.550781 38 23 38 Z M 28 38 C 27.449219 38 27 38.449219 27 39 L 27 41 C 27 41.550781 27.449219 42 28 42 C 28.550781 42 29 41.550781 29 41 L 29 39 C 29 38.449219 28.550781 38 28 38 Z M 33 38 C 32.449219 38 32 38.449219 32 39 L 32 41 C 32 41.550781 32.449219 42 33 42 C 33.550781 42 34 41.550781 34 41 L 34 39 C 34 38.449219 33.550781 38 33 38 Z M 38 38 C 37.449219 38 37 38.449219 37 39 L 37 41 C 37 41.550781 37.449219 42 38 42 C 38.550781 42 39 41.550781 39 41 L 39 39 C 39 38.449219 38.550781 38 38 38 Z M 43 38 C 42.449219 38 42 38.449219 42 39 L 42 41 C 42 41.550781 42.449219 42 43 42 C 43.550781 42 44 41.550781 44 41 L 44 39 C 44 38.449219 43.550781 38 43 38 Z M 48 38 C 47.449219 38 47 38.449219 47 39 L 47 41 C 47 41.550781 47.449219 42 48 42 C 48.550781 42 49 41.550781 49 41 L 49 39 C 49 38.449219 48.550781 38 48 38 Z M 53 38 C 52.449219 38 52 38.449219 52 39 L 52 41 C 52 41.550781 52.449219 42 53 42 C 53.550781 42 54 41.550781 54 41 L 54 39 C 54 38.449219 53.550781 38 53 38 Z M 58 38 C 57.449219 38 57 38.449219 57 39 L 57 41 C 57 41.550781 57.449219 42 58 42 C 58.550781 42 59 41.550781 59 41 L 59 39 C 59 38.449219 58.550781 38 58 38 Z M 63 38 C 62.449219 38 62 38.449219 62 39 L 62 41 C 62 41.550781 62.449219 42 63 42 C 63.550781 42 64 41.550781 64 41 L 64 39 C 64 38.449219 63.550781 38 63 38 Z"
  /></svg>
