<svg xmlns="http://www.w3.org/2000/svg" xmlns:xlink="http://www.w3.org/1999/xlink" viewBox="0,0,256,256" width="64px" height="64px" fill-rule="nonzero"><g fill="none" fill-rule="nonzero" stroke="none" stroke-width="1" stroke-linecap="butt" stroke-linejoin="miter" stroke-miterlimit="10" stroke-dasharray="" stroke-dashoffset="0" font-family="none" font-weight="none" font-size="none" text-anchor="none" style="mix-blend-mode: normal"><g transform="scale(4,4)"><path d="M31,5c-15.46397,0 -28,12.53603 -28,28c0,15.46397 12.53603,28 28,28c15.46397,0 28,-12.53603 28,-28c0,-15.46397 -12.53603,-28 -28,-28z" fill="#c86bfa"></path><path d="M12.71,54.29c2.65046,2.52102 5.76921,4.49826 9.18,5.82l34.11,-34.11v-6.43c-1.05621,-1.75012 -2.30024,-3.37976 -3.71,-4.86zM10.76,52.24l39.24,-39.24h-6l-35.78,35.78c0.75715,1.21645 1.6063,2.37316 2.54,3.46zM7.79,45.21l33.21,-33.21l-3,-2l-31.64,31.64c0.39372,1.22157 0.87153,2.41442 1.43,3.57z" fill="#d184fb"></path><path d="M31,5c-15.46397,0 -28,12.53603 -28,28c0,15.46397 12.53603,28 28,28c15.46397,0 28,-12.53603 28,-28c0,-15.46397 -12.53603,-28 -28,-28zM31,55c-9.89151,0.00157 -18.56791,-6.59855 -21.20639,-16.13167c-2.63848,-9.53312 1.40975,-19.65504 9.89448,-24.73947c8.48473,-5.08442 19.31956,-3.88108 26.48191,2.94114l0.68,0.67c0.26,0.26667 0.51,0.54 0.75,0.82c5.65876,6.50435 6.99678,15.71456 3.42275,23.56022c-3.57404,7.84566 -11.40137,12.88065 -20.02275,12.87978z" fill="#f5edf8"></path><path d="M31,55c-12.15026,0 -22,-9.84974 -22,-22h-1.66c-1.18747,-0.00401 -2.31534,0.51979 -3.07839,1.42965c-0.76305,0.90987 -1.08239,2.11173 -0.87161,3.28035c2.28563,13.46288 13.94948,23.31343 27.605,23.31343c13.65552,0 25.31937,-9.85054 27.605,-23.31343c0.21047,-1.1669 -0.10762,-2.36703 -0.86841,-3.2765c-0.76079,-0.90947 -1.88587,-1.43454 -3.07159,-1.4335h-1.66c0,12.15026 -9.84974,22 -22,22z" fill="#e8d6ee"></path><path d="M58,9l-27,27l-11,-11l-4,4l11,11l4,4l4,-4l27,-27z" fill="#14b88a"></path><path d="M31,39.08c-0.66371,0.00229 -1.30087,-0.26049 -1.77,-0.73l-11.29,-11.29l2.12,-2.12l10.94,10.94l26.94,-26.94l2.12,2.12l-27.29,27.29c-0.46913,0.46951 -1.10629,0.73229 -1.77,0.73z" fill="#19e6ac"></path><path d="M38.35,13.32c0.71608,0.26856 1.41711,0.57568 2.1,0.92c0.49429,0.24853 1.09647,0.04929 1.345,-0.445c0.24853,-0.49429 0.04929,-1.09647 -0.445,-1.345c-0.74776,-0.37524 -1.51558,-0.70908 -2.3,-1c-0.33939,-0.14971 -0.73376,-0.09926 -1.02452,0.13107c-0.29077,0.23033 -0.43015,0.60268 -0.3621,0.96732c0.06805,0.36464 0.33235,0.66166 0.68662,0.77161z" fill="#1b0f24"></path><path d="M62.71,12.29l-4,-4c-0.39004,-0.38772 -1.01996,-0.38772 -1.41,0l-5.07,5.07c-0.04984,-0.13517 -0.1283,-0.25797 -0.23,-0.36c-5.45556,-5.77303 -13.05707,-9.03082 -21,-9c-13.0031,-0.00665 -24.42108,8.6428 -27.93552,21.16196c-3.51444,12.51916 1.73389,25.84726 12.84071,32.60887c11.10682,6.76161 25.35663,5.3036 34.86398,-3.5672c9.50734,-8.8708 11.94778,-22.9856 5.97084,-34.53362l6,-6c0.35998,-0.39426 0.34677,-1.00176 -0.03,-1.38zM58,33c0,14.91169 -12.08831,27 -27,27c-14.91169,0 -27,-12.08831 -27,-27c0,-14.91169 12.08831,-27 27,-27c7.40304,-0.03073 14.48804,3.00673 19.57,8.39c0.10969,0.10909 0.24319,0.19124 0.39,0.24l-3,3c-0.04461,-0.12194 -0.11254,-0.23403 -0.2,-0.33l-0.52,-0.53c-0.65886,-0.66122 -1.35678,-1.28233 -2.09,-1.86c-0.27721,-0.25267 -0.67251,-0.32897 -1.02384,-0.19762c-0.35133,0.13135 -0.59962,0.44827 -0.64307,0.82083c-0.04345,0.37256 0.12524,0.73811 0.43691,0.94679c0.67006,0.528 1.30787,1.09568 1.91,1.7l0.47,0.49c0.10578,0.11142 0.23581,0.19696 0.38,0.25l-15.68,15.67l-10.29,-10.3c-0.39004,-0.38772 -1.01996,-0.38772 -1.41,0l-4,4c-0.38772,0.39004 -0.38772,1.01996 0,1.41l15,15c0.39004,0.38772 1.01996,0.38772 1.41,0l19,-19l0.19,0.54c0.1,0.3 0.19333,0.6 0.28,0.9c0,0.13 0.08,0.26 0.11,0.39c0.12,0.45333 0.22333,0.91 0.31,1.37v0.23c0.81258,4.48559 0.16045,9.11361 -1.86,13.2c-0.1,0.21 -0.21,0.41 -0.31,0.62c-0.1,0.21 -0.34,0.62 -0.52,0.92c-0.18,0.3 -0.34,0.54 -0.52,0.81c-0.18,0.27 -0.3,0.47 -0.47,0.7c-0.34667,0.47333 -0.71,0.93 -1.09,1.37l-0.43,0.46c-3.90926,4.25765 -9.40455,6.71004 -15.1843,6.77632c-5.77975,0.06628 -11.32983,-2.25944 -15.3357,-6.42632c-0.25,-0.26 -0.49,-0.53 -0.72,-0.8c-0.23,-0.27 -0.48,-0.55 -0.7,-0.83c-0.22,-0.28 -0.33,-0.44 -0.49,-0.67c-0.16,-0.23 -0.51,-0.7 -0.74,-1.07c-0.1,-0.17 -0.2,-0.34 -0.3,-0.5c-0.25,-0.43 -0.5,-0.86 -0.72,-1.3c-0.07,-0.14 -0.13,-0.28 -0.19,-0.41c-0.22,-0.47 -0.44,-0.95 -0.62,-1.43c-0.06,-0.16 -0.11,-0.33 -0.17,-0.49c-0.16,-0.46 -0.32,-0.92 -0.45,-1.38c-0.07,-0.25 -0.12,-0.51 -0.19,-0.76c-0.07,-0.25 -0.18,-0.75 -0.26,-1.14c-0.08,-0.39 -0.12,-0.76 -0.16,-1.14c-0.04,-0.38 -0.08,-0.53 -0.1,-0.8c0,-0.48 -0.06,-1 -0.07,-1.44c0,-0.18 0,-0.36 0,-0.53c0,-0.52 0,-1 0.07,-1.55c0,-0.15 0,-0.31 0,-0.46c0,-0.49 0.13,-1 0.21,-1.47c0,-0.19 0.06,-0.39 0.1,-0.58c0.09,-0.42 0.2,-0.84 0.31,-1.26c0.07,-0.27 0.14,-0.53 0.22,-0.8c0.08,-0.27 0.23,-0.69 0.36,-1c0.13,-0.31 0.25,-0.67 0.39,-1c0.14,-0.33 0.31,-0.69 0.48,-1c0.17,-0.31 0.22,-0.45 0.34,-0.67c0.22,-0.42 0.47,-0.82 0.72,-1.23c0.09,-0.14 0.17,-0.29 0.26,-0.42c0.35333,-0.53333 0.73333,-1.05333 1.14,-1.56l0.31,-0.36c0.32,-0.38 0.66,-0.76 1,-1.12c0.34,-0.36 0.46,-0.46 0.7,-0.68l0.31,-0.29c0.36,-0.32667 0.73333,-0.64 1.12,-0.94l0.4,-0.29l0.8,-0.57l0.55,-0.36l0.7,-0.41c0.41333,-0.23333 0.83,-0.45333 1.25,-0.66l0.46,-0.23l0.9,-0.38l0.38,-0.15c0.33,-0.12 0.66,-0.24 1,-0.35v0c0.76773,-0.24779 1.549,-0.45146 2.34,-0.61v0c0.37,-0.07 0.74,-0.14 1.12,-0.19h0.24c1.09091,-0.18006 2.19434,-0.27369 3.3,-0.28h0.64l0.79,0.05l1.08,0.13h0.36c0.26267,0.04322 0.53174,-0.02008 0.74759,-0.17587c0.21586,-0.15579 0.36069,-0.39122 0.40241,-0.65413v0c0.04322,-0.26267 -0.02008,-0.53174 -0.17587,-0.74759c-0.15579,-0.21586 -0.39122,-0.36069 -0.65413,-0.40241h-0.37c-0.4,-0.06 -0.8,-0.11 -1.21,-0.14l-0.84,-0.06h-0.77c-1.11957,-0.02238 -2.23927,0.03778 -3.35,0.18l-0.44,0.06l-1.09,0.18l-0.33,0.07c-0.66667,0.14 -1.33333,0.31333 -2,0.52l-0.43,0.13l-0.9,0.32l-0.66,0.26l-0.77,0.33c-0.45,0.2 -0.89,0.42 -1.32,0.65l-0.43,0.24c-0.35333,0.19333 -0.68667,0.4 -1,0.62l-0.45,0.29c-0.37333,0.24667 -0.74,0.50667 -1.1,0.78l-0.25,0.18c-0.44667,0.34667 -0.88333,0.71 -1.31,1.09l-0.2,0.19c-0.22,0.21 -0.45,0.41 -0.67,0.63l-0.22,0.25c-0.35,0.36 -0.69,0.75 -1,1.14c-0.14,0.16 -0.28,0.31 -0.41,0.47c-0.43,0.54 -0.85,1.1 -1.23,1.68c-0.11,0.17 -0.21,0.35 -0.32,0.53c-0.26,0.42 -0.52,0.85 -0.76,1.29c-0.13,0.25 -0.25,0.5 -0.38,0.75c-0.13,0.25 -0.26,0.49 -0.38,0.75c-0.12,0.26 -0.17,0.41 -0.25,0.61l-0.1,0.24c-0.26,0.66667 -0.49,1.33333 -0.69,2v0.06c-0.83692,2.82585 -1.11877,5.78701 -0.83,8.72v0c0.06667,0.66667 0.16667,1.35 0.3,2.05l0.06,0.28c0.12,0.59333 0.26333,1.18333 0.43,1.77l0.15,0.51c0.16,0.51 0.34,1 0.53,1.52c0.08,0.21 0.17,0.43 0.26,0.64c0.2,0.46667 0.41333,0.92667 0.64,1.38l0.33,0.63c0.25333,0.46667 0.52333,0.92333 0.81,1.37l0.33,0.51c0.33333,0.5 0.69,0.98333 1.07,1.45l0.25,0.31c0.44,0.53333 0.90333,1.04667 1.39,1.54l0.08,0.08v0c4.28576,4.29301 10.09397,6.71909 16.16,6.75c6.10541,-0.00545 11.96104,-2.42463 16.29,-6.73v0l0.23,-0.24c0.32,-0.33 0.63,-0.66 0.94,-1l0.2,-0.24c0.31,-0.37 0.61,-0.75 0.9,-1.14l0.09,-0.14c3.71661,-5.09237 5.16413,-11.49402 4,-17.69v-0.26c-0.1,-0.5 -0.21,-1 -0.34,-1.5c0,-0.14 -0.08,-0.28 -0.12,-0.42c-0.1,-0.33 -0.2,-0.67 -0.31,-1c-0.11,-0.33 -0.15,-0.43 -0.23,-0.64c-0.08,-0.21 -0.21,-0.53 -0.32,-0.8l3,-3c1.76914,3.68142 2.68195,7.71557 2.67,11.8zM31,42.59l-13.59,-13.59l2.59,-2.59l10.29,10.3c0.39004,0.38772 1.01996,0.38772 1.41,0l26.3,-26.3l2.59,2.59z" fill="#1b0f24"></path></g></g></svg>