<svg xmlns="http://www.w3.org/2000/svg" xmlns:xlink="http://www.w3.org/1999/xlink" viewBox="0,0,256,256" width="64px" height="64px" fill-rule="nonzero"><g fill="none" fill-rule="nonzero" stroke="none" stroke-width="1" stroke-linecap="butt" stroke-linejoin="miter" stroke-miterlimit="10" stroke-dasharray="" stroke-dashoffset="0" font-family="none" font-weight="none" font-size="none" text-anchor="none" style="mix-blend-mode: normal"><g transform="scale(4,4)"><path d="M58,13l-34,34l-16,-16l-4,4l16,16l4,4l4,-4l34,-34z" fill="#19e6ac"></path><path d="M24,50.08c-0.66371,0.00229 -1.30087,-0.26049 -1.77,-0.73l-16.29,-16.29l2.12,-2.12l15.94,15.94l33.94,-33.94l2.12,2.12l-34.29,34.29c-0.46913,0.46951 -1.10629,0.73229 -1.77,0.73z" fill="#73e9c7"></path><path d="M62.71,16.29l-4,-4c-0.39004,-0.38772 -1.01996,-0.38772 -1.41,0l-33.3,33.3l-15.29,-15.3c-0.39004,-0.38772 -1.01996,-0.38772 -1.41,0l-4,4c-0.38772,0.39004 -0.38772,1.01996 0,1.41l20,20c0.39004,0.38772 1.01996,0.38772 1.41,0l38,-38c0.38772,-0.39004 0.38772,-1.01996 0,-1.41zM24,53.59l-18.59,-18.59l2.59,-2.59l15.29,15.3c0.39004,0.38772 1.01996,0.38772 1.41,0l33.3,-33.3l2.59,2.59z" fill="#423949"></path><path d="M23.93,38.49c0.39676,0.33978 0.98819,0.31693 1.35756,-0.05244c0.36937,-0.36937 0.39221,-0.9608 0.05244,-1.35756l-1.41,-1.41c-0.39676,-0.33978 -0.98819,-0.31693 -1.35756,0.05244c-0.36937,0.36937 -0.39221,0.9608 -0.05244,1.35756zM27.46,34.95c0.39676,0.33978 0.98819,0.31693 1.35756,-0.05244c0.36937,-0.36937 0.39221,-0.9608 0.05244,-1.35756l-1.41,-1.41c-0.39676,-0.33978 -0.98819,-0.31693 -1.35756,0.05244c-0.36937,0.36937 -0.39221,0.9608 -0.05244,1.35756zM31,31.41c0.39676,0.33978 0.98819,0.31693 1.35756,-0.05244c0.36937,-0.36937 0.39221,-0.9608 0.05244,-1.35756l-1.41,-1.41c-0.39676,-0.33978 -0.98819,-0.31693 -1.35756,0.05244c-0.36937,0.36937 -0.39221,0.9608 -0.05244,1.35756zM34.54,27.88c0.39676,0.33978 0.98819,0.31693 1.35756,-0.05244c0.36937,-0.36937 0.39221,-0.9608 0.05244,-1.35756l-1.41,-1.41c-0.39676,-0.33978 -0.98819,-0.31693 -1.35756,0.05244c-0.36937,0.36937 -0.39221,0.9608 -0.05244,1.35756zM38.07,24.34c0.39676,0.33978 0.98819,0.31693 1.35756,-0.05244c0.36937,-0.36937 0.39221,-0.9608 0.05244,-1.35756l-1.41,-1.41c-0.39676,-0.33978 -0.98819,-0.31693 -1.35756,0.05244c-0.36937,0.36937 -0.39221,0.9608 -0.05244,1.35756zM41.61,20.81c0.4013,0.3121 0.97291,0.27344 1.32853,-0.08986c0.35562,-0.3633 0.38207,-0.9356 0.06147,-1.33014l-1.39,-1.39c-0.39676,-0.33978 -0.98819,-0.31693 -1.35756,0.05244c-0.36937,0.36937 -0.39221,0.9608 -0.05244,1.35756zM45.14,17.27c0.38936,0.39212 1.02288,0.39436 1.415,0.005c0.39212,-0.38936 0.39436,-1.02288 0.005,-1.415l-1.41,-1.42c-0.38936,-0.39212 -1.02288,-0.39436 -1.415,-0.005c-0.39212,0.38936 -0.39436,1.02288 -0.005,1.415zM48.68,13.74c0.39676,0.33978 0.98819,0.31693 1.35756,-0.05244c0.36937,-0.36937 0.39221,-0.9608 0.05244,-1.35756l-1.41,-1.41c-0.39676,-0.33978 -0.98819,-0.31693 -1.35756,0.05244c-0.36937,0.36937 -0.39221,0.9608 -0.05244,1.35756zM52.14,10.27c0.38936,0.39212 1.02288,0.39436 1.415,0.005c0.39212,-0.38936 0.39436,-1.02288 0.005,-1.415l-1.42,-1.42c-0.38936,-0.39212 -1.02288,-0.39436 -1.415,-0.005c-0.39212,0.38936 -0.39436,1.02288 -0.005,1.415z" fill="#423949"></path></g></g></svg>