<svg xmlns="http://www.w3.org/2000/svg" xmlns:xlink="http://www.w3.org/1999/xlink" viewBox="0,0,256,256" width="128px" height="128px"><g fill="none" fill-rule="nonzero" stroke="none" stroke-width="1" stroke-linecap="butt" stroke-linejoin="miter" stroke-miterlimit="10" stroke-dasharray="" stroke-dashoffset="0" font-family="none" font-weight="none" font-size="none" text-anchor="none" style="mix-blend-mode: normal"><g transform="scale(4,4)"><path d="M32,4c-15.46397,0 -28,12.53603 -28,28c0,15.46397 12.53603,28 28,28c15.46397,0 28,-12.53603 28,-28c0,-15.46397 -12.53603,-28 -28,-28z" fill="#c86bfa"></path><path d="M28.078,54.667c-9.735,-1.669 -17.293,-9.35 -18.806,-19.112c-0.399,-2.577 -2.695,-4.369 -5.256,-4.2c-0.005,0.215 -0.016,0.429 -0.016,0.645c0,15.464 12.536,28 28,28c0.064,0 0.128,-0.004 0.192,-0.005c0.206,-2.552 -1.542,-4.886 -4.114,-5.328z" fill="#b05edc"></path><path d="M36.188,9.38c9.715,1.783 17.182,9.553 18.579,19.332c0.369,2.581 2.644,4.4 5.206,4.262c0.007,-0.215 0.021,-0.428 0.024,-0.645c0.183,-15.462 -12.204,-28.145 -27.667,-28.327c-0.064,-0.001 -0.128,0.003 -0.192,0.003c-0.237,2.549 1.484,4.904 4.05,5.375z" fill="#d184fb"></path><path d="M54.766,29.712c-0.49,0 -0.917,-0.36 -0.988,-0.859c-0.165,-1.153 -0.422,-2.301 -0.766,-3.411c-0.164,-0.527 0.132,-1.088 0.659,-1.251c0.526,-0.165 1.088,0.131 1.251,0.659c0.375,1.211 0.656,2.462 0.835,3.72c0.078,0.547 -0.302,1.053 -0.849,1.131c-0.047,0.008 -0.095,0.011 -0.142,0.011zM52.719,22.975c-0.372,0 -0.729,-0.208 -0.901,-0.565c-3.029,-6.282 -8.939,-10.785 -15.81,-12.046c-0.543,-0.1 -0.903,-0.621 -0.803,-1.164c0.1,-0.542 0.621,-0.903 1.164,-0.803c7.495,1.376 13.944,6.29 17.25,13.144c0.24,0.498 0.031,1.095 -0.466,1.335c-0.14,0.067 -0.288,0.099 -0.434,0.099z" fill="#1b0f24"></path><path d="M32,61c-15.991,0 -29,-13.009 -29,-29c0,-15.991 13.009,-29 29,-29c15.991,0 29,13.009 29,29c0,15.991 -13.009,29 -29,29zM32,5c-14.888,0 -27,12.112 -27,27c0,14.888 12.112,27 27,27c14.888,0 27,-12.112 27,-27c0,-14.888 -12.112,-27 -27,-27z" fill="#1b0f24"></path><path d="M8.35,36.946c-0.48,0 -0.904,-0.347 -0.985,-0.837c-0.09,-0.544 0.278,-1.06 0.823,-1.15l1.974,-0.327c0.542,-0.088 1.059,0.279 1.15,0.823c0.09,0.545 -0.279,1.06 -0.823,1.15l-1.974,0.327c-0.057,0.009 -0.111,0.014 -0.165,0.014zM9.658,41.719c-0.4,0 -0.778,-0.242 -0.932,-0.637c-0.201,-0.515 0.053,-1.094 0.568,-1.295l1.863,-0.728c0.517,-0.2 1.095,0.054 1.295,0.568c0.201,0.515 -0.053,1.094 -0.568,1.295l-1.863,0.728c-0.12,0.047 -0.243,0.069 -0.363,0.069zM11.919,46.122c-0.326,0 -0.646,-0.159 -0.837,-0.452c-0.303,-0.462 -0.173,-1.082 0.289,-1.384l1.673,-1.096c0.462,-0.303 1.082,-0.173 1.384,0.289c0.303,0.462 0.173,1.082 -0.289,1.384l-1.673,1.096c-0.169,0.11 -0.359,0.163 -0.547,0.163zM15.029,49.971c-0.256,0 -0.512,-0.098 -0.707,-0.293c-0.391,-0.391 -0.391,-1.023 0,-1.414l1.415,-1.415c0.391,-0.391 1.023,-0.391 1.414,0c0.391,0.391 0.391,1.023 0,1.414l-1.415,1.415c-0.195,0.195 -0.451,0.293 -0.707,0.293zM18.878,53.082c-0.188,0 -0.378,-0.053 -0.547,-0.164c-0.462,-0.302 -0.591,-0.922 -0.289,-1.384l1.095,-1.673c0.302,-0.461 0.922,-0.592 1.384,-0.289c0.462,0.302 0.591,0.922 0.289,1.384l-1.095,1.673c-0.192,0.294 -0.511,0.453 -0.837,0.453zM23.281,55.343c-0.121,0 -0.244,-0.022 -0.363,-0.069c-0.515,-0.201 -0.769,-0.781 -0.568,-1.295l0.728,-1.863c0.201,-0.514 0.778,-0.769 1.295,-0.568c0.515,0.201 0.769,0.781 0.568,1.295l-0.728,1.863c-0.154,0.396 -0.532,0.637 -0.932,0.637zM28.055,56.649c-0.054,0 -0.109,-0.004 -0.165,-0.014c-0.545,-0.09 -0.913,-0.605 -0.823,-1.15l0.327,-1.973c0.09,-0.544 0.605,-0.915 1.15,-0.823c0.545,0.09 0.913,0.605 0.823,1.15l-0.327,1.973c-0.081,0.49 -0.504,0.837 -0.985,0.837z" fill="#1b0f24"></path></g></g></svg>