<svg xmlns="http://www.w3.org/2000/svg"  viewBox="0 0 64 64" width="128px" height="128px"><path d="M 22.769531 8 C 21.285156 8 19.890625 8.652344 18.9375 9.789063 L 2.796875 29.074219 C 1.863281 30.191406 1.863281 31.808594 2.796875 32.925781 L 18.9375 52.207031 C 19.890625 53.347656 21.289063 54 22.769531 54 L 58.902344 54 C 60.554688 54 61.902344 52.652344 61.902344 51 L 61.902344 11 C 61.902344 9.347656 60.554688 8 58.902344 8 Z M 22.769531 10 L 58.902344 10 C 59.453125 10 60 10.449219 60 11 L 60 51 C 60 51.550781 59.453125 52 58.902344 52 L 22.769531 52 C 21.878906 52 21.042969 51.609375 20.46875 50.925781 L 18.941406 49.105469 C 18.949219 49.066406 18.964844 49.035156 18.964844 49 L 18.964844 47 C 18.964844 46.445313 18.515625 46 17.964844 46 C 17.488281 46 17.105469 46.339844 17.007813 46.789063 L 4.328125 31.640625 C 4.019531 31.269531 4.019531 30.730469 4.328125 30.359375 L 20.46875 11.074219 C 21.042969 10.390625 21.882813 10 22.769531 10 Z M 26.996094 17.96875 C 26.738281 17.96875 26.484375 18.066406 26.285156 18.265625 C 25.894531 18.65625 25.894531 19.285156 26.285156 19.675781 L 35.65625 29.046875 L 26.347656 38.386719 C 25.957031 38.777344 25.957031 39.410156 26.347656 39.796875 C 26.542969 39.992188 26.800781 40.089844 27.054688 40.089844 C 27.3125 40.089844 27.570313 39.992188 27.765625 39.796875 L 37.070313 30.460938 L 46.285156 39.675781 C 46.480469 39.871094 46.738281 39.96875 46.996094 39.96875 C 47.25 39.96875 47.507813 39.871094 47.703125 39.675781 C 48.09375 39.285156 48.09375 38.652344 47.703125 38.265625 L 38.484375 29.046875 L 47.734375 19.765625 C 48.121094 19.375 48.121094 18.742188 47.730469 18.351563 C 47.339844 17.960938 46.707031 17.960938 46.316406 18.355469 L 37.066406 27.628906 L 27.703125 18.265625 C 27.503906 18.066406 27.25 17.96875 26.996094 17.96875 Z M 23 46 C 22.449219 46 22 46.445313 22 47 L 22 49 C 22 49.554688 22.449219 50 23 50 C 23.550781 50 24 49.554688 24 49 L 24 47 C 24 46.445313 23.550781 46 23 46 Z M 28 46 C 27.449219 46 27 46.445313 27 47 L 27 49 C 27 49.554688 27.449219 50 28 50 C 28.550781 50 29 49.554688 29 49 L 29 47 C 29 46.445313 28.550781 46 28 46 Z M 33 46 C 32.449219 46 32 46.445313 32 47 L 32 49 C 32 49.554688 32.449219 50 33 50 C 33.550781 50 34 49.554688 34 49 L 34 47 C 34 46.445313 33.550781 46 33 46 Z M 38 46 C 37.449219 46 37 46.445313 37 47 L 37 49 C 37 49.554688 37.449219 50 38 50 C 38.550781 50 39 49.554688 39 49 L 39 47 C 39 46.445313 38.550781 46 38 46 Z M 43 46 C 42.449219 46 42 46.445313 42 47 L 42 49 C 42 49.554688 42.449219 50 43 50 C 43.550781 50 44 49.554688 44 49 L 44 47 C 44 46.445313 43.550781 46 43 46 Z M 48 46 C 47.449219 46 47 46.445313 47 47 L 47 49 C 47 49.554688 47.449219 50 48 50 C 48.550781 50 49 49.554688 49 49 L 49 47 C 49 46.445313 48.550781 46 48 46 Z M 53 46 C 52.449219 46 52 46.445313 52 47 L 52 49 C 52 49.554688 52.449219 50 53 50 C 53.550781 50 54 49.554688 54 49 L 54 47 C 54 46.445313 53.550781 46 53 46 Z M 58 46 C 57.449219 46 57 46.445313 57 47 L 57 49 C 57 49.554688 57.449219 50 58 50 C 58.550781 50 59 49.554688 59 49 L 59 47 C 59 46.445313 58.550781 46 58 46 Z"/></svg>