<svg xmlns="http://www.w3.org/2000/svg" xmlns:xlink="http://www.w3.org/1999/xlink" viewBox="0,0,256,256" width="64px" height="64px" fill-rule="nonzero"><g fill="none" fill-rule="nonzero" stroke="none" stroke-width="1" stroke-linecap="butt" stroke-linejoin="miter" stroke-miterlimit="10" stroke-dasharray="" stroke-dashoffset="0" font-family="none" font-weight="none" font-size="none" text-anchor="none" style="mix-blend-mode: normal"><g transform="scale(4,4)"><path d="M32,3c-16.01626,0 -29,12.98374 -29,29c0,16.01626 12.98374,29 29,29c16.01626,0 29,-12.98374 29,-29c0,-16.01626 -12.98374,-29 -29,-29z" fill="#eb445a"></path><path d="M32,8c-13.25483,0 -24,10.74517 -24,24c0,13.25483 10.74517,24 24,24c13.25483,0 24,-10.74517 24,-24c0,-13.25483 -10.74517,-24 -24,-24z" fill="#ed576b"></path><path d="M42.849,16.908l-10.849,10.849l-10.849,-10.849c-0.391,-0.391 -1.024,-0.391 -1.414,0l-2.828,2.828c-0.391,0.391 -0.391,1.024 0,1.414l10.848,10.85l-10.849,10.849c-0.391,0.391 -0.391,1.024 0,1.414l2.828,2.828c0.391,0.391 1.024,0.391 1.414,0l10.85,-10.848l10.849,10.849c0.391,0.391 1.024,0.391 1.414,0l2.828,-2.828c0.391,-0.391 0.391,-1.024 0,-1.414l-10.848,-10.85l10.849,-10.849c0.391,-0.391 0.391,-1.024 0,-1.414l-2.828,-2.828c-0.391,-0.391 -1.024,-0.391 -1.415,-0.001z" fill="#ffffff"></path><path d="M47.713,43.471l-11.47,-11.471l-4.243,-4.243l-11.471,-11.47l-4.242,4.242l11.47,11.471l-11.47,11.471l4.242,4.242l11.471,-11.47l11.471,11.47z" fill="#e8d6ee"></path><path d="M47.506,20.737l-4.206,-4.28l-11.18,11.42l-10.883,-10.883c-1.172,1.172 -1.172,3.071 0,4.243l21.527,21.527c1.172,1.172 3.071,1.172 4.243,0l-10.884,-10.884z" fill="#fff7f0"></path><path d="M32,2c-16.542,0 -30,13.458 -30,30c0,16.542 13.458,30 30,30c16.542,0 30,-13.458 30,-30c0,-16.542 -13.458,-30 -30,-30zM32,60c-15.439,0 -28,-12.561 -28,-28c0,-15.439 12.561,-28 28,-28c15.439,0 28,12.561 28,28c0,15.439 -12.561,28 -28,28z" fill="#1b0f24"></path><path d="M37.657,32l10.142,-10.142c0.78,-0.78 0.78,-2.049 0,-2.829l-2.828,-2.828c-0.78,-0.781 -2.05,-0.781 -2.829,0l-10.142,10.142l-10.142,-10.142c-0.778,-0.78 -2.048,-0.78 -2.829,0l-2.828,2.828c-0.78,0.78 -0.78,2.049 0,2.829l10.142,10.142l-10.142,10.142c-0.78,0.78 -0.78,2.049 0,2.829l2.828,2.828c0.779,0.78 2.049,0.779 2.829,0l10.142,-10.142l10.142,10.142c0.39,0.39 0.902,0.585 1.415,0.585c0.512,0 1.024,-0.195 1.414,-0.585l2.828,-2.828c0.78,-0.78 0.78,-2.049 0,-2.829zM43.556,46.385l-11.556,-11.556l-11.557,11.556l-2.828,-2.829l11.556,-11.556l-11.556,-11.557l2.829,-2.828l11.556,11.556l11.556,-11.556l2.829,2.829l-11.556,11.556l11.556,11.557z" fill="#1b0f24"></path><path d="M41.899,30.586c-0.391,0.391 -0.391,1.024 0,1.414l1.415,1.414c0.195,0.195 0.451,0.293 0.707,0.293c0.256,0 0.512,-0.098 0.707,-0.293c0.391,-0.391 0.391,-1.024 0,-1.414l-1.415,-1.414c-0.39,-0.391 -1.024,-0.391 -1.414,0zM46.849,27.05c-0.391,-0.391 -1.023,-0.391 -1.414,0c-0.391,0.391 -0.391,1.023 0,1.414l1.414,1.414c0.195,0.195 0.451,0.293 0.707,0.293c0.256,0 0.512,-0.098 0.707,-0.293c0.391,-0.391 0.391,-1.023 0,-1.414zM51.799,24.929l-1.414,-1.415c-0.391,-0.391 -1.023,-0.391 -1.414,0c-0.391,0.39 -0.391,1.023 0,1.414l1.414,1.415c0.195,0.195 0.451,0.293 0.707,0.293c0.256,0 0.512,-0.098 0.707,-0.293c0.39,-0.39 0.39,-1.023 0,-1.414zM13.615,37.657c-0.391,-0.391 -1.023,-0.391 -1.414,0c-0.391,0.39 -0.391,1.023 0,1.414l1.414,1.415c0.195,0.195 0.451,0.293 0.707,0.293c0.256,0 0.512,-0.098 0.707,-0.293c0.391,-0.39 0.391,-1.023 0,-1.414zM17.151,36.95c0.195,0.195 0.451,0.293 0.707,0.293c0.256,0 0.512,-0.098 0.707,-0.293c0.391,-0.391 0.391,-1.023 0,-1.414l-1.414,-1.414c-0.391,-0.391 -1.023,-0.391 -1.414,0c-0.391,0.391 -0.391,1.023 0,1.414zM21.394,33.707c0.256,0 0.512,-0.098 0.707,-0.293c0.391,-0.391 0.391,-1.024 0,-1.414l-1.415,-1.414c-0.391,-0.391 -1.024,-0.391 -1.414,0c-0.391,0.391 -0.391,1.024 0,1.414l1.415,1.414c0.195,0.195 0.451,0.293 0.707,0.293z" fill="#1b0f24"></path></g></g></svg>