<svg xmlns="http://www.w3.org/2000/svg"  viewBox="0 0 64 64" width="64px" height="64px"><path d="M 32 12 C 31.746094 12 31.488281 12.097656 31.292969 12.292969 L 2.292969 41.292969 C 2.097656 41.488281 2 41.742188 2 42 C 2 42.257813 2.097656 42.511719 2.292969 42.707031 L 6.292969 46.707031 C 6.683594 47.097656 7.316406 47.097656 7.707031 46.707031 L 32 22.414063 L 56.292969 46.707031 C 56.683594 47.097656 57.316406 47.097656 57.707031 46.707031 L 61.707031 42.707031 C 62.097656 42.316406 62.097656 41.683594 61.707031 41.292969 L 32.707031 12.292969 C 32.511719 12.097656 32.253906 12 32 12 Z M 32 14.414063 L 59.585938 42 L 57 44.585938 L 32.707031 20.292969 C 32.316406 19.902344 31.683594 19.902344 31.292969 20.292969 L 7 44.585938 L 4.414063 42 Z M 32.078125 27.285156 C 31.527344 27.285156 31.078125 27.734375 31.078125 28.285156 L 31.078125 30.285156 C 31.078125 30.839844 31.527344 31.285156 32.078125 31.285156 C 32.632813 31.285156 33.078125 30.839844 33.078125 30.285156 L 33.078125 28.285156 C 33.078125 27.734375 32.632813 27.285156 32.078125 27.285156 Z M 27.675781 30.90625 C 27.421875 30.90625 27.167969 31.003906 26.96875 31.203125 C 26.777344 31.394531 26.675781 31.652344 26.675781 31.90625 C 26.675781 32.164063 26.777344 32.421875 26.96875 32.613281 L 28.386719 34.03125 C 28.777344 34.421875 29.40625 34.421875 29.796875 34.03125 C 30.191406 33.636719 30.191406 33.007813 29.796875 32.613281 L 28.386719 31.203125 C 28.1875 31.003906 27.933594 30.90625 27.675781 30.90625 Z M 36.324219 30.90625 C 36.066406 30.910156 35.8125 31.007813 35.613281 31.203125 L 34.203125 32.613281 C 34.007813 32.808594 33.90625 33.066406 33.90625 33.324219 C 33.90625 33.578125 34.007813 33.835938 34.203125 34.03125 C 34.59375 34.421875 35.222656 34.421875 35.613281 34.03125 L 37.03125 32.613281 C 37.421875 32.222656 37.421875 31.59375 37.03125 31.203125 C 36.832031 31.003906 36.578125 30.90625 36.324219 30.90625 Z M 24.140625 34.441406 C 23.886719 34.441406 23.632813 34.539063 23.4375 34.734375 C 23.242188 34.929688 23.140625 35.1875 23.140625 35.441406 C 23.140625 35.699219 23.242188 35.957031 23.4375 36.152344 L 24.847656 37.5625 C 25.242188 37.957031 25.871094 37.957031 26.265625 37.5625 C 26.65625 37.171875 26.65625 36.542969 26.265625 36.152344 L 24.847656 34.734375 C 24.652344 34.539063 24.398438 34.441406 24.140625 34.441406 Z M 39.859375 34.441406 C 39.601563 34.441406 39.347656 34.539063 39.152344 34.734375 L 37.734375 36.152344 C 37.542969 36.34375 37.441406 36.601563 37.441406 36.859375 C 37.441406 37.113281 37.542969 37.371094 37.734375 37.5625 C 38.128906 37.957031 38.757813 37.957031 39.152344 37.5625 L 40.5625 36.152344 C 40.957031 35.757813 40.957031 35.128906 40.5625 34.734375 C 40.367188 34.539063 40.113281 34.441406 39.859375 34.441406 Z M 20.605469 37.980469 C 20.351563 37.980469 20.09375 38.074219 19.898438 38.269531 C 19.703125 38.464844 19.605469 38.722656 19.605469 38.980469 C 19.605469 39.234375 19.703125 39.492188 19.898438 39.6875 L 21.3125 41.101563 C 21.707031 41.492188 22.335938 41.492188 22.730469 41.101563 C 23.121094 40.710938 23.121094 40.078125 22.730469 39.6875 L 21.3125 38.269531 C 21.117188 38.074219 20.859375 37.980469 20.605469 37.980469 Z M 43.394531 37.980469 C 43.136719 37.980469 42.882813 38.074219 42.6875 38.269531 L 41.269531 39.6875 C 41.078125 39.882813 40.980469 40.136719 40.980469 40.394531 C 40.980469 40.652344 41.078125 40.90625 41.269531 41.101563 C 41.664063 41.492188 42.292969 41.492188 42.6875 41.101563 L 44.101563 39.6875 C 44.492188 39.292969 44.492188 38.664063 44.101563 38.269531 C 43.90625 38.074219 43.652344 37.980469 43.394531 37.980469 Z M 17.070313 41.515625 C 16.816406 41.515625 16.558594 41.613281 16.363281 41.808594 C 16.167969 42.003906 16.070313 42.257813 16.070313 42.515625 C 16.070313 42.773438 16.167969 43.027344 16.363281 43.222656 L 17.777344 44.636719 C 18.167969 45.027344 18.800781 45.027344 19.191406 44.636719 C 19.582031 44.246094 19.582031 43.613281 19.191406 43.222656 L 17.777344 41.808594 C 17.582031 41.613281 17.324219 41.515625 17.070313 41.515625 Z M 46.925781 41.515625 C 46.671875 41.515625 46.417969 41.613281 46.222656 41.808594 L 44.808594 43.222656 C 44.613281 43.417969 44.515625 43.671875 44.515625 43.929688 C 44.515625 44.1875 44.613281 44.441406 44.808594 44.636719 C 45.199219 45.027344 45.832031 45.027344 46.222656 44.636719 L 47.636719 43.222656 C 48.027344 42.832031 48.027344 42.199219 47.636719 41.808594 C 47.441406 41.613281 47.183594 41.515625 46.925781 41.515625 Z M 13.535156 45.046875 C 13.28125 45.046875 13.023438 45.148438 12.828125 45.34375 C 12.632813 45.539063 12.535156 45.792969 12.535156 46.050781 C 12.535156 46.308594 12.632813 46.5625 12.828125 46.757813 L 14.242188 48.171875 C 14.632813 48.5625 15.265625 48.5625 15.65625 48.171875 C 16.046875 47.78125 16.046875 47.148438 15.65625 46.757813 L 14.242188 45.34375 C 14.046875 45.148438 13.789063 45.046875 13.535156 45.046875 Z M 50.464844 45.050781 C 50.210938 45.050781 49.953125 45.148438 49.757813 45.34375 L 48.34375 46.757813 C 48.148438 46.953125 48.050781 47.207031 48.050781 47.464844 C 48.050781 47.722656 48.148438 47.976563 48.34375 48.171875 C 48.734375 48.5625 49.367188 48.5625 49.757813 48.171875 L 51.171875 46.757813 C 51.5625 46.367188 51.5625 45.734375 51.171875 45.34375 C 50.976563 45.148438 50.71875 45.050781 50.464844 45.050781 Z M 10 48.585938 C 9.746094 48.585938 9.488281 48.683594 9.292969 48.878906 C 9.097656 49.074219 9 49.328125 9 49.585938 C 9 49.84375 9.097656 50.097656 9.292969 50.292969 L 10.707031 51.707031 C 11.097656 52.097656 11.730469 52.097656 12.121094 51.707031 C 12.511719 51.316406 12.511719 50.683594 12.121094 50.292969 L 10.707031 48.878906 C 10.511719 48.683594 10.253906 48.585938 10 48.585938 Z M 54 48.585938 C 53.746094 48.585938 53.488281 48.683594 53.292969 48.878906 L 51.878906 50.292969 C 51.683594 50.488281 51.585938 50.742188 51.585938 51 C 51.585938 51.257813 51.683594 51.511719 51.878906 51.707031 C 52.269531 52.097656 52.902344 52.097656 53.292969 51.707031 L 54.707031 50.292969 C 55.097656 49.902344 55.097656 49.269531 54.707031 48.878906 C 54.511719 48.683594 54.253906 48.585938 54 48.585938 Z"/></svg>