<svg xmlns="http://www.w3.org/2000/svg" xmlns:xlink="http://www.w3.org/1999/xlink" viewBox="0,0,256,256" width="128px" height="128px"><g fill="none" fill-rule="nonzero" stroke="none" stroke-width="1" stroke-linecap="butt" stroke-linejoin="miter" stroke-miterlimit="10" stroke-dasharray="" stroke-dashoffset="0" font-family="none" font-weight="none" font-size="none" text-anchor="none" style="mix-blend-mode: normal"><g transform="scale(4,4)"><path d="M31.88,13l-29,29l4.24,4.24l21.88,-21.88l3,-3.24l3,3.24l21.88,21.88l4.24,-4.24l-29,-29l-0.12,0.12z" fill="#c86bfa"></path><path d="M56.38,41.5l-23.76,-23.76c-1.16981,-1.17127 -1.16981,-3.06873 0,-4.24v0l28,28v0c-1.17127,1.16981 -3.06873,1.16981 -4.24,0z" fill="#d184fb"></path><path d="M32,22.41l24.29,24.3c0.39004,0.38772 1.01996,0.38772 1.41,0l4,-4c0.38772,-0.39004 0.38772,-1.01996 0,-1.41l-29,-29c-0.39004,-0.38772 -1.01996,-0.38772 -1.41,0l-29,29c-0.38772,0.39004 -0.38772,1.01996 0,1.41l4,4c0.39004,0.38772 1.01996,0.38772 1.41,0zM4.41,42l27.59,-27.59l27.59,27.59l-2.59,2.59l-24.29,-24.3c-0.39004,-0.38772 -1.01996,-0.38772 -1.41,0l-24.3,24.3z" fill="#1b0f24"></path><path d="M26.68,31.91c-0.00154,0.2658 0.10281,0.52128 0.29,0.71l1.41,1.38c0.39676,0.33978 0.98819,0.31693 1.35756,-0.05244c0.36937,-0.36937 0.39221,-0.9608 0.05244,-1.35756l-1.41,-1.39c-0.28609,-0.28846 -0.71827,-0.37516 -1.09348,-0.21937c-0.37521,0.15579 -0.61888,0.52311 -0.61652,0.92937zM26.26,36.15l-1.41,-1.41c-0.24439,-0.28538 -0.62812,-0.40968 -0.99342,-0.32181c-0.3653,0.08787 -0.65052,0.37309 -0.73839,0.73839c-0.08787,0.3653 0.03643,0.74903 0.32181,0.99342l1.41,1.41c0.39676,0.33978 0.98819,0.31693 1.35756,-0.05244c0.36937,-0.36937 0.39221,-0.9608 0.05244,-1.35756zM22.73,39.69l-1.41,-1.41c-0.24439,-0.28538 -0.62812,-0.40968 -0.99342,-0.32181c-0.3653,0.08787 -0.65052,0.37309 -0.73839,0.73839c-0.08787,0.3653 0.03643,0.74903 0.32181,0.99342l1.41,1.41c0.39676,0.33978 0.98819,0.31693 1.35756,-0.05244c0.36937,-0.36937 0.39221,-0.9608 0.05244,-1.35756zM19.19,43.22l-1.41,-1.41c-0.24439,-0.28538 -0.62812,-0.40968 -0.99342,-0.32181c-0.3653,0.08787 -0.65052,0.37309 -0.73839,0.73839c-0.08787,0.3653 0.03643,0.74903 0.32181,0.99342l1.41,1.41c0.39676,0.33978 0.98819,0.31693 1.35756,-0.05244c0.36937,-0.36937 0.39221,-0.9608 0.05244,-1.35756zM15.66,46.76l-1.41,-1.41c-0.24439,-0.28538 -0.62812,-0.40968 -0.99342,-0.32181c-0.3653,0.08787 -0.65052,0.37309 -0.73839,0.73839c-0.08787,0.3653 0.03643,0.74903 0.32181,0.99342l1.41,1.41c0.39676,0.33978 0.98819,0.31693 1.35756,-0.05244c0.36937,-0.36937 0.39221,-0.9608 0.05244,-1.35756zM12.12,50.29l-1.41,-1.41c-0.24439,-0.28538 -0.62812,-0.40968 -0.99342,-0.32181c-0.3653,0.08787 -0.65052,0.37309 -0.73839,0.73839c-0.08787,0.3653 0.03643,0.74903 0.32181,0.99342l1.41,1.41c0.39676,0.33978 0.98819,0.31693 1.35756,-0.05244c0.36937,-0.36937 0.39221,-0.9608 0.05244,-1.35756zM33.08,30.29v-2c0,-0.55228 -0.44772,-1 -1,-1c-0.55228,0 -1,0.44772 -1,1v2c0,0.55228 0.44772,1 1,1c0.55228,0 1,-0.44772 1,-1zM35.62,34l1.38,-1.38c0.33978,-0.39676 0.31693,-0.98819 -0.05244,-1.35756c-0.36937,-0.36937 -0.9608,-0.39221 -1.35756,-0.05244l-1.39,1.41c-0.29332,0.40235 -0.24594,0.95921 0.11113,1.30623c0.35708,0.34702 0.91506,0.37847 1.30887,0.07377zM39.15,37.56l1.41,-1.41c0.33978,-0.39676 0.31693,-0.98819 -0.05244,-1.35756c-0.36937,-0.36937 -0.9608,-0.39221 -1.35756,-0.05244l-1.41,1.41c-0.33978,0.39676 -0.31693,0.98819 0.05244,1.35756c0.36937,0.36937 0.9608,0.39221 1.35756,0.05244zM42.69,41.1l1.41,-1.41c0.33978,-0.39676 0.31693,-0.98819 -0.05244,-1.35756c-0.36937,-0.36937 -0.9608,-0.39221 -1.35756,-0.05244l-1.41,1.41c-0.33978,0.39676 -0.31693,0.98819 0.05244,1.35756c0.36937,0.36937 0.9608,0.39221 1.35756,0.05244zM46.22,44.64l1.41,-1.41c0.33978,-0.39676 0.31693,-0.98819 -0.05244,-1.35756c-0.36937,-0.36937 -0.9608,-0.39221 -1.35756,-0.05244l-1.41,1.41c-0.33978,0.39676 -0.31693,0.98819 0.05244,1.35756c0.36937,0.36937 0.9608,0.39221 1.35756,0.05244zM51.17,46.76c0.33978,-0.39676 0.31693,-0.98819 -0.05244,-1.35756c-0.36937,-0.36937 -0.9608,-0.39221 -1.35756,-0.05244l-1.41,1.41c-0.33978,0.39676 -0.31693,0.98819 0.05244,1.35756c0.36937,0.36937 0.9608,0.39221 1.35756,0.05244zM51.88,50.29c-0.33978,0.39676 -0.31693,0.98819 0.05244,1.35756c0.36937,0.36937 0.9608,0.39221 1.35756,0.05244l1.41,-1.41c0.33978,-0.39676 0.31693,-0.98819 -0.05244,-1.35756c-0.36937,-0.36937 -0.9608,-0.39221 -1.35756,-0.05244z" fill="#1b0f24"></path></g></g></svg>