<svg xmlns="http://www.w3.org/2000/svg" xmlns:xlink="http://www.w3.org/1999/xlink" viewBox="0,0,256,256" width="64px" height="64px" fill-rule="nonzero"><g fill="none" fill-rule="nonzero" stroke="none" stroke-width="1" stroke-linecap="butt" stroke-linejoin="miter" stroke-miterlimit="10" stroke-dasharray="" stroke-dashoffset="0" font-family="none" font-weight="none" font-size="none" text-anchor="none" style="mix-blend-mode: normal"><g transform="scale(4,4)"><path d="M59,27v30c0,1.1 -0.9,2 -2,2h-30c-1.1,0 -2,-0.9 -2,-2v-30c0,-1.1 0.9,-2 2,-2h30c1.1,0 2,0.9 2,2z" fill="#c86bfa"></path><path d="M42,29v26c0,2.209 -1.791,4 -4,4h-11c-1.1,0 -2,-0.9 -2,-2v-30c0,-1.1 0.9,-2 2,-2h11c2.209,0 4,1.791 4,4z" fill="#d184fb"></path><path d="M37,5v30c0,1.1 -0.9,2 -2,2h-30c-1.1,0 -2,-0.9 -2,-2v-30c0,-1.1 0.9,-2 2,-2h30c1.1,0 2,0.9 2,2z" fill="#19e6ac"></path><path d="M20,7v26c0,2.209 -1.791,4 -4,4h-11c-1.1,0 -2,-0.9 -2,-2v-30c0,-1.1 0.9,-2 2,-2h11c2.209,0 4,1.791 4,4z" fill="#73e9c7"></path><path d="M43.324,33.617c-0.146,-0.39 -0.52,-0.647 -0.936,-0.647c-0.416,0 -0.789,0.258 -0.936,0.647l-6.4,17c-0.195,0.517 0.066,1.094 0.583,1.288c0.517,0.194 1.094,-0.066 1.288,-0.583l2.015,-5.353h6.899l2.015,5.353c0.15,0.4 0.531,0.647 0.936,0.647c0.117,0 0.236,-0.021 0.353,-0.064c0.517,-0.194 0.778,-0.771 0.583,-1.288zM39.692,43.97l2.697,-7.162l2.696,7.162zM6,40c-0.553,0 -1,0.447 -1,1v2c0,0.553 0.447,1 1,1c0.553,0 1,-0.447 1,-1v-2c0,-0.553 -0.447,-1 -1,-1zM11,40c-0.553,0 -1,0.447 -1,1v2c0,0.553 0.447,1 1,1c0.553,0 1,-0.447 1,-1v-2c0,-0.553 -0.447,-1 -1,-1zM16,40c-0.553,0 -1,0.447 -1,1v2c0,0.553 0.447,1 1,1c0.553,0 1,-0.447 1,-1v-2c0,-0.553 -0.447,-1 -1,-1zM21,40c-0.553,0 -1,0.447 -1,1v2c0,0.553 0.447,1 1,1c0.553,0 1,-0.447 1,-1v-2c0,-0.553 -0.447,-1 -1,-1zM41,22c0.553,0 1,-0.447 1,-1v-2c0,-0.553 -0.447,-1 -1,-1c-0.553,0 -1,0.447 -1,1v2c0,0.553 0.447,1 1,1zM46,22c0.553,0 1,-0.447 1,-1v-2c0,-0.553 -0.447,-1 -1,-1c-0.553,0 -1,0.447 -1,1v2c0,0.553 0.447,1 1,1zM51,22c0.553,0 1,-0.447 1,-1v-2c0,-0.553 -0.447,-1 -1,-1c-0.553,0 -1,0.447 -1,1v2c0,0.553 0.447,1 1,1zM56,22c0.553,0 1,-0.447 1,-1v-2c0,-0.553 -0.447,-1 -1,-1c-0.553,0 -1,0.447 -1,1v2c0,0.553 0.447,1 1,1z" fill="#1b0f24"></path><path d="M57,24h-19v-19c0,-1.65 -1.35,-3 -3,-3h-30c-1.65,0 -3,1.35 -3,3v30c0,1.65 1.35,3 3,3h19v19c0,1.65 1.35,3 3,3h30c1.65,0 3,-1.35 3,-3v-30c0,-1.65 -1.35,-3 -3,-3zM5,36c-0.55,0 -1,-0.45 -1,-1v-30c0,-0.55 0.45,-1 1,-1h30c0.55,0 1,0.45 1,1v30c0,0.55 -0.45,1 -1,1zM58,57c0,0.55 -0.45,1 -1,1h-30c-0.55,0 -1,-0.45 -1,-1v-19h9c1.65,0 3,-1.35 3,-3v-9h19c0.55,0 1,0.45 1,1z" fill="#1b0f24"></path><path d="M27.988,27.97c0,-0.553 -0.447,-1 -1,-1c-1.809,0 -4.133,-1.381 -6.089,-3.235c2.517,-2.838 4.089,-6.178 4.089,-8.765v-1h4c0.553,0 1,-0.447 1,-1c0,-0.553 -0.447,-1 -1,-1h-8v-2c0,-0.553 -0.447,-1 -1,-1c-0.553,0 -1,0.447 -1,1v2h-8c-0.553,0 -1,0.447 -1,1c0,0.553 0.447,1 1,1h12v1c0,2.108 -1.339,4.891 -3.459,7.313c-1.493,-1.773 -2.541,-3.739 -2.541,-5.313c0,-0.553 -0.447,-1 -1,-1c-0.553,0 -1,0.447 -1,1c0,2.101 1.287,4.586 3.139,6.75c-1.579,1.453 -3.44,2.664 -5.444,3.332c-0.523,0.174 -0.807,0.74 -0.632,1.265c0.14,0.418 0.53,0.683 0.949,0.683c0.104,0 0.211,-0.017 0.316,-0.052c2.295,-0.765 4.402,-2.137 6.183,-3.789c2.321,2.206 5.143,3.811 7.489,3.811c0.553,0 1,-0.448 1,-1z" fill="#1b0f24"></path></g></g></svg>