<svg xmlns="http://www.w3.org/2000/svg"  viewBox="0 0 64 64" width="64px" height="64px" style="fill: currentColor;"><path d="M 19.65625 2 C 18.320313 2 17.066406 2.519531 16.121094 3.464844 L 7.464844 12.121094 C 6.519531 13.066406 6 14.320313 6 15.65625 L 6 47 C 6 48.652344 7.347656 50 9 50 L 16 50 L 16 59 C 16 60.652344 17.347656 62 19 62 L 53 62 C 54.652344 62 56 60.652344 56 59 L 56 17 C 56 15.347656 54.652344 14 53 14 L 46 14 L 46 5 C 46 3.347656 44.652344 2 43 2 Z M 20 4 L 43 4 C 43.550781 4 44 4.449219 44 5 L 44 14 L 29.65625 14 C 28.320313 14 27.066406 14.519531 26.121094 15.464844 L 17.464844 24.121094 C 16.519531 25.066406 16 26.320313 16 27.65625 L 16 40 C 15.445313 40 15 40.449219 15 41 L 15 43 C 15 43.550781 15.445313 44 16 44 L 16 48 L 9 48 C 8.449219 48 8 47.550781 8 47 L 8 16 L 17 16 C 18.652344 16 20 14.652344 20 13 Z M 18 4.5 L 18 13 C 18 13.550781 17.550781 14 17 14 L 8.5 14 C 8.609375 13.835938 8.734375 13.679688 8.878906 13.535156 L 17.535156 4.878906 C 17.675781 4.738281 17.832031 4.613281 18 4.5 Z M 30 16 L 53 16 C 53.550781 16 54 16.449219 54 17 L 54 59 C 54 59.550781 53.550781 60 53 60 L 19 60 C 18.449219 60 18 59.550781 18 59 L 18 28 L 27 28 C 28.652344 28 30 26.652344 30 25 Z M 28 16.5 L 28 25 C 28 25.550781 27.550781 26 27 26 L 18.5 26 C 18.609375 25.835938 18.734375 25.679688 18.878906 25.535156 L 27.535156 16.878906 C 27.675781 16.738281 27.832031 16.613281 28 16.5 Z M 27 32 C 26.445313 32 26 32.449219 26 33 C 26 33.550781 26.445313 34 27 34 L 39 34 C 39.554688 34 40 33.550781 40 33 C 40 32.449219 39.554688 32 39 32 Z M 43 32 C 42.445313 32 42 32.449219 42 33 C 42 33.550781 42.445313 34 43 34 L 47 34 C 47.554688 34 48 33.550781 48 33 C 48 32.449219 47.554688 32 47 32 Z M 27 38 C 26.445313 38 26 38.449219 26 39 C 26 39.550781 26.445313 40 27 40 L 43 40 C 43.554688 40 44 39.550781 44 39 C 44 38.449219 43.554688 38 43 38 Z M 11 40 C 10.445313 40 10 40.449219 10 41 L 10 43 C 10 43.550781 10.445313 44 11 44 C 11.554688 44 12 43.550781 12 43 L 12 41 C 12 40.449219 11.554688 40 11 40 Z M 27 44 C 26.445313 44 26 44.449219 26 45 C 26 45.550781 26.445313 46 27 46 L 45 46 C 45.554688 46 46 45.550781 46 45 C 46 44.449219 45.554688 44 45 44 Z M 21 52 C 20.445313 52 20 52.449219 20 53 L 20 55 C 20 55.550781 20.445313 56 21 56 C 21.554688 56 22 55.550781 22 55 L 22 53 C 22 52.449219 21.554688 52 21 52 Z M 26 52 C 25.445313 52 25 52.449219 25 53 L 25 55 C 25 55.550781 25.445313 56 26 56 C 26.554688 56 27 55.550781 27 55 L 27 53 C 27 52.449219 26.554688 52 26 52 Z M 31 52 C 30.445313 52 30 52.449219 30 53 L 30 55 C 30 55.550781 30.445313 56 31 56 C 31.554688 56 32 55.550781 32 55 L 32 53 C 32 52.449219 31.554688 52 31 52 Z M 36 52 C 35.445313 52 35 52.449219 35 53 L 35 55 C 35 55.550781 35.445313 56 36 56 C 36.554688 56 37 55.550781 37 55 L 37 53 C 37 52.449219 36.554688 52 36 52 Z M 41 52 C 40.445313 52 40 52.449219 40 53 L 40 55 C 40 55.550781 40.445313 56 41 56 C 41.554688 56 42 55.550781 42 55 L 42 53 C 42 52.449219 41.554688 52 41 52 Z M 46 52 C 45.445313 52 45 52.449219 45 53 L 45 55 C 45 55.550781 45.445313 56 46 56 C 46.554688 56 47 55.550781 47 55 L 47 53 C 47 52.449219 46.554688 52 46 52 Z M 51 52 C 50.445313 52 50 52.449219 50 53 L 50 55 C 50 55.550781 50.445313 56 51 56 C 51.554688 56 52 55.550781 52 55 L 52 53 C 52 52.449219 51.554688 52 51 52 Z"/></svg>