<svg xmlns="http://www.w3.org/2000/svg" style="fill: currentColor;" viewBox="0 0 64 64" width="64px" height="64px"><path d="M 59 4 C 58.742188 4 58.488281 4.097656 58.292969 4.292969 L 48.964844 13.621094 C 44.234375 10.390625 38.53125 8 32 8 C 16.121094 8 5.136719 22.097656 1.148438 28.160156 C 0.964844 28.441406 0.808594 28.730469 0.667969 29.03125 C 0.664063 29.035156 0.660156 29.042969 0.65625 29.050781 C -0.359375 31.226563 -0.195313 33.792969 1.148438 35.839844 C 3.300781 39.109375 7.496094 44.71875 13.390625 49.191406 L 4.292969 58.292969 C 3.902344 58.683594 3.902344 59.316406 4.292969 59.707031 C 4.488281 59.902344 4.742188 60 5 60 C 5.257813 60 5.511719 59.902344 5.707031 59.707031 L 15.035156 50.378906 C 19.765625 53.609375 25.46875 56 32 56 C 47.878906 56 58.863281 41.902344 62.847656 35.839844 C 64.195313 33.796875 64.359375 31.226563 63.34375 29.050781 C 63.339844 29.042969 63.335938 29.035156 63.328125 29.027344 C 63.191406 28.730469 63.03125 28.441406 62.847656 28.160156 C 60.695313 24.890625 56.503906 19.28125 50.609375 14.808594 L 59.703125 5.707031 C 60.097656 5.316406 60.097656 4.683594 59.703125 4.292969 C 59.507813 4.097656 59.253906 4 59 4 Z M 32 10 C 37.925781 10 43.144531 12.128906 47.527344 15.058594 L 45.085938 17.5 C 41.015625 15.976563 36.617188 15 32 15 C 22.164063 15 13.328125 19.375 6.535156 24.234375 C 11.742188 17.929688 20.5625 10 32 10 Z M 49.183594 16.230469 C 52.519531 18.726563 55.304688 21.621094 57.464844 24.238281 C 54.394531 22.042969 50.910156 19.953125 47.101563 18.3125 Z M 32 17 C 34.609375 17 37.144531 17.34375 39.59375 17.917969 C 40.683594 18.507813 41.679688 19.210938 42.578125 20.003906 L 14.816406 47.769531 C 9.042969 43.453125 4.921875 37.929688 2.820313 34.738281 C 1.898438 33.335938 1.761719 31.585938 2.398438 30.074219 C 6.640625 26.355469 12.335938 22.226563 18.9375 19.625 C 15.816406 22.917969 14 27.320313 14 32 C 14 35.390625 14.949219 38.695313 16.742188 41.554688 C 16.933594 41.859375 17.257813 42.023438 17.589844 42.023438 C 17.773438 42.023438 17.953125 41.972656 18.121094 41.871094 C 18.585938 41.574219 18.730469 40.960938 18.4375 40.492188 C 16.839844 37.949219 16 35.015625 16 32 C 16 26.128906 19.210938 20.738281 24.375 17.933594 C 24.378906 17.929688 24.378906 17.925781 24.386719 17.921875 C 26.839844 17.347656 29.382813 17 32 17 Z M 32.316406 18.011719 C 30.351563 17.964844 28.378906 18.328125 26.550781 19.101563 C 26.042969 19.316406 25.804688 19.902344 26.019531 20.410156 C 26.234375 20.921875 26.820313 21.15625 27.328125 20.941406 C 30.460938 19.621094 34.101563 19.699219 37.171875 21.167969 C 37.308594 21.234375 37.457031 21.265625 37.601563 21.265625 C 37.972656 21.265625 38.332031 21.058594 38.503906 20.699219 C 38.742188 20.199219 38.53125 19.601563 38.03125 19.363281 C 36.238281 18.507813 34.285156 18.054688 32.316406 18.011719 Z M 45.574219 19.839844 C 51.957031 22.453125 57.46875 26.449219 61.597656 30.070313 C 62.238281 31.585938 62.101563 33.335938 61.175781 34.738281 C 57.371094 40.53125 46.902344 54 32 54 C 26.074219 54 20.855469 51.871094 16.472656 48.941406 L 43.996094 21.417969 C 46.535156 24.292969 48 28.027344 48 32 C 48 40.820313 40.820313 48 32 48 C 28.878906 48 25.855469 47.101563 23.253906 45.402344 C 22.792969 45.097656 22.171875 45.226563 21.871094 45.691406 C 21.570313 46.152344 21.695313 46.773438 22.160156 47.074219 C 25.085938 48.988281 28.488281 50 32 50 C 41.925781 50 50 41.925781 50 32 C 50 27.488281 48.320313 23.242188 45.414063 20 Z M 22.808594 21.808594 C 22.554688 21.808594 22.296875 21.90625 22.101563 22.101563 C 21.710938 22.492188 21.710938 23.125 22.101563 23.515625 L 23.515625 24.929688 C 23.710938 25.125 23.964844 25.222656 24.222656 25.222656 C 24.480469 25.222656 24.734375 25.125 24.929688 24.929688 C 25.320313 24.539063 25.320313 23.90625 24.929688 23.515625 L 23.515625 22.101563 C 23.320313 21.90625 23.0625 21.808594 22.808594 21.808594 Z M 43.328125 24.796875 C 43.195313 24.808594 43.066406 24.847656 42.945313 24.910156 C 42.460938 25.175781 42.28125 25.785156 42.546875 26.269531 C 44.320313 29.539063 44.488281 33.371094 43.003906 36.78125 C 41.730469 39.722656 39.382813 41.988281 36.402344 43.164063 C 35.886719 43.367188 35.636719 43.945313 35.839844 44.460938 C 35.992188 44.855469 36.371094 45.09375 36.769531 45.09375 C 36.890625 45.09375 37.015625 45.074219 37.136719 45.027344 C 40.613281 43.65625 43.351563 41.007813 44.84375 37.578125 C 46.570313 33.601563 46.375 29.132813 44.300781 25.3125 C 44.105469 24.949219 43.714844 24.757813 43.328125 24.796875 Z M 20.035156 25.921875 C 19.644531 25.917969 19.273438 26.148438 19.113281 26.53125 C 18.898438 27.039063 19.132813 27.625 19.640625 27.84375 L 21.484375 28.625 C 21.613281 28.675781 21.742188 28.703125 21.875 28.703125 C 22.261719 28.703125 22.632813 28.476563 22.796875 28.09375 C 23.011719 27.585938 22.773438 26.996094 22.265625 26.78125 L 20.421875 26 C 20.296875 25.945313 20.164063 25.921875 20.035156 25.921875 Z M 32 26 C 28.691406 26 26 28.691406 26 32 C 26 32.550781 26.449219 33 27 33 C 27.550781 33 28 32.550781 28 32 C 28 29.792969 29.792969 28 32 28 C 32.550781 28 33 27.550781 33 27 C 33 26.449219 32.550781 26 32 26 Z M 19 31 C 18.449219 31 18 31.449219 18 32 C 18 32.550781 18.449219 33 19 33 L 21 33 C 21.550781 33 22 32.550781 22 32 C 22 31.449219 21.550781 31 21 31 Z M 37 31 C 36.449219 31 36 31.449219 36 32 C 36 34.207031 34.207031 36 32 36 C 31.449219 36 31 36.449219 31 37 C 31 37.550781 31.449219 38 32 38 C 35.308594 38 38 35.308594 38 32 C 38 31.449219 37.550781 31 37 31 Z M 21.816406 35.121094 C 21.6875 35.117188 21.554688 35.140625 21.425781 35.191406 L 19.574219 35.941406 C 19.058594 36.148438 18.8125 36.730469 19.019531 37.246094 C 19.175781 37.632813 19.550781 37.871094 19.949219 37.871094 C 20.074219 37.871094 20.199219 37.847656 20.324219 37.796875 L 22.175781 37.046875 C 22.691406 36.839844 22.933594 36.257813 22.730469 35.746094 C 22.574219 35.359375 22.207031 35.128906 21.816406 35.121094 Z M 27.703125 41.125 C 27.316406 41.125 26.941406 41.351563 26.78125 41.734375 L 26 43.578125 C 25.785156 44.085938 26.019531 44.671875 26.53125 44.886719 C 26.65625 44.941406 26.789063 44.96875 26.921875 44.96875 C 27.308594 44.96875 27.679688 44.738281 27.84375 44.359375 L 28.625 42.515625 C 28.839844 42.007813 28.601563 41.421875 28.09375 41.203125 C 27.964844 41.152344 27.835938 41.125 27.703125 41.125 Z M 32 42 C 31.449219 42 31 42.449219 31 43 L 31 45 C 31 45.550781 31.449219 46 32 46 C 32.550781 46 33 45.550781 33 45 L 33 43 C 33 42.449219 32.550781 42 32 42 Z"/></svg>