<svg xmlns="http://www.w3.org/2000/svg" xmlns:xlink="http://www.w3.org/1999/xlink" viewBox="0,0,256,256" width="128px" height="128px"><g fill="none" fill-rule="nonzero" stroke="none" stroke-width="1" stroke-linecap="butt" stroke-linejoin="miter" stroke-miterlimit="10" stroke-dasharray="" stroke-dashoffset="0" font-family="none" font-weight="none" font-size="none" text-anchor="none" style="mix-blend-mode: normal"><g transform="scale(4,4)"><path d="M31,3c-15.46397,0 -28,12.53603 -28,28c0,15.46397 12.53603,28 28,28c15.46397,0 28,-12.53603 28,-28c0,-15.46397 -12.53603,-28 -28,-28z" fill="#ed576b"></path><path d="M31,3c-15.46397,0 -28,12.53603 -28,28c0,15.46397 12.53603,28 28,28c15.46397,0 28,-12.53603 28,-28c0,-15.46397 -12.53603,-28 -28,-28zM31,53c-9.89151,0.00157 -18.56791,-6.59855 -21.20639,-16.13167c-2.63848,-9.53312 1.40975,-19.65504 9.89448,-24.73947c8.48473,-5.08442 19.31956,-3.88108 26.48191,2.94114l0.68,0.67c0.26,0.26667 0.51,0.54 0.75,0.82c5.65876,6.50435 6.99678,15.71456 3.42275,23.56022c-3.57404,7.84566 -11.40137,12.88065 -20.02275,12.87978z" fill="#e8d6ee"></path><path d="M31,53c-12.15026,0 -22,-9.84974 -22,-22h-1.66c-1.18747,-0.00401 -2.31534,0.51979 -3.07839,1.42965c-0.76305,0.90987 -1.08239,2.11173 -0.87161,3.28035c2.28563,13.46288 13.94948,23.31343 27.605,23.31343c13.65552,0 25.31937,-9.85054 27.605,-23.31343c0.21047,-1.1669 -0.10762,-2.36703 -0.86841,-3.2765c-0.76079,-0.90947 -1.88587,-1.43454 -3.07159,-1.4335h-1.66c0,12.15026 -9.84974,22 -22,22z" fill="#dbbee4"></path><path d="M31,2c-16.01626,0 -29,12.98374 -29,29c0,16.01626 12.98374,29 29,29c16.01626,0 29,-12.98374 29,-29c0,-16.01626 -12.98374,-29 -29,-29zM31,58c-14.91169,0 -27,-12.08831 -27,-27c0,-14.91169 12.08831,-27 27,-27c14.91169,0 27,12.08831 27,27c0,14.91169 -12.08831,27 -27,27z" fill="#1b0f24"></path><path d="M12,31v2c0,0.55228 0.44772,1 1,1c0.55228,0 1,-0.44772 1,-1v-2c0,-0.55228 -0.44772,-1 -1,-1c-0.55228,0 -1,0.44772 -1,1zM17,31v2c0,0.55228 0.44772,1 1,1c0.55228,0 1,-0.44772 1,-1v-2c0,-0.55228 -0.44772,-1 -1,-1c-0.55228,0 -1,0.44772 -1,1zM22,31v2c0,0.55228 0.44772,1 1,1c0.55228,0 1,-0.44772 1,-1v-2c0,-0.55228 -0.44772,-1 -1,-1c-0.55228,0 -1,0.44772 -1,1zM38,31v2c0,0.55228 0.44772,1 1,1c0.55228,0 1,-0.44772 1,-1v-2c0,-0.55228 -0.44772,-1 -1,-1c-0.55228,0 -1,0.44772 -1,1zM44,34c0.55228,0 1,-0.44772 1,-1v-2c0,-0.55228 -0.44772,-1 -1,-1c-0.55228,0 -1,0.44772 -1,1v2c0,0.55228 0.44772,1 1,1zM50,33v-2c0,-0.55228 -0.44772,-1 -1,-1c-0.55228,0 -1,0.44772 -1,1v2c0,0.55228 0.44772,1 1,1c0.55228,0 1,-0.44772 1,-1zM31,38c0.55228,0 1,-0.44772 1,-1v-1.57l0.88,-13.35c0.04094,-0.53648 -0.14392,-1.0657 -0.51,-1.46c-0.28705,-0.30245 -0.66741,-0.49967 -1.08,-0.56c-0.09315,-0.03428 -0.19089,-0.0545 -0.29,-0.06c-0.07641,-0.00885 -0.15359,-0.00885 -0.23,0c-0.46662,0.03042 -0.90516,0.23364 -1.23,0.57c-0.36344,0.39187 -0.5481,0.9169 -0.51,1.45l0.92,14v0v0.98c-0.00034,0.27411 0.11185,0.53635 0.31034,0.72539c0.19849,0.18904 0.46589,0.28832 0.73966,0.27461zM31.04,40c-1.10457,0 -2,0.89543 -2,2c0,1.10457 0.89543,2 2,2c1.10457,0 2,-0.89543 2,-2c0,-1.10457 -0.89543,-2 -2,-2z" fill="#1b0f24"></path><path d="M31,54c-12.70255,0 -23,-10.29745 -23,-23c0,-12.70255 10.29745,-23 23,-23c1.12433,-0.00128 2.24727,0.07893 3.36,0.24c0.55228,0.08008 0.93508,0.59272 0.855,1.145c-0.08008,0.55228 -0.59272,0.93508 -1.145,0.855c-8.68191,-1.28299 -17.24607,2.9682 -21.47335,10.65922c-4.22727,7.69102 -3.22605,17.19971 2.51041,23.84159c5.73646,6.64188 14.99825,9.01608 23.22253,5.95294c8.22428,-3.06314 13.67642,-10.91755 13.6704,-19.69374c0.02496,-6.44602 -2.92735,-12.54256 -8,-16.52c-0.43354,-0.34242 -0.50742,-0.97146 -0.165,-1.405c0.34242,-0.43354 0.97146,-0.50742 1.405,-0.165c7.71808,6.06007 10.74131,16.34947 7.52807,25.62138c-3.21324,9.27191 -11.95517,15.48402 -21.76807,15.46862z" fill="#1b0f24"></path><path d="M41,12.4c-0.15992,0.00064 -0.31767,-0.03708 -0.46,-0.11c-0.74931,-0.37922 -1.5207,-0.71316 -2.31,-1c-0.51915,-0.19054 -0.78554,-0.76585 -0.595,-1.285c0.19054,-0.51915 0.76585,-0.78554 1.285,-0.595c0.86489,0.31879 1.70975,0.68946 2.53,1.11c0.39922,0.21516 0.60368,0.67203 0.49811,1.11308c-0.10557,0.44105 -0.49473,0.75584 -0.94811,0.76692z" fill="#1b0f24"></path></g></g></svg>