<svg xmlns="http://www.w3.org/2000/svg"  viewBox="0 0 64 64" width="64px" height="64px"><path d="M 10.078125 15.212891 C 9.309875 15.213016 8.5415313 15.505344 7.9570312 16.089844 L 5.1308594 18.917969 C 3.9608594 20.087969 3.9608594 21.991156 5.1308594 23.160156 L 29.878906 47.910156 C 30.463906 48.495156 31.231 48.787109 32 48.787109 C 32.769 48.787109 33.536094 48.495156 34.121094 47.910156 L 47.142578 34.888672 C 47.533578 34.497672 47.533578 33.865609 47.142578 33.474609 C 46.751578 33.083609 46.119516 33.083609 45.728516 33.474609 L 32.707031 46.496094 C 32.316031 46.886094 31.683969 46.886094 31.292969 46.496094 L 6.5449219 21.746094 C 6.3559219 21.557094 6.2519531 21.306062 6.2519531 21.039062 C 6.2519531 20.772063 6.3569219 20.521031 6.5449219 20.332031 L 9.3710938 17.503906 C 9.7610938 17.114906 10.395109 17.113906 10.787109 17.503906 L 31.292969 38.009766 C 31.683969 38.400766 32.316031 38.400766 32.707031 38.009766 L 53.212891 17.503906 C 53.604891 17.113906 54.238906 17.114906 54.628906 17.503906 L 57.455078 20.332031 C 57.644078 20.521031 57.748047 20.772063 57.748047 21.039062 C 57.748047 21.307062 57.643078 21.557094 57.455078 21.746094 L 54.212891 24.990234 C 53.821891 25.381234 53.821891 26.013297 54.212891 26.404297 C 54.603891 26.795297 55.235953 26.795297 55.626953 26.404297 L 58.869141 23.160156 C 60.039141 21.990156 60.039141 20.086969 58.869141 18.917969 L 56.042969 16.089844 C 54.873969 14.920844 52.969828 14.919844 51.798828 16.089844 L 32 35.888672 L 12.201172 16.089844 C 11.615672 15.504844 10.846375 15.212766 10.078125 15.212891 z M 12.292969 20.988281 C 12.037219 20.988281 11.781437 21.08575 11.585938 21.28125 L 10.171875 22.695312 C 9.780875 23.086312 9.780875 23.718375 10.171875 24.109375 C 10.366875 24.304375 10.622906 24.402344 10.878906 24.402344 C 11.134906 24.402344 11.390938 24.304375 11.585938 24.109375 L 12.998047 22.695312 C 13.389047 22.304312 13.389047 21.67225 12.998047 21.28125 C 12.802547 21.08575 12.548719 20.988281 12.292969 20.988281 z M 15.369141 24.064453 C 15.113391 24.064578 14.857609 24.162422 14.662109 24.357422 L 13.246094 25.771484 C 12.855094 26.162484 12.855094 26.7965 13.246094 27.1875 C 13.441094 27.3825 13.697125 27.480469 13.953125 27.480469 C 14.209125 27.480469 14.465156 27.3815 14.660156 27.1875 L 16.076172 25.773438 C 16.467172 25.382437 16.467172 24.748422 16.076172 24.357422 C 15.880672 24.161922 15.624891 24.064328 15.369141 24.064453 z M 52.091797 27.525391 C 51.836047 27.525391 51.580266 27.622859 51.384766 27.818359 L 48.556641 30.646484 C 48.165641 31.037484 48.165641 31.669547 48.556641 32.060547 C 48.751641 32.255547 49.007672 32.353516 49.263672 32.353516 C 49.519672 32.353516 49.774703 32.255547 49.970703 32.060547 L 52.798828 29.232422 C 53.189828 28.841422 53.189828 28.209359 52.798828 27.818359 C 52.603328 27.622859 52.347547 27.525391 52.091797 27.525391 z"/></svg>