<svg xmlns="http://www.w3.org/2000/svg" xmlns:xlink="http://www.w3.org/1999/xlink" viewBox="0,0,256,256" width="128px" height="128px"><g fill="none" fill-rule="nonzero" stroke="none" stroke-width="1" stroke-linecap="butt" stroke-linejoin="miter" stroke-miterlimit="10" stroke-dasharray="" stroke-dashoffset="0" font-family="none" font-weight="none" font-size="none" text-anchor="none" style="mix-blend-mode: normal"><g transform="scale(4,4)"><path d="M39.071,41.546l-5.657,5.657c-0.781,0.781 -2.047,0.781 -2.828,0l-24.749,-24.749c-0.781,-0.781 -0.781,-2.047 0,-2.828l2.828,-2.828c0.781,-0.781 2.047,-0.781 2.828,0l20.507,20.505l20.506,-20.506c0.781,-0.781 2.047,-0.781 2.828,0l2.828,2.828c0.781,0.781 0.781,2.047 0,2.828l-10.606,10.608M41.899,38.718l2.828,-2.828" fill="#19e6ac"></path><path d="M32,48.787c-0.769,0 -1.536,-0.292 -2.121,-0.877l-24.749,-24.749c-1.17,-1.169 -1.17,-3.073 0,-4.243l2.828,-2.828c1.169,-1.169 3.072,-1.17 4.243,0l19.799,19.799l19.799,-19.799c1.171,-1.17 3.074,-1.169 4.243,0l2.828,2.828c1.17,1.169 1.17,3.073 0,4.243l-3.243,3.243c-0.391,0.391 -1.023,0.391 -1.414,0c-0.391,-0.391 -0.391,-1.023 0,-1.414l3.243,-3.243c0.188,-0.189 0.293,-0.44 0.293,-0.708c0,-0.267 -0.104,-0.518 -0.293,-0.707l-2.828,-2.828c-0.39,-0.389 -1.023,-0.39 -1.415,0l-20.506,20.506c-0.391,0.391 -1.023,0.391 -1.414,0l-20.506,-20.506c-0.392,-0.39 -1.025,-0.389 -1.415,0l-2.828,2.828c-0.188,0.189 -0.293,0.44 -0.293,0.707c0,0.267 0.104,0.519 0.293,0.708l24.749,24.749c0.391,0.39 1.023,0.39 1.414,0l13.021,-13.021c0.391,-0.391 1.023,-0.391 1.414,0c0.391,0.391 0.391,1.023 0,1.414l-13.021,13.021c-0.585,0.585 -1.352,0.877 -2.121,0.877zM49.263,32.354c-0.256,0 -0.512,-0.098 -0.707,-0.293c-0.391,-0.391 -0.391,-1.023 0,-1.414l2.828,-2.828c0.391,-0.391 1.023,-0.391 1.414,0c0.391,0.391 0.391,1.023 0,1.414l-2.828,2.828c-0.196,0.195 -0.451,0.293 -0.707,0.293z" fill="#1b0f24"></path><path d="M10.878,24.402c-0.256,0 -0.512,-0.098 -0.707,-0.293c-0.391,-0.391 -0.391,-1.023 0,-1.414l1.414,-1.414c0.391,-0.391 1.023,-0.391 1.414,0c0.391,0.391 0.391,1.023 0,1.414l-1.414,1.414c-0.195,0.195 -0.451,0.293 -0.707,0.293zM14.661,27.186l1.415,-1.414c0.391,-0.39 0.391,-1.023 0,-1.414c-0.391,-0.391 -1.023,-0.39 -1.414,0l-1.415,1.415c-0.391,0.39 -0.391,1.023 0,1.414c0.195,0.195 0.451,0.293 0.707,0.293c0.256,0 0.512,-0.099 0.707,-0.294z" fill="#1b0f24"></path></g></g></svg>