<svg xmlns="http://www.w3.org/2000/svg" xmlns:xlink="http://www.w3.org/1999/xlink" viewBox="0,0,256,256" width="128px" height="128px"><g fill="none" fill-rule="nonzero" stroke="none" stroke-width="1" stroke-linecap="butt" stroke-linejoin="miter" stroke-miterlimit="10" stroke-dasharray="" stroke-dashoffset="0" font-family="none" font-weight="none" font-size="none" text-anchor="none" style="mix-blend-mode: normal"><g transform="scale(4,4)"><path d="M7,11h56v36h-56z" fill="#e8d6ee"></path><path d="M53,11h9v9h-9zM44,20h9v9h-9zM35,11h9v9h-9zM26,20h9v9h-9zM17,11h9v9h-9zM8,20h9v9h-9zM53,29h9v9h-9zM44,38h9v9h-9zM35,29h9v9h-9zM26,38h9v9h-9zM17,29h9v9h-9zM8,38h9v9h-9z" fill="#423949"></path><path d="M3,8h4v55h-4z" fill="#8e7e9a"></path><path d="M5,1c-2.20914,0 -4,1.79086 -4,4c0,2.20914 1.79086,4 4,4c2.20914,0 4,-1.79086 4,-4c0,-2.20914 -1.79086,-4 -4,-4z" fill="#ffc409"></path><path d="M16,50c-0.55228,0 -1,0.44772 -1,1v2c0,0.55228 0.44772,1 1,1c0.55228,0 1,-0.44772 1,-1v-2c0,-0.55228 -0.44772,-1 -1,-1zM11,50c-0.55228,0 -1,0.44772 -1,1v2c0,0.55228 0.44772,1 1,1c0.55228,0 1,-0.44772 1,-1v-2c0,-0.55228 -0.44772,-1 -1,-1zM21,50c-0.55228,0 -1,0.44772 -1,1v2c0,0.55228 0.44772,1 1,1c0.55228,0 1,-0.44772 1,-1v-2c0,-0.55228 -0.44772,-1 -1,-1zM31,50c-0.55228,0 -1,0.44772 -1,1v2c0,0.55228 0.44772,1 1,1c0.55228,0 1,-0.44772 1,-1v-2c0,-0.55228 -0.44772,-1 -1,-1zM26,50c-0.55228,0 -1,0.44772 -1,1v2c0,0.55228 0.44772,1 1,1c0.55228,0 1,-0.44772 1,-1v-2c0,-0.55228 -0.44772,-1 -1,-1zM36,50c-0.55228,0 -1,0.44772 -1,1v2c0,0.55228 0.44772,1 1,1c0.55228,0 1,-0.44772 1,-1v-2c0,-0.55228 -0.44772,-1 -1,-1zM56,50c-0.55228,0 -1,0.44772 -1,1v2c0,0.55228 0.44772,1 1,1c0.55228,0 1,-0.44772 1,-1v-2c0,-0.55228 -0.44772,-1 -1,-1zM61,50c-0.55228,0 -1,0.44772 -1,1v2c0,0.55228 0.44772,1 1,1c0.55228,0 1,-0.44772 1,-1v-2c0,-0.55228 -0.44772,-1 -1,-1zM41,50c-0.55228,0 -1,0.44772 -1,1v2c0,0.55228 0.44772,1 1,1c0.55228,0 1,-0.44772 1,-1v-2c0,-0.55228 -0.44772,-1 -1,-1zM51,50c-0.55228,0 -1,0.44772 -1,1v2c0,0.55228 0.44772,1 1,1c0.55228,0 1,-0.44772 1,-1v-2c0,-0.55228 -0.44772,-1 -1,-1zM46,50c-0.55228,0 -1,0.44772 -1,1v2c0,0.55228 0.44772,1 1,1c0.55228,0 1,-0.44772 1,-1v-2c0,-0.55228 -0.44772,-1 -1,-1z" fill="#1b0f24"></path><path d="M61,10h-53v-1c1.72172,-1.29129 2.42399,-3.53943 1.74342,-5.58114c-0.68057,-2.04171 -2.59126,-3.41886 -4.74342,-3.41886c-2.15215,0 -4.06285,1.37715 -4.74342,3.41886c-0.68057,2.04171 0.02169,4.28985 1.74342,5.58114v55h6v-16h53c1.65685,0 3,-1.34315 3,-3v-32c0,-1.65685 -1.34315,-3 -3,-3zM6,10v52h-2v-52.1c0.32881,0.0689 0.66405,0.10243 1,0.1c0.33595,0.00243 0.67119,-0.0311 1,-0.1zM7.23,7c-0.96775,1.07539 -2.56513,1.30694 -3.7984,0.55059c-1.23326,-0.75635 -1.75107,-2.28512 -1.23127,-3.63524c0.5198,-1.35012 1.9291,-2.13695 3.35117,-1.871c1.42207,0.26595 2.45176,1.50893 2.4485,2.95565c-0.00167,0.73873 -0.27584,1.45088 -0.77,2zM62,45c0,0.55228 -0.44772,1 -1,1h-53v-34h53c0.55228,0 1,0.44772 1,1z" fill="#1b0f24"></path></g></g></svg>