<svg xmlns="http://www.w3.org/2000/svg" xmlns:xlink="http://www.w3.org/1999/xlink" viewBox="0,0,256,256" width="64px" height="64px" fill-rule="nonzero"><g fill="none" fill-rule="nonzero" stroke="none" stroke-width="1" stroke-linecap="butt" stroke-linejoin="miter" stroke-miterlimit="10" stroke-dasharray="" stroke-dashoffset="0" font-family="none" font-weight="none" font-size="none" text-anchor="none" style="mix-blend-mode: normal"><g transform="scale(4,4)"><path d="M55,33l-24,-20l-24,20v24h48z" fill="#e8d6ee"></path><path d="M31,13l-24,20v1.7c0,1.1 0.9,2 2,2c0.5,0 0.9,-0.2 1.3,-0.5l20.1,-16.7c0.4,-0.3 0.9,-0.3 1.3,0l20.1,16.7c0.8,0.7 2.1,0.6 2.8,-0.3c0.3,-0.4 0.5,-0.8 0.5,-1.3v-1.6z" fill="#dbbee4"></path><path d="M7,47h48v10h-48z" fill="#6930c3"></path><path d="M31.6,13.5l25.7,21.1c0.4,0.3 1.1,0.3 1.4,-0.1c0.1,-0.2 0.2,-0.4 0.2,-0.6v-2.9c0,-0.6 -0.3,-1.2 -0.7,-1.5l-25.9,-21.5c-0.7,-0.6 -1.8,-0.6 -2.5,0l-26,21.4c-0.5,0.4 -0.8,0.9 -0.8,1.6v2.9c0,0.6 0.5,1 1,1c0.2,0 0.4,-0.1 0.6,-0.2l25.7,-21.1c0.4,-0.4 1,-0.4 1.3,-0.1z" fill="#c86bfa"></path><path d="M16,50c-0.6,0 -1,0.4 -1,1v2c0,0.6 0.4,1 1,1c0.6,0 1,-0.4 1,-1v-2c0,-0.6 -0.4,-1 -1,-1zM11,50c-0.6,0 -1,0.4 -1,1v2c0,0.6 0.4,1 1,1c0.6,0 1,-0.4 1,-1v-2c0,-0.6 -0.4,-1 -1,-1zM46,50c-0.6,0 -1,0.4 -1,1v2c0,0.6 0.4,1 1,1c0.6,0 1,-0.4 1,-1v-2c0,-0.6 -0.4,-1 -1,-1zM51,50c-0.6,0 -1,0.4 -1,1v2c0,0.6 0.4,1 1,1c0.6,0 1,-0.4 1,-1v-2c0,-0.6 -0.4,-1 -1,-1z" fill="#1b0f24"></path><path d="M31,20c-2.20914,0 -4,1.79086 -4,4c0,2.20914 1.79086,4 4,4c2.20914,0 4,-1.79086 4,-4c0,-2.20914 -1.79086,-4 -4,-4z" fill="#73e9c7"></path><path d="M31,19c-2.8,0 -5,2.2 -5,5c0,2.8 2.2,5 5,5c2.8,0 5,-2.2 5,-5c0,-2.8 -2.2,-5 -5,-5zM31,27.2c-1.8,0 -3.2,-1.4 -3.2,-3.2c0,-1.8 1.4,-3.2 3.2,-3.2c1.8,0 3.2,1.4 3.2,3.2v0c0,1.8 -1.4,3.2 -3.2,3.2z" fill="#1b0f24"></path><path d="M25,37h12v20h-12z" fill="#c86bfa"></path><path d="M33,45c-0.6,0 -1,0.4 -1,1v2c0,0.6 0.4,1 1,1c0.6,0 1,-0.4 1,-1v-2c0,-0.6 -0.4,-1 -1,-1z" fill="#1b0f24"></path><path d="M56.7,35.4c0.9,0.7 2.1,0.6 2.8,-0.3c0.3,-0.4 0.5,-0.8 0.5,-1.3v-2.8c0,-0.9 -0.4,-1.8 -1.1,-2.3l-26,-21.4c-1.1,-0.9 -2.7,-0.9 -3.8,0l-11.1,9.1v-3.3c0,-0.6 -0.4,-1 -1,-1c-0.6,0 -1,0.4 -1,1v5l-2,1.6v-10.6c0,-0.6 -0.4,-1 -1,-1c-0.6,0 -1,0.4 -1,1v12c0,0.1 0,0.1 0,0.2l-8.9,7.4c-0.7,0.5 -1.1,1.4 -1.1,2.3v2.9c0,0.8 0.4,1.5 1.2,1.8c0.7,0.3 1.5,0.2 2.1,-0.3l0.7,-0.6v21.2h-3c-0.6,0 -1,0.4 -1,1c0,0.6 0.4,1 1,1h56c0.6,0 1,-0.4 1,-1c0,-0.6 -0.4,-1 -1,-1h-3v-21.2zM22,56h-2h-12v-8h16v8zM26,56v-18h10v18zM54,56h-12h-2h-2v-8h16zM54,38v8h-16v-8c0,-1.1 -0.9,-2 -2,-2h-10c-1.1,0 -2,0.9 -2,2v8h-16v-8v-4.8l23,-18.9l23,18.9zM32.3,12.8c-0.7,-0.6 -1.8,-0.6 -2.5,0l-25.8,21.1v-2.9c0,-0.3 0.1,-0.6 0.4,-0.8l26,-21.4c0.4,-0.3 0.9,-0.3 1.3,0l26,21.4c0.2,0.2 0.4,0.5 0.4,0.8v2.9z" fill="#1b0f24"></path><path d="M21,50c-0.6,0 -1,0.4 -1,1v2c0,0.6 0.4,1 1,1c0.6,0 1,-0.4 1,-1v-2c0,-0.6 -0.4,-1 -1,-1zM41,50c-0.6,0 -1,0.4 -1,1v2c0,0.6 0.4,1 1,1c0.6,0 1,-0.4 1,-1v-2c0,-0.6 -0.4,-1 -1,-1z" fill="#1b0f24"></path></g></g></svg>