<svg xmlns="http://www.w3.org/2000/svg" xmlns:xlink="http://www.w3.org/1999/xlink" viewBox="0,0,256,256" width="128px" height="128px"><g fill="none" fill-rule="nonzero" stroke="none" stroke-width="1" stroke-linecap="butt" stroke-linejoin="miter" stroke-miterlimit="10" stroke-dasharray="" stroke-dashoffset="0" font-family="none" font-weight="none" font-size="none" text-anchor="none" style="mix-blend-mode: normal"><g transform="scale(4,4)"><path d="M31,3c-15.46397,0 -28,12.53603 -28,28c0,15.46397 12.53603,28 28,28c15.46397,0 28,-12.53603 28,-28c0,-15.46397 -12.53603,-28 -28,-28z" fill="#c86bfa"></path><path d="M31,3c-15.46397,0 -28,12.53603 -28,28c0,15.46397 12.53603,28 28,28c15.46397,0 28,-12.53603 28,-28c0,-15.46397 -12.53603,-28 -28,-28zM31,53c-9.89151,0.00157 -18.56791,-6.59855 -21.20639,-16.13167c-2.63848,-9.53312 1.40975,-19.65504 9.89448,-24.73947c8.48473,-5.08442 19.31956,-3.88108 26.48191,2.94114l0.68,0.67c0.26,0.26667 0.51,0.54 0.75,0.82c5.65876,6.50435 6.99678,15.71456 3.42275,23.56022c-3.57404,7.84566 -11.40137,12.88065 -20.02275,12.87978z" fill="#e8d6ee"></path><path d="M31,53c-12.15026,0 -22,-9.84974 -22,-22h-1.66c-1.18747,-0.00401 -2.31534,0.51979 -3.07839,1.42965c-0.76305,0.90987 -1.08239,2.11173 -0.87161,3.28035c2.28563,13.46288 13.94948,23.31343 27.605,23.31343c13.65552,0 25.31937,-9.85054 27.605,-23.31343c0.21047,-1.1669 -0.10762,-2.36703 -0.86841,-3.2765c-0.76079,-0.90947 -1.88587,-1.43454 -3.07159,-1.4335h-1.66c0,12.15026 -9.84974,22 -22,22z" fill="#dbbee4"></path><path d="M31,2c-16.01626,0 -29,12.98374 -29,29c0,16.01626 12.98374,29 29,29c16.01626,0 29,-12.98374 29,-29c0,-16.01626 -12.98374,-29 -29,-29zM31,58c-14.91169,0 -27,-12.08831 -27,-27c0,-14.91169 12.08831,-27 27,-27c14.91169,0 27,12.08831 27,27c0,14.91169 -12.08831,27 -27,27z" fill="#1b0f24"></path><path d="M28,40c-0.55228,0 -1,0.44772 -1,1c-0.02865,0.273 0.06747,0.54434 0.26156,0.73844c0.1941,0.1941 0.46544,0.29021 0.73844,0.26156h6c0.55228,0 1,-0.44772 1,-1c0,-0.55228 -0.44772,-1 -1,-1h-2v-14h1c0.55228,0 1,-0.44772 1,-1c0,-0.55228 -0.44772,-1 -1,-1h-4c-0.55228,0 -1,0.44772 -1,1c-0.02865,0.273 0.06747,0.54434 0.26156,0.73844c0.1941,0.1941 0.46544,0.29021 0.73844,0.26156h1v14zM31,18c-1.10457,0 -2,0.89543 -2,2c0,1.10457 0.89543,2 2,2c1.10457,0 2,-0.89543 2,-2c0,-1.10457 -0.89543,-2 -2,-2zM12,31v2c0,0.55228 0.44772,1 1,1c0.55228,0 1,-0.44772 1,-1v-2c0,-0.55228 -0.44772,-1 -1,-1c-0.55228,0 -1,0.44772 -1,1zM17,31v2c0,0.55228 0.44772,1 1,1c0.55228,0 1,-0.44772 1,-1v-2c0,-0.55228 -0.44772,-1 -1,-1c-0.55228,0 -1,0.44772 -1,1zM22,31v2c0,0.55228 0.44772,1 1,1c0.55228,0 1,-0.44772 1,-1v-2c0,-0.55228 -0.44772,-1 -1,-1c-0.55228,0 -1,0.44772 -1,1zM38,31v2c0,0.55228 0.44772,1 1,1c0.55228,0 1,-0.44772 1,-1v-2c0,-0.55228 -0.44772,-1 -1,-1c-0.55228,0 -1,0.44772 -1,1zM44,34c0.55228,0 1,-0.44772 1,-1v-2c0,-0.55228 -0.44772,-1 -1,-1c-0.55228,0 -1,0.44772 -1,1v2c0,0.55228 0.44772,1 1,1zM50,33v-2c0,-0.55228 -0.44772,-1 -1,-1c-0.55228,0 -1,0.44772 -1,1v2c0,0.55228 0.44772,1 1,1c0.55228,0 1,-0.44772 1,-1z" fill="#1b0f24"></path><path d="M31,54c-8.60883,-0.01735 -16.48723,-4.84085 -20.41722,-12.50033c-3.92999,-7.65947 -3.25352,-16.87239 1.75311,-23.87567c5.00662,-7.00329 13.50508,-10.6243 22.02411,-9.384c0.55228,0.08008 0.93508,0.59272 0.855,1.145c-0.08008,0.55228 -0.59272,0.93508 -1.145,0.855c-1.01619,-0.15403 -2.04221,-0.23424 -3.07,-0.24c-10.25274,0.0171 -18.99435,7.43524 -20.67941,17.54858c-1.68506,10.11334 4.17908,19.96506 13.8724,23.30552c9.69331,3.34047 20.38178,-0.80697 25.28496,-9.81129c4.90318,-9.00433 2.58754,-20.23296 -5.47795,-26.56281c-0.43354,-0.34242 -0.50742,-0.97146 -0.165,-1.405c0.34242,-0.43354 0.97146,-0.50742 1.405,-0.165c7.71808,6.06007 10.74131,16.34947 7.52807,25.62138c-3.21324,9.27191 -11.95517,15.48402 -21.76807,15.46862z" fill="#1b0f24"></path><path d="M41,12.4c-0.15654,-0.00094 -0.31068,-0.03862 -0.45,-0.11c-0.74931,-0.37922 -1.5207,-0.71316 -2.31,-1c-0.51915,-0.19054 -0.78554,-0.76585 -0.595,-1.285c0.19054,-0.51915 0.76585,-0.78554 1.285,-0.595c0.86481,0.31897 1.70967,0.68964 2.53,1.11c0.40065,0.21613 0.60477,0.67559 0.49657,1.11778c-0.10819,0.44219 -0.50139,0.7555 -0.95657,0.76222z" fill="#1b0f24"></path></g></g></svg>