<svg width="540" height="960" viewBox="0 0 540 960" fill="none" xmlns="http://www.w3.org/2000/svg">
<g clip-path="url(#clip0_19_30)">
<path d="M540 0H0V960H540V0Z" fill="#C9ADE4"/>
<path d="M0 528L12.8 525.2C25.7 522.3 51.3 516.7 77 510.2C102.7 503.7 128.3 496.3 154 522.2C179.7 548 205.3 607 231.2 617.3C257 627.7 283 589.3 308.8 576.7C334.7 564 360.3 577 386 567.7C411.7 558.3 437.3 526.7 463 530.2C488.7 533.7 514.3 572.3 527.2 591.7L540 611V960H527.2C514.3 960 488.7 960 463 960C437.3 960 411.7 960 386 960C360.3 960 334.7 960 308.8 960C283 960 257 960 231.2 960C205.3 960 179.7 960 154 960C128.3 960 102.7 960 77 960C51.3 960 25.7 960 12.8 960H0V528Z" fill="#9389E0"/>
<path d="M0 722L12.8 712.7C25.7 703.3 51.3 684.7 77 673C102.7 661.3 128.3 656.7 154 650.7C179.7 644.7 205.3 637.3 231.2 628.3C257 619.3 283 608.7 308.8 618.2C334.7 627.7 360.3 657.3 386 652.3C411.7 647.3 437.3 607.7 463 597.3C488.7 587 514.3 606 527.2 615.5L540 625V960H527.2C514.3 960 488.7 960 463 960C437.3 960 411.7 960 386 960C360.3 960 334.7 960 308.8 960C283 960 257 960 231.2 960C205.3 960 179.7 960 154 960C128.3 960 102.7 960 77 960C51.3 960 25.7 960 12.8 960H0V722Z" fill="#8675DB"/>
<path d="M0 660L12.8 663.5C25.7 667 51.3 674 77 691.7C102.7 709.3 128.3 737.7 154 741.3C179.7 745 205.3 724 231.2 721.3C257 718.7 283 734.3 308.8 728.8C334.7 723.3 360.3 696.7 386 686.2C411.7 675.7 437.3 681.3 463 686.2C488.7 691 514.3 695 527.2 697L540 699V960H527.2C514.3 960 488.7 960 463 960C437.3 960 411.7 960 386 960C360.3 960 334.7 960 308.8 960C283 960 257 960 231.2 960C205.3 960 179.7 960 154 960C128.3 960 102.7 960 77 960C51.3 960 25.7 960 12.8 960H0V660Z" fill="#7B60D4"/>
<path d="M0 814L12.8 805.7C25.7 797.3 51.3 780.7 77 775.7C102.7 770.7 128.3 777.3 154 778.2C179.7 779 205.3 774 231.2 770.2C257 766.3 283 763.7 308.8 757.2C334.7 750.7 360.3 740.3 386 749C411.7 757.7 437.3 785.3 463 797.3C488.7 809.3 514.3 805.7 527.2 803.8L540 802V960H527.2C514.3 960 488.7 960 463 960C437.3 960 411.7 960 386 960C360.3 960 334.7 960 308.8 960C283 960 257 960 231.2 960C205.3 960 179.7 960 154 960C128.3 960 102.7 960 77 960C51.3 960 25.7 960 12.8 960H0V814Z" fill="#714ACC"/>
<path d="M0 837L12.8 846.8C25.7 856.7 51.3 876.3 77 873.2C102.7 870 128.3 844 154 837.5C179.7 831 205.3 844 231.2 855C257 866 283 875 308.8 878C334.7 881 360.3 878 386 880.2C411.7 882.3 437.3 889.7 463 879.5C488.7 869.3 514.3 841.7 527.2 827.8L540 814V960H527.2C514.3 960 488.7 960 463 960C437.3 960 411.7 960 386 960C360.3 960 334.7 960 308.8 960C283 960 257 960 231.2 960C205.3 960 179.7 960 154 960C128.3 960 102.7 960 77 960C51.3 960 25.7 960 12.8 960H0V837Z" fill="#6930C3"/>
</g>
<defs>
<clipPath id="clip0_19_30">
<rect width="540" height="960" fill="white"/>
</clipPath>
</defs>
</svg>
