<svg width="540" height="960" viewBox="0 0 540 960" fill="none" xmlns="http://www.w3.org/2000/svg">
<g clip-path="url(#clip0_14_2)">
<path d="M540 0H0V960H540V0Z" fill="#30223A"/>
<path d="M0 529L12.8 526.2C25.7 523.3 51.3 517.7 77 511.2C102.7 504.7 128.3 497.3 154 523.2C179.7 549 205.3 608 231.2 618.3C257 628.7 283 590.3 308.8 577.7C334.7 565 360.3 578 386 568.7C411.7 559.3 437.3 527.7 463 531.2C488.7 534.7 514.3 573.3 527.2 592.7L540 612V961H527.2C514.3 961 488.7 961 463 961C437.3 961 411.7 961 386 961C360.3 961 334.7 961 308.8 961C283 961 257 961 231.2 961C205.3 961 179.7 961 154 961C128.3 961 102.7 961 77 961C51.3 961 25.7 961 12.8 961H0V529Z" fill="#6930C3"/>
<path d="M0 723L12.8 713.7C25.7 704.3 51.3 685.7 77 674C102.7 662.3 128.3 657.7 154 651.7C179.7 645.7 205.3 638.3 231.2 629.3C257 620.3 283 609.7 308.8 619.2C334.7 628.7 360.3 658.3 386 653.3C411.7 648.3 437.3 608.7 463 598.3C488.7 588 514.3 607 527.2 616.5L540 626V961H527.2C514.3 961 488.7 961 463 961C437.3 961 411.7 961 386 961C360.3 961 334.7 961 308.8 961C283 961 257 961 231.2 961C205.3 961 179.7 961 154 961C128.3 961 102.7 961 77 961C51.3 961 25.7 961 12.8 961H0V723Z" fill="#6334A2"/>
<path d="M0 661L12.8 664.5C25.7 668 51.3 675 77 692.7C102.7 710.3 128.3 738.7 154 742.3C179.7 746 205.3 725 231.2 722.3C257 719.7 283 735.3 308.8 729.8C334.7 724.3 360.3 697.7 386 687.2C411.7 676.7 437.3 682.3 463 687.2C488.7 692 514.3 696 527.2 698L540 700V961H527.2C514.3 961 488.7 961 463 961C437.3 961 411.7 961 386 961C360.3 961 334.7 961 308.8 961C283 961 257 961 231.2 961C205.3 961 179.7 961 154 961C128.3 961 102.7 961 77 961C51.3 961 25.7 961 12.8 961H0V661Z" fill="#5A3783"/>
<path d="M0 815L12.8 806.7C25.7 798.3 51.3 781.7 77 776.7C102.7 771.7 128.3 778.3 154 779.2C179.7 780 205.3 775 231.2 771.2C257 767.3 283 764.7 308.8 758.2C334.7 751.7 360.3 741.3 386 750C411.7 758.7 437.3 786.3 463 798.3C488.7 810.3 514.3 806.7 527.2 804.8L540 803V961H527.2C514.3 961 488.7 961 463 961C437.3 961 411.7 961 386 961C360.3 961 334.7 961 308.8 961C283 961 257 961 231.2 961C205.3 961 179.7 961 154 961C128.3 961 102.7 961 77 961C51.3 961 25.7 961 12.8 961H0V815Z" fill="#4F3965"/>
<path d="M0 838L12.8 847.8C25.7 857.7 51.3 877.3 77 874.2C102.7 871 128.3 845 154 838.5C179.7 832 205.3 845 231.2 856C257 867 283 876 308.8 879C334.7 882 360.3 879 386 881.2C411.7 883.3 437.3 890.7 463 880.5C488.7 870.3 514.3 842.7 527.2 828.8L540 815V961H527.2C514.3 961 488.7 961 463 961C437.3 961 411.7 961 386 961C360.3 961 334.7 961 308.8 961C283 961 257 961 231.2 961C205.3 961 179.7 961 154 961C128.3 961 102.7 961 77 961C51.3 961 25.7 961 12.8 961H0V838Z" fill="#423949"/>
</g>
<defs>
<clipPath id="clip0_14_2">
<rect width="540" height="960" fill="white"/>
</clipPath>
</defs>
</svg>
