<svg xmlns="http://www.w3.org/2000/svg" xmlns:xlink="http://www.w3.org/1999/xlink" viewBox="0,0,256,256" width="64px" height="64px" fill-rule="nonzero"><g fill="none" fill-rule="nonzero" stroke="none" stroke-width="1" stroke-linecap="butt" stroke-linejoin="miter" stroke-miterlimit="10" stroke-dasharray="" stroke-dashoffset="0" font-family="none" font-weight="none" font-size="none" text-anchor="none" style="mix-blend-mode: normal"><g transform="scale(4,4)"><path d="M63,9h-60v44h24.67l1.33,4h8l1.33,-4h24.67z" fill="#c86bfa"></path><path d="M33,52l-2.33,-3h-23.67v-42h22c2.20914,0 4,1.79086 4,4zM33,52l2.33,-3h23.67v-42h-22c-2.20914,0 -4,1.79086 -4,4z" fill="#e8d6ee"></path><path d="M7,7h5v42h-5z" fill="#f1e6f4"></path><path d="M61,8h-1.18c-0.42275,-1.19573 -1.55175,-1.99644 -2.82,-2h-20c-1.57379,0 -3.05573,0.74097 -4,2c-0.94427,-1.25903 -2.42621,-2 -4,-2h-20c-1.26825,0.00356 -2.39725,0.80427 -2.82,2h-1.18c-1.65685,0 -3,1.34315 -3,3v40c0,1.65685 1.34315,3 3,3h21.22c0.59567,0.00419 1.10971,0.41874 1.24,1c0.45665,1.76861 2.0534,3.0032 3.88,3h3.31c1.8266,0.0032 3.42335,-1.23139 3.88,-3c0.13029,-0.58126 0.64433,-0.99581 1.24,-1h21.23c1.65685,0 3,-1.34315 3,-3v-40c0,-1.65685 -1.34315,-3 -3,-3zM9,8h20c1.65685,0 3,1.34315 3,3v34c0,0.55228 0.44772,1 1,1c0.55228,0 1,-0.44772 1,-1v-34c0,-1.65685 1.34315,-3 3,-3h20c0.55228,0 1,0.44772 1,1v38c0,0.55228 -0.44772,1 -1,1h-20c-1.57379,0 -3.05573,0.74097 -4,2c-0.94427,-1.25903 -2.42621,-2 -4,-2h-20c-0.55228,0 -1,-0.44772 -1,-1v-38c0,-0.55228 0.44772,-1 1,-1zM62,51c0,0.55228 -0.44772,1 -1,1h-21.22c-1.50424,-0.00316 -2.81659,1.02031 -3.18,2.48c-0.22059,0.89224 -1.02089,1.51929 -1.94,1.52h-3.32c-0.91911,-0.00071 -1.71941,-0.62776 -1.94,-1.52c-0.36341,-1.45969 -1.67576,-2.48316 -3.18,-2.48h-21.22c-0.55228,0 -1,-0.44772 -1,-1v-40c0,-0.55228 0.44772,-1 1,-1h1v37c0,1.65685 1.34315,3 3,3h20c1.65685,0 3,1.34315 3,3c0,0.55228 0.44772,1 1,1c0.55228,0 1,-0.44772 1,-1c0,-1.65685 1.34315,-3 3,-3h20c1.65685,0 3,-1.34315 3,-3v-37h1c0.55228,0 1,0.44772 1,1z" fill="#30223a"></path><path d="M27,16h1c0.55228,0 1,-0.44772 1,-1c0,-0.55228 -0.44772,-1 -1,-1h-1c-0.55228,0 -1,0.44772 -1,1c0,0.55228 0.44772,1 1,1zM27,20h1c0.55228,0 1,-0.44772 1,-1c0,-0.55228 -0.44772,-1 -1,-1h-1c-0.55228,0 -1,0.44772 -1,1c0,0.55228 0.44772,1 1,1zM27,26h1c0.55228,0 1,-0.44772 1,-1c0,-0.55228 -0.44772,-1 -1,-1h-1c-0.55228,0 -1,0.44772 -1,1c0,0.55228 0.44772,1 1,1zM27,30h1c0.55228,0 1,-0.44772 1,-1c0,-0.55228 -0.44772,-1 -1,-1h-1c-0.55228,0 -1,0.44772 -1,1c0,0.55228 0.44772,1 1,1zM27,36h1c0.55228,0 1,-0.44772 1,-1c0,-0.55228 -0.44772,-1 -1,-1h-1c-0.55228,0 -1,0.44772 -1,1c0,0.55228 0.44772,1 1,1zM27,40h1c0.55228,0 1,-0.44772 1,-1c0,-0.55228 -0.44772,-1 -1,-1h-1c-0.55228,0 -1,0.44772 -1,1c0,0.55228 0.44772,1 1,1z" fill="#ff00aa"></path><path d="M23,16h1c0.55228,0 1,-0.44772 1,-1c0,-0.55228 -0.44772,-1 -1,-1h-1c-0.55228,0 -1,0.44772 -1,1c0,0.55228 0.44772,1 1,1zM23,20h1c0.55228,0 1,-0.44772 1,-1c0,-0.55228 -0.44772,-1 -1,-1h-1c-0.55228,0 -1,0.44772 -1,1c0,0.55228 0.44772,1 1,1zM23,30h1c0.55228,0 1,-0.44772 1,-1c0,-0.55228 -0.44772,-1 -1,-1h-1c-0.55228,0 -1,0.44772 -1,1c0,0.55228 0.44772,1 1,1zM23,36h1c0.55228,0 1,-0.44772 1,-1c0,-0.55228 -0.44772,-1 -1,-1h-1c-0.55228,0 -1,0.44772 -1,1c0,0.55228 0.44772,1 1,1z" fill="#19e6ac"></path><path d="M13,16h4c0.55228,0 1,-0.44772 1,-1c0,-0.55228 -0.44772,-1 -1,-1h-4c-0.55228,0 -1,0.44772 -1,1c0,0.55228 0.44772,1 1,1zM13,20h6c0.55228,0 1,-0.44772 1,-1c0,-0.55228 -0.44772,-1 -1,-1h-6c-0.55228,0 -1,0.44772 -1,1c0,0.55228 0.44772,1 1,1zM13,30h2c0.55228,0 1,-0.44772 1,-1c0,-0.55228 -0.44772,-1 -1,-1h-2c-0.55228,0 -1,0.44772 -1,1c0,0.55228 0.44772,1 1,1zM13,26h4c0.55228,0 1,-0.44772 1,-1c0,-0.55228 -0.44772,-1 -1,-1h-4c-0.55228,0 -1,0.44772 -1,1c0,0.55228 0.44772,1 1,1zM13,40h2c0.55228,0 1,-0.44772 1,-1c0,-0.55228 -0.44772,-1 -1,-1h-2c-0.55228,0 -1,0.44772 -1,1c0,0.55228 0.44772,1 1,1zM13,36h4c0.55228,0 1,-0.44772 1,-1c0,-0.55228 -0.44772,-1 -1,-1h-4c-0.55228,0 -1,0.44772 -1,1c0,0.55228 0.44772,1 1,1z" fill="#30223a"></path><path d="M53,16h1c0.55228,0 1,-0.44772 1,-1c0,-0.55228 -0.44772,-1 -1,-1h-1c-0.55228,0 -1,0.44772 -1,1c0,0.55228 0.44772,1 1,1zM53,20h1c0.55228,0 1,-0.44772 1,-1c0,-0.55228 -0.44772,-1 -1,-1h-1c-0.55228,0 -1,0.44772 -1,1c0,0.55228 0.44772,1 1,1zM53,26h1c0.55228,0 1,-0.44772 1,-1c0,-0.55228 -0.44772,-1 -1,-1h-1c-0.55228,0 -1,0.44772 -1,1c0,0.55228 0.44772,1 1,1zM53,30h1c0.55228,0 1,-0.44772 1,-1c0,-0.55228 -0.44772,-1 -1,-1h-1c-0.55228,0 -1,0.44772 -1,1c0,0.55228 0.44772,1 1,1z" fill="#ff00aa"></path><path d="M49,20h1c0.55228,0 1,-0.44772 1,-1c0,-0.55228 -0.44772,-1 -1,-1h-1c-0.55228,0 -1,0.44772 -1,1c0,0.55228 0.44772,1 1,1zM49,26h1c0.55228,0 1,-0.44772 1,-1c0,-0.55228 -0.44772,-1 -1,-1h-1c-0.55228,0 -1,0.44772 -1,1c0,0.55228 0.44772,1 1,1z" fill="#19e6ac"></path><path d="M39,16h4c0.55228,0 1,-0.44772 1,-1c0,-0.55228 -0.44772,-1 -1,-1h-4c-0.55228,0 -1,0.44772 -1,1c0,0.55228 0.44772,1 1,1zM39,20h6c0.55228,0 1,-0.44772 1,-1c0,-0.55228 -0.44772,-1 -1,-1h-6c-0.55228,0 -1,0.44772 -1,1c0,0.55228 0.44772,1 1,1zM39,30h2c0.55228,0 1,-0.44772 1,-1c0,-0.55228 -0.44772,-1 -1,-1h-2c-0.55228,0 -1,0.44772 -1,1c0,0.55228 0.44772,1 1,1zM39,26h4c0.55228,0 1,-0.44772 1,-1c0,-0.55228 -0.44772,-1 -1,-1h-4c-0.55228,0 -1,0.44772 -1,1c0,0.55228 0.44772,1 1,1z" fill="#30223a"></path></g></g></svg>