<?xml version="1.0"?><svg xmlns="http://www.w3.org/2000/svg"  viewBox="0 0 64 64" width="64px" height="64px">    <path d="M 17 4 C 16.447 4 16 4.448 16 5 L 16 11 C 16 11.552 16.447 12 17 12 L 20.34375 12 L 4.171875 28.171875 C 3.780875 28.562875 3.780875 29.194937 4.171875 29.585938 L 8.4140625 33.828125 C 8.6090625 34.023125 8.8650937 34.121094 9.1210938 34.121094 C 9.3770938 34.121094 9.633125 34.023125 9.828125 33.828125 L 26 17.65625 L 26 21 C 26 21.552 26.447 22 27 22 L 33 22 C 33.553 22 34 21.552 34 21 L 34 5 C 34 4.448 33.553 4 33 4 L 17 4 z M 18 6 L 32 6 L 32 20 L 28 20 L 28 15.242188 C 28 14.838188 27.756812 14.473359 27.382812 14.318359 C 27.008813 14.164359 26.578969 14.249156 26.292969 14.535156 L 9.1210938 31.707031 L 6.2929688 28.878906 L 23.464844 11.707031 C 23.750844 11.421031 23.836641 10.991187 23.681641 10.617188 C 23.526641 10.244187 23.161812 10 22.757812 10 L 18 10 L 18 6 z M 50 12 C 48.897 12 48 12.897 48 14 L 48 20 L 40 20 C 38.897 20 38 20.897 38 22 L 38 28 L 30 28 C 28.897 28 28 28.897 28 30 L 28 36 L 20 36 C 18.897 36 18 36.897 18 38 L 18 44 L 10 44 C 8.897 44 8 44.897 8 46 L 8 55 C 8 56.654 9.346 58 11 58 L 59 58 C 60.654 58 62 56.654 62 55 L 62 15 C 62 13.346 60.654 12 59 12 L 50 12 z M 50 14 L 59 14 C 59.552 14 60 14.449 60 15 L 60 50 C 59.447 50 59 50.448 59 51 L 59 53 C 59 53.552 59.447 54 60 54 L 60 55 C 60 55.551 59.552 56 59 56 L 11 56 C 10.448 56 10 55.551 10 55 L 10 54 C 10.553 54 11 53.552 11 53 L 11 51 C 11 50.448 10.553 50 10 50 L 10 46 L 19 46 C 19.553 46 20 45.552 20 45 L 20 38 L 29 38 C 29.553 38 30 37.552 30 37 L 30 30 L 39 30 C 39.553 30 40 29.552 40 29 L 40 22 L 49 22 C 49.553 22 50 21.552 50 21 L 50 14 z M 15 50 C 14.447 50 14 50.448 14 51 L 14 53 C 14 53.552 14.447 54 15 54 C 15.553 54 16 53.552 16 53 L 16 51 C 16 50.448 15.553 50 15 50 z M 20 50 C 19.447 50 19 50.448 19 51 L 19 53 C 19 53.552 19.447 54 20 54 C 20.553 54 21 53.552 21 53 L 21 51 C 21 50.448 20.553 50 20 50 z M 25 50 C 24.447 50 24 50.448 24 51 L 24 53 C 24 53.552 24.447 54 25 54 C 25.553 54 26 53.552 26 53 L 26 51 C 26 50.448 25.553 50 25 50 z M 30 50 C 29.447 50 29 50.448 29 51 L 29 53 C 29 53.552 29.447 54 30 54 C 30.553 54 31 53.552 31 53 L 31 51 C 31 50.448 30.553 50 30 50 z M 35 50 C 34.447 50 34 50.448 34 51 L 34 53 C 34 53.552 34.447 54 35 54 C 35.553 54 36 53.552 36 53 L 36 51 C 36 50.448 35.553 50 35 50 z M 40 50 C 39.447 50 39 50.448 39 51 L 39 53 C 39 53.552 39.447 54 40 54 C 40.553 54 41 53.552 41 53 L 41 51 C 41 50.448 40.553 50 40 50 z M 45 50 C 44.447 50 44 50.448 44 51 L 44 53 C 44 53.552 44.447 54 45 54 C 45.553 54 46 53.552 46 53 L 46 51 C 46 50.448 45.553 50 45 50 z M 50 50 C 49.447 50 49 50.448 49 51 L 49 53 C 49 53.552 49.447 54 50 54 C 50.553 54 51 53.552 51 53 L 51 51 C 51 50.448 50.553 50 50 50 z M 55 50 C 54.447 50 54 50.448 54 51 L 54 53 C 54 53.552 54.447 54 55 54 C 55.553 54 56 53.552 56 53 L 56 51 C 56 50.448 55.553 50 55 50 z"/></svg>