<svg xmlns="http://www.w3.org/2000/svg" xmlns:xlink="http://www.w3.org/1999/xlink" viewBox="0,0,256,256" width="128px" height="128px"><g fill="none" fill-rule="nonzero" stroke="none" stroke-width="1" stroke-linecap="butt" stroke-linejoin="miter" stroke-miterlimit="10" stroke-dasharray="" stroke-dashoffset="0" font-family="none" font-weight="none" font-size="none" text-anchor="none" style="mix-blend-mode: normal"><g transform="scale(4,4)"><path d="M49.5,12c-4.14214,0 -7.5,3.35786 -7.5,7.5c0,4.14214 3.35786,7.5 7.5,7.5c4.14214,0 7.5,-3.35786 7.5,-7.5c0,-4.14214 -3.35786,-7.5 -7.5,-7.5zM32,3c-3.86599,0 -7,3.13401 -7,7c0,3.86599 3.13401,7 7,7c3.86599,0 7,-3.13401 7,-7c0,-3.86599 -3.13401,-7 -7,-7zM15,12c-3.31371,0 -6,2.68629 -6,6c0,3.31371 2.68629,6 6,6c3.31371,0 6,-2.68629 6,-6c0,-3.31371 -2.68629,-6 -6,-6zM9,29c-2.76142,0 -5,2.23858 -5,5c0,2.76142 2.23858,5 5,5c2.76142,0 5,-2.23858 5,-5c0,-2.76142 -2.23858,-5 -5,-5zM16,45c-2.20914,0 -4,1.79086 -4,4c0,2.20914 1.79086,4 4,4c2.20914,0 4,-1.79086 4,-4c0,-2.20914 -1.79086,-4 -4,-4zM32,51c-2.20914,0 -4,1.79086 -4,4c0,2.20914 1.79086,4 4,4c2.20914,0 4,-1.79086 4,-4c0,-2.20914 -1.79086,-4 -4,-4zM47,47c-1.65685,0 -3,1.34315 -3,3c0,1.65685 1.34315,3 3,3c1.65685,0 3,-1.34315 3,-3c0,-1.65685 -1.34315,-3 -3,-3zM54.5,36c-1.38071,0 -2.5,1.11929 -2.5,2.5c0,1.38071 1.11929,2.5 2.5,2.5c1.38071,0 2.5,-1.11929 2.5,-2.5c0,-1.38071 -1.11929,-2.5 -2.5,-2.5z" fill="#6930c3"></path><g fill="#e8d6ee"><path d="M49.5,28c4.687,0 8.5,-3.813 8.5,-8.5c0,-4.687 -3.813,-8.5 -8.5,-8.5c-4.687,0 -8.5,3.813 -8.5,8.5c0,4.687 3.813,8.5 8.5,8.5zM49.5,13c3.584,0 6.5,2.916 6.5,6.5c0,3.584 -2.916,6.5 -6.5,6.5c-3.584,0 -6.5,-2.916 -6.5,-6.5c0,-3.584 2.916,-6.5 6.5,-6.5zM32,2c-4.411,0 -8,3.589 -8,8c0,4.411 3.589,8 8,8c4.411,0 8,-3.589 8,-8c0,-4.411 -3.589,-8 -8,-8zM32,16c-3.309,0 -6,-2.691 -6,-6c0,-3.309 2.691,-6 6,-6c3.309,0 6,2.691 6,6c0,3.309 -2.691,6 -6,6zM15,11c-3.859,0 -7,3.141 -7,7c0,3.859 3.141,7 7,7c3.859,0 7,-3.141 7,-7c0,-3.859 -3.141,-7 -7,-7zM15,23c-2.757,0 -5,-2.243 -5,-5c0,-2.757 2.243,-5 5,-5c2.757,0 5,2.243 5,5c0,2.757 -2.243,5 -5,5zM15,34c0,-3.309 -2.691,-6 -6,-6c-3.309,0 -6,2.691 -6,6c0,3.309 2.691,6 6,6c3.309,0 6,-2.691 6,-6zM9,38c-2.206,0 -4,-1.794 -4,-4c0,-2.206 1.794,-4 4,-4c2.206,0 4,1.794 4,4c0,2.206 -1.794,4 -4,4zM16,44c-2.757,0 -5,2.243 -5,5c0,2.757 2.243,5 5,5c2.757,0 5,-2.243 5,-5c0,-2.757 -2.243,-5 -5,-5zM16,52c-1.654,0 -3,-1.346 -3,-3c0,-1.654 1.346,-3 3,-3c1.654,0 3,1.346 3,3c0,1.654 -1.346,3 -3,3zM32,50c-2.757,0 -5,2.243 -5,5c0,2.757 2.243,5 5,5c2.757,0 5,-2.243 5,-5c0,-2.757 -2.243,-5 -5,-5zM32,58c-1.654,0 -3,-1.346 -3,-3c0,-1.654 1.346,-3 3,-3c1.654,0 3,1.346 3,3c0,1.654 -1.346,3 -3,3zM47,46c-2.206,0 -4,1.794 -4,4c0,2.206 1.794,4 4,4c2.206,0 4,-1.794 4,-4c0,-2.206 -1.794,-4 -4,-4zM47,52c-1.103,0 -2,-0.897 -2,-2c0,-1.103 0.897,-2 2,-2c1.103,0 2,0.897 2,2c0,1.103 -0.897,2 -2,2zM54.5,35c-1.93,0 -3.5,1.57 -3.5,3.5c0,1.93 1.57,3.5 3.5,3.5c1.93,0 3.5,-1.57 3.5,-3.5c0,-1.93 -1.57,-3.5 -3.5,-3.5zM54.5,40c-0.827,0 -1.5,-0.673 -1.5,-1.5c0,-0.827 0.673,-1.5 1.5,-1.5c0.827,0 1.5,0.673 1.5,1.5c0,0.827 -0.673,1.5 -1.5,1.5z"></path></g></g></g></svg>