<svg width="219" height="219" viewBox="0 0 219 219" fill="none" xmlns="http://www.w3.org/2000/svg">
<path d="M109.5 213.5C166.938 213.5 213.5 166.938 213.5 109.5C213.5 52.0624 166.938 5.5 109.5 5.5C52.0624 5.5 5.5 52.0624 5.5 109.5C5.5 166.938 52.0624 213.5 109.5 213.5Z" fill="#B05EDC" stroke="#1B0F24" stroke-width="7" stroke-miterlimit="10" stroke-linecap="round"/>
<path d="M48.5 81L46 100.5L60 113L82 122.5L96.5 123.5L113.5 131.5L104.5 141L75 136L61.5 143.5L72 159.5L102 170.5L113.669 167.061L149.5 156.5L155.5 136L134.5 123.5L114 93L48.5 81Z" fill="#14B88A"/>
<path d="M141.5 52V42L161 53L162.5 58H144L141.5 52Z" fill="#6930C3"/>
<path d="M163.55 56.74C165.15 52.89 163.71 48.33 160.88 44.8C158.89 42.33 156.06 40.69 152.95 40.05C149.13 39.26 143.45 39.06 139.26 43.13" fill="#6930C3"/>
<path d="M163.55 56.74C165.15 52.89 163.71 48.33 160.88 44.8C158.89 42.33 156.06 40.69 152.95 40.05C149.13 39.26 143.45 39.06 139.26 43.13" stroke="#1B0F24" stroke-width="5" stroke-miterlimit="10" stroke-linecap="round"/>
<path d="M140.98 57.96C141.46 50.12 140.96 46.26 138.26 41C138.07 40.64 137.88 40.28 137.68 39.93C135.62 36.34 133.14 32.92 129.65 32.07C112.74 27.94 118 48.7 118 48.7" fill="#6930C3"/>
<path d="M140.98 57.96C141.46 50.12 140.96 46.26 138.26 41C138.07 40.64 137.88 40.28 137.68 39.93C135.62 36.34 133.14 32.92 129.65 32.07C112.74 27.94 118 48.7 118 48.7" stroke="#1B0F24" stroke-width="5" stroke-miterlimit="10" stroke-linecap="round"/>
<path d="M161.935 41.8185C162.297 40.9882 162.057 40.0826 161.399 39.7957C160.741 39.5088 159.914 39.9494 159.552 40.7797C159.19 41.61 159.43 42.5157 160.088 42.8025C160.747 43.0894 161.574 42.6488 161.935 41.8185Z" fill="#6930C3" stroke="#1B0F24" stroke-width="5" stroke-miterlimit="10" stroke-linecap="round"/>
<path d="M104.838 142.287C105.344 137.454 109.672 133.034 111.099 132.921Z" fill="#14B88A"/>
<path d="M104.838 142.287C105.344 137.454 109.672 133.034 111.099 132.921" stroke="#1B0F24" stroke-width="5" stroke-miterlimit="10" stroke-linecap="round"/>
<path d="M73.5 136.5L64 140.5L70.5 153L95 169H112.5L121 155L103.5 142L86 135.5L73.5 136.5Z" fill="#E1766C"/>
<path d="M166.95 129.68C166.95 129.68 173.19 134.36 171.27 143.04C169.36 151.72 162.59 163.26 160.97 164.74C159.35 166.22 150 175.18 132.04 173.7C129.89 173.52 127.78 174.4 126.4 176.06C122.02 181.28 109.94 191.79 86.25 187.21C55.23 181.21 42.33 153.59 50.89 144.7C57.4 137.93 64.06 142.43 66.25 147.13C68.63 152.24 71.53 153.09 78.08 151.98C84.25 150.94 87.41 158.5 88.55 161.3C89.25 163.02 92.48 166.98 96.38 165.68" fill="#E1766C"/>
<path d="M166.95 129.68C166.95 129.68 173.19 134.36 171.27 143.04C169.36 151.72 162.59 163.26 160.97 164.74C159.35 166.22 150 175.18 132.04 173.7C129.89 173.52 127.78 174.4 126.4 176.06C122.02 181.28 109.94 191.79 86.25 187.21C55.23 181.21 42.33 153.59 50.89 144.7C57.4 137.93 64.06 142.43 66.25 147.13C68.63 152.24 71.53 153.09 78.08 151.98C84.25 150.94 87.41 158.5 88.55 161.3C89.25 163.02 92.48 166.98 96.38 165.68" stroke="#1B0F24" stroke-width="5" stroke-miterlimit="10" stroke-linecap="round"/>
<path d="M153.91 142.28C148.88 144.12 147.34 149.6 144.63 152.75C142.71 154.98 136.63 154.93 133.68 154.98C131.26 155.02 127.23 154.44 124.12 154.79C121.68 155.07 119.25 154.2 117.47 152.5C109.14 144.52 84.77 124.37 62.62 142.02" fill="#E1766C"/>
<path d="M153.91 142.28C148.88 144.12 147.34 149.6 144.63 152.75C142.71 154.98 136.63 154.93 133.68 154.98C131.26 155.02 127.23 154.44 124.12 154.79C121.68 155.07 119.25 154.2 117.47 152.5C109.14 144.52 84.77 124.37 62.62 142.02" stroke="#1B0F24" stroke-width="5" stroke-miterlimit="10" stroke-linecap="round"/>
<path d="M160 135.5L156 141L155 140C154.374 139.767 153.956 139.737 153 140V137C153 136.682 154.333 136.904 155 136.87C155.986 136.489 157.823 136.061 160 135.5Z" fill="url(#paint0_linear_7_283)"/>
<path d="M43.09 99.37C43.09 99.37 46.93 119.95 70.18 123.69C71.18 123.85 72.18 123.91 73.19 123.93C77.85 124.02 92.09 124.34 97.39 124.84C105.19 125.57 111.52 132.27 111.52 132.27" fill="#14B88A"/>
<path d="M43.09 99.37C43.09 99.37 46.93 119.95 70.18 123.69C71.18 123.85 72.18 123.91 73.19 123.93C77.85 124.02 92.09 124.34 97.39 124.84C105.19 125.57 111.52 132.27 111.52 132.27" stroke="#1B0F24" stroke-width="5" stroke-miterlimit="10" stroke-linecap="round"/>
<path d="M57.39 69.48C57.39 69.48 60.11 59.45 68.67 60.45C73.78 61.05 76.7 65.67 76.6 71.99C76.59 72.79 77.14 73.49 77.93 73.66C81.88 74.49 93.18 76.48 97.99 73.35C103.86 69.52 104.97 56.43 110.25 52.41C115.53 48.39 122.84 45.3 131.27 54.2C137.74 61.02 147.7 57.97 147.7 57.97C147.7 57.97 160 53.69 165.83 62.95C170.72 70.7 165.15 74.22 165.83 79.76C166.68 86.74 181.14 103.72 172.46 121.1C169.51 127.01 157.14 141.87 135.86 130.63" fill="#14B88A"/>
<path d="M57.39 69.48C57.39 69.48 60.11 59.45 68.67 60.45C73.78 61.05 76.7 65.67 76.6 71.99C76.59 72.79 77.14 73.49 77.93 73.66C81.88 74.49 93.18 76.48 97.99 73.35C103.86 69.52 104.97 56.43 110.25 52.41C115.53 48.39 122.84 45.3 131.27 54.2C137.74 61.02 147.7 57.97 147.7 57.97C147.7 57.97 160 53.69 165.83 62.95C170.72 70.7 165.15 74.22 165.83 79.76C166.68 86.74 181.14 103.72 172.46 121.1C169.51 127.01 157.14 141.87 135.86 130.63" stroke="#1B0F24" stroke-width="5" stroke-miterlimit="10" stroke-linecap="round"/>
<path d="M116.46 104.84C109.79 112.65 100.12 112.58 100.12 112.58C96.77 113.03 92.45 111.23 89.35 109.9C75.33 103.89 77.34 95.81 64.21 92.07C54.34 89.26 50.07 98.52 41.06 99.05C35.61 99.37 30.94 95.9 31.02 91.1C31.09 86.71 34.05 84.05 34.42 82.45C34.79 80.85 31.51 75.49 33.57 72.07C36.24 67.62 40.06 67.84 42.14 68.39C43.12 68.65 44.15 68.43 44.99 67.87C47.35 66.26 52.52 63.63 58.57 65.96" fill="#14B88A"/>
<path d="M116.46 104.84C109.79 112.65 100.12 112.58 100.12 112.58C96.77 113.03 92.45 111.23 89.35 109.9C75.33 103.89 77.34 95.81 64.21 92.07C54.34 89.26 50.07 98.52 41.06 99.05C35.61 99.37 30.94 95.9 31.02 91.1C31.09 86.71 34.05 84.05 34.42 82.45C34.79 80.85 31.51 75.49 33.57 72.07C36.24 67.62 40.06 67.84 42.14 68.39C43.12 68.65 44.15 68.43 44.99 67.87C47.35 66.26 52.52 63.63 58.57 65.96" stroke="#1B0F24" stroke-width="5" stroke-miterlimit="10" stroke-linecap="round"/>
<path d="M93.46 111.53C93.46 111.53 96.84 95.77 99.27 95.9C101.39 96.02 103.18 97.43 106.79 110.73" fill="white"/>
<path d="M93.46 111.53C93.46 111.53 96.84 95.77 99.27 95.9C101.39 96.02 103.18 97.43 106.79 110.73" stroke="#1B0F24" stroke-width="5" stroke-miterlimit="10" stroke-linecap="round"/>
<path d="M113.36 89.9C111.06 95.85 112.04 100.7 116.46 103.62C120.88 106.54 126.99 104.55 129.18 101.69" fill="#14B88A"/>
<path d="M113.36 89.9C111.06 95.85 112.04 100.7 116.46 103.62C120.88 106.54 126.99 104.55 129.18 101.69" stroke="#1B0F24" stroke-width="5" stroke-linecap="round" stroke-linejoin="round"/>
<path d="M66.4865 77.2219C66.6643 76.2236 66.2535 75.3156 65.5689 75.1936C64.8842 75.0717 64.1851 75.782 64.0073 76.7802C63.8295 77.7785 64.2403 78.6866 64.925 78.8085C65.6096 78.9305 66.3087 78.2201 66.4865 77.2219Z" fill="#14B88A" stroke="#1B0F24" stroke-width="5" stroke-miterlimit="10" stroke-linecap="round"/>
<path d="M139.44 78.54C138.26 85.86 143.01 90.63 149.31 92.5C155.61 94.37 160.71 92.56 163.1 88.53C165.48 84.5 166.13 75.48 157.31 72.24C150.45 69.72 140.36 72.82 139.44 78.54Z" fill="white"/>
<path d="M145.5 72.5L155.5 71.5L160.5 74L164.5 78.5V85L153.5 80.5L141.5 76.5L145.5 72.5Z" fill="#0D7356"/>
<path d="M139.5 81.5L140.5 78L144 77.5L148 78.5L155.5 81.5L161 84L165 87L159.5 92.5L152.5 93L145.5 91L140.5 86L139.5 81.5Z" fill="white"/>
<path fill-rule="evenodd" clip-rule="evenodd" d="M145.351 69.9303C149.291 68.6057 154.121 68.4053 158.172 69.8933C163.441 71.8287 166.049 75.6246 166.855 79.5912C167.626 83.3883 166.743 87.2782 165.253 89.8013L165.25 89.8052C162.119 95.0848 155.672 96.9961 148.599 94.8966C145.083 93.8531 141.823 91.9508 139.599 89.102C137.332 86.1968 136.275 82.4687 136.972 78.143M145.351 69.9303C141.546 71.2094 137.656 73.8941 136.972 78.1421ZM146.944 74.6697C143.759 75.7405 142.145 77.4655 141.908 78.937L141.908 78.9379C141.426 81.9318 142.154 84.2484 143.541 86.0255C144.972 87.8592 147.237 89.2769 150.021 90.1033C155.547 91.7434 159.299 90.036 160.948 87.2568C161.838 85.7496 162.469 83.1156 161.955 80.5863C161.476 78.2253 159.999 75.8913 156.448 74.5867C153.639 73.5547 149.994 73.6442 146.944 74.6697Z" fill="#1B0F24"/>
<path fill-rule="evenodd" clip-rule="evenodd" d="M137.513 77.0859C137.582 75.7069 138.755 74.6446 140.134 74.7131C143.547 74.8826 148.775 75.9439 153.658 77.6573C156.115 78.5194 158.555 79.571 160.679 80.8033C162.774 82.0184 164.722 83.501 166.022 85.2904C166.834 86.4074 166.587 87.9708 165.47 88.7825C164.353 89.5941 162.789 89.3465 161.978 88.2296C161.258 87.2389 159.977 86.1766 158.17 85.1283C156.393 84.0971 154.258 83.1668 152.002 82.3752C147.46 80.7811 142.712 79.8473 139.886 79.7069C138.507 79.6384 137.445 78.465 137.513 77.0859Z" fill="#1B0F24"/>
<path d="M152 90C154.761 90 157 87.7614 157 85C157 82.2386 154.761 80 152 80C149.239 80 147 82.2386 147 85C147 87.7614 149.239 90 152 90Z" fill="#6930C3" stroke="#1B0F24" stroke-width="3" stroke-miterlimit="10" stroke-linecap="round"/>
<path d="M105 73C103.8 72.6 105.167 70.1667 106 69L111.5 67L117.5 66.5L123.5 67.5L131 69L130.5 73.5L128.5 78L120.5 81.5L113 79.5C110.833 77.5 106.2 73.4 105 73Z" fill="white"/>
<path d="M129.092 63.9052C130.065 64.2301 128.956 66.2033 128.279 67.1493L123.817 68.7693L118.95 69.1724L114.084 68.3588L108.001 67.1391L108.408 63.4892L110.033 59.84L116.523 57.0043L122.606 58.6296C124.362 60.2527 128.119 63.5802 129.092 63.9052Z" fill="#0D7356"/>
<path d="M105.05 69.52C105.11 73.42 108.26 78.88 117.99 80.92C121.57 81.67 127.43 81.26 130.2 74.28C132.97 67.3 127.69 61.02 120.37 59.64C116.46 58.91 104.91 60.15 105.05 69.51V69.52Z" stroke="#1B0F24" stroke-width="5" stroke-linecap="round" stroke-linejoin="round"/>
<path d="M105.05 69.52C115.77 65.43 128.64 68.43 130.89 69.49Z" fill="#14B88A"/>
<path d="M105.05 69.52C115.77 65.43 128.64 68.43 130.89 69.49" stroke="#1B0F24" stroke-width="5" stroke-miterlimit="10" stroke-linecap="round"/>
<path d="M119 78C121.761 78 124 75.7614 124 73C124 70.2386 121.761 68 119 68C116.239 68 114 70.2386 114 73C114 75.7614 116.239 78 119 78Z" fill="#6930C3" stroke="#1B0F24" stroke-width="3" stroke-miterlimit="10" stroke-linecap="round"/>
<path d="M92.5 110.029C95.5 111 95.1797 112.261 100.5 112C104.465 111.68 106.442 111.195 109.476 110.029" stroke="#231F20" stroke-width="5"/>
<path d="M151.5 137.5L108.25 141.69L113.5 145.69L118.5 150C118.988 150.53 119.478 150.945 119.953 151.207C121.226 152.388 122.5 152.5 123 152.5C123.5 152.5 125.528 152.93 127 152.5H129H131.5H136C139.149 152.84 139.943 153.187 142 152C142.786 151.547 141.422 153.921 143.368 150.288C143.55 150.06 143.69 149.876 144 149.5C144.32 148.925 144.362 149.456 144.5 149C144.638 148.544 144.943 148.843 145 148.5C145.5 148 145.61 146.638 146.5 145.5C147.041 144.996 147.557 143.779 148 143.5C148.443 143.221 153 140.5 153 140V138V137H152L151.5 137.5Z" fill="#14B88A"/>
<path d="M154.5 141C153 139.5 149 144.5 148.5 144.5C148.1 144.5 146.229 146.938 145.729 147.771C145.14 149.089 144.675 149.571 143.631 150.542C142.799 151.762 142 152.5 140.902 153.271C140.235 153.999 142.024 152.367 141.5 152.5C140.554 152.828 140.501 152.913 139.5 153L128.5 154C127.905 153.957 127.5 153.449 126.5 153.5C123.154 153.317 122.736 153.909 121 153L117.5 150C116.754 149.408 116.311 149.221 115.5 149" stroke="#1B0F24" stroke-width="2"/>
<path d="M147 135C150.922 136.623 152.911 136.691 156 135" stroke="#231F20" stroke-width="2"/>
<defs>
<linearGradient id="paint0_linear_7_283" x1="153" y1="138.5" x2="157" y2="139" gradientUnits="userSpaceOnUse">
<stop stop-color="#14B88A"/>
<stop offset="1" stop-color="#E1766C"/>
</linearGradient>
</defs>
</svg>
