<svg width="219" height="386" viewBox="0 0 219 386" fill="none" xmlns="http://www.w3.org/2000/svg">
<path d="M109.5 380.5C166.938 380.5 213.5 333.938 213.5 276.5C213.5 219.062 166.938 172.5 109.5 172.5C52.0624 172.5 5.5 219.062 5.5 276.5C5.5 333.938 52.0624 380.5 109.5 380.5Z" fill="#B05EDC" stroke="#1B0F24" stroke-width="7" stroke-miterlimit="10" stroke-linecap="round"/>
<path d="M48.5 248L46 267.5L60 280L82 289.5L96.5 290.5L113.5 298.5L104.5 308L75 303L61.5 310.5L72 326.5L102 337.5L113.669 334.061L149.5 323.5L155.5 303L134.5 290.5L114 260L48.5 248Z" fill="#14B88A"/>
<path d="M141.5 219V209L161 220L162.5 225H144L141.5 219Z" fill="#6930C3"/>
<path d="M163.55 223.74C165.15 219.89 163.71 215.33 160.88 211.8C158.89 209.33 156.06 207.69 152.95 207.05C149.13 206.26 143.45 206.06 139.26 210.13" fill="#6930C3"/>
<path d="M163.55 223.74C165.15 219.89 163.71 215.33 160.88 211.8C158.89 209.33 156.06 207.69 152.95 207.05C149.13 206.26 143.45 206.06 139.26 210.13" stroke="#1B0F24" stroke-width="5" stroke-miterlimit="10" stroke-linecap="round"/>
<path d="M140.98 224.96C141.46 217.12 140.96 213.26 138.26 208C138.07 207.64 137.88 207.28 137.68 206.93C135.62 203.34 133.14 199.92 129.65 199.07C112.74 194.94 118 215.7 118 215.7" fill="#6930C3"/>
<path d="M140.98 224.96C141.46 217.12 140.96 213.26 138.26 208C138.07 207.64 137.88 207.28 137.68 206.93C135.62 203.34 133.14 199.92 129.65 199.07C112.74 194.94 118 215.7 118 215.7" stroke="#1B0F24" stroke-width="5" stroke-miterlimit="10" stroke-linecap="round"/>
<path d="M161.935 208.819C162.297 207.988 162.057 207.083 161.399 206.796C160.741 206.509 159.914 206.949 159.552 207.78C159.19 208.61 159.43 209.516 160.088 209.803C160.747 210.089 161.574 209.649 161.935 208.819Z" fill="#6930C3" stroke="#1B0F24" stroke-width="5" stroke-miterlimit="10" stroke-linecap="round"/>
<path d="M104.838 309.287C105.344 304.454 109.672 300.034 111.099 299.921Z" fill="#14B88A"/>
<path d="M104.838 309.287C105.344 304.454 109.672 300.034 111.099 299.921" stroke="#1B0F24" stroke-width="5" stroke-miterlimit="10" stroke-linecap="round"/>
<path d="M73.5 303.5L64 307.5L70.5 320L95 336H112.5L121 322L103.5 309L86 302.5L73.5 303.5Z" fill="#E1766C"/>
<path d="M166.95 296.68C166.95 296.68 173.19 301.36 171.27 310.04C169.36 318.72 162.59 330.26 160.97 331.74C159.35 333.22 150 342.18 132.04 340.7C129.89 340.52 127.78 341.4 126.4 343.06C122.02 348.28 109.94 358.79 86.25 354.21C55.23 348.21 42.33 320.59 50.89 311.7C57.4 304.93 64.06 309.43 66.25 314.13C68.63 319.24 71.53 320.09 78.08 318.98C84.25 317.94 87.41 325.5 88.55 328.3C89.25 330.02 92.48 333.98 96.38 332.68" fill="#E1766C"/>
<path d="M166.95 296.68C166.95 296.68 173.19 301.36 171.27 310.04C169.36 318.72 162.59 330.26 160.97 331.74C159.35 333.22 150 342.18 132.04 340.7C129.89 340.52 127.78 341.4 126.4 343.06C122.02 348.28 109.94 358.79 86.25 354.21C55.23 348.21 42.33 320.59 50.89 311.7C57.4 304.93 64.06 309.43 66.25 314.13C68.63 319.24 71.53 320.09 78.08 318.98C84.25 317.94 87.41 325.5 88.55 328.3C89.25 330.02 92.48 333.98 96.38 332.68" stroke="#1B0F24" stroke-width="5" stroke-miterlimit="10" stroke-linecap="round"/>
<path d="M153.91 309.28C148.88 311.12 147.34 316.6 144.63 319.75C142.71 321.98 136.63 321.93 133.68 321.98C131.26 322.02 127.23 321.44 124.12 321.79C121.68 322.07 119.25 321.2 117.47 319.5C109.14 311.52 84.77 291.37 62.62 309.02" fill="#E1766C"/>
<path d="M153.91 309.28C148.88 311.12 147.34 316.6 144.63 319.75C142.71 321.98 136.63 321.93 133.68 321.98C131.26 322.02 127.23 321.44 124.12 321.79C121.68 322.07 119.25 321.2 117.47 319.5C109.14 311.52 84.77 291.37 62.62 309.02" stroke="#1B0F24" stroke-width="5" stroke-miterlimit="10" stroke-linecap="round"/>
<path d="M160 302.5L156 308L155 307C154.374 306.767 153.956 306.737 153 307V304C153 303.682 154.333 303.904 155 303.87C155.986 303.489 157.823 303.061 160 302.5Z" fill="url(#paint0_linear_19_569)"/>
<path d="M43.09 266.37C43.09 266.37 46.93 286.95 70.18 290.69C71.18 290.85 72.18 290.91 73.19 290.93C77.85 291.02 92.09 291.34 97.39 291.84C105.19 292.57 111.52 299.27 111.52 299.27" fill="#14B88A"/>
<path d="M43.09 266.37C43.09 266.37 46.93 286.95 70.18 290.69C71.18 290.85 72.18 290.91 73.19 290.93C77.85 291.02 92.09 291.34 97.39 291.84C105.19 292.57 111.52 299.27 111.52 299.27" stroke="#1B0F24" stroke-width="5" stroke-miterlimit="10" stroke-linecap="round"/>
<path d="M57.39 236.48C57.39 236.48 60.11 226.45 68.67 227.45C73.78 228.05 76.7 232.67 76.6 238.99C76.59 239.79 77.14 240.49 77.93 240.66C81.88 241.49 93.18 243.48 97.99 240.35C103.86 236.52 104.97 223.43 110.25 219.41C115.53 215.39 122.84 212.3 131.27 221.2C137.74 228.02 147.7 224.97 147.7 224.97C147.7 224.97 160 220.69 165.83 229.95C170.72 237.7 165.15 241.22 165.83 246.76C166.68 253.74 181.14 270.72 172.46 288.1C169.51 294.01 157.14 308.87 135.86 297.63" fill="#14B88A"/>
<path d="M57.39 236.48C57.39 236.48 60.11 226.45 68.67 227.45C73.78 228.05 76.7 232.67 76.6 238.99C76.59 239.79 77.14 240.49 77.93 240.66C81.88 241.49 93.18 243.48 97.99 240.35C103.86 236.52 104.97 223.43 110.25 219.41C115.53 215.39 122.84 212.3 131.27 221.2C137.74 228.02 147.7 224.97 147.7 224.97C147.7 224.97 160 220.69 165.83 229.95C170.72 237.7 165.15 241.22 165.83 246.76C166.68 253.74 181.14 270.72 172.46 288.1C169.51 294.01 157.14 308.87 135.86 297.63" stroke="#1B0F24" stroke-width="5" stroke-miterlimit="10" stroke-linecap="round"/>
<path d="M116.46 271.84C109.79 279.65 100.12 279.58 100.12 279.58C96.77 280.03 92.45 278.23 89.35 276.9C75.33 270.89 77.34 262.81 64.21 259.07C54.34 256.26 50.07 265.52 41.06 266.05C35.61 266.37 30.94 262.9 31.02 258.1C31.09 253.71 34.05 251.05 34.42 249.45C34.79 247.85 31.51 242.49 33.57 239.07C36.24 234.62 40.06 234.84 42.14 235.39C43.12 235.65 44.15 235.43 44.99 234.87C47.35 233.26 52.52 230.63 58.57 232.96" fill="#14B88A"/>
<path d="M116.46 271.84C109.79 279.65 100.12 279.58 100.12 279.58C96.77 280.03 92.45 278.23 89.35 276.9C75.33 270.89 77.34 262.81 64.21 259.07C54.34 256.26 50.07 265.52 41.06 266.05C35.61 266.37 30.94 262.9 31.02 258.1C31.09 253.71 34.05 251.05 34.42 249.45C34.79 247.85 31.51 242.49 33.57 239.07C36.24 234.62 40.06 234.84 42.14 235.39C43.12 235.65 44.15 235.43 44.99 234.87C47.35 233.26 52.52 230.63 58.57 232.96" stroke="#1B0F24" stroke-width="5" stroke-miterlimit="10" stroke-linecap="round"/>
<path d="M93.46 278.53C93.46 278.53 96.84 262.77 99.27 262.9C101.39 263.02 103.18 264.43 106.79 277.73" fill="white"/>
<path d="M93.46 278.53C93.46 278.53 96.84 262.77 99.27 262.9C101.39 263.02 103.18 264.43 106.79 277.73" stroke="#1B0F24" stroke-width="5" stroke-miterlimit="10" stroke-linecap="round"/>
<path d="M124.859 263.951C119.025 266.532 116.289 270.655 117.349 275.845C118.41 281.035 124.137 283.948 127.708 283.475" fill="#14B88A"/>
<path d="M124.859 263.951C119.025 266.532 116.289 270.655 117.349 275.845C118.41 281.035 124.137 283.948 127.708 283.475" stroke="#1B0F24" stroke-width="5" stroke-linecap="round" stroke-linejoin="round"/>
<path d="M66.4865 244.222C66.6643 243.224 66.2535 242.316 65.5689 242.194C64.8842 242.072 64.1851 242.782 64.0073 243.78C63.8295 244.778 64.2403 245.687 64.925 245.809C65.6096 245.93 66.3087 245.22 66.4865 244.222Z" fill="#14B88A" stroke="#1B0F24" stroke-width="5" stroke-miterlimit="10" stroke-linecap="round"/>
<path d="M139.44 245.54C138.26 252.86 143.01 257.63 149.31 259.5C155.61 261.37 160.71 259.56 163.1 255.53C165.48 251.5 166.13 242.48 157.31 239.24C150.45 236.72 140.36 239.82 139.44 245.54Z" fill="white"/>
<path d="M139.5 248.5L140.5 245L144 244.5L148 245.5L155.5 248.5L161 251L165 254L159.5 259.5L152.5 260L145.5 258L140.5 253L139.5 248.5Z" fill="white"/>
<path fill-rule="evenodd" clip-rule="evenodd" d="M145.351 236.93C149.291 235.606 154.121 235.405 158.172 236.893C163.441 238.829 166.049 242.625 166.855 246.591C167.626 250.388 166.743 254.278 165.253 256.801L165.25 256.805C162.119 262.085 155.672 263.996 148.599 261.897C145.083 260.853 141.823 258.951 139.599 256.102C137.332 253.197 136.275 249.469 136.972 245.143M145.351 236.93C141.546 238.209 137.656 240.894 136.972 245.142ZM146.944 241.67C143.759 242.741 142.145 244.466 141.908 245.937L141.908 245.938C141.426 248.932 142.154 251.248 143.541 253.025C144.972 254.859 147.237 256.277 150.021 257.103C155.547 258.743 159.299 257.036 160.948 254.257C161.838 252.75 162.469 250.116 161.955 247.586C161.476 245.225 159.999 242.891 156.448 241.587C153.639 240.555 149.994 240.644 146.944 241.67Z" fill="#1B0F24"/>
<path d="M153 249C155.761 249 158 246.761 158 244C158 241.239 155.761 239 153 239C150.239 239 148 241.239 148 244C148 246.761 150.239 249 153 249Z" fill="#6930C3" stroke="#1B0F24" stroke-width="3" stroke-miterlimit="10" stroke-linecap="round"/>
<path d="M158.774 260.59C155.728 261.637 151 261.28 148 260.28C145.5 259.447 144.532 258.772 142.766 257.482C141 255.78 140.832 255.317 139.976 253.538C139.258 251.867 138.825 250.538 139.283 248.277L150.821 252.402C150.821 252.402 161.789 256.23 162.5 256.28C163.211 256.33 161.454 259.527 158.774 260.59Z" fill="#0D7356" stroke="#1B0F24" stroke-width="3"/>
<path d="M159.679 232.265C159.767 237.326 159.908 237.435 161.677 241.349C164.68 244.748 165.218 244.906 169.06 246.896" stroke="#1B0F24" stroke-width="5" stroke-linecap="round" stroke-linejoin="round"/>
<path d="M105.464 236.313C104.285 235.727 105.628 232.158 106.446 230.447L111.848 227.513L117.741 226.78L123.634 228.247L131 230.447L130.509 237.047L128.545 243.647L120.687 248.78L113.321 245.847C111.193 242.913 106.643 236.9 105.464 236.313Z" fill="white"/>
<path d="M105.05 236.52C105.11 240.42 108.26 245.88 117.99 247.92C121.57 248.67 127.43 248.26 130.2 241.28C132.97 234.3 127.69 228.02 120.37 226.64C116.46 225.91 104.91 227.15 105.05 236.51V236.52Z" stroke="#1B0F24" stroke-width="5" stroke-linecap="round" stroke-linejoin="round"/>
<path d="M120 237C122.761 237 125 234.761 125 232C125 229.239 122.761 227 120 227C117.239 227 115 229.239 115 232C115 234.761 117.239 237 120 237Z" fill="#6930C3" stroke="#1B0F24" stroke-width="3" stroke-miterlimit="10" stroke-linecap="round"/>
<path d="M124 248.28C119.5 249.28 118.073 248.689 113.568 247.243C111.099 246.533 110.152 245.949 108.761 244.778C107.205 243.428 106.451 242.666 105.728 240.823C105.13 239.094 105.183 238.125 105.716 235.836L116.189 240.074L127.864 244.36C127.985 245.73 127.541 246.805 124 248.28Z" fill="#0D7356" stroke="#1B0F24" stroke-width="3"/>
<path d="M106 222.5C110.527 224.765 110.688 224.691 114.976 224.935C119.379 223.848 119.768 223.445 123.312 220.961" stroke="#1B0F24" stroke-width="5" stroke-linecap="round" stroke-linejoin="round"/>
<path d="M92.5 277.029C95.5 278 95.1797 279.261 100.5 279C104.465 278.68 106.442 278.195 109.476 277.029" stroke="#231F20" stroke-width="5"/>
<path d="M151.5 304.5L108.25 308.69L113.5 312.69L118.5 317C118.988 317.53 119.478 317.945 119.953 318.207C121.226 319.388 122.5 319.5 123 319.5C123.5 319.5 125.528 319.93 127 319.5H129H131.5H136C139.149 319.84 139.943 320.187 142 319C142.786 318.547 141.422 320.921 143.368 317.288C143.55 317.06 143.69 316.876 144 316.5C144.32 315.925 144.362 316.456 144.5 316C144.638 315.544 144.943 315.843 145 315.5C145.5 315 145.61 313.638 146.5 312.5C147.041 311.996 147.557 310.779 148 310.5C148.443 310.221 153 307.5 153 307V305V304H152L151.5 304.5Z" fill="#14B88A"/>
<path d="M154.5 308C153 306.5 149 311.5 148.5 311.5C148.1 311.5 146.229 313.938 145.729 314.771C145.14 316.089 144.675 316.571 143.631 317.542C142.799 318.762 142 319.5 140.902 320.271C140.235 320.999 142.024 319.367 141.5 319.5C140.554 319.828 140.501 319.913 139.5 320L128.5 321C127.905 320.957 127.5 320.449 126.5 320.5C123.154 320.317 122.736 320.909 121 320L117.5 317C116.754 316.408 116.311 316.221 115.5 316" stroke="#1B0F24" stroke-width="2"/>
<path d="M147 302C150.922 303.623 152.911 303.692 156 302" stroke="#231F20" stroke-width="2"/>
<path d="M73.25 2.67004C83.4202 2.67004 92.6506 6.48048 99.8369 12.587C105.333 9.58144 111.538 7.67004 118.25 7.67004C135.076 7.67004 149.253 18.5142 154.593 33.5392C170.147 36.5495 182 50.0104 182 66.42C182 84.6028 167.521 99.3686 149.5 100.043C145.121 110.336 135.118 117.67 123.25 117.67C114.546 117.67 106.875 113.651 101.604 107.524C94.7362 113.74 85.7366 117.67 75.75 117.67C64.1459 117.67 53.8108 112.456 46.7119 104.359C44.7808 104.779 42.8272 105.17 40.75 105.17C24.9014 105.17 12 92.2686 12 76.42C12 63.4855 20.7077 52.7972 32.4932 49.2032C32.2584 47.4691 32 45.7424 32 43.92C32 21.1688 50.4988 2.67004 73.25 2.67004ZM103.25 122.67C110.814 122.67 117 128.856 117 136.42C117 143.984 110.814 150.17 103.25 150.17C95.6857 150.17 89.5 143.984 89.5 136.42C89.5 128.856 95.6857 122.67 103.25 122.67ZM128.25 145.17C133.053 145.17 137 149.117 137 153.92C137 158.723 133.053 162.67 128.25 162.67C123.447 162.67 119.5 158.723 119.5 153.92C119.5 149.117 123.447 145.17 128.25 145.17Z" fill="#E8D6EE" stroke="#1B0F24" stroke-width="4"/>
<path d="M96.3281 28.5156C78.2063 28.5156 63.5156 43.2063 63.5156 61.3281C63.5156 79.45 78.2063 94.1406 96.3281 94.1406C114.45 94.1406 129.141 79.45 129.141 61.3281C129.141 43.2063 114.45 28.5156 96.3281 28.5156Z" fill="#ED576B"/>
<path d="M96.3281 28.5156C78.2063 28.5156 63.5156 43.2063 63.5156 61.3281C63.5156 79.45 78.2063 94.1406 96.3281 94.1406C114.45 94.1406 129.141 79.45 129.141 61.3281C129.141 43.2063 114.45 28.5156 96.3281 28.5156ZM96.3281 87.1094C84.7365 87.1112 74.5689 79.3767 71.4769 68.2051C68.3849 57.0334 73.1289 45.1718 83.072 39.2135C93.015 33.2552 105.712 34.6654 114.105 42.6602L114.902 43.4453C115.207 43.7578 115.5 44.0781 115.781 44.4062C122.413 52.0285 123.981 62.8217 119.792 72.0159C115.604 81.21 106.431 87.1104 96.3281 87.1094Z" fill="#E8D6EE"/>
<path d="M96.3281 87.1094C82.0895 87.1094 70.5469 75.5667 70.5469 61.3282H68.6016C67.21 61.3235 65.8883 61.9373 64.9941 63.0035C64.0999 64.0698 63.7256 65.4782 63.9727 66.8477C66.6511 82.6245 80.3197 94.1681 96.3223 94.1681C112.325 94.1681 125.993 82.6245 128.672 66.8477C128.919 65.4802 128.546 64.0738 127.654 63.008C126.763 61.9422 125.444 61.3269 124.055 61.3282H122.109C122.109 75.5667 110.567 87.1094 96.3281 87.1094Z" fill="#F1E6F4"/>
<path d="M96.3281 27.3438C77.5591 27.3438 62.3438 42.5591 62.3438 61.3281C62.3438 80.0972 77.5591 95.3125 96.3281 95.3125C115.097 95.3125 130.312 80.0972 130.312 61.3281C130.312 42.5591 115.097 27.3438 96.3281 27.3438ZM96.3281 92.9688C78.8535 92.9688 64.6875 78.8028 64.6875 61.3281C64.6875 43.8535 78.8535 29.6875 96.3281 29.6875C113.803 29.6875 127.969 43.8535 127.969 61.3281C127.969 78.8028 113.803 92.9688 96.3281 92.9688Z" fill="#1B0F24"/>
<path d="M74.0625 61.3282V63.6719C74.0625 64.3191 74.5872 64.8438 75.2344 64.8438C75.8816 64.8438 76.4062 64.3191 76.4062 63.6719V61.3282C76.4062 60.6809 75.8816 60.1563 75.2344 60.1563C74.5872 60.1563 74.0625 60.6809 74.0625 61.3282ZM79.9219 61.3282V63.6719C79.9219 64.3191 80.4465 64.8438 81.0938 64.8438C81.741 64.8438 82.2656 64.3191 82.2656 63.6719V61.3282C82.2656 60.6809 81.741 60.1563 81.0938 60.1563C80.4465 60.1563 79.9219 60.6809 79.9219 61.3282ZM85.7812 61.3282V63.6719C85.7812 64.3191 86.3059 64.8438 86.9531 64.8438C87.6003 64.8438 88.125 64.3191 88.125 63.6719V61.3282C88.125 60.6809 87.6003 60.1563 86.9531 60.1563C86.3059 60.1563 85.7812 60.6809 85.7812 61.3282ZM104.531 61.3282V63.6719C104.531 64.3191 105.056 64.8438 105.703 64.8438C106.35 64.8438 106.875 64.3191 106.875 63.6719V61.3282C106.875 60.6809 106.35 60.1563 105.703 60.1563C105.056 60.1563 104.531 60.6809 104.531 61.3282ZM111.562 64.8438C112.21 64.8438 112.734 64.3191 112.734 63.6719V61.3282C112.734 60.6809 112.21 60.1563 111.562 60.1563C110.915 60.1563 110.391 60.6809 110.391 61.3282V63.6719C110.391 64.3191 110.915 64.8438 111.562 64.8438ZM118.594 63.6719V61.3282C118.594 60.6809 118.069 60.1563 117.422 60.1563C116.775 60.1563 116.25 60.6809 116.25 61.3282V63.6719C116.25 64.3191 116.775 64.8438 117.422 64.8438C118.069 64.8438 118.594 64.3191 118.594 63.6719ZM96.3281 69.5313C96.9753 69.5313 97.5 69.0066 97.5 68.3594V66.5196L98.5313 50.875C98.5792 50.2463 98.3626 49.6262 97.9336 49.1641C97.5972 48.8097 97.1515 48.5785 96.668 48.5078C96.5588 48.4677 96.4443 48.444 96.3281 48.4375C96.2386 48.4272 96.1481 48.4272 96.0586 48.4375C95.5118 48.4732 94.9979 48.7113 94.6172 49.1055C94.1913 49.5647 93.9749 50.18 94.0195 50.8047L95.0977 67.211V68.3594C95.0973 68.6806 95.2287 68.9879 95.4613 69.2095C95.6939 69.431 96.0073 69.5473 96.3281 69.5313ZM96.375 71.875C95.0806 71.875 94.0313 72.9244 94.0313 74.2188C94.0313 75.5132 95.0806 76.5625 96.375 76.5625C97.6694 76.5625 98.7188 75.5132 98.7188 74.2188C98.7188 72.9244 97.6694 71.875 96.375 71.875Z" fill="#1B0F24"/>
<path d="M96.3281 88.2812C81.4423 88.2812 69.375 76.2139 69.375 61.3281C69.375 46.4423 81.4423 34.375 96.3281 34.375C97.6457 34.3735 98.9616 34.4675 100.266 34.6562C100.913 34.7501 101.361 35.3508 101.268 35.998C101.174 36.6452 100.573 37.0938 99.9258 37C89.7517 35.4965 79.7155 40.4783 74.7617 49.4913C69.8079 58.5042 70.9812 69.6472 77.7036 77.4306C84.426 85.2141 95.2797 87.9963 104.917 84.4067C114.555 80.8171 120.945 71.6127 120.937 61.3281C120.967 53.7742 117.507 46.6298 111.562 41.9687C111.054 41.5675 110.968 40.8303 111.369 40.3223C111.77 39.8142 112.508 39.7276 113.016 40.1289C122.06 47.2306 125.603 59.2884 121.838 70.154C118.072 81.0195 107.828 88.2993 96.3281 88.2812Z" fill="#1B0F24"/>
<path d="M108.047 39.5312C107.859 39.532 107.675 39.4878 107.508 39.4023C106.63 38.9579 105.726 38.5666 104.801 38.2305C104.192 38.0072 103.88 37.333 104.104 36.7246C104.327 36.1162 105.001 35.8041 105.609 36.0273C106.623 36.4009 107.613 36.8353 108.574 37.3281C109.042 37.5803 109.282 38.1157 109.158 38.6325C109.034 39.1494 108.578 39.5183 108.047 39.5312Z" fill="#1B0F24"/>
<defs>
<linearGradient id="paint0_linear_19_569" x1="153" y1="305.5" x2="157" y2="306" gradientUnits="userSpaceOnUse">
<stop stop-color="#14B88A"/>
<stop offset="1" stop-color="#E1766C"/>
</linearGradient>
</defs>
</svg>
