<svg width="260" height="260" viewBox="0 0 260 260" fill="none" xmlns="http://www.w3.org/2000/svg">
<path d="M130.5 234.5C187.938 234.5 234.5 187.938 234.5 130.5C234.5 73.0624 187.938 26.5 130.5 26.5C73.0624 26.5 26.5 73.0624 26.5 130.5C26.5 187.938 73.0624 234.5 130.5 234.5Z" fill="#B05EDC" stroke="#1B0F24" stroke-width="7" stroke-miterlimit="10" stroke-linecap="round"/>
<path d="M69.5 102L67 121.5L81 134L103 143.5L117.5 144.5L134.5 152.5L125.5 162L96 157L82.5 164.5L93 180.5L123 191.5L134.669 188.061L170.5 177.5L176.5 157L155.5 144.5L135 114L69.5 102Z" fill="#14B88A"/>
<path d="M162.5 73V63L182 74L183.5 79H165L162.5 73Z" fill="#6930C3"/>
<path d="M184.55 77.74C186.15 73.89 184.71 69.33 181.88 65.8C179.89 63.33 177.06 61.69 173.95 61.05C170.13 60.26 164.45 60.06 160.26 64.13" fill="#6930C3"/>
<path d="M184.55 77.74C186.15 73.89 184.71 69.33 181.88 65.8C179.89 63.33 177.06 61.69 173.95 61.05C170.13 60.26 164.45 60.06 160.26 64.13" stroke="#1B0F24" stroke-width="5" stroke-miterlimit="10" stroke-linecap="round"/>
<path d="M161.98 78.9601C162.46 71.1201 161.96 67.2601 159.26 62.0001C159.07 61.6401 158.88 61.2801 158.68 60.9301C156.62 57.3401 154.14 53.9201 150.65 53.0701C133.74 48.9401 139 69.7001 139 69.7001" fill="#6930C3"/>
<path d="M161.98 78.9601C162.46 71.1201 161.96 67.2601 159.26 62.0001C159.07 61.6401 158.88 61.2801 158.68 60.9301C156.62 57.3401 154.14 53.9201 150.65 53.0701C133.74 48.9401 139 69.7001 139 69.7001" stroke="#1B0F24" stroke-width="5" stroke-miterlimit="10" stroke-linecap="round"/>
<path d="M182.935 62.8186C183.297 61.9883 183.057 61.0827 182.399 60.7958C181.741 60.5089 180.914 60.9495 180.552 61.7798C180.19 62.6101 180.43 63.5158 181.088 63.8026C181.747 64.0895 182.574 63.6489 182.935 62.8186Z" fill="#6930C3" stroke="#1B0F24" stroke-width="5" stroke-miterlimit="10" stroke-linecap="round"/>
<path d="M125.838 163.287C126.344 158.454 130.672 154.034 132.099 153.921Z" fill="#14B88A"/>
<path d="M125.838 163.287C126.344 158.454 130.672 154.034 132.099 153.921" stroke="#1B0F24" stroke-width="5" stroke-miterlimit="10" stroke-linecap="round"/>
<path d="M94.5 157.5L85 161.5L91.5 174L116 190H133.5L142 176L124.5 163L107 156.5L94.5 157.5Z" fill="#E1766C"/>
<path d="M187.95 150.68C187.95 150.68 194.19 155.36 192.27 164.04C190.36 172.72 183.59 184.26 181.97 185.74C180.35 187.22 171 196.18 153.04 194.7C150.89 194.52 148.78 195.4 147.4 197.06C143.02 202.28 130.94 212.79 107.25 208.21C76.23 202.21 63.33 174.59 71.89 165.7C78.4 158.93 85.06 163.43 87.25 168.13C89.63 173.24 92.53 174.09 99.08 172.98C105.25 171.94 108.41 179.5 109.55 182.3C110.25 184.02 113.48 187.98 117.38 186.68" fill="#E1766C"/>
<path d="M187.95 150.68C187.95 150.68 194.19 155.36 192.27 164.04C190.36 172.72 183.59 184.26 181.97 185.74C180.35 187.22 171 196.18 153.04 194.7C150.89 194.52 148.78 195.4 147.4 197.06C143.02 202.28 130.94 212.79 107.25 208.21C76.23 202.21 63.33 174.59 71.89 165.7C78.4 158.93 85.06 163.43 87.25 168.13C89.63 173.24 92.53 174.09 99.08 172.98C105.25 171.94 108.41 179.5 109.55 182.3C110.25 184.02 113.48 187.98 117.38 186.68" stroke="#1B0F24" stroke-width="5" stroke-miterlimit="10" stroke-linecap="round"/>
<path d="M174.91 163.28C169.88 165.12 168.34 170.6 165.63 173.75C163.71 175.98 157.63 175.93 154.68 175.98C152.26 176.02 148.23 175.44 145.12 175.79C142.68 176.07 140.25 175.2 138.47 173.5C130.14 165.52 105.77 145.37 83.62 163.02" fill="#E1766C"/>
<path d="M174.91 163.28C169.88 165.12 168.34 170.6 165.63 173.75C163.71 175.98 157.63 175.93 154.68 175.98C152.26 176.02 148.23 175.44 145.12 175.79C142.68 176.07 140.25 175.2 138.47 173.5C130.14 165.52 105.77 145.37 83.62 163.02" stroke="#1B0F24" stroke-width="5" stroke-miterlimit="10" stroke-linecap="round"/>
<path d="M181 156.5L177 162L176 161C175.374 160.767 174.956 160.738 174 161V158C174 157.682 175.333 157.904 176 157.87C176.986 157.489 178.823 157.061 181 156.5Z" fill="url(#paint0_linear_35_127)"/>
<path d="M64.09 120.37C64.09 120.37 67.93 140.95 91.18 144.69C92.18 144.85 93.18 144.91 94.19 144.93C98.85 145.02 113.09 145.34 118.39 145.84C126.19 146.57 132.52 153.27 132.52 153.27" fill="#14B88A"/>
<path d="M64.09 120.37C64.09 120.37 67.93 140.95 91.18 144.69C92.18 144.85 93.18 144.91 94.19 144.93C98.85 145.02 113.09 145.34 118.39 145.84C126.19 146.57 132.52 153.27 132.52 153.27" stroke="#1B0F24" stroke-width="5" stroke-miterlimit="10" stroke-linecap="round"/>
<path d="M78.39 90.4801C78.39 90.4801 81.11 80.4501 89.67 81.4501C94.78 82.0501 97.7 86.6701 97.6 92.9901C97.59 93.7901 98.14 94.4901 98.93 94.6601C102.88 95.4901 114.18 97.4801 118.99 94.3501C124.86 90.5201 125.97 77.4301 131.25 73.4101C136.53 69.3901 143.84 66.3001 152.27 75.2001C158.74 82.0201 168.7 78.9701 168.7 78.9701C168.7 78.9701 181 74.6901 186.83 83.9501C191.72 91.7001 186.15 95.2201 186.83 100.76C187.68 107.74 202.14 124.72 193.46 142.1C190.51 148.01 178.14 162.87 156.86 151.63" fill="#14B88A"/>
<path d="M78.39 90.4801C78.39 90.4801 81.11 80.4501 89.67 81.4501C94.78 82.0501 97.7 86.6701 97.6 92.9901C97.59 93.7901 98.14 94.4901 98.93 94.6601C102.88 95.4901 114.18 97.4801 118.99 94.3501C124.86 90.5201 125.97 77.4301 131.25 73.4101C136.53 69.3901 143.84 66.3001 152.27 75.2001C158.74 82.0201 168.7 78.9701 168.7 78.9701C168.7 78.9701 181 74.6901 186.83 83.9501C191.72 91.7001 186.15 95.2201 186.83 100.76C187.68 107.74 202.14 124.72 193.46 142.1C190.51 148.01 178.14 162.87 156.86 151.63" stroke="#1B0F24" stroke-width="5" stroke-miterlimit="10" stroke-linecap="round"/>
<path d="M137.46 125.84C130.79 133.65 121.12 133.58 121.12 133.58C117.77 134.03 113.45 132.23 110.35 130.9C96.33 124.89 98.34 116.81 85.21 113.07C75.34 110.26 71.07 119.52 62.06 120.05C56.61 120.37 51.94 116.9 52.02 112.1C52.09 107.71 55.05 105.05 55.42 103.45C55.79 101.85 52.51 96.4901 54.57 93.0701C57.24 88.6201 61.06 88.8401 63.14 89.3901C64.12 89.6501 65.15 89.4301 65.99 88.8701C68.35 87.2601 73.52 84.6301 79.57 86.9601" fill="#14B88A"/>
<path d="M137.46 125.84C130.79 133.65 121.12 133.58 121.12 133.58C117.77 134.03 113.45 132.23 110.35 130.9C96.33 124.89 98.34 116.81 85.21 113.07C75.34 110.26 71.07 119.52 62.06 120.05C56.61 120.37 51.94 116.9 52.02 112.1C52.09 107.71 55.05 105.05 55.42 103.45C55.79 101.85 52.51 96.4901 54.57 93.0701C57.24 88.6201 61.06 88.8401 63.14 89.3901C64.12 89.6501 65.15 89.4301 65.99 88.8701C68.35 87.2601 73.52 84.6301 79.57 86.9601" stroke="#1B0F24" stroke-width="5" stroke-miterlimit="10" stroke-linecap="round"/>
<path d="M114.46 132.53C114.46 132.53 117.84 116.77 120.27 116.9C122.39 117.02 124.18 118.43 127.79 131.73" fill="white"/>
<path d="M114.46 132.53C114.46 132.53 117.84 116.77 120.27 116.9C122.39 117.02 124.18 118.43 127.79 131.73" stroke="#1B0F24" stroke-width="5" stroke-miterlimit="10" stroke-linecap="round"/>
<path d="M134.36 110.9C132.06 116.85 133.04 121.7 137.46 124.62C141.88 127.54 147.99 125.55 150.18 122.69" fill="#14B88A"/>
<path d="M134.36 110.9C132.06 116.85 133.04 121.7 137.46 124.62C141.88 127.54 147.99 125.55 150.18 122.69" stroke="#1B0F24" stroke-width="5" stroke-linecap="round" stroke-linejoin="round"/>
<path d="M87.4865 98.2219C87.6643 97.2237 87.2535 96.3157 86.5689 96.1937C85.8842 96.0718 85.1851 96.7821 85.0073 97.7803C84.8295 98.7785 85.2403 99.6866 85.925 99.8086C86.6096 99.9305 87.3087 99.2202 87.4865 98.2219Z" fill="#14B88A" stroke="#1B0F24" stroke-width="5" stroke-miterlimit="10" stroke-linecap="round"/>
<path d="M160.44 99.54C159.26 106.86 164.01 111.63 170.31 113.5C176.61 115.37 181.71 113.56 184.1 109.53C186.48 105.5 187.13 96.48 178.31 93.24C171.45 90.72 161.36 93.82 160.44 99.54Z" fill="white"/>
<path d="M166.5 93.5L176.5 92.5L181.5 95L185.5 99.5V106L174.5 101.5L162.5 97.5L166.5 93.5Z" fill="#0D7356"/>
<path d="M160.5 102.5L161.5 99L165 98.5L169 99.5L176.5 102.5L182 105L186 108L180.5 113.5L173.5 114L166.5 112L161.5 107L160.5 102.5Z" fill="white"/>
<path fill-rule="evenodd" clip-rule="evenodd" d="M166.351 90.9303C170.291 89.6058 175.121 89.4053 179.172 90.8933C184.441 92.8287 187.049 96.6247 187.855 100.591C188.626 104.388 187.743 108.278 186.253 110.801L186.25 110.805C183.119 116.085 176.672 117.996 169.599 115.897C166.083 114.853 162.823 112.951 160.599 110.102C158.332 107.197 157.275 103.469 157.972 99.143M166.351 90.9303C162.546 92.2094 158.656 94.8941 157.972 99.1421ZM167.944 95.6697C164.759 96.7405 163.145 98.4655 162.908 99.937L162.908 99.9379C162.426 102.932 163.154 105.248 164.541 107.025C165.972 108.859 168.237 110.277 171.021 111.103C176.547 112.743 180.299 111.036 181.948 108.257C182.838 106.75 183.469 104.116 182.955 101.586C182.476 99.2254 180.999 96.8913 177.448 95.5867C174.639 94.5547 170.994 94.6442 167.944 95.6697Z" fill="#1B0F24"/>
<path fill-rule="evenodd" clip-rule="evenodd" d="M158.513 98.086C158.582 96.707 159.755 95.6446 161.134 95.7131C164.547 95.8827 169.775 96.9439 174.658 98.6573C177.115 99.5194 179.555 100.571 181.679 101.803C183.774 103.018 185.722 104.501 187.022 106.29C187.834 107.407 187.587 108.971 186.47 109.782C185.353 110.594 183.789 110.347 182.978 109.23C182.258 108.239 180.977 107.177 179.17 106.128C177.393 105.097 175.258 104.167 173.002 103.375C168.46 101.781 163.712 100.847 160.886 100.707C159.507 100.638 158.445 99.465 158.513 98.086Z" fill="#1B0F24"/>
<path d="M173 111C175.761 111 178 108.761 178 106C178 103.239 175.761 101 173 101C170.239 101 168 103.239 168 106C168 108.761 170.239 111 173 111Z" fill="#6930C3" stroke="#1B0F24" stroke-width="3" stroke-miterlimit="10" stroke-linecap="round"/>
<path d="M126 94.0001C124.8 93.6001 126.167 91.1668 127 90.0001L132.5 88.0001L138.5 87.5001L144.5 88.5001L152 90.0001L151.5 94.5001L149.5 99.0001L141.5 102.5L134 100.5C131.833 98.5001 127.2 94.4001 126 94.0001Z" fill="white"/>
<path d="M150.092 84.9052C151.065 85.2302 149.956 87.2034 149.279 88.1493L144.817 89.7693L139.95 90.1724L135.084 89.3589L129.001 88.1391L129.408 84.4893L131.033 80.84L137.523 78.0044L143.606 79.6297C145.362 81.2528 149.119 84.5803 150.092 84.9052Z" fill="#0D7356"/>
<path d="M126.05 90.5201C126.11 94.4201 129.26 99.8801 138.99 101.92C142.57 102.67 148.43 102.26 151.2 95.2801C153.97 88.3001 148.69 82.0201 141.37 80.6401C137.46 79.9101 125.91 81.1501 126.05 90.5101V90.5201Z" stroke="#1B0F24" stroke-width="5" stroke-linecap="round" stroke-linejoin="round"/>
<path d="M126.05 90.5201C136.77 86.4301 149.64 89.4301 151.89 90.4901Z" fill="#14B88A"/>
<path d="M126.05 90.5201C136.77 86.4301 149.64 89.4301 151.89 90.4901" stroke="#1B0F24" stroke-width="5" stroke-miterlimit="10" stroke-linecap="round"/>
<path d="M140 99.0001C142.761 99.0001 145 96.7615 145 94.0001C145 91.2387 142.761 89.0001 140 89.0001C137.239 89.0001 135 91.2387 135 94.0001C135 96.7615 137.239 99.0001 140 99.0001Z" fill="#6930C3" stroke="#1B0F24" stroke-width="3" stroke-miterlimit="10" stroke-linecap="round"/>
<path d="M113.5 131.029C116.5 132 116.18 133.261 121.5 133C125.465 132.68 127.442 132.195 130.476 131.029" stroke="#231F20" stroke-width="5"/>
<path d="M172.5 158.5L129.25 162.69L134.5 166.69L139.5 171C139.988 171.53 140.478 171.945 140.953 172.207C142.226 173.388 143.5 173.5 144 173.5C144.5 173.5 146.528 173.93 148 173.5H150H152.5H157C160.149 173.84 160.943 174.187 163 173C163.786 172.547 162.422 174.921 164.368 171.288C164.55 171.06 164.69 170.876 165 170.5C165.32 169.925 165.362 170.456 165.5 170C165.638 169.544 165.943 169.843 166 169.5C166.5 169 166.61 167.638 167.5 166.5C168.041 165.996 168.557 164.779 169 164.5C169.443 164.221 174 161.5 174 161V159V158H173L172.5 158.5Z" fill="#14B88A"/>
<path d="M175.5 162C174 160.5 170 165.5 169.5 165.5C169.1 165.5 167.229 167.938 166.729 168.771C166.14 170.089 165.675 170.571 164.631 171.542C163.799 172.762 163 173.5 161.902 174.271C161.235 174.999 163.024 173.367 162.5 173.5C161.554 173.828 161.501 173.913 160.5 174L149.5 175C148.905 174.957 148.5 174.449 147.5 174.5C144.154 174.317 143.736 174.909 142 174L138.5 171C137.754 170.408 137.311 170.221 136.5 170" stroke="#1B0F24" stroke-width="2"/>
<path d="M168 156C171.922 157.623 173.911 157.692 177 156" stroke="#231F20" stroke-width="2"/>
<defs>
<linearGradient id="paint0_linear_35_127" x1="174" y1="159.5" x2="178" y2="160" gradientUnits="userSpaceOnUse">
<stop stop-color="#14B88A"/>
<stop offset="1" stop-color="#E1766C"/>
</linearGradient>
</defs>
</svg>
