<svg width="219" height="385" viewBox="0 0 219 385" fill="none" xmlns="http://www.w3.org/2000/svg">
<path d="M109.5 379.83C166.938 379.83 213.5 333.268 213.5 275.83C213.5 218.392 166.938 171.83 109.5 171.83C52.0624 171.83 5.5 218.392 5.5 275.83C5.5 333.268 52.0624 379.83 109.5 379.83Z" fill="#B05EDC" stroke="#1B0F24" stroke-width="7" stroke-miterlimit="10" stroke-linecap="round"/>
<path d="M48.5 247.33L46 266.83L60 279.33L82 288.83L96.5 289.83L113.5 297.83L104.5 307.33L75 302.33L61.5 309.83L72 325.83L102 336.83L113.669 333.391L149.5 322.83L155.5 302.33L134.5 289.83L114 259.33L48.5 247.33Z" fill="#14B88A"/>
<path d="M141.5 218.33V208.33L161 219.33L162.5 224.33H144L141.5 218.33Z" fill="#6930C3"/>
<path d="M163.55 223.07C165.15 219.22 163.71 214.66 160.88 211.13C158.89 208.66 156.06 207.02 152.95 206.38C149.13 205.59 143.45 205.39 139.26 209.46" fill="#6930C3"/>
<path d="M163.55 223.07C165.15 219.22 163.71 214.66 160.88 211.13C158.89 208.66 156.06 207.02 152.95 206.38C149.13 205.59 143.45 205.39 139.26 209.46" stroke="#1B0F24" stroke-width="5" stroke-miterlimit="10" stroke-linecap="round"/>
<path d="M140.98 224.29C141.46 216.45 140.96 212.59 138.26 207.33C138.07 206.97 137.88 206.61 137.68 206.26C135.62 202.67 133.14 199.25 129.65 198.4C112.74 194.27 118 215.03 118 215.03" fill="#6930C3"/>
<path d="M140.98 224.29C141.46 216.45 140.96 212.59 138.26 207.33C138.07 206.97 137.88 206.61 137.68 206.26C135.62 202.67 133.14 199.25 129.65 198.4C112.74 194.27 118 215.03 118 215.03" stroke="#1B0F24" stroke-width="5" stroke-miterlimit="10" stroke-linecap="round"/>
<path d="M161.935 208.149C162.297 207.318 162.057 206.413 161.399 206.126C160.741 205.839 159.914 206.279 159.552 207.11C159.19 207.94 159.43 208.846 160.088 209.133C160.747 209.419 161.574 208.979 161.935 208.149Z" fill="#6930C3" stroke="#1B0F24" stroke-width="5" stroke-miterlimit="10" stroke-linecap="round"/>
<path d="M104.838 308.617C105.344 303.784 109.672 299.364 111.099 299.251Z" fill="#14B88A"/>
<path d="M104.838 308.617C105.344 303.784 109.672 299.364 111.099 299.251" stroke="#1B0F24" stroke-width="5" stroke-miterlimit="10" stroke-linecap="round"/>
<path d="M73.5 302.83L64 306.83L70.5 319.33L95 335.33H112.5L121 321.33L103.5 308.33L86 301.83L73.5 302.83Z" fill="#E1766C"/>
<path d="M166.95 296.01C166.95 296.01 173.19 300.69 171.27 309.37C169.36 318.05 162.59 329.59 160.97 331.07C159.35 332.55 150 341.51 132.04 340.03C129.89 339.85 127.78 340.73 126.4 342.39C122.02 347.61 109.94 358.12 86.25 353.54C55.23 347.54 42.33 319.92 50.89 311.03C57.4 304.26 64.06 308.76 66.25 313.46C68.63 318.57 71.53 319.42 78.08 318.31C84.25 317.27 87.41 324.83 88.55 327.63C89.25 329.35 92.48 333.31 96.38 332.01" fill="#E1766C"/>
<path d="M166.95 296.01C166.95 296.01 173.19 300.69 171.27 309.37C169.36 318.05 162.59 329.59 160.97 331.07C159.35 332.55 150 341.51 132.04 340.03C129.89 339.85 127.78 340.73 126.4 342.39C122.02 347.61 109.94 358.12 86.25 353.54C55.23 347.54 42.33 319.92 50.89 311.03C57.4 304.26 64.06 308.76 66.25 313.46C68.63 318.57 71.53 319.42 78.08 318.31C84.25 317.27 87.41 324.83 88.55 327.63C89.25 329.35 92.48 333.31 96.38 332.01" stroke="#1B0F24" stroke-width="5" stroke-miterlimit="10" stroke-linecap="round"/>
<path d="M153.91 308.61C148.88 310.45 147.34 315.93 144.63 319.08C142.71 321.31 136.63 321.26 133.68 321.31C131.26 321.35 127.23 320.77 124.12 321.12C121.68 321.4 119.25 320.53 117.47 318.83C109.14 310.85 84.77 290.7 62.62 308.35" fill="#E1766C"/>
<path d="M153.91 308.61C148.88 310.45 147.34 315.93 144.63 319.08C142.71 321.31 136.63 321.26 133.68 321.31C131.26 321.35 127.23 320.77 124.12 321.12C121.68 321.4 119.25 320.53 117.47 318.83C109.14 310.85 84.77 290.7 62.62 308.35" stroke="#1B0F24" stroke-width="5" stroke-miterlimit="10" stroke-linecap="round"/>
<path d="M160 301.83L156 307.33L155 306.33C154.374 306.097 153.956 306.067 153 306.33V303.33C153 303.012 154.333 303.234 155 303.2C155.986 302.819 157.823 302.391 160 301.83Z" fill="url(#paint0_linear_17_477)"/>
<path d="M43.09 265.7C43.09 265.7 46.93 286.28 70.18 290.02C71.18 290.18 72.18 290.24 73.19 290.26C77.85 290.35 92.09 290.67 97.39 291.17C105.19 291.9 111.52 298.6 111.52 298.6" fill="#14B88A"/>
<path d="M43.09 265.7C43.09 265.7 46.93 286.28 70.18 290.02C71.18 290.18 72.18 290.24 73.19 290.26C77.85 290.35 92.09 290.67 97.39 291.17C105.19 291.9 111.52 298.6 111.52 298.6" stroke="#1B0F24" stroke-width="5" stroke-miterlimit="10" stroke-linecap="round"/>
<path d="M57.39 235.81C57.39 235.81 60.11 225.78 68.67 226.78C73.78 227.38 76.7 232 76.6 238.32C76.59 239.12 77.14 239.82 77.93 239.99C81.88 240.82 93.18 242.81 97.99 239.68C103.86 235.85 104.97 222.76 110.25 218.74C115.53 214.72 122.84 211.63 131.27 220.53C137.74 227.35 147.7 224.3 147.7 224.3C147.7 224.3 160 220.02 165.83 229.28C170.72 237.03 165.15 240.55 165.83 246.09C166.68 253.07 181.14 270.05 172.46 287.43C169.51 293.34 157.14 308.2 135.86 296.96" fill="#14B88A"/>
<path d="M57.39 235.81C57.39 235.81 60.11 225.78 68.67 226.78C73.78 227.38 76.7 232 76.6 238.32C76.59 239.12 77.14 239.82 77.93 239.99C81.88 240.82 93.18 242.81 97.99 239.68C103.86 235.85 104.97 222.76 110.25 218.74C115.53 214.72 122.84 211.63 131.27 220.53C137.74 227.35 147.7 224.3 147.7 224.3C147.7 224.3 160 220.02 165.83 229.28C170.72 237.03 165.15 240.55 165.83 246.09C166.68 253.07 181.14 270.05 172.46 287.43C169.51 293.34 157.14 308.2 135.86 296.96" stroke="#1B0F24" stroke-width="5" stroke-miterlimit="10" stroke-linecap="round"/>
<path d="M116.46 271.17C109.79 278.98 100.12 278.91 100.12 278.91C96.77 279.36 92.45 277.56 89.35 276.23C75.33 270.22 77.34 262.14 64.21 258.4C54.34 255.59 50.07 264.85 41.06 265.38C35.61 265.7 30.94 262.23 31.02 257.43C31.09 253.04 34.05 250.38 34.42 248.78C34.79 247.18 31.51 241.82 33.57 238.4C36.24 233.95 40.06 234.17 42.14 234.72C43.12 234.98 44.15 234.76 44.99 234.2C47.35 232.59 52.52 229.96 58.57 232.29" fill="#14B88A"/>
<path d="M116.46 271.17C109.79 278.98 100.12 278.91 100.12 278.91C96.77 279.36 92.45 277.56 89.35 276.23C75.33 270.22 77.34 262.14 64.21 258.4C54.34 255.59 50.07 264.85 41.06 265.38C35.61 265.7 30.94 262.23 31.02 257.43C31.09 253.04 34.05 250.38 34.42 248.78C34.79 247.18 31.51 241.82 33.57 238.4C36.24 233.95 40.06 234.17 42.14 234.72C43.12 234.98 44.15 234.76 44.99 234.2C47.35 232.59 52.52 229.96 58.57 232.29" stroke="#1B0F24" stroke-width="5" stroke-miterlimit="10" stroke-linecap="round"/>
<path d="M93.46 277.86C93.46 277.86 96.84 262.1 99.27 262.23C101.39 262.35 103.18 263.76 106.79 277.06" fill="white"/>
<path d="M93.46 277.86C93.46 277.86 96.84 262.1 99.27 262.23C101.39 262.35 103.18 263.76 106.79 277.06" stroke="#1B0F24" stroke-width="5" stroke-miterlimit="10" stroke-linecap="round"/>
<path d="M113.36 256.23C111.06 262.18 112.04 267.03 116.46 269.95C120.88 272.87 126.99 270.88 129.18 268.02" fill="#14B88A"/>
<path d="M113.36 256.23C111.06 262.18 112.04 267.03 116.46 269.95C120.88 272.87 126.99 270.88 129.18 268.02" stroke="#1B0F24" stroke-width="5" stroke-linecap="round" stroke-linejoin="round"/>
<path d="M66.4865 243.552C66.6643 242.554 66.2535 241.646 65.5689 241.524C64.8842 241.402 64.1851 242.112 64.0073 243.11C63.8295 244.108 64.2403 245.017 64.925 245.138C65.6096 245.26 66.3087 244.55 66.4865 243.552Z" fill="#14B88A" stroke="#1B0F24" stroke-width="5" stroke-miterlimit="10" stroke-linecap="round"/>
<path d="M139.44 244.87C138.26 252.19 143.01 256.96 149.31 258.83C155.61 260.7 160.71 258.89 163.1 254.86C165.48 250.83 166.13 241.81 157.31 238.57C150.45 236.05 140.36 239.15 139.44 244.87Z" fill="white"/>
<path d="M139.5 247.83L140.5 244.33L144 243.83L148 244.83L155.5 247.83L161 250.33L165 253.33L159.5 258.83L152.5 259.33L145.5 257.33L140.5 252.33L139.5 247.83Z" fill="white"/>
<path fill-rule="evenodd" clip-rule="evenodd" d="M145.351 236.26C149.291 234.936 154.121 234.735 158.172 236.223C163.441 238.159 166.049 241.955 166.855 245.921C167.626 249.718 166.743 253.608 165.253 256.131L165.25 256.135C162.119 261.415 155.672 263.326 148.599 261.227C145.083 260.183 141.823 258.281 139.599 255.432C137.332 252.527 136.275 248.799 136.972 244.473M145.351 236.26C141.546 237.539 137.656 240.224 136.972 244.472ZM146.944 241C143.759 242.07 142.145 243.796 141.908 245.267L141.908 245.268C141.426 248.262 142.154 250.578 143.541 252.355C144.972 254.189 147.237 255.607 150.021 256.433C155.547 258.073 159.299 256.366 160.948 253.587C161.838 252.08 162.469 249.446 161.955 246.916C161.476 244.555 159.999 242.221 156.448 240.917C153.639 239.885 149.994 239.974 146.944 241Z" fill="#1B0F24"/>
<path d="M153 248.33C155.761 248.33 158 246.091 158 243.33C158 240.569 155.761 238.33 153 238.33C150.239 238.33 148 240.569 148 243.33C148 246.091 150.239 248.33 153 248.33Z" fill="#6930C3" stroke="#1B0F24" stroke-width="3" stroke-miterlimit="10" stroke-linecap="round"/>
<path d="M158.774 259.92C155.728 260.967 151 260.61 148 259.61C145.5 258.777 144.532 258.102 142.766 256.812C141 255.11 140.832 254.646 139.976 252.868C139.258 251.197 138.825 249.868 139.283 247.607L150.821 251.732C150.821 251.732 161.789 255.56 162.5 255.61C163.211 255.66 161.454 258.857 158.774 259.92Z" fill="#0D7356" stroke="#1B0F24" stroke-width="3"/>
<path d="M105.464 235.643C104.285 235.057 105.628 231.488 106.446 229.777L111.848 226.843L117.741 226.11L123.634 227.577L131 229.777L130.509 236.377L128.545 242.977L120.687 248.11L113.321 245.177C111.193 242.243 106.643 236.23 105.464 235.643Z" fill="white"/>
<path d="M105.05 235.85C105.11 239.75 108.26 245.21 117.99 247.25C121.57 248 127.43 247.59 130.2 240.61C132.97 233.63 127.69 227.35 120.37 225.97C116.46 225.24 104.91 226.48 105.05 235.84V235.85Z" stroke="#1B0F24" stroke-width="5" stroke-linecap="round" stroke-linejoin="round"/>
<path d="M120 236.33C122.761 236.33 125 234.091 125 231.33C125 228.569 122.761 226.33 120 226.33C117.239 226.33 115 228.569 115 231.33C115 234.091 117.239 236.33 120 236.33Z" fill="#6930C3" stroke="#1B0F24" stroke-width="3" stroke-miterlimit="10" stroke-linecap="round"/>
<path d="M124 247.61C119.5 248.61 118.073 248.019 113.568 246.573C111.099 245.863 110.152 245.279 108.761 244.108C107.205 242.758 106.451 241.996 105.728 240.153C105.13 238.424 105.183 237.455 105.716 235.166L116.189 239.404L127.864 243.69C127.985 245.06 127.541 246.135 124 247.61Z" fill="#0D7356" stroke="#1B0F24" stroke-width="3"/>
<path d="M92.5 276.359C95.5 277.33 95.1797 278.591 100.5 278.33C104.465 278.01 106.442 277.525 109.476 276.359" stroke="#231F20" stroke-width="5"/>
<path d="M151.5 303.83L108.25 308.02L113.5 312.02L118.5 316.33C118.988 316.86 119.478 317.275 119.953 317.537C121.226 318.718 122.5 318.83 123 318.83C123.5 318.83 125.528 319.26 127 318.83H129H131.5H136C139.149 319.17 139.943 319.517 142 318.33C142.786 317.876 141.422 320.251 143.368 316.618C143.55 316.39 143.69 316.206 144 315.83C144.32 315.255 144.362 315.786 144.5 315.33C144.638 314.874 144.943 315.173 145 314.83C145.5 314.33 145.61 312.968 146.5 311.83C147.041 311.326 147.557 310.108 148 309.83C148.443 309.551 153 306.83 153 306.33V304.33V303.33H152L151.5 303.83Z" fill="#14B88A"/>
<path d="M154.5 307.33C153 305.83 149 310.83 148.5 310.83C148.1 310.83 146.229 313.268 145.729 314.101C145.14 315.419 144.675 315.901 143.631 316.872C142.799 318.092 142 318.83 140.902 319.601C140.235 320.329 142.024 318.697 141.5 318.83C140.554 319.158 140.501 319.243 139.5 319.33L128.5 320.33C127.905 320.287 127.5 319.779 126.5 319.83C123.154 319.647 122.736 320.239 121 319.33L117.5 316.33C116.754 315.738 116.311 315.551 115.5 315.33" stroke="#1B0F24" stroke-width="2"/>
<path d="M147 301.33C150.922 302.953 152.911 303.021 156 301.33" stroke="#231F20" stroke-width="2"/>
<path d="M73.25 2C83.4202 2 92.6506 5.81044 99.8369 11.917C105.333 8.9114 111.538 7 118.25 7C135.076 7 149.253 17.8441 154.593 32.8691C170.147 35.8794 182 49.3404 182 65.75C182 83.9328 167.521 98.6985 149.5 99.373C145.121 109.665 135.118 117 123.25 117C114.546 117 106.875 112.981 101.604 106.854C94.7362 113.07 85.7366 117 75.75 117C64.1459 117 53.8108 111.786 46.7119 103.689C44.7808 104.109 42.8272 104.5 40.75 104.5C24.9014 104.5 12 91.5986 12 75.75C12 62.8154 20.7077 52.1272 32.4932 48.5332C32.2584 46.7991 32 45.0723 32 43.25C32 20.4988 50.4988 2 73.25 2ZM103.25 122C110.814 122 117 128.186 117 135.75C117 143.314 110.814 149.5 103.25 149.5C95.6857 149.5 89.5 143.314 89.5 135.75C89.5 128.186 95.6857 122 103.25 122ZM128.25 144.5C133.053 144.5 137 148.447 137 153.25C137 158.053 133.053 162 128.25 162C123.447 162 119.5 158.053 119.5 153.25C119.5 148.447 123.447 144.5 128.25 144.5Z" fill="#E8D6EE" stroke="#1B0F24" stroke-width="4"/>
<path d="M128.5 52.1875C135.024 52.1875 140.312 57.4761 140.312 64C140.312 70.5239 135.024 75.8125 128.5 75.8125C121.976 75.8125 116.688 70.5239 116.688 64C116.688 57.4761 121.976 52.1875 128.5 52.1875Z" fill="#C86BFA"/>
<path d="M130.155 73.5627C134.262 72.8586 137.45 69.6181 138.088 65.4998C138.257 64.4126 139.225 63.6566 140.306 63.7279C140.308 63.8186 140.312 63.9089 140.312 64C140.312 70.5239 135.024 75.8125 128.5 75.8125C128.473 75.8125 128.446 75.8108 128.419 75.8104C128.332 74.7338 129.07 73.7491 130.155 73.5627Z" fill="#B05EDC"/>
<path d="M126.733 54.4572C122.635 55.2094 119.485 58.4874 118.895 62.6129C118.739 63.7018 117.78 64.4691 116.699 64.4109C116.696 64.3202 116.69 64.2304 116.689 64.1388C116.612 57.6158 121.837 52.2651 128.361 52.1884C128.388 52.1879 128.415 52.1896 128.442 52.1896C128.542 53.265 127.816 54.2585 126.733 54.4572Z" fill="#D184FB"/>
<path d="M118.896 63.0347C119.102 63.0347 119.282 62.8829 119.312 62.6724C119.382 62.1859 119.49 61.7016 119.636 61.2333C119.705 61.011 119.58 60.7743 119.358 60.7056C119.136 60.636 118.899 60.7608 118.83 60.9836C118.672 61.4945 118.553 62.0222 118.478 62.553C118.445 62.7837 118.605 62.9972 118.836 63.0301C118.856 63.0335 118.876 63.0347 118.896 63.0347ZM119.759 60.1926C119.916 60.1926 120.067 60.1048 120.139 59.9542C121.417 57.304 123.91 55.4043 126.809 54.8723C127.038 54.8301 127.19 54.6103 127.148 54.3812C127.106 54.1526 126.886 54.0003 126.657 54.0425C123.495 54.623 120.774 56.6961 119.379 59.5876C119.278 59.7977 119.366 60.0496 119.576 60.1508C119.635 60.1791 119.698 60.1926 119.759 60.1926Z" fill="#1B0F24"/>
<path d="M128.5 76.2344C135.246 76.2344 140.734 70.7462 140.734 64C140.734 57.2538 135.246 51.7656 128.5 51.7656C121.754 51.7656 116.266 57.2538 116.266 64C116.266 70.7462 121.754 76.2344 128.5 76.2344ZM128.5 52.6094C134.781 52.6094 139.891 57.7191 139.891 64C139.891 70.2809 134.781 75.3906 128.5 75.3906C122.219 75.3906 117.109 70.2809 117.109 64C117.109 57.7191 122.219 52.6094 128.5 52.6094Z" fill="#1B0F24" stroke="black"/>
<path d="M138.477 66.0866C138.68 66.0866 138.859 65.9402 138.893 65.7335C138.931 65.504 138.776 65.2863 138.546 65.2483L137.713 65.1104C137.484 65.0732 137.266 65.2281 137.228 65.4576C137.19 65.6875 137.345 65.9047 137.575 65.9427L138.408 66.0807C138.432 66.0845 138.455 66.0866 138.477 66.0866ZM137.926 68.1002C138.094 68.1002 138.254 67.9981 138.319 67.8314C138.404 67.6142 138.296 67.3699 138.079 67.2851L137.293 66.978C137.075 66.8936 136.831 67.0008 136.747 67.2176C136.662 67.4349 136.769 67.6792 136.986 67.7639L137.772 68.0711C137.823 68.0909 137.875 68.1002 137.926 68.1002ZM136.972 69.9577C137.109 69.9577 137.244 69.8906 137.325 69.767C137.453 69.5721 137.398 69.3105 137.203 69.1831L136.497 68.7208C136.302 68.5929 136.041 68.6478 135.913 68.8427C135.785 69.0376 135.84 69.2992 136.035 69.4266L136.741 69.8889C136.812 69.9353 136.892 69.9577 136.972 69.9577ZM135.66 71.5815C135.768 71.5815 135.876 71.5402 135.958 71.4579C136.123 71.2929 136.123 71.0263 135.958 70.8614L135.361 70.2644C135.196 70.0994 134.929 70.0994 134.764 70.2644C134.599 70.4294 134.599 70.696 134.764 70.8609L135.361 71.4579C135.444 71.5402 135.552 71.5815 135.66 71.5815ZM134.036 72.8939C134.115 72.8939 134.195 72.8716 134.267 72.8248C134.462 72.6974 134.516 72.4358 134.389 72.2409L133.927 71.5351C133.799 71.3406 133.538 71.2853 133.343 71.4132C133.148 71.5406 133.093 71.8021 133.221 71.997L133.683 72.7028C133.764 72.8269 133.898 72.8939 134.036 72.8939ZM132.178 73.8478C132.229 73.8478 132.281 73.8385 132.331 73.8187C132.549 73.7339 132.656 73.4892 132.571 73.2724L132.264 72.4864C132.179 72.2696 131.936 72.162 131.718 72.2468C131.5 72.3316 131.393 72.5763 131.478 72.7931L131.785 73.5791C131.85 73.7461 132.01 73.8478 132.178 73.8478ZM130.164 74.3988C130.187 74.3988 130.21 74.3971 130.234 74.3929C130.464 74.3549 130.619 74.1376 130.581 73.9077L130.443 73.0754C130.405 72.8459 130.188 72.6893 129.958 72.7282C129.728 72.7661 129.573 72.9834 129.611 73.2133L129.749 74.0457C129.783 74.2524 129.961 74.3988 130.164 74.3988Z" fill="#1B0F24"/>
<path d="M97.5 52.1875C104.024 52.1875 109.312 57.4761 109.312 64C109.312 70.5239 104.024 75.8125 97.5 75.8125C90.9761 75.8125 85.6875 70.5239 85.6875 64C85.6875 57.4761 90.9761 52.1875 97.5 52.1875Z" fill="#C86BFA"/>
<path d="M99.1546 73.5627C103.262 72.8586 106.45 69.6181 107.088 65.4998C107.257 64.4126 108.225 63.6566 109.306 63.7279C109.308 63.8186 109.312 63.9089 109.312 64C109.312 70.5239 104.024 75.8125 97.5 75.8125C97.473 75.8125 97.446 75.8108 97.419 75.8104C97.3321 74.7338 98.0695 73.7491 99.1546 73.5627Z" fill="#B05EDC"/>
<path d="M95.7332 54.4572C91.6347 55.2094 88.4845 58.4874 87.8952 62.6129C87.7395 63.7018 86.7797 64.4691 85.6989 64.4109C85.6959 64.3202 85.69 64.2304 85.6888 64.1388C85.6116 57.6158 90.8373 52.2651 97.3608 52.1884C97.3878 52.1879 97.4148 52.1896 97.4418 52.1896C97.5418 53.265 96.8157 54.2585 95.7332 54.4572Z" fill="#D184FB"/>
<path d="M87.8956 63.0347C88.1023 63.0347 88.2825 62.8829 88.3124 62.6724C88.382 62.1859 88.4904 61.7016 88.6356 61.2333C88.7048 61.011 88.5799 60.7743 88.3576 60.7056C88.1357 60.636 87.8986 60.7608 87.8298 60.9836C87.6716 61.4945 87.553 62.0222 87.4775 62.553C87.4446 62.7837 87.6049 62.9972 87.8357 63.0301C87.8555 63.0335 87.8758 63.0347 87.8956 63.0347ZM88.7592 60.1926C88.9161 60.1926 89.0667 60.1048 89.1393 59.9542C90.4172 57.304 92.9104 55.4043 95.8091 54.8723C96.0382 54.8301 96.1901 54.6103 96.1479 54.3812C96.1057 54.1526 95.8859 54.0003 95.6568 54.0425C92.4949 54.623 89.7742 56.6961 88.3795 59.5876C88.2782 59.7977 88.3664 60.0496 88.5761 60.1508C88.6352 60.1791 88.6976 60.1926 88.7592 60.1926Z" fill="#1B0F24"/>
<path d="M97.5 76.2344C104.246 76.2344 109.734 70.7462 109.734 64C109.734 57.2538 104.246 51.7656 97.5 51.7656C90.7538 51.7656 85.2656 57.2538 85.2656 64C85.2656 70.7462 90.7538 76.2344 97.5 76.2344ZM97.5 52.6094C103.781 52.6094 108.891 57.7191 108.891 64C108.891 70.2809 103.781 75.3906 97.5 75.3906C91.2191 75.3906 86.1094 70.2809 86.1094 64C86.1094 57.7191 91.2191 52.6094 97.5 52.6094Z" fill="#1B0F24" stroke="black"/>
<path d="M107.477 66.0866C107.68 66.0866 107.859 65.9402 107.893 65.7335C107.931 65.504 107.776 65.2863 107.546 65.2483L106.713 65.1104C106.484 65.0732 106.266 65.2281 106.228 65.4576C106.19 65.6875 106.345 65.9047 106.575 65.9427L107.408 66.0807C107.432 66.0845 107.455 66.0866 107.477 66.0866ZM106.926 68.1002C107.094 68.1002 107.254 67.9981 107.319 67.8314C107.404 67.6142 107.296 67.3699 107.079 67.2851L106.293 66.978C106.075 66.8936 105.831 67.0008 105.747 67.2176C105.662 67.4349 105.769 67.6792 105.986 67.7639L106.772 68.0711C106.823 68.0909 106.875 68.1002 106.926 68.1002ZM105.972 69.9577C106.109 69.9577 106.244 69.8906 106.325 69.767C106.453 69.5721 106.398 69.3105 106.203 69.1831L105.497 68.7208C105.302 68.5929 105.041 68.6478 104.913 68.8427C104.785 69.0376 104.84 69.2992 105.035 69.4266L105.741 69.8889C105.812 69.9353 105.892 69.9577 105.972 69.9577ZM104.66 71.5815C104.768 71.5815 104.876 71.5402 104.958 71.4579C105.123 71.2929 105.123 71.0263 104.958 70.8614L104.361 70.2644C104.196 70.0994 103.929 70.0994 103.764 70.2644C103.599 70.4294 103.599 70.696 103.764 70.8609L104.361 71.4579C104.444 71.5402 104.552 71.5815 104.66 71.5815ZM103.036 72.8939C103.115 72.8939 103.195 72.8716 103.267 72.8248C103.462 72.6974 103.516 72.4358 103.389 72.2409L102.927 71.5351C102.799 71.3406 102.538 71.2853 102.343 71.4132C102.148 71.5406 102.093 71.8021 102.221 71.997L102.683 72.7028C102.764 72.8269 102.898 72.8939 103.036 72.8939ZM101.178 73.8478C101.229 73.8478 101.281 73.8385 101.331 73.8187C101.549 73.7339 101.656 73.4892 101.571 73.2724L101.264 72.4864C101.179 72.2696 100.936 72.162 100.718 72.2468C100.5 72.3316 100.393 72.5763 100.478 72.7931L100.785 73.5791C100.85 73.7461 101.01 73.8478 101.178 73.8478ZM99.1643 74.3988C99.1871 74.3988 99.2103 74.3971 99.2339 74.3929C99.4638 74.3549 99.6191 74.1376 99.5811 73.9077L99.4431 73.0754C99.4052 72.8459 99.1879 72.6893 98.958 72.7282C98.7281 72.7661 98.5728 72.9834 98.6108 73.2133L98.7487 74.0457C98.7829 74.2524 98.9614 74.3988 99.1643 74.3988Z" fill="#1B0F24"/>
<path d="M66.5 52.1875C73.0239 52.1875 78.3125 57.4761 78.3125 64C78.3125 70.5239 73.0239 75.8125 66.5 75.8125C59.9761 75.8125 54.6875 70.5239 54.6875 64C54.6875 57.4761 59.9761 52.1875 66.5 52.1875Z" fill="#C86BFA"/>
<path d="M68.1546 73.5627C72.2615 72.8586 75.4501 69.6181 76.0884 65.4998C76.2567 64.4126 77.2253 63.6566 78.3058 63.7279C78.3079 63.8186 78.3125 63.9089 78.3125 64C78.3125 70.5239 73.0239 75.8125 66.5 75.8125C66.473 75.8125 66.446 75.8108 66.419 75.8104C66.3321 74.7338 67.0695 73.7491 68.1546 73.5627Z" fill="#B05EDC"/>
<path d="M64.7332 54.4572C60.6347 55.2094 57.4845 58.4874 56.8952 62.6129C56.7395 63.7018 55.7797 64.4691 54.6989 64.4109C54.6959 64.3202 54.69 64.2304 54.6888 64.1388C54.6116 57.6158 59.8373 52.2651 66.3608 52.1884C66.3878 52.1879 66.4148 52.1896 66.4418 52.1896C66.5418 53.265 65.8157 54.2585 64.7332 54.4572Z" fill="#D184FB"/>
<path d="M56.8956 63.0347C57.1023 63.0347 57.2825 62.8829 57.3124 62.6724C57.382 62.1859 57.4904 61.7016 57.6356 61.2333C57.7048 61.011 57.5799 60.7743 57.3576 60.7056C57.1357 60.636 56.8986 60.7608 56.8298 60.9836C56.6716 61.4945 56.553 62.0222 56.4775 62.553C56.4446 62.7837 56.6049 62.9972 56.8357 63.0301C56.8555 63.0335 56.8758 63.0347 56.8956 63.0347ZM57.7592 60.1926C57.9161 60.1926 58.0667 60.1048 58.1393 59.9542C59.4172 57.304 61.9104 55.4043 64.8091 54.8723C65.0382 54.8301 65.1901 54.6103 65.1479 54.3812C65.1057 54.1526 64.8859 54.0003 64.6568 54.0425C61.4949 54.623 58.7742 56.6961 57.3795 59.5876C57.2782 59.7977 57.3664 60.0496 57.5761 60.1508C57.6352 60.1791 57.6976 60.1926 57.7592 60.1926Z" fill="#1B0F24"/>
<path d="M66.5 76.2344C73.2462 76.2344 78.7344 70.7462 78.7344 64C78.7344 57.2538 73.2462 51.7656 66.5 51.7656C59.7538 51.7656 54.2656 57.2538 54.2656 64C54.2656 70.7462 59.7538 76.2344 66.5 76.2344ZM66.5 52.6094C72.7809 52.6094 77.8906 57.7191 77.8906 64C77.8906 70.2809 72.7809 75.3906 66.5 75.3906C60.2191 75.3906 55.1094 70.2809 55.1094 64C55.1094 57.7191 60.2191 52.6094 66.5 52.6094Z" fill="#1B0F24" stroke="black"/>
<path d="M76.4773 66.0866C76.6798 66.0866 76.8587 65.9402 76.8929 65.7335C76.9308 65.504 76.7756 65.2863 76.5457 65.2483L75.7129 65.1104C75.4842 65.0732 75.2661 65.2281 75.2277 65.4576C75.1898 65.6875 75.3454 65.9047 75.5749 65.9427L76.4077 66.0807C76.4318 66.0845 76.4545 66.0866 76.4773 66.0866ZM75.9255 68.1002C76.0943 68.1002 76.2537 67.9981 76.3187 67.8314C76.4035 67.6142 76.2963 67.3699 76.0791 67.2851L75.2931 66.978C75.075 66.8936 74.8312 67.0008 74.7468 67.2176C74.662 67.4349 74.7692 67.6792 74.9864 67.7639L75.7724 68.0711C75.823 68.0909 75.8749 68.1002 75.9255 68.1002ZM74.9717 69.9577C75.1092 69.9577 75.2442 69.8906 75.3248 69.767C75.4526 69.5721 75.3978 69.3105 75.2028 69.1831L74.497 68.7208C74.3021 68.5929 74.0406 68.6478 73.9132 68.8427C73.7853 69.0376 73.8402 69.2992 74.0351 69.4266L74.7409 69.8889C74.8122 69.9353 74.8923 69.9577 74.9717 69.9577ZM73.6596 71.5815C73.7676 71.5815 73.8756 71.5402 73.9579 71.4579C74.1228 71.2929 74.1228 71.0263 73.9579 70.8614L73.3609 70.2644C73.196 70.0994 72.9294 70.0994 72.7644 70.2644C72.5995 70.4294 72.5995 70.696 72.7644 70.8609L73.3614 71.4579C73.4436 71.5402 73.5516 71.5815 73.6596 71.5815ZM72.0358 72.8939C72.1151 72.8939 72.1953 72.8716 72.2666 72.8248C72.4615 72.6974 72.5159 72.4358 72.3885 72.2409L71.9266 71.5351C71.7992 71.3406 71.5376 71.2853 71.3427 71.4132C71.1478 71.5406 71.0934 71.8021 71.2208 71.997L71.6827 72.7028C71.7637 72.8269 71.8983 72.8939 72.0358 72.8939ZM70.1783 73.8478C70.2294 73.8478 70.2813 73.8385 70.3315 73.8187C70.5487 73.7339 70.6559 73.4892 70.5711 73.2724L70.264 72.4864C70.1792 72.2696 69.9357 72.162 69.7176 72.2468C69.5004 72.3316 69.3932 72.5763 69.478 72.7931L69.7851 73.5791C69.8501 73.7461 70.0096 73.8478 70.1783 73.8478ZM68.1643 74.3988C68.1871 74.3988 68.2103 74.3971 68.2339 74.3929C68.4638 74.3549 68.6191 74.1376 68.5811 73.9077L68.4431 73.0754C68.4052 72.8459 68.1879 72.6893 67.958 72.7282C67.7281 72.7661 67.5728 72.9834 67.6108 73.2133L67.7487 74.0457C67.7829 74.2524 67.9614 74.3988 68.1643 74.3988Z" fill="#1B0F24"/>
<defs>
<linearGradient id="paint0_linear_17_477" x1="153" y1="304.83" x2="157" y2="305.33" gradientUnits="userSpaceOnUse">
<stop stop-color="#14B88A"/>
<stop offset="1" stop-color="#E1766C"/>
</linearGradient>
</defs>
</svg>
