<svg xmlns="http://www.w3.org/2000/svg" xmlns:xlink="http://www.w3.org/1999/xlink" viewBox="0,0,256,256" width="128px" height="128px"><g fill="none" fill-rule="nonzero" stroke="none" stroke-width="1" stroke-linecap="butt" stroke-linejoin="miter" stroke-miterlimit="10" stroke-dasharray="" stroke-dashoffset="0" font-family="none" font-weight="none" font-size="none" text-anchor="none" style="mix-blend-mode: normal"><g transform="scale(4,4)"><path transform="translate(-17.98024,43.51986) rotate(-45)" d="M40.78,41.46h5.54v4h-5.54z" fill="#e8d6ee"></path><rect x="-4.24" y="63.75989" transform="rotate(-45)" width="8.49" height="22.51" rx="4" ry="4" fill="#c86bfa"></rect><rect x="-4.24191" y="63.7613" transform="rotate(-45)" width="4.24" height="22.51" rx="2.12" ry="2.12" fill="#b05edc"></rect><path d="M25,1c-13.25483,0 -24,10.74517 -24,24c0,13.25483 10.74517,24 24,24c13.25483,0 24,-10.74517 24,-24c0,-13.25483 -10.74517,-24 -24,-24z" fill="#19e6ac"></path><path d="M11.14,38.86l27.72,-27.72c0.83696,-0.83726 2.00182,-1.26077 3.18108,-1.15655c1.17926,0.10422 2.25178,0.72547 2.92892,1.69655c6.40091,9.52 5.16966,22.23876 -2.93847,30.35419c-8.10813,8.11543 -20.82578,9.35814 -30.35153,2.96581c-0.98146,-0.67652 -1.61005,-1.75551 -1.71448,-2.94296c-0.10443,-1.18745 0.32618,-2.3596 1.17448,-3.19704z" fill="#14b88a"></path><path d="M25,7c-9.94113,0 -18,8.05887 -18,18c0,9.94113 8.05887,18 18,18c9.94113,0 18,-8.05887 18,-18c0,-9.94113 -8.05887,-18 -18,-18z" fill="#e8d6ee"></path><path d="M25,18c-3.86599,0 -7,3.13401 -7,7c0,3.86599 3.13401,7 7,7c3.86599,0 7,-3.13401 7,-7c0,-3.86599 -3.13401,-7 -7,-7z" fill="#f1e6f4"></path><path d="M21,17c-2.20914,0 -4,1.79086 -4,4c0,2.20914 1.79086,4 4,4c2.20914,0 4,-1.79086 4,-4c0,-2.20914 -1.79086,-4 -4,-4zM29.5,28c-0.82843,0 -1.5,0.67157 -1.5,1.5c0,0.82843 0.67157,1.5 1.5,1.5c0.82843,0 1.5,-0.67157 1.5,-1.5c0,-0.82843 -0.67157,-1.5 -1.5,-1.5z" fill="#f9f4fa"></path><path d="M38.44,11.57c-5.43396,-5.43398 -13.6062,-7.05955 -20.70602,-4.11872c-7.09982,2.94083 -11.72903,9.86893 -11.72903,17.55372c0,7.68479 4.62921,14.61288 11.72903,17.55372c7.09982,2.94083 15.27207,1.31526 20.70602,-4.11872c3.59287,-3.54735 5.61519,-8.386 5.61519,-13.435c0,-5.049 -2.02232,-9.88765 -5.61519,-13.435zM37,37c-4.85733,4.87416 -12.17394,6.3394 -18.53362,3.71157c-6.35969,-2.62783 -10.50797,-8.83036 -10.50797,-15.71157c0,-6.88121 4.14828,-13.08375 10.50797,-15.71157c6.35969,-2.62783 13.6763,-1.16259 18.53362,3.71157c3.20248,3.17201 5.00421,7.4925 5.00421,12c0,4.5075 -1.80172,8.82799 -5.00421,12z" fill="#1b0f24"></path><path d="M31.2,14.72c0.82954,0.50235 1.59512,1.1034 2.28,1.79c0.38936,0.39212 1.02288,0.39436 1.415,0.005c0.39212,-0.38936 0.39436,-1.02288 0.005,-1.415c-0.80199,-0.80519 -1.69851,-1.51032 -2.67,-2.1c-0.4614,-0.19019 -0.99239,-0.01108 -1.24432,0.41973c-0.25193,0.4308 -0.14767,0.9814 0.24432,1.29027zM26.38,11.07c-4.16579,-0.41893 -8.30044,1.04855 -11.27,4c-0.28538,0.24439 -0.40968,0.62812 -0.32181,0.99342c0.08787,0.3653 0.37309,0.65052 0.73839,0.73839c0.3653,0.08787 0.74903,-0.03643 0.99342,-0.32181c2.54199,-2.54412 6.09104,-3.814 9.67,-3.46c0.55228,0.05523 1.04477,-0.34772 1.1,-0.9c0.05523,-0.55228 -0.34772,-1.04477 -0.9,-1.1z" fill="#1b0f24"></path><path d="M61.88,54.46l-10.34,-10.34c-0.95582,-0.94834 -2.25371,-1.4711 -3.6,-1.45c0,-0.14 -2.77,-2.91 -2.77,-2.91c7.71476,-10.5416 6.01309,-25.24561 -3.90544,-33.74653c-9.91853,-8.50093 -24.70976,-7.93258 -33.94672,1.30438c-9.23696,9.23696 -9.8053,24.02819 -1.30438,33.94672c8.50093,9.91853 23.20493,11.6202 33.74653,3.90544c0,0 2.78,2.72 2.91,2.77c0.13,0.05 0,0 0,0.07c-0.00237,1.32699 0.52286,2.60049 1.46,3.54l10.33,10.33c1.9525,1.95191 5.1175,1.95191 7.07,0l0.34,-0.34c1.95191,-1.9525 1.95191,-5.1175 0,-7.07zM2,25c0,-12.70255 10.29745,-23 23,-23c12.70255,0 23,10.29745 23,23c0,12.70255 -10.29745,23 -23,23c-12.70255,0 -23,-10.29745 -23,-23zM44.12,44.46c-0.37591,0.38745 -0.6866,0.83322 -0.92,1.32l-1.87,-1.87c0.92502,-0.79936 1.79064,-1.66498 2.59,-2.59l1.88,1.88c-0.48678,0.2334 -0.93255,0.54409 -1.32,0.92zM60.46,60.12l-0.34,0.34c-1.17127,1.16981 -3.06873,1.16981 -4.24,0l-10.34,-10.34c-1.16981,-1.17127 -1.16981,-3.06873 0,-4.24l0.34,-0.34c1.17127,-1.16981 3.06873,-1.16981 4.24,0l10.34,10.34c1.16981,1.17127 1.16981,3.06873 0,4.24z" fill="#1b0f24"></path><path d="M34.19,32.78c-0.39676,-0.33978 -0.98819,-0.31693 -1.35756,0.05244c-0.36937,0.36937 -0.39221,0.9608 -0.05244,1.35756l1.41,1.41c0.39676,0.33978 0.98819,0.31693 1.35756,-0.05244c0.36937,-0.36937 0.39221,-0.9608 0.05244,-1.35756zM15.81,32.78l-1.41,1.41c-0.28538,0.24439 -0.40968,0.62812 -0.32181,0.99342c0.08787,0.3653 0.37309,0.65052 0.73839,0.73839c0.3653,0.08787 0.74903,-0.03643 0.99342,-0.32181l1.41,-1.41c0.33978,-0.39676 0.31693,-0.98819 -0.05244,-1.35756c-0.36937,-0.36937 -0.9608,-0.39221 -1.35756,-0.05244zM39,24h-2c-0.55228,0 -1,0.44772 -1,1c0,0.55228 0.44772,1 1,1h2c0.55228,0 1,-0.44772 1,-1c0,-0.55228 -0.44772,-1 -1,-1zM14,25c0,-0.55228 -0.44772,-1 -1,-1h-2c-0.55228,0 -1,0.44772 -1,1c0,0.55228 0.44772,1 1,1h2c0.55228,0 1,-0.44772 1,-1zM25,36c-0.55228,0 -1,0.44772 -1,1v2c0,0.55228 0.44772,1 1,1c0.55228,0 1,-0.44772 1,-1v-2c0,-0.55228 -0.44772,-1 -1,-1zM38.28,29.55l-1.84,-0.78c-0.33165,-0.15601 -0.72207,-0.11809 -1.01749,0.09883c-0.29543,0.21691 -0.44852,0.57806 -0.39899,0.94121c0.04953,0.36315 0.29376,0.6701 0.63648,0.79997l1.84,0.78c0.33165,0.15601 0.72207,0.11809 1.01749,-0.09883c0.29543,-0.21691 0.44852,-0.57806 0.39899,-0.94121c-0.04953,-0.36315 -0.29376,-0.6701 -0.63648,-0.79997zM20.7,35.13c-0.50811,-0.21494 -1.09429,0.02222 -1.31,0.53l-0.78,1.84c-0.15601,0.33165 -0.11809,0.72207 0.09883,1.01749c0.21691,0.29543 0.57806,0.44852 0.94121,0.39899c0.36315,-0.04953 0.6701,-0.29376 0.79997,-0.63648l0.78,-1.84c0.21494,-0.50811 -0.02222,-1.09429 -0.53,-1.31zM14.8,29.12c-0.2079,-0.51008 -0.78915,-0.75599 -1.3,-0.55l-1.85,0.75c-0.35256,0.11836 -0.61032,0.42259 -0.66916,0.78981c-0.05883,0.36722 0.09098,0.73675 0.38892,0.95933c0.29794,0.22258 0.69479,0.26143 1.03024,0.10086l1.85,-0.75c0.51008,-0.2079 0.75599,-0.78915 0.55,-1.3zM30.42,35.75c-0.22818,-0.47671 -0.78791,-0.69355 -1.2777,-0.49499c-0.48979,0.19856 -0.7405,0.74396 -0.5723,1.24499l0.75,1.85c0.22818,0.47671 0.78791,0.69355 1.2777,0.49499c0.48979,-0.19856 0.7405,-0.74396 0.5723,-1.24499z" fill="#1b0f24"></path></g></g></svg>