<svg xmlns="http://www.w3.org/2000/svg" xmlns:xlink="http://www.w3.org/1999/xlink" viewBox="0,0,256,256" width="64px" height="64px" fill-rule="nonzero"><g fill="none" fill-rule="nonzero" stroke="none" stroke-width="1" stroke-linecap="butt" stroke-linejoin="miter" stroke-miterlimit="10" stroke-dasharray="" stroke-dashoffset="0" font-family="none" font-weight="none" font-size="none" text-anchor="none" style="mix-blend-mode: normal"><g transform="scale(4,4)"><path d="M5,10h-2c-1.105,0 -2,0.895 -2,2v40c0,1.105 0.895,2 2,2h21.22c1.046,0 1.958,0.712 2.212,1.727v0.001c0.334,1.335 1.534,2.272 2.91,2.272h3.315c1.377,0 2.577,-0.937 2.91,-2.272v-0.001c0.255,-1.015 1.167,-1.727 2.213,-1.727h21.22c1.105,0 2,-0.895 2,-2v-40c0,-1.105 -0.895,-2 -2,-2h-2z" fill="#c86bfa"></path><path d="M31,54v0c0,-2.209 -1.791,-4 -4,-4h-20c-1.105,0 -2,-0.895 -2,-2v-38c0,-1.105 0.895,-2 2,-2h20c2.209,0 4,1.791 4,4v2.833zM31,38v-26c0,-2.209 1.791,-4 4,-4h20c1.105,0 2,0.895 2,2v38c0,1.105 -0.895,2 -2,2h-20c-2.209,0 -4,1.791 -4,4v0z" fill="#e8d6ee"></path><path d="M5,8h5v42h-5z" fill="#f5edf8"></path><path d="M59,9h-1.184c-0.414,-1.161 -1.514,-2 -2.816,-2h-20c-1.641,0 -3.088,0.806 -4,2.031c-0.912,-1.225 -2.359,-2.031 -4,-2.031h-20c-1.302,0 -2.402,0.839 -2.816,2h-1.184c-1.654,0 -3,1.346 -3,3v40c0,1.654 1.346,3 3,3h21.22c0.589,0 1.1,0.398 1.242,0.97c0.445,1.784 2.041,3.03 3.88,3.03h3.315c1.839,0 3.435,-1.246 3.881,-3.031c0.143,-0.571 0.653,-0.969 1.242,-0.969h21.22c1.654,0 3,-1.346 3,-3v-40c0,-1.654 -1.346,-3 -3,-3zM7,9h20c1.654,0 3,1.346 3,3v2.833v23.167c0,0.553 0.448,1 1,1c0.552,0 1,-0.447 1,-1v-23.167v-2.833c0,-1.654 1.346,-3 3,-3h20c0.551,0 1,0.448 1,1v38c0,0.552 -0.449,1 -1,1h-20c-1.641,0 -3.088,0.806 -4,2.031c-0.912,-1.225 -2.359,-2.031 -4,-2.031h-20c-0.551,0 -1,-0.448 -1,-1v-38c0,-0.552 0.449,-1 1,-1zM60,52c0,0.552 -0.449,1 -1,1h-21.22c-1.508,0 -2.817,1.021 -3.183,2.485c-0.222,0.892 -1.02,1.515 -1.939,1.515h-3.315c-0.919,0 -1.717,-0.623 -1.94,-1.516c-0.366,-1.463 -1.675,-2.484 -3.183,-2.484h-21.22c-0.551,0 -1,-0.448 -1,-1v-40c0,-0.552 0.449,-1 1,-1h1v37c0,1.654 1.346,3 3,3h20c1.654,0 3,1.346 3,3c0,0.553 0.448,1 1,1c0.552,0 1,-0.447 1,-1c0,-1.654 1.346,-3 3,-3h20c1.654,0 3,-1.346 3,-3v-37h1c0.551,0 1,0.448 1,1z" fill="#1b0f24"></path><path d="M31,47c0.552,0 1,-0.447 1,-1v-4c0,-0.553 -0.448,-1 -1,-1c-0.552,0 -1,0.447 -1,1v4c0,0.553 0.448,1 1,1zM10,17c0.552,0 1,-0.447 1,-1v-2c0,-0.553 -0.448,-1 -1,-1c-0.552,0 -1,0.447 -1,1v2c0,0.553 0.448,1 1,1zM15,17c0.552,0 1,-0.447 1,-1v-2c0,-0.553 -0.448,-1 -1,-1c-0.552,0 -1,0.447 -1,1v2c0,0.553 0.448,1 1,1zM20,17c0.552,0 1,-0.447 1,-1v-2c0,-0.553 -0.448,-1 -1,-1c-0.552,0 -1,0.447 -1,1v2c0,0.553 0.448,1 1,1zM25,17c0.552,0 1,-0.447 1,-1v-2c0,-0.553 -0.448,-1 -1,-1c-0.552,0 -1,0.447 -1,1v2c0,0.553 0.448,1 1,1zM37,17c0.552,0 1,-0.447 1,-1v-2c0,-0.553 -0.448,-1 -1,-1c-0.552,0 -1,0.447 -1,1v2c0,0.553 0.448,1 1,1zM42,17c0.552,0 1,-0.447 1,-1v-2c0,-0.553 -0.448,-1 -1,-1c-0.552,0 -1,0.447 -1,1v2c0,0.553 0.448,1 1,1zM47,17c0.552,0 1,-0.447 1,-1v-2c0,-0.553 -0.448,-1 -1,-1c-0.552,0 -1,0.447 -1,1v2c0,0.553 0.448,1 1,1zM52,17c0.552,0 1,-0.447 1,-1v-2c0,-0.553 -0.448,-1 -1,-1c-0.552,0 -1,0.447 -1,1v2c0,0.553 0.448,1 1,1z" fill="#1b0f24"></path><path d="M39.837,41c-1.082,0 -1.837,-0.725 -1.837,-1.763c0,-0.498 0.15,-0.999 0.435,-1.447l7.001,-12.475h-5.167c-1.076,0 -1.888,-0.927 -1.888,-2.157c0,-1.25 0.794,-2.157 1.888,-2.157h9.463c1.097,0 1.863,0.715 1.863,1.738c0,0.472 -0.148,0.966 -0.441,1.466l-7.019,12.48h5.978c1.059,0 1.888,0.948 1.888,2.158c-0.001,1.06 -0.707,2.157 -1.889,2.157z" fill="#6930c3"></path><path d="M49.731,22c0.583,0 0.863,0.296 0.863,0.738c0,0.296 -0.102,0.616 -0.305,0.961l-7.6,13.514c-0.119,0.211 0.034,0.472 0.276,0.472h7.146c0.557,0 0.888,0.591 0.888,1.158c0.001,0.541 -0.329,1.157 -0.887,1.157h-10.275c-0.583,0 -0.837,-0.32 -0.837,-0.763c0,-0.271 0.076,-0.591 0.28,-0.911l7.599,-13.54c0.118,-0.211 -0.034,-0.472 -0.276,-0.472h-6.334c-0.557,0 -0.888,-0.542 -0.888,-1.157c0,-0.566 0.279,-1.157 0.888,-1.157h9.462M49.731,20h-9.463c-1.646,0 -2.888,1.357 -2.888,3.157c0,1.8 1.241,3.157 2.888,3.157h3.459l-6.17,10.993c-0.364,0.596 -0.557,1.261 -0.557,1.93c0,1.601 1.193,2.763 2.837,2.763h10.275c1.62,0 2.888,-1.387 2.888,-3.157c0,-1.771 -1.268,-3.158 -2.888,-3.158h-4.268l6.189,-11.006c0.366,-0.624 0.561,-1.288 0.561,-1.941c0,-1.586 -1.204,-2.738 -2.863,-2.738z" fill="#1b0f24"></path><path d="M22.373,41c-0.905,0 -1.589,-0.464 -1.83,-1.241l-0.795,-2.765h-4.496l-0.788,2.745c-0.247,0.797 -0.941,1.261 -1.86,1.261c-1.257,0 -2.604,-0.833 -2.604,-2.075c0,-0.115 0,-0.309 0.076,-0.536l4.828,-15.802c0.321,-0.972 1.332,-1.587 2.583,-1.587c1.266,0 2.287,0.614 2.603,1.564l4.818,15.851c0.022,0.061 0.092,0.263 0.092,0.51c0,1.242 -1.358,2.075 -2.627,2.075zM18.587,32.918l-1.1,-3.787l-1.098,3.787z" fill="#6930c3"></path><path d="M15.458,33.919h4.061c0.2,0 0.344,-0.192 0.288,-0.384l-2.145,-7.396c-0.05,-0.174 -0.296,-0.174 -0.347,0l-2.145,7.396c-0.056,0.192 0.088,0.384 0.288,0.384z" fill="#1b0f24"></path><path d="M25.856,38.096l-4.802,-15.798c-0.005,-0.017 -0.01,-0.033 -0.016,-0.049c-0.453,-1.367 -1.847,-2.249 -3.55,-2.249c-1.69,0 -3.074,0.883 -3.526,2.251l-4.845,15.854c-0.117,0.367 -0.117,0.671 -0.117,0.82c0,1.899 1.871,3.075 3.604,3.075c1.36,0 2.436,-0.744 2.809,-1.943l0.592,-2.063h2.989l0.581,2.021c0.386,1.241 1.453,1.985 2.798,1.985c1.744,0 3.627,-1.176 3.627,-3.075c0,-0.377 -0.093,-0.679 -0.144,-0.829zM22.373,40c-0.413,0 -0.753,-0.147 -0.875,-0.537l-0.789,-2.745c-0.123,-0.429 -0.515,-0.724 -0.961,-0.724h-4.496c-0.446,0 -0.838,0.295 -0.961,0.724l-0.788,2.744c-0.121,0.391 -0.461,0.538 -0.899,0.538c-0.705,0 -1.604,-0.44 -1.604,-1.075c0,-0.073 0,-0.147 0.025,-0.22l4.836,-15.827c0.193,-0.585 0.898,-0.878 1.627,-0.878c0.73,0 1.458,0.293 1.653,0.879l4.811,15.827c0.024,0.073 0.048,0.146 0.048,0.219c0,0.611 -0.899,1.075 -1.627,1.075z" fill="#1b0f24"></path></g></g></svg>