<svg xmlns="http://www.w3.org/2000/svg" xmlns:xlink="http://www.w3.org/1999/xlink" viewBox="0,0,256,256" width="128px" height="128px"><g fill="none" fill-rule="nonzero" stroke="none" stroke-width="1" stroke-linecap="butt" stroke-linejoin="miter" stroke-miterlimit="10" stroke-dasharray="" stroke-dashoffset="0" font-family="none" font-weight="none" font-size="none" text-anchor="none" style="mix-blend-mode: normal"><g transform="scale(4,4)"><path d="M31.79,24l1.21,2.3c0.28168,0.51493 0.70507,0.93832 1.22,1.22l2.3,1.26l-2.25,1.22c-0.54047,0.28727 -0.98273,0.72953 -1.27,1.27l-1.26,2.3l-1.26,-2.3c-0.26316,-0.5279 -0.67283,-0.96882 -1.18,-1.27l-2.3,-1.21l2.3,-1.26c0.51493,-0.28168 0.93832,-0.70507 1.22,-1.22zM16.79,11l2,3.75c0.46028,0.84526 1.15474,1.53972 2,2l3.75,2l-3.75,2c-0.84526,0.46028 -1.53972,1.15474 -2,2l-2,3.75l-2,-3.75c-0.46028,-0.84526 -1.15474,-1.53972 -2,-2l-3.79,-1.96l3.75,-2c0.84526,-0.46028 1.53972,-1.15474 2,-2z" fill="#ffd857"></path><path d="M24.57,18.75l-3.75,2c-0.85094,0.45265 -1.54735,1.14906 -2,2l-1.82,3.4l-0.21,0.38l-2,-3.75c-0.45701,-0.8477 -1.1523,-1.54299 -2,-2l-3.79,-2.03l3.75,-2c0.84526,-0.46028 1.53972,-1.15474 2,-2l2,-3.75l0.21,0.38l1.84,3.37c0.45701,0.8477 1.1523,1.54299 2,2z" fill="#ffd857"></path><path d="M17,11.34v14.81l-0.21,0.38l-2,-3.75c-0.45701,-0.8477 -1.1523,-1.54299 -2,-2l-3.79,-2.03l3.75,-2c0.84526,-0.46028 1.53972,-1.15474 2,-2l2,-3.75zM32,26v6l-3,-2v-2l1,-2z" fill="#ffe48a"></path><path d="M58.91,33.24c-0.94212,11.756 -9.14958,21.66135 -20.52569,24.77186c-11.37611,3.11051 -23.48168,-1.24074 -30.27431,-10.88186c-0.24799,-0.35093 -0.24407,-0.82106 0.00975,-1.16779c0.25382,-0.34674 0.70078,-0.49255 1.11025,-0.36221c10.42675,3.44167 21.90283,0.47137 29.35058,-7.59667c7.44775,-8.06803 9.49245,-19.7446 5.22942,-29.86333c-0.16584,-0.39907 -0.05656,-0.85953 0.27091,-1.14152c0.32748,-0.28199 0.79905,-0.32172 1.16909,-0.09848c9.2135,5.44745 14.51536,15.67081 13.66,26.34z" fill="#ffd857"></path><path d="M58.91,33.24c-0.69651,8.68912 -5.40011,16.55817 -12.72346,21.28621c-7.32336,4.72804 -16.43096,5.77563 -24.63654,2.83379c-0.70405,-0.24436 -1.2631,-0.78895 -1.52583,-1.48635c-0.26273,-0.6974 -0.20197,-1.47549 0.16583,-2.12365v0c0.60776,-1.0375 1.868,-1.49538 3,-1.09c2.5062,0.89514 5.14875,1.34853 7.81,1.34c0.47,0 0.94,0 1.41,0c7.50623,-0.45493 14.316,-4.5506 18.23618,-10.96798c3.92018,-6.41737 4.4556,-14.34586 1.43382,-21.23202c-0.52608,-1.24288 0.0383,-2.67827 1.27,-3.23v0c0.60034,-0.27734 1.28658,-0.30343 1.90624,-0.07247c0.61966,0.23096 1.12141,0.69985 1.39376,1.30247c1.84638,4.2262 2.62261,8.84235 2.26,13.44z" fill="#ffca22"></path><path d="M30,51c-0.55228,0 -1,0.44772 -1,1v2c0,0.55228 0.44772,1 1,1c0.55228,0 1,-0.44772 1,-1v-2c0,-0.55228 -0.44772,-1 -1,-1zM36,51.08c-0.15796,-0.51527 -0.69585,-0.81268 -1.21624,-0.67247c-0.52039,0.14021 -0.83605,0.66758 -0.71376,1.19247l0.52,1.93c0.14636,0.53572 0.69928,0.85136 1.235,0.705c0.53572,-0.14636 0.85136,-0.69928 0.705,-1.235zM40.62,48.89c-0.2875,-0.45225 -0.8804,-0.59748 -1.34436,-0.32929c-0.46396,0.26819 -0.63404,0.85444 -0.38564,1.32929l1,1.73c0.2875,0.45225 0.8804,0.59748 1.34436,0.32929c0.46396,-0.26819 0.63404,-0.85444 0.38564,-1.32929zM25.21,50.37c-0.5328,-0.13972 -1.07828,0.17772 -1.22,0.71l-0.52,1.92c-0.10711,0.34939 -0.0151,0.72939 0.23998,0.99109c0.25508,0.2617 0.63259,0.36341 0.98462,0.26529c0.35202,-0.09813 0.62249,-0.38046 0.70541,-0.73637l0.52,-1.93c0.13972,-0.5328 -0.17772,-1.07828 -0.71,-1.22z" fill="#30223a"></path><path d="M45.76,6c-0.74157,-0.44281 -1.68362,-0.35954 -2.33601,0.20648c-0.6524,0.56602 -0.86774,1.4869 -0.53399,2.28352c1.54195,3.63459 2.26243,7.5648 2.11,11.51c-0.55291,14.12405 -11.87595,25.44709 -26,26c-3.19809,0.11932 -6.39174,-0.3345 -9.43,-1.34c-0.81846,-0.27664 -1.72203,0.00354 -2.2404,0.6947c-0.51837,0.69116 -0.53434,1.63704 -0.0396,2.3453c5.41511,7.73204 14.27034,12.32585 23.71,12.3c0.58667,0 1.17667,-0.01667 1.77,-0.05c12.7448,-0.75127 23.49914,-9.74898 26.48774,-22.16118c2.98859,-12.4122 -2.49165,-25.31885 -13.49774,-31.78882zM57.92,33.16c-0.90283,11.34349 -8.82078,20.9033 -19.79768,23.90291c-10.9769,2.99961 -22.65617,-1.20496 -29.20232,-10.51291c8.65708,2.86115 18.1557,1.48435 25.64413,-3.71705c7.48843,-5.20139 12.0947,-13.62171 12.43587,-22.73295c0.16258,-4.22943 -0.60905,-8.44271 -2.26,-12.34c8.90584,5.23375 14.02801,15.105 13.18,25.4z" fill="#30223a"></path><path d="M52.33,25.57c0.11282,0.45718 0.5293,0.77371 1,0.76h0.24c0.53545,-0.13291 0.86211,-0.67435 0.73,-1.21c-0.19949,-0.81268 -0.44319,-1.61388 -0.73,-2.4c-0.19054,-0.51915 -0.76585,-0.78554 -1.285,-0.595c-0.51915,0.19054 -0.78554,0.76585 -0.595,1.285c0.25229,0.70788 0.46594,1.42894 0.64,2.16zM52.92,29.68c0.1646,3.8314 -0.7206,7.63498 -2.56,11c-0.27614,0.48325 -0.10825,1.09886 0.375,1.375c0.48325,0.27614 1.09886,0.10825 1.375,-0.375c2.00741,-3.67087 2.97549,-7.81978 2.8,-12c-0.02209,-0.55228 -0.48772,-0.98209 -1.04,-0.96c-0.55228,0.02209 -0.98209,0.48772 -0.96,1.04zM8.52,19.62l3.75,2c0.67113,0.36706 1.22294,0.91887 1.59,1.59l2,3.75c0.17612,0.31832 0.51121,0.51588 0.875,0.51588c0.36379,0 0.69888,-0.19756 0.875,-0.51588l2,-3.75c0.36706,-0.67113 0.91887,-1.22294 1.59,-1.59l3.75,-2c0.31832,-0.17612 0.51588,-0.51121 0.51588,-0.875c0,-0.36379 -0.19756,-0.69888 -0.51588,-0.875l-3.75,-2c-0.67113,-0.36706 -1.22294,-0.91887 -1.59,-1.59l-2,-3.75c-0.17612,-0.31832 -0.51121,-0.51588 -0.875,-0.51588c-0.36379,0 -0.69888,0.19756 -0.875,0.51588l-2,3.75c-0.36706,0.67113 -0.91887,1.22294 -1.59,1.59l-3.75,2c-0.31832,0.17612 -0.51588,0.51121 -0.51588,0.875c0,0.36379 0.19756,0.69888 0.51588,0.875zM13.23,17.62c1.00554,-0.5527 1.83152,-1.38215 2.38,-2.39l1.18,-2.23l1.21,2.19c0.55118,1.00923 1.38077,1.83882 2.39,2.39l2.14,1.17l-2.14,1.17c-1.00785,0.54848 -1.8373,1.37446 -2.39,2.38l-1.17,2.14l-1.22,-2.14c-0.55001,-1.00416 -1.37584,-1.82999 -2.38,-2.38l-2.14,-1.17zM26.52,29.66l2.3,1.26c0.34923,0.18855 0.63723,0.47308 0.83,0.82l1.26,2.3c0.17612,0.31832 0.51121,0.51588 0.875,0.51588c0.36379,0 0.69888,-0.19756 0.875,-0.51588l1.26,-2.31c0.18917,-0.34622 0.47378,-0.63083 0.82,-0.82l2.3,-1.26c0.31832,-0.17612 0.51588,-0.51121 0.51588,-0.875c0,-0.36379 -0.19756,-0.69888 -0.51588,-0.875l-2.3,-1.26c-0.34588,-0.18962 -0.63038,-0.47412 -0.82,-0.82l-1.26,-2.3c-0.17612,-0.31832 -0.51121,-0.51588 -0.875,-0.51588c-0.36379,0 -0.69888,0.19756 -0.875,0.51588l-1.26,2.3c-0.19007,0.34554 -0.47446,0.62993 -0.82,0.82l-2.3,1.26c-0.31832,0.17612 -0.51588,0.51121 -0.51588,0.875c0,0.36379 0.19756,0.69888 0.51588,0.875zM29.78,28.4c0.68432,-0.37328 1.24672,-0.93568 1.62,-1.62l0.38,-0.7l0.38,0.7c0.37328,0.68432 0.93568,1.24672 1.62,1.62l0.7,0.38l-0.7,0.38c-0.68432,0.37328 -1.24672,0.93568 -1.62,1.62l-0.38,0.7l-0.38,-0.7c-0.37374,-0.68398 -0.93602,-1.24626 -1.62,-1.62l-0.7,-0.38z" fill="#30223a"></path></g></g></svg>