<svg xmlns="http://www.w3.org/2000/svg"  viewBox="0 0 64 64" width="128px" height="128px"><path d="M 46 14 C 45.746094 14 45.488281 14.097656 45.292969 14.292969 L 41.292969 18.292969 C 40.902344 18.683594 40.902344 19.316406 41.292969 19.707031 L 49.585938 28 L 1 28 C 0.449219 28 0 28.449219 0 29 L 0 35 C 0 35.550781 0.449219 36 1 36 L 49.585938 36 L 41.292969 44.292969 C 40.902344 44.683594 40.902344 45.316406 41.292969 45.707031 L 45.292969 49.707031 C 45.488281 49.902344 45.742188 50 46 50 C 46.257813 50 46.511719 49.902344 46.707031 49.707031 L 63.707031 32.707031 C 64.097656 32.316406 64.097656 31.683594 63.707031 31.292969 L 46.707031 14.292969 C 46.511719 14.097656 46.253906 14 46 14 Z M 46 16.414063 L 61.585938 32 L 46 47.585938 L 43.414063 45 L 52.707031 35.707031 C 52.992188 35.421875 53.078125 34.992188 52.921875 34.617188 C 52.769531 34.246094 52.402344 34 52 34 L 2 34 L 2 30 L 52 30 C 52.402344 30 52.769531 29.753906 52.921875 29.382813 C 53.078125 29.007813 52.992188 28.578125 52.707031 28.292969 L 43.414063 19 Z M 1 38 C 0.449219 38 0 38.449219 0 39 L 0 41 C 0 41.550781 0.449219 42 1 42 C 1.550781 42 2 41.550781 2 41 L 2 39 C 2 38.449219 1.550781 38 1 38 Z M 6 38 C 5.449219 38 5 38.449219 5 39 L 5 41 C 5 41.550781 5.449219 42 6 42 C 6.550781 42 7 41.550781 7 41 L 7 39 C 7 38.449219 6.550781 38 6 38 Z M 11 38 C 10.449219 38 10 38.449219 10 39 L 10 41 C 10 41.550781 10.449219 42 11 42 C 11.550781 42 12 41.550781 12 41 L 12 39 C 12 38.449219 11.550781 38 11 38 Z M 16 38 C 15.449219 38 15 38.449219 15 39 L 15 41 C 15 41.550781 15.449219 42 16 42 C 16.550781 42 17 41.550781 17 41 L 17 39 C 17 38.449219 16.550781 38 16 38 Z M 21 38 C 20.449219 38 20 38.449219 20 39 L 20 41 C 20 41.550781 20.449219 42 21 42 C 21.550781 42 22 41.550781 22 41 L 22 39 C 22 38.449219 21.550781 38 21 38 Z M 26 38 C 25.449219 38 25 38.449219 25 39 L 25 41 C 25 41.550781 25.449219 42 26 42 C 26.550781 42 27 41.550781 27 41 L 27 39 C 27 38.449219 26.550781 38 26 38 Z M 31 38 C 30.449219 38 30 38.449219 30 39 L 30 41 C 30 41.550781 30.449219 42 31 42 C 31.550781 42 32 41.550781 32 41 L 32 39 C 32 38.449219 31.550781 38 31 38 Z M 36 38 C 35.449219 38 35 38.449219 35 39 L 35 41 C 35 41.550781 35.449219 42 36 42 C 36.550781 42 37 41.550781 37 41 L 37 39 C 37 38.449219 36.550781 38 36 38 Z M 41 38 C 40.449219 38 40 38.449219 40 39 L 40 41 C 40 41.550781 40.449219 42 41 42 C 41.550781 42 42 41.550781 42 41 L 42 39 C 42 38.449219 41.550781 38 41 38 Z"/></svg>