<svg xmlns="http://www.w3.org/2000/svg"  viewBox="0 0 64 64" width="128px" height="128px"><path d="M 9 6 C 7.347656 6 6 7.347656 6 9 L 6 53 C 6 54.652344 7.347656 56 9 56 L 44.34375 56 C 45.679688 56 46.933594 55.480469 47.878906 54.535156 L 56.535156 45.878906 C 57.480469 44.933594 58 43.679688 58 42.34375 L 58 9 C 58 7.347656 56.652344 6 55 6 Z M 9 8 L 55 8 C 55.550781 8 56 8.449219 56 9 L 56 41.957031 L 46.957031 41.957031 C 45.304688 41.957031 43.957031 43.304688 43.957031 44.957031 L 43.957031 54 L 9 54 C 8.449219 54 8 53.550781 8 53 L 8 9 C 8 8.449219 8.449219 8 9 8 Z M 12 10 C 11.449219 10 11 10.449219 11 11 L 11 13 C 11 13.550781 11.449219 14 12 14 C 12.550781 14 13 13.550781 13 13 L 13 11 C 13 10.449219 12.550781 10 12 10 Z M 17 10 C 16.449219 10 16 10.449219 16 11 L 16 13 C 16 13.550781 16.449219 14 17 14 C 17.550781 14 18 13.550781 18 13 L 18 11 C 18 10.449219 17.550781 10 17 10 Z M 22 10 C 21.449219 10 21 10.449219 21 11 L 21 13 C 21 13.550781 21.449219 14 22 14 C 22.550781 14 23 13.550781 23 13 L 23 11 C 23 10.449219 22.550781 10 22 10 Z M 27 10 C 26.449219 10 26 10.449219 26 11 L 26 13 C 26 13.550781 26.449219 14 27 14 C 27.550781 14 28 13.550781 28 13 L 28 11 C 28 10.449219 27.550781 10 27 10 Z M 32 10 C 31.449219 10 31 10.449219 31 11 L 31 13 C 31 13.550781 31.449219 14 32 14 C 32.550781 14 33 13.550781 33 13 L 33 11 C 33 10.449219 32.550781 10 32 10 Z M 37 10 C 36.449219 10 36 10.449219 36 11 L 36 13 C 36 13.550781 36.449219 14 37 14 C 37.550781 14 38 13.550781 38 13 L 38 11 C 38 10.449219 37.550781 10 37 10 Z M 42 10 C 41.449219 10 41 10.449219 41 11 L 41 13 C 41 13.550781 41.449219 14 42 14 C 42.550781 14 43 13.550781 43 13 L 43 11 C 43 10.449219 42.550781 10 42 10 Z M 47 10 C 46.449219 10 46 10.449219 46 11 L 46 13 C 46 13.550781 46.449219 14 47 14 C 47.550781 14 48 13.550781 48 13 L 48 11 C 48 10.449219 47.550781 10 47 10 Z M 52 10 C 51.449219 10 51 10.449219 51 11 L 51 13 C 51 13.550781 51.449219 14 52 14 C 52.550781 14 53 13.550781 53 13 L 53 11 C 53 10.449219 52.550781 10 52 10 Z M 17 28 C 16.449219 28 16 28.449219 16 29 C 16 29.550781 16.449219 30 17 30 L 35 30 C 35.550781 30 36 29.550781 36 29 C 36 28.449219 35.550781 28 35 28 Z M 39 28 C 38.449219 28 38 28.449219 38 29 C 38 29.550781 38.449219 30 39 30 L 45 30 C 45.550781 30 46 29.550781 46 29 C 46 28.449219 45.550781 28 45 28 Z M 17 34 C 16.449219 34 16 34.449219 16 35 C 16 35.550781 16.449219 36 17 36 L 39 36 C 39.550781 36 40 35.550781 40 35 C 40 34.449219 39.550781 34 39 34 Z M 46.957031 43.957031 L 55.527344 43.957031 C 55.410156 44.136719 55.277344 44.308594 55.121094 44.464844 L 46.464844 53.121094 C 46.3125 53.273438 46.140625 53.40625 45.957031 53.519531 L 45.957031 44.957031 C 45.957031 44.40625 46.40625 43.957031 46.957031 43.957031 Z"/></svg>