<svg xmlns="http://www.w3.org/2000/svg"  viewBox="0 0 64 64" width="64px" height="64px"><path d="M 32 8 C 16.121094 8 5.136719 22.097656 1.148438 28.160156 C 0.964844 28.441406 0.804688 28.734375 0.664063 29.03125 C 0.664063 29.039063 0.660156 29.042969 0.65625 29.050781 C -0.359375 31.226563 -0.195313 33.792969 1.148438 35.839844 C 5.136719 41.902344 16.121094 56 32 56 C 47.878906 56 58.863281 41.902344 62.847656 35.839844 C 64.195313 33.792969 64.359375 31.222656 63.34375 29.046875 C 63.339844 29.042969 63.335938 29.039063 63.332031 29.03125 C 63.195313 28.734375 63.035156 28.441406 62.847656 28.160156 C 58.863281 22.097656 47.878906 8 32 8 Z M 32 10 C 43.4375 10 52.257813 17.929688 57.464844 24.238281 C 50.671875 19.378906 41.835938 15 32 15 C 22.164063 15 13.328125 19.378906 6.535156 24.238281 C 11.742188 17.929688 20.5625 10 32 10 Z M 32 17 C 34.609375 17 37.144531 17.34375 39.59375 17.917969 C 44.78125 20.722656 48 26.101563 48 32 C 48 40.820313 40.820313 48 32 48 C 23.179688 48 16 40.820313 16 32 C 16 26.128906 19.207031 20.738281 24.375 17.933594 C 24.375 17.929688 24.378906 17.925781 24.382813 17.921875 C 26.839844 17.34375 29.382813 17 32 17 Z M 31.738281 17.996094 C 29.992188 18.027344 28.257813 18.390625 26.613281 19.078125 C 26.101563 19.289063 25.863281 19.875 26.078125 20.386719 C 26.234375 20.769531 26.605469 21 27 21 C 27.128906 21 27.257813 20.976563 27.386719 20.921875 C 29.640625 19.984375 32.085938 19.75 34.464844 20.253906 C 35 20.367188 35.535156 20.019531 35.652344 19.480469 C 35.765625 18.941406 35.417969 18.410156 34.878906 18.296875 C 33.839844 18.078125 32.785156 17.976563 31.738281 17.996094 Z M 18.9375 19.625 C 15.820313 22.917969 14 27.320313 14 32 C 14 41.925781 22.074219 50 32 50 C 41.925781 50 50 41.925781 50 32 C 50 27.3125 48.1875 22.921875 45.074219 19.628906 C 51.667969 22.234375 57.359375 26.355469 61.597656 30.070313 C 62.238281 31.585938 62.101563 33.335938 61.175781 34.738281 C 57.371094 40.53125 46.902344 54 32 54 C 17.097656 54 6.628906 40.53125 2.820313 34.738281 C 1.898438 33.335938 1.761719 31.585938 2.398438 30.070313 C 6.644531 26.351563 12.335938 22.226563 18.9375 19.625 Z M 38.875 19.886719 C 38.488281 19.832031 38.089844 20.007813 37.875 20.359375 C 37.59375 20.835938 37.742188 21.449219 38.21875 21.734375 C 38.835938 22.105469 39.425781 22.539063 39.964844 23.019531 C 40.15625 23.1875 40.394531 23.269531 40.628906 23.269531 C 40.902344 23.269531 41.179688 23.160156 41.375 22.9375 C 41.742188 22.523438 41.707031 21.890625 41.292969 21.523438 C 40.660156 20.960938 39.972656 20.457031 39.25 20.019531 C 39.132813 19.949219 39.003906 19.90625 38.875 19.886719 Z M 22.808594 21.808594 C 22.554688 21.808594 22.296875 21.90625 22.101563 22.101563 C 21.710938 22.492188 21.710938 23.125 22.101563 23.515625 L 23.515625 24.929688 C 23.710938 25.125 23.964844 25.222656 24.222656 25.222656 C 24.480469 25.222656 24.734375 25.125 24.929688 24.929688 C 25.320313 24.539063 25.320313 23.90625 24.929688 23.515625 L 23.515625 22.101563 C 23.320313 21.90625 23.0625 21.808594 22.808594 21.808594 Z M 43.328125 24.796875 C 43.195313 24.808594 43.066406 24.847656 42.949219 24.914063 C 42.460938 25.179688 42.28125 25.785156 42.546875 26.269531 C 44.320313 29.539063 44.488281 33.371094 43.003906 36.78125 C 41.730469 39.71875 39.382813 41.988281 36.402344 43.160156 C 35.886719 43.363281 35.636719 43.945313 35.839844 44.460938 C 35.992188 44.855469 36.371094 45.09375 36.769531 45.09375 C 36.890625 45.09375 37.015625 45.074219 37.136719 45.027344 C 40.613281 43.65625 43.351563 41.007813 44.84375 37.578125 C 46.570313 33.601563 46.371094 29.132813 44.300781 25.316406 C 44.105469 24.953125 43.714844 24.757813 43.328125 24.796875 Z M 20.035156 25.921875 C 19.644531 25.921875 19.273438 26.148438 19.109375 26.53125 C 18.894531 27.039063 19.132813 27.625 19.640625 27.84375 L 21.484375 28.625 C 21.613281 28.675781 21.742188 28.703125 21.875 28.703125 C 22.265625 28.703125 22.636719 28.472656 22.796875 28.09375 C 23.011719 27.585938 22.773438 26.996094 22.265625 26.78125 L 20.421875 26 C 20.296875 25.945313 20.164063 25.921875 20.035156 25.921875 Z M 32 26 C 28.691406 26 26 28.691406 26 32 C 26 35.308594 28.691406 38 32 38 C 35.308594 38 38 35.308594 38 32 C 38 28.691406 35.308594 26 32 26 Z M 32 27.625 C 34.414063 27.625 36.375 29.585938 36.375 32 C 36.375 34.414063 34.414063 36.375 32 36.375 C 29.585938 36.375 27.625 34.414063 27.625 32 C 27.625 29.585938 29.585938 27.625 32 27.625 Z M 19 31 C 18.445313 31 18 31.445313 18 32 C 18 32.554688 18.445313 33 19 33 L 21 33 C 21.554688 33 22 32.554688 22 32 C 22 31.445313 21.554688 31 21 31 Z M 21.816406 35.121094 C 21.6875 35.117188 21.554688 35.140625 21.425781 35.191406 L 19.574219 35.941406 C 19.058594 36.148438 18.8125 36.730469 19.019531 37.246094 C 19.175781 37.632813 19.550781 37.871094 19.949219 37.871094 C 20.074219 37.871094 20.199219 37.847656 20.320313 37.796875 L 22.175781 37.046875 C 22.6875 36.84375 22.933594 36.257813 22.730469 35.746094 C 22.574219 35.363281 22.207031 35.128906 21.816406 35.121094 Z M 24.21875 38.777344 C 23.964844 38.777344 23.710938 38.875 23.515625 39.070313 L 22.101563 40.484375 C 21.710938 40.875 21.710938 41.507813 22.101563 41.898438 C 22.296875 42.09375 22.550781 42.191406 22.808594 42.191406 C 23.066406 42.191406 23.320313 42.09375 23.515625 41.898438 L 24.929688 40.484375 C 25.320313 40.09375 25.320313 39.460938 24.929688 39.070313 C 24.734375 38.875 24.476563 38.777344 24.21875 38.777344 Z M 27.703125 41.125 C 27.3125 41.125 26.945313 41.351563 26.78125 41.734375 L 26 43.578125 C 25.785156 44.085938 26.019531 44.671875 26.53125 44.890625 C 26.65625 44.941406 26.789063 44.96875 26.921875 44.96875 C 27.3125 44.96875 27.679688 44.738281 27.84375 44.359375 L 28.625 42.515625 C 28.839844 42.007813 28.601563 41.421875 28.09375 41.203125 C 27.964844 41.152344 27.832031 41.125 27.703125 41.125 Z M 32 42 C 31.445313 42 31 42.445313 31 43 L 31 45 C 31 45.554688 31.445313 46 32 46 C 32.554688 46 33 45.554688 33 45 L 33 43 C 33 42.445313 32.554688 42 32 42 Z"/></svg>