<svg xmlns="http://www.w3.org/2000/svg" xmlns:xlink="http://www.w3.org/1999/xlink" viewBox="0,0,256,256" width="64px" height="64px"><g fill="none" fill-rule="nonzero" stroke="none" stroke-width="1" stroke-linecap="butt" stroke-linejoin="miter" stroke-miterlimit="10" stroke-dasharray="" stroke-dashoffset="0" font-family="none" font-weight="none" font-size="none" text-anchor="none" style="mix-blend-mode: normal"><g transform="scale(4,4)"><path d="M18,40l43,-32l-56.15,19.65c-0.72275,0.25044 -1.23936,0.89118 -1.33084,1.6506c-0.09147,0.75942 0.25822,1.50451 0.90084,1.9194zM29,45l34,-37l-15.18,46.49c-0.20472,0.58372 -0.66801,1.03986 -1.25484,1.23547c-0.58683,0.19561 -1.23115,0.10867 -1.74516,-0.23547z" fill="#f9f4fa"></path><path d="M18,40l39,-28l-29.62,33.9l-3.38,12.1z" fill="#e8d6ee"></path><path d="M27,54l1,-8l4,2z" fill="#dbbee4"></path><path d="M62.79,7.14c-0.54541,-0.52919 -1.34361,-0.70355 -2.06,-0.45l-56.23,20c-1.05779,0.39212 -1.80618,1.34451 -1.93701,2.46503c-0.13083,1.12052 0.37801,2.21971 1.31701,2.84497l13.52,8.6l4.63,17c0.26858,0.85552 1.07374,1.42772 1.97,1.4v0c0.68032,-0.00888 1.30946,-0.36301 1.67,-0.94c0.04481,-0.01663 0.08827,-0.03669 0.13,-0.06l6.74,-9l11.7,7.38c0.47926,0.30121 1.03395,0.46068 1.6,0.46c0.34114,-0.0027 0.67933,-0.06358 1,-0.18c0.87291,-0.31886 1.54876,-1.02426 1.83,-1.91l14.63,-45.56c0.23419,-0.7247 0.03645,-1.51951 -0.51,-2.05zM4.5,29.36c0.04312,-0.38014 0.29934,-0.70236 0.66,-0.83l52.5,-18.63l-39.66,28.7l-13,-8.28c-0.34041,-0.19435 -0.53589,-0.56966 -0.5,-0.96zM24,57l-4.63,-17l35.21,-25.4l-27.32,29.72v0c-0.05256,0.06747 -0.09625,0.14141 -0.13,0.22c-0.02696,0.04477 -0.05036,0.09158 -0.07,0.14v0zM27,53l1.62,-6.47l2.23,1.47zM48.32,49.34l-0.06,-0.05c-0.47237,-0.28332 -1.08491,-0.1313 -1.37,0.34l-1,1.71c-0.22992,0.39468 -0.16319,0.895 0.16215,1.21562c0.32533,0.32062 0.82657,0.38004 1.21785,0.14438l-0.47,1.5c-0.09418,0.29571 -0.32033,0.53094 -0.61211,0.63668c-0.29178,0.10575 -0.61612,0.07003 -0.87789,-0.09668v0l-15.76,-9.95l31.08,-33.79z" fill="#421f7a"></path><path d="M15.29,49.51l-15,10.93c-0.44735,0.32585 -0.54585,0.95265 -0.22,1.4c0.32585,0.44735 0.95265,0.54585 1.4,0.22l15,-10.94c0.44735,-0.32585 0.54585,-0.95265 0.22,-1.4c-0.32585,-0.44735 -0.95265,-0.54585 -1.4,-0.22zM2.88,53.32c0.21183,0.00075 0.41842,-0.06578 0.59,-0.19l5,-3.65c0.45011,-0.32309 0.55309,-0.94989 0.23,-1.4c-0.32309,-0.45011 -0.94989,-0.55309 -1.4,-0.23l-5,3.65c-0.3517,0.25462 -0.49891,0.70711 -0.36434,1.11992c0.13457,0.41282 0.52015,0.69163 0.95434,0.69008zM12.09,46.84l2.5,-1.84c0.44735,-0.32585 0.54585,-0.95265 0.22,-1.4c-0.32585,-0.44735 -0.95265,-0.54585 -1.4,-0.22l-2.5,1.82c-0.44735,0.32585 -0.54585,0.95265 -0.22,1.4c0.32585,0.44735 0.95265,0.54585 1.4,0.22zM18.88,36l1,-1.71c0.19019,-0.4614 0.01108,-0.99239 -0.41973,-1.24432c-0.4308,-0.25193 -0.9814,-0.14767 -1.29027,0.24432l-1,1.71c-0.19019,0.4614 -0.01108,0.99239 0.41973,1.24432c0.4308,0.25193 0.9814,0.14767 1.29027,-0.24432zM33.36,45c0.47237,0.28332 1.08491,0.1313 1.37,-0.34l1,-1.71c0.24438,-0.31191 0.28154,-0.73869 0.09476,-1.08815c-0.18679,-0.34945 -0.5623,-0.55566 -0.95741,-0.52574c-0.39511,0.02991 -0.7353,0.2903 -0.86735,0.66389l-1,1.71c-0.22818,0.45873 -0.07275,1.01572 0.36,1.29zM37.65,47.61c0.46796,0.26993 1.06572,0.11939 1.35,-0.34l1,-1.71c0.24162,-0.30664 0.2827,-0.72584 0.10521,-1.07355c-0.17749,-0.34771 -0.54109,-0.56034 -0.93116,-0.54454c-0.39007,0.01581 -0.73528,0.25716 -0.88405,0.61809l-1,1.71c-0.2598,0.47081 -0.10076,1.06278 0.36,1.34zM41.93,50.19c0.47237,0.28332 1.08491,0.1313 1.37,-0.34l1,-1.71c0.19019,-0.4614 0.01108,-0.99239 -0.41973,-1.24432c-0.4308,-0.25193 -0.9814,-0.14767 -1.29027,0.24432l-1,1.71c-0.26338,0.4657 -0.11355,1.05621 0.34,1.34zM11,27.73c-0.47237,-0.28332 -1.08491,-0.1313 -1.37,0.34l-1,1.71c-0.19019,0.4614 -0.01108,0.99239 0.41973,1.24432c0.4308,0.25193 0.9814,0.14767 1.29027,-0.24432l1,-1.71c0.26338,-0.4657 0.11355,-1.05621 -0.34,-1.34zM15.28,30.31c-0.47237,-0.28332 -1.08491,-0.1313 -1.37,0.34l-1,1.71c-0.19019,0.4614 -0.01108,0.99239 0.41973,1.24432c0.4308,0.25193 0.9814,0.14767 1.29027,-0.24432l1,-1.71c0.26338,-0.4657 0.11355,-1.05621 -0.34,-1.34z" fill="#421f7a"></path></g></g></svg>