<svg xmlns="http://www.w3.org/2000/svg"  viewBox="0 0 64 64" width="128px" height="128px"><path d="M 48.097656 3.453125 C 47.0625 3.453125 46.027344 3.828125 45.269531 4.585938 L 41.03125 8.828125 C 40.25 8.046875 38.980469 8.046875 38.203125 8.828125 L 32.546875 14.484375 C 32.167969 14.863281 31.957031 15.367188 31.957031 15.902344 C 31.957031 16.433594 32.167969 16.9375 32.546875 17.3125 L 32.59375 17.363281 L 5.515625 44.398438 C 5.011719 44.902344 4.707031 45.570313 4.648438 46.28125 L 3.972656 54.675781 L 3.269531 59.597656 C 3.222656 59.910156 3.328125 60.222656 3.554688 60.449219 C 3.742188 60.636719 3.996094 60.738281 4.257813 60.738281 C 4.308594 60.738281 4.355469 60.738281 4.402344 60.730469 L 9.320313 60.03125 L 17.765625 59.40625 C 18.484375 59.355469 19.15625 59.046875 19.664063 58.539063 L 46.742188 31.5 C 47.113281 31.847656 47.589844 32.042969 48.101563 32.042969 C 48.636719 32.042969 49.136719 31.835938 49.515625 31.457031 L 55.171875 25.800781 C 55.953125 25.019531 55.953125 23.753906 55.171875 22.972656 L 59.417969 18.730469 C 60.171875 17.972656 60.585938 16.96875 60.585938 15.898438 C 60.585938 14.832031 60.171875 13.824219 59.414063 13.070313 L 50.929688 4.585938 C 50.175781 3.828125 49.136719 3.453125 48.097656 3.453125 Z M 48.097656 5.433594 C 48.617188 5.433594 49.136719 5.621094 49.515625 6 L 58 14.484375 C 58.378906 14.863281 58.585938 15.363281 58.585938 15.898438 C 58.585938 16.433594 58.378906 16.9375 58 17.3125 L 53.757813 21.558594 L 42.441406 10.242188 L 46.6875 6 C 47.0625 5.621094 47.582031 5.433594 48.097656 5.433594 Z M 39.613281 10.242188 L 40.324219 10.949219 L 53.050781 23.675781 L 53.757813 24.386719 L 52.34375 25.796875 C 51.953125 25.40625 51.320313 25.40625 50.929688 25.796875 L 49.515625 27.214844 C 49.125 27.605469 49.125 28.238281 49.515625 28.628906 L 48.101563 30.042969 L 33.957031 15.898438 L 35.371094 14.484375 C 35.566406 14.679688 35.820313 14.777344 36.078125 14.777344 C 36.335938 14.777344 36.589844 14.679688 36.785156 14.484375 L 38.203125 13.070313 C 38.59375 12.679688 38.59375 12.046875 38.203125 11.65625 Z M 41.03125 14.898438 C 40.773438 14.898438 40.519531 14.996094 40.324219 15.191406 L 38.90625 16.605469 C 38.515625 16.996094 38.515625 17.628906 38.90625 18.019531 C 39.101563 18.214844 39.359375 18.3125 39.613281 18.3125 C 39.871094 18.3125 40.128906 18.214844 40.324219 18.019531 L 41.734375 16.605469 C 42.128906 16.214844 42.128906 15.582031 41.734375 15.191406 C 41.539063 14.996094 41.285156 14.898438 41.03125 14.898438 Z M 44.5625 18.4375 C 44.308594 18.4375 44.054688 18.53125 43.859375 18.730469 L 42.441406 20.140625 C 42.050781 20.535156 42.050781 21.164063 42.441406 21.558594 C 42.636719 21.75 42.894531 21.847656 43.152344 21.847656 C 43.40625 21.847656 43.664063 21.75 43.859375 21.558594 L 45.269531 20.140625 C 45.664063 19.75 45.664063 19.121094 45.269531 18.730469 C 45.074219 18.53125 44.820313 18.4375 44.5625 18.4375 Z M 34.011719 18.777344 L 45.324219 30.09375 L 19.027344 56.347656 L 18.074219 51.582031 L 34.664063 34.992188 C 35.054688 34.601563 35.054688 33.96875 34.664063 33.578125 C 34.273438 33.1875 33.644531 33.1875 33.25 33.578125 L 16.65625 50.171875 L 14.300781 49.699219 L 13.828125 47.339844 L 27.59375 33.578125 C 27.988281 33.183594 27.988281 32.554688 27.59375 32.160156 C 27.203125 31.769531 26.574219 31.769531 26.183594 32.160156 L 12.417969 45.925781 L 7.753906 44.996094 Z M 48.101563 21.96875 C 47.84375 21.96875 47.589844 22.066406 47.394531 22.265625 L 45.980469 23.675781 C 45.589844 24.070313 45.589844 24.699219 45.980469 25.09375 C 46.175781 25.285156 46.429688 25.386719 46.6875 25.386719 C 46.945313 25.386719 47.199219 25.285156 47.394531 25.09375 L 48.808594 23.675781 C 49.199219 23.285156 49.199219 22.65625 48.808594 22.265625 C 48.613281 22.066406 48.359375 21.96875 48.101563 21.96875 Z M 32.546875 26.214844 C 32.289063 26.214844 32.035156 26.3125 31.839844 26.503906 L 29.011719 29.332031 C 28.617188 29.726563 28.617188 30.355469 29.011719 30.75 C 29.203125 30.941406 29.460938 31.042969 29.71875 31.042969 C 29.972656 31.042969 30.230469 30.941406 30.421875 30.75 L 33.25 27.921875 C 33.644531 27.527344 33.644531 26.898438 33.25 26.503906 C 33.054688 26.308594 32.800781 26.210938 32.546875 26.214844 Z M 6.609375 46.804688 L 11.894531 47.859375 L 12.46875 50.746094 C 12.550781 51.140625 12.859375 51.449219 13.253906 51.527344 L 16.136719 52.105469 L 17.203125 57.441406 L 9.59375 58 L 6 54.410156 Z"/></svg>