<svg width="214" height="209" viewBox="0 0 214 209" fill="none" xmlns="http://www.w3.org/2000/svg">
<path d="M30.5499 128.45L54.8899 132.47L75.3899 134.23L93.5499 132.47L119.71 127.31L117.39 119.07L103.75 120.83L88.2099 122.57L83.7099 122.39V119.07L87.8899 113.89L88.2099 98.0699L81.7499 92.2299L72.3899 90.2299L63.3899 93.7299L59.8899 100.07L58.8899 108.73L61.3899 116.57L63.3899 120.23L63.8899 122.07L54.9699 122.49L43.2099 119.49L32.8899 119.23L30.1299 124.23L30.5499 128.45Z" fill="#7845C9"/>
<path d="M117.11 173.79C110.794 179.844 100.787 179.703 94.6445 173.474C88.5019 167.244 88.5019 157.236 94.6445 151.006C100.787 144.776 110.794 144.636 117.11 150.69C118.13 151.676 119.492 152.228 120.91 152.23C121.469 152.232 122.004 151.999 122.384 151.589C122.764 151.178 122.955 150.627 122.91 150.07C122.532 144.552 121.864 139.058 120.91 133.61L118.91 122.17C118.724 121.082 118.097 120.119 117.176 119.509C116.256 118.899 115.125 118.697 114.05 118.95L102.61 120.95C97.162 121.904 91.6678 122.572 86.1499 122.95C85.5923 122.995 85.0415 122.804 84.6311 122.424C84.2206 122.044 83.9881 121.509 83.9899 120.95C83.9965 119.523 84.5556 118.154 85.5499 117.13C91.6042 110.814 91.4634 100.807 85.2337 94.6645C79.004 88.5219 68.9958 88.5219 62.7661 94.6645C56.5364 100.807 56.3956 110.814 62.4499 117.13C63.4356 118.15 63.9876 119.512 63.9899 120.93C63.9917 121.489 63.7592 122.024 63.3487 122.404C62.9383 122.784 62.3875 122.975 61.8299 122.93C56.312 122.552 50.8178 121.884 45.3699 120.93L35.6699 119.17C34.3753 118.931 33.0459 119.344 32.1149 120.275C31.184 121.206 30.7708 122.535 31.0099 123.83L32.7699 133.53C33.7242 138.978 34.3918 144.472 34.7699 149.99C34.8147 150.547 34.6239 151.098 34.2438 151.509C33.8638 151.919 33.3293 152.152 32.7699 152.15C31.3428 152.143 29.9737 151.584 28.9499 150.59C22.6344 144.536 12.6271 144.676 6.48448 150.906C0.341855 157.136 0.341855 167.144 6.48448 173.374C12.6271 179.603 22.6344 179.744 28.9499 173.69C29.9696 172.704 31.3317 172.152 32.7499 172.15C33.3093 172.148 33.8438 172.381 34.2238 172.791C34.6039 173.202 34.7947 173.752 34.7499 174.31C34.3718 179.828 33.7042 185.322 32.7499 190.77L30.7499 201.43C30.534 202.609 30.8581 203.822 31.6329 204.737C32.4077 205.651 33.5516 206.17 34.7499 206.15H114.71C116.666 206.182 118.358 204.794 118.71 202.87L120.91 190.87C121.864 185.422 122.532 179.928 122.91 174.41C122.955 173.852 122.764 173.302 122.384 172.891C122.004 172.481 121.469 172.248 120.91 172.25C119.492 172.256 118.132 172.808 117.11 173.79Z" fill="#6930C3"/>
<path d="M118.05 206.23H32.4899C31.8823 206.242 31.302 205.978 30.913 205.511C30.5239 205.044 30.3682 204.425 30.4899 203.83L31.0499 201.05C31.6148 198.233 34.0971 196.212 36.9699 196.23H112.73C114.528 196.231 116.23 197.038 117.369 198.428C118.508 199.819 118.963 201.647 118.61 203.41L118.05 206.23Z" fill="#5C2AAC"/>
<path d="M120.91 170.23C118.967 170.234 117.102 170.995 115.71 172.35C110.183 177.644 101.428 177.519 96.0553 172.068C90.6822 166.618 90.6822 157.862 96.0553 152.412C101.428 146.961 110.183 146.835 115.71 152.13C117.115 153.438 118.97 154.155 120.89 154.13C122.005 154.133 123.071 153.671 123.83 152.854C124.589 152.038 124.974 150.942 124.89 149.83C124.483 144.237 123.782 138.669 122.79 133.15L120.79 121.71C120.508 120.142 119.613 118.75 118.304 117.842C116.994 116.934 115.378 116.584 113.81 116.87L102.37 118.87C96.9896 119.827 91.5618 120.495 86.1099 120.87C86.1176 119.964 86.476 119.097 87.1099 118.45C93.9158 111.343 93.7537 100.088 86.7458 93.1807C79.7379 86.2731 68.4819 86.2731 61.474 93.1807C54.4661 100.088 54.304 111.343 61.1099 118.45C61.7869 119.163 62.1287 120.13 62.0499 121.11C56.5987 120.727 51.1713 120.06 45.7899 119.11L36.0499 117.29C34.1259 116.955 32.1593 117.577 30.7784 118.958C29.3975 120.339 28.775 122.306 29.1099 124.23L30.8699 133.93C31.8273 139.31 32.4949 144.738 32.8699 150.19C31.9642 150.182 31.0968 149.824 30.4499 149.19C23.3432 142.384 12.0883 142.546 5.18072 149.554C-1.7269 156.562 -1.7269 167.818 5.18072 174.826C12.0883 181.834 23.3432 181.996 30.4499 175.19C31.1107 174.557 31.9952 174.212 32.9099 174.23C32.5272 179.681 31.8596 185.108 30.9099 190.49L28.9099 201.15C28.5861 202.918 29.0722 204.738 30.2344 206.11C31.3966 207.481 33.1125 208.259 34.9099 208.23H114.71C117.644 208.278 120.182 206.196 120.71 203.31L122.91 191.31C123.902 185.791 124.603 180.223 125.01 174.63C125.094 173.518 124.709 172.422 123.95 171.605C123.191 170.789 122.125 170.327 121.01 170.33L120.91 170.23ZM118.91 190.49L116.71 202.49C116.534 203.452 115.688 204.146 114.71 204.13H34.8499C34.2508 204.14 33.6788 203.88 33.2914 203.423C32.904 202.966 32.742 202.359 32.8499 201.77L34.8499 191.11C35.842 185.591 36.5429 180.023 36.9499 174.43C37.0323 173.32 36.6481 172.225 35.8899 171.41C35.1045 170.618 34.0243 170.191 32.9099 170.23C30.9902 170.205 29.1349 170.922 27.7299 172.23C22.2028 177.524 13.4484 177.399 8.0753 171.948C2.7022 166.498 2.7022 157.742 8.0753 152.292C13.4484 146.841 22.2028 146.715 27.7299 152.01C29.1011 153.397 30.9598 154.194 32.9099 154.23C34.0249 154.233 35.0905 153.771 35.8499 152.954C36.6093 152.138 36.9935 151.042 36.9099 149.93C36.503 144.337 35.802 138.769 34.8099 133.25L33.0499 123.55C32.9314 122.9 33.1409 122.234 33.6099 121.77C34.0745 121.301 34.7405 121.091 35.3899 121.21L45.0899 122.97C50.6092 123.962 56.1769 124.663 61.7699 125.07C62.8817 125.154 63.978 124.769 64.7943 124.01C65.6107 123.251 66.073 122.185 66.0699 121.07C66.0946 119.15 65.3783 117.295 64.0699 115.89C58.7755 110.363 58.9009 101.608 64.3516 96.2353C69.8023 90.8622 78.5576 90.8622 84.0082 96.2353C89.4589 101.608 89.5843 110.363 84.2899 115.89C82.8907 117.263 82.0864 119.13 82.0499 121.09C82.0468 122.205 82.5091 123.271 83.3255 124.03C84.1418 124.789 85.2381 125.174 86.3499 125.09C91.9429 124.683 97.5106 123.982 103.03 122.99L114.47 120.99C114.993 120.893 115.532 121.008 115.97 121.31C116.409 121.608 116.711 122.069 116.81 122.59L118.81 134.03C119.768 139.41 120.436 144.838 120.81 150.29C119.907 150.29 119.039 149.938 118.39 149.31C114.88 145.958 110.166 144.166 105.316 144.339C100.466 144.512 95.8916 146.636 92.6299 150.23C86.2191 157.441 86.6344 168.424 93.5715 175.131C100.509 181.837 111.5 181.881 118.49 175.23C119.136 174.594 120.004 174.235 120.91 174.23C120.521 179.681 119.846 185.109 118.89 190.49L118.91 190.49Z" fill="#1B0F24"/>
<path d="M42.0499 192.23C40.9453 192.23 40.0499 193.125 40.0499 194.23V198.23C40.0499 199.334 40.9453 200.23 42.0499 200.23C43.1545 200.23 44.0499 199.334 44.0499 198.23V194.23C44.0499 193.125 43.1545 192.23 42.0499 192.23ZM52.0499 192.23C50.9453 192.23 50.0499 193.125 50.0499 194.23V198.23C50.0499 199.334 50.9453 200.23 52.0499 200.23C53.1545 200.23 54.0499 199.334 54.0499 198.23V194.23C54.0499 193.125 53.1545 192.23 52.0499 192.23ZM62.0499 192.23C60.9453 192.23 60.0499 193.125 60.0499 194.23V198.23C60.0499 199.334 60.9453 200.23 62.0499 200.23C63.1545 200.23 64.0499 199.334 64.0499 198.23V194.23C64.0499 193.125 63.1545 192.23 62.0499 192.23ZM72.0499 192.23C70.9453 192.23 70.0499 193.125 70.0499 194.23V198.23C70.0499 199.334 70.9453 200.23 72.0499 200.23C73.1545 200.23 74.0499 199.334 74.0499 198.23V194.23C74.0499 193.125 73.1545 192.23 72.0499 192.23ZM82.0499 192.23C80.9453 192.23 80.0499 193.125 80.0499 194.23V198.23C80.0499 199.334 80.9453 200.23 82.0499 200.23C83.1545 200.23 84.0499 199.334 84.0499 198.23V194.23C84.0499 193.125 83.1545 192.23 82.0499 192.23ZM92.0499 192.23C90.9453 192.23 90.0499 193.125 90.0499 194.23V198.23C90.0499 199.334 90.9453 200.23 92.0499 200.23C93.1545 200.23 94.0499 199.334 94.0499 198.23V194.23C94.0499 193.125 93.1545 192.23 92.0499 192.23ZM102.05 192.23C100.945 192.23 100.05 193.125 100.05 194.23V198.23C100.05 199.334 100.945 200.23 102.05 200.23C103.154 200.23 104.05 199.334 104.05 198.23V194.23C104.05 193.125 103.154 192.23 102.05 192.23ZM112.05 192.23C110.945 192.23 110.05 193.125 110.05 194.23V198.23C110.05 199.334 110.945 200.23 112.05 200.23C113.154 200.23 114.05 199.334 114.05 198.23V194.23C114.05 193.125 113.154 192.23 112.05 192.23ZM105.75 132.47H106.11L112.41 131.33C113.514 131.131 114.249 130.074 114.05 128.97C113.851 127.865 112.794 127.131 111.69 127.33L105.39 128.47C104.285 128.569 103.47 129.545 103.57 130.65C103.669 131.754 104.645 132.569 105.75 132.47ZM97.8499 133.85C98.9545 133.69 99.7201 132.664 99.5599 131.56C99.3997 130.455 98.3745 129.69 97.2699 129.85C80.1797 132.391 62.7881 132.107 45.7899 129.01L40.3499 128.03C39.2453 127.831 38.1887 128.565 37.9899 129.67C37.7911 130.774 38.5253 131.831 39.6299 132.03L45.0699 133.01C54.6322 134.745 64.3314 135.615 74.0499 135.61C82.0157 135.608 89.9705 135.02 97.8499 133.85Z" fill="#1B0F24"/>
<path d="M108.176 31.1547L104.156 55.4947L102.396 75.9947L104.156 94.1547L109.316 120.315L117.556 117.995L115.796 104.355L114.056 88.8147L114.236 84.3147L117.556 84.3147L122.736 88.4947L138.556 88.8147L144.396 82.3547L146.396 72.9947L142.896 63.9947L136.556 60.4947L127.896 59.4947L120.056 61.9947L116.396 63.9947L114.556 64.4947L114.136 55.5747L117.136 43.8147L117.396 33.4947L112.396 30.7347L108.176 31.1547Z" fill="#D184FB"/>
<path d="M62.836 117.715C56.7817 111.399 56.9225 101.392 63.1522 95.2492C69.3819 89.1066 79.3902 89.1066 85.6198 95.2492C91.8495 101.392 91.9904 111.399 85.936 117.715C84.9503 118.734 84.3983 120.096 84.396 121.515C84.3942 122.074 84.6268 122.609 85.0372 122.989C85.4476 123.369 85.9985 123.559 86.556 123.515C92.0739 123.137 97.5681 122.469 103.016 121.515L114.456 119.515C115.544 119.329 116.507 118.701 117.117 117.781C117.727 116.861 117.929 115.729 117.676 114.655L115.676 103.215C114.722 97.7668 114.054 92.2726 113.676 86.7547C113.631 86.1971 113.822 85.6463 114.202 85.2358C114.582 84.8254 115.117 84.5929 115.676 84.5947C117.103 84.6013 118.472 85.1604 119.496 86.1547C125.812 92.209 135.819 92.0682 141.961 85.8385C148.104 79.6088 148.104 69.6005 141.961 63.3708C135.819 57.1412 125.812 57.0003 119.496 63.0547C118.476 64.0404 117.114 64.5924 115.696 64.5947C115.137 64.5965 114.602 64.3639 114.222 63.9535C113.842 63.543 113.651 62.9922 113.696 62.4347C114.074 56.9168 114.742 51.4225 115.696 45.9747L117.456 36.2747C117.695 34.98 117.282 33.6506 116.351 32.7197C115.42 31.7888 114.091 31.3755 112.796 31.6147L103.096 33.3747C97.6482 34.329 92.1539 34.9965 86.636 35.3747C86.0785 35.4194 85.5276 35.2286 85.1172 34.8486C84.7068 34.4686 84.4743 33.934 84.476 33.3747C84.4827 31.9475 85.0418 30.5785 86.036 29.5547C92.0904 23.2392 91.9495 13.2319 85.7198 7.08923C79.4902 0.946611 69.4819 0.946611 63.2522 7.08923C57.0225 13.2319 56.8817 23.2391 62.936 29.5546C63.9218 30.5743 64.4738 31.9364 64.476 33.3547C64.4778 33.914 64.2453 34.4486 63.8348 34.8286C63.4244 35.2086 62.8736 35.3994 62.316 35.3547C56.7981 34.9765 51.3039 34.309 45.856 33.3547L35.196 31.3547C34.0172 31.1388 32.8037 31.4628 31.8894 32.2376C30.9751 33.0124 30.4564 34.1564 30.476 35.3547L30.476 115.315C30.4441 117.271 31.8316 118.963 33.756 119.315L45.756 121.515C51.2039 122.469 56.6981 123.137 62.216 123.515C62.7736 123.559 63.3244 123.369 63.7348 122.989C64.1453 122.609 64.3778 122.074 64.376 121.515C64.3696 120.097 63.8182 118.737 62.836 117.715Z" fill="#C86BFA"/>
<path d="M30.396 118.655L30.396 33.0946C30.3837 32.487 30.6484 31.9068 31.1153 31.5177C31.5821 31.1287 32.2006 30.973 32.796 31.0947L35.576 31.6547C38.3928 32.2196 40.4138 34.7019 40.396 37.5746L40.396 113.335C40.3952 115.132 39.5883 116.835 38.1976 117.974C36.8068 119.113 34.9786 119.568 33.216 119.215L30.396 118.655Z" fill="#B05EDC"/>
<path d="M66.396 121.515C66.3915 119.572 65.6312 117.707 64.276 116.315C58.9816 110.788 59.1071 102.033 64.5577 96.6601C70.0084 91.287 78.7637 91.287 84.2144 96.6601C89.665 102.033 89.7905 110.788 84.4961 116.315C83.1877 117.72 82.4713 119.575 82.4961 121.495C82.4929 122.61 82.9553 123.675 83.7716 124.435C84.588 125.194 85.6842 125.578 86.796 125.495C92.389 125.088 97.9567 124.387 103.476 123.395L114.916 121.395C116.484 121.112 117.876 120.218 118.784 118.908C119.692 117.599 120.042 115.982 119.756 114.415L117.756 102.975C116.799 97.5944 116.131 92.1666 115.756 86.7147C116.662 86.7223 117.529 87.0808 118.176 87.7147C125.283 94.5206 136.538 94.3584 143.445 87.3506C150.353 80.3427 150.353 69.0866 143.445 62.0788C136.538 55.0709 125.283 54.9087 118.176 61.7147C117.463 62.3917 116.496 62.7335 115.516 62.6547C115.899 57.2035 116.566 51.7761 117.516 46.3947L119.336 36.6547C119.671 34.7307 119.048 32.7641 117.668 31.3831C116.287 30.0022 114.32 29.3798 112.396 29.7147L102.696 31.4747C97.3158 32.4321 91.8879 33.0997 86.436 33.4747C86.4437 32.569 86.8021 31.7016 87.436 31.0547C94.242 23.948 94.0798 12.6931 87.0719 5.78548C80.0641 -1.12214 68.808 -1.12214 61.8002 5.78548C54.7923 12.6931 54.6301 23.948 61.4361 31.0547C62.0687 31.7155 62.4139 32.6 62.3961 33.5147C56.9449 33.132 51.5175 32.4644 46.1361 31.5147L35.4761 29.5147C33.7078 29.1908 31.8875 29.6769 30.5161 30.8391C29.1447 32.0014 28.3666 33.7173 28.3961 35.5147L28.3961 115.315C28.3482 118.249 30.4295 120.787 33.3161 121.315L45.316 123.515C50.8354 124.507 56.4031 125.208 61.9961 125.615C63.1079 125.698 64.2041 125.314 65.0205 124.555C65.8368 123.795 66.2992 122.73 66.296 121.615L66.396 121.515ZM46.136 119.515L34.136 117.315C33.1738 117.139 32.4801 116.293 32.496 115.315L32.496 35.4547C32.4862 34.8555 32.7456 34.2836 33.2027 33.8962C33.6599 33.5088 34.2666 33.3467 34.856 33.4547L45.516 35.4547C51.0354 36.4467 56.6031 37.1477 62.196 37.5547C63.3064 37.637 64.4008 37.2529 65.216 36.4947C66.0075 35.7092 66.4353 34.629 66.396 33.5147C66.4208 31.595 65.7044 29.7396 64.396 28.3347C59.1016 22.8076 59.2271 14.0532 64.6777 8.68006C70.1284 3.30696 78.8837 3.30696 84.3344 8.68006C89.785 14.0532 89.9105 22.8076 84.616 28.3347C83.229 29.7059 82.4324 31.5646 82.3961 33.5147C82.3929 34.6296 82.8553 35.6953 83.6716 36.4547C84.488 37.2141 85.5842 37.5983 86.696 37.5147C92.289 37.1077 97.8567 36.4068 103.376 35.4147L113.076 33.6547C113.725 33.5361 114.391 33.7457 114.856 34.2147C115.325 34.6792 115.535 35.3453 115.416 35.9947L113.656 45.6947C112.664 51.214 111.963 56.7817 111.556 62.3747C111.472 63.4865 111.857 64.5827 112.616 65.3991C113.375 66.2155 114.441 66.6778 115.556 66.6747C117.476 66.6994 119.331 65.983 120.736 64.6747C126.263 59.3802 135.018 59.5057 140.391 64.9564C145.764 70.407 145.764 79.1623 140.391 84.613C135.018 90.0636 126.263 90.1891 120.736 84.8947C119.363 83.4955 117.496 82.6911 115.536 82.6547C114.421 82.6515 113.355 83.1139 112.596 83.9302C111.837 84.7466 111.452 85.8429 111.536 86.9547C111.943 92.5477 112.644 98.1154 113.636 103.635L115.636 115.075C115.733 115.597 115.618 116.137 115.316 116.575C115.018 117.013 114.557 117.316 114.036 117.415L102.596 119.415C97.2159 120.373 91.7881 121.041 86.336 121.415C86.3363 120.511 86.6877 119.644 87.316 118.995C90.6677 115.485 92.4602 110.771 92.287 105.921C92.1138 101.071 89.9895 96.4963 86.396 93.2347C79.185 86.8239 68.2016 87.2392 61.4952 94.1763C54.7889 101.113 54.7451 112.104 61.3961 119.095C62.0317 119.74 62.3905 120.609 62.3961 121.515C56.9445 121.125 51.5171 120.451 46.136 119.495L46.136 119.515Z" fill="#1B0F24"/>
<path d="M44.396 42.6547C44.396 41.5501 43.5006 40.6547 42.396 40.6547L38.396 40.6547C37.2915 40.6547 36.396 41.5501 36.396 42.6547C36.396 43.7592 37.2915 44.6547 38.396 44.6547L42.396 44.6547C43.5006 44.6547 44.396 43.7592 44.396 42.6547ZM44.396 52.6547C44.396 51.5501 43.5006 50.6547 42.396 50.6547L38.396 50.6547C37.2915 50.6547 36.396 51.5501 36.396 52.6547C36.396 53.7592 37.2915 54.6547 38.396 54.6547L42.396 54.6547C43.5006 54.6547 44.396 53.7592 44.396 52.6547ZM44.396 62.6547C44.396 61.5501 43.5006 60.6547 42.396 60.6547L38.396 60.6547C37.2915 60.6547 36.396 61.5501 36.396 62.6547C36.396 63.7592 37.2915 64.6547 38.396 64.6547L42.396 64.6547C43.5006 64.6547 44.396 63.7592 44.396 62.6547ZM44.396 72.6547C44.396 71.5501 43.5006 70.6547 42.396 70.6547L38.396 70.6547C37.2915 70.6547 36.396 71.5501 36.396 72.6547C36.396 73.7592 37.2915 74.6547 38.396 74.6547L42.396 74.6547C43.5006 74.6547 44.396 73.7592 44.396 72.6547ZM44.396 82.6547C44.396 81.5501 43.5006 80.6547 42.396 80.6547L38.396 80.6547C37.2915 80.6547 36.396 81.5501 36.396 82.6547C36.396 83.7592 37.2915 84.6547 38.396 84.6547L42.396 84.6547C43.5006 84.6547 44.396 83.7592 44.396 82.6547ZM44.396 92.6547C44.396 91.5501 43.5006 90.6547 42.396 90.6547L38.396 90.6547C37.2915 90.6547 36.396 91.5501 36.396 92.6547C36.396 93.7592 37.2915 94.6547 38.396 94.6547L42.396 94.6547C43.5006 94.6547 44.396 93.7592 44.396 92.6547ZM44.396 102.655C44.396 101.55 43.5006 100.655 42.396 100.655L38.396 100.655C37.2915 100.655 36.396 101.55 36.396 102.655C36.396 103.759 37.2915 104.655 38.396 104.655L42.396 104.655C43.5006 104.655 44.396 103.759 44.396 102.655ZM44.396 112.655C44.396 111.55 43.5006 110.655 42.396 110.655L38.396 110.655C37.2915 110.655 36.396 111.55 36.396 112.655C36.396 113.759 37.2915 114.655 38.396 114.655L42.396 114.655C43.5006 114.655 44.396 113.759 44.396 112.655ZM104.156 106.355L104.156 106.715L105.296 113.015C105.495 114.119 106.551 114.853 107.656 114.655C108.761 114.456 109.495 113.399 109.296 112.295L108.156 105.995C108.057 104.89 107.081 104.075 105.976 104.175C104.871 104.274 104.057 105.25 104.156 106.355ZM102.776 98.4547C102.936 99.5592 103.961 100.325 105.066 100.165C106.171 100.004 106.936 98.9792 106.776 97.8747C104.235 80.7845 104.518 63.3928 107.616 46.3947L108.596 40.9547C108.795 39.8501 108.061 38.7935 106.956 38.5947C105.851 38.3958 104.795 39.1301 104.596 40.2347L103.616 45.6747C101.881 55.237 101.011 64.9362 101.016 74.6547C101.017 82.6204 101.606 90.5753 102.776 98.4547Z" fill="#1B0F24"/>
<path d="M118.55 128.45L142.89 132.47L163.39 134.23L181.55 132.47L207.71 127.31L205.39 119.07L191.75 120.83L176.21 122.57L171.71 122.39V119.07L175.89 113.89L176.21 98.0699L169.75 92.2299L160.39 90.2299L151.39 93.7299L147.89 100.07L146.89 108.73L149.39 116.57L151.39 120.23L151.89 122.07L142.97 122.49L131.21 119.49L120.89 119.23L118.13 124.23L118.55 128.45Z" fill="#73E9C7"/>
<path d="M205.11 173.79C198.794 179.844 188.787 179.703 182.644 173.474C176.502 167.244 176.502 157.236 182.644 151.006C188.787 144.776 198.794 144.636 205.11 150.69C206.13 151.676 207.492 152.228 208.91 152.23C209.469 152.232 210.004 151.999 210.384 151.589C210.764 151.178 210.955 150.627 210.91 150.07C210.532 144.552 209.864 139.058 208.91 133.61L206.91 122.17C206.724 121.082 206.097 120.119 205.176 119.509C204.256 118.899 203.125 118.697 202.05 118.95L190.61 120.95C185.162 121.904 179.668 122.572 174.15 122.95C173.592 122.995 173.041 122.804 172.631 122.424C172.221 122.044 171.988 121.509 171.99 120.95C171.997 119.523 172.556 118.154 173.55 117.13C179.604 110.814 179.463 100.807 173.234 94.6645C167.004 88.5219 156.996 88.5219 150.766 94.6645C144.536 100.807 144.396 110.814 150.45 117.13C151.436 118.15 151.988 119.512 151.99 120.93C151.992 121.489 151.759 122.024 151.349 122.404C150.938 122.784 150.387 122.975 149.83 122.93C144.312 122.552 138.818 121.884 133.37 120.93L123.67 119.17C122.375 118.931 121.046 119.344 120.115 120.275C119.184 121.206 118.771 122.535 119.01 123.83L120.77 133.53C121.724 138.978 122.392 144.472 122.77 149.99C122.815 150.547 122.624 151.098 122.244 151.509C121.864 151.919 121.329 152.152 120.77 152.15C119.343 152.143 117.974 151.584 116.95 150.59C110.634 144.536 100.627 144.676 94.4845 150.906C88.3419 157.136 88.3419 167.144 94.4845 173.374C100.627 179.603 110.634 179.744 116.95 173.69C117.97 172.704 119.332 172.152 120.75 172.15C121.309 172.148 121.844 172.381 122.224 172.791C122.604 173.202 122.795 173.752 122.75 174.31C122.372 179.828 121.704 185.322 120.75 190.77L118.75 201.43C118.534 202.609 118.858 203.822 119.633 204.737C120.408 205.651 121.552 206.17 122.75 206.15H202.71C204.666 206.182 206.358 204.794 206.71 202.87L208.91 190.87C209.864 185.422 210.532 179.928 210.91 174.41C210.955 173.852 210.764 173.302 210.384 172.891C210.004 172.481 209.469 172.248 208.91 172.25C207.492 172.256 206.132 172.808 205.11 173.79Z" fill="#19E6AC"/>
<path d="M206.05 206.23H120.49C119.882 206.242 119.302 205.978 118.913 205.511C118.524 205.044 118.368 204.425 118.49 203.83L119.05 201.05C119.615 198.233 122.097 196.212 124.97 196.23H200.73C202.528 196.231 204.23 197.038 205.369 198.428C206.508 199.819 206.963 201.647 206.61 203.41L206.05 206.23Z" fill="#14B88A"/>
<path d="M208.91 170.23C206.967 170.234 205.102 170.995 203.71 172.35C198.183 177.644 189.428 177.519 184.055 172.068C178.682 166.618 178.682 157.862 184.055 152.412C189.428 146.961 198.183 146.835 203.71 152.13C205.115 153.438 206.97 154.155 208.89 154.13C210.005 154.133 211.071 153.671 211.83 152.854C212.589 152.038 212.974 150.942 212.89 149.83C212.483 144.237 211.782 138.669 210.79 133.15L208.79 121.71C208.508 120.142 207.613 118.75 206.304 117.842C204.994 116.934 203.378 116.584 201.81 116.87L190.37 118.87C184.99 119.827 179.562 120.495 174.11 120.87C174.118 119.964 174.476 119.097 175.11 118.45C181.916 111.343 181.754 100.088 174.746 93.1807C167.738 86.2731 156.482 86.2731 149.474 93.1807C142.466 100.088 142.304 111.343 149.11 118.45C149.787 119.163 150.129 120.13 150.05 121.11C144.599 120.727 139.171 120.06 133.79 119.11L124.05 117.29C122.126 116.955 120.159 117.577 118.778 118.958C117.397 120.339 116.775 122.306 117.11 124.23L118.87 133.93C119.827 139.31 120.495 144.738 120.87 150.19C119.964 150.182 119.097 149.824 118.45 149.19C111.343 142.384 100.088 142.546 93.1807 149.554C86.2731 156.562 86.2731 167.818 93.1807 174.826C100.088 181.834 111.343 181.996 118.45 175.19C119.111 174.557 119.995 174.212 120.91 174.23C120.527 179.681 119.86 185.108 118.91 190.49L116.91 201.15C116.586 202.918 117.072 204.738 118.234 206.11C119.397 207.481 121.112 208.259 122.91 208.23H202.71C205.644 208.278 208.182 206.196 208.71 203.31L210.91 191.31C211.902 185.791 212.603 180.223 213.01 174.63C213.094 173.518 212.709 172.422 211.95 171.605C211.191 170.789 210.125 170.327 209.01 170.33L208.91 170.23ZM206.91 190.49L204.71 202.49C204.534 203.452 203.688 204.146 202.71 204.13H122.85C122.251 204.14 121.679 203.88 121.291 203.423C120.904 202.966 120.742 202.359 120.85 201.77L122.85 191.11C123.842 185.591 124.543 180.023 124.95 174.43C125.032 173.32 124.648 172.225 123.89 171.41C123.104 170.618 122.024 170.191 120.91 170.23C118.99 170.205 117.135 170.922 115.73 172.23C110.203 177.524 101.448 177.399 96.0753 171.948C90.7022 166.498 90.7022 157.742 96.0753 152.292C101.448 146.841 110.203 146.715 115.73 152.01C117.101 153.397 118.96 154.194 120.91 154.23C122.025 154.233 123.091 153.771 123.85 152.954C124.609 152.138 124.994 151.042 124.91 149.93C124.503 144.337 123.802 138.769 122.81 133.25L121.05 123.55C120.931 122.9 121.141 122.234 121.61 121.77C122.074 121.301 122.74 121.091 123.39 121.21L133.09 122.97C138.609 123.962 144.177 124.663 149.77 125.07C150.882 125.154 151.978 124.769 152.794 124.01C153.611 123.251 154.073 122.185 154.07 121.07C154.095 119.15 153.378 117.295 152.07 115.89C146.775 110.363 146.901 101.608 152.352 96.2353C157.802 90.8622 166.558 90.8622 172.008 96.2353C177.459 101.608 177.584 110.363 172.29 115.89C170.891 117.263 170.086 119.13 170.05 121.09C170.047 122.205 170.509 123.271 171.325 124.03C172.142 124.789 173.238 125.174 174.35 125.09C179.943 124.683 185.511 123.982 191.03 122.99L202.47 120.99C202.993 120.893 203.532 121.008 203.97 121.31C204.409 121.608 204.711 122.069 204.81 122.59L206.81 134.03C207.768 139.41 208.436 144.838 208.81 150.29C207.907 150.29 207.039 149.938 206.39 149.31C202.88 145.958 198.166 144.166 193.316 144.339C188.466 144.512 183.892 146.636 180.63 150.23C174.219 157.441 174.634 168.424 181.571 175.131C188.509 181.837 199.5 181.881 206.49 175.23C207.136 174.594 208.004 174.235 208.91 174.23C208.521 179.681 207.846 185.109 206.89 190.49L206.91 190.49Z" fill="#1B0F24"/>
<path d="M130.05 192.23C128.945 192.23 128.05 193.125 128.05 194.23V198.23C128.05 199.334 128.945 200.23 130.05 200.23C131.154 200.23 132.05 199.334 132.05 198.23V194.23C132.05 193.125 131.154 192.23 130.05 192.23ZM140.05 192.23C138.945 192.23 138.05 193.125 138.05 194.23V198.23C138.05 199.334 138.945 200.23 140.05 200.23C141.154 200.23 142.05 199.334 142.05 198.23V194.23C142.05 193.125 141.154 192.23 140.05 192.23ZM150.05 192.23C148.945 192.23 148.05 193.125 148.05 194.23V198.23C148.05 199.334 148.945 200.23 150.05 200.23C151.154 200.23 152.05 199.334 152.05 198.23V194.23C152.05 193.125 151.154 192.23 150.05 192.23ZM160.05 192.23C158.945 192.23 158.05 193.125 158.05 194.23V198.23C158.05 199.334 158.945 200.23 160.05 200.23C161.154 200.23 162.05 199.334 162.05 198.23V194.23C162.05 193.125 161.154 192.23 160.05 192.23ZM170.05 192.23C168.945 192.23 168.05 193.125 168.05 194.23V198.23C168.05 199.334 168.945 200.23 170.05 200.23C171.154 200.23 172.05 199.334 172.05 198.23V194.23C172.05 193.125 171.154 192.23 170.05 192.23ZM180.05 192.23C178.945 192.23 178.05 193.125 178.05 194.23V198.23C178.05 199.334 178.945 200.23 180.05 200.23C181.154 200.23 182.05 199.334 182.05 198.23V194.23C182.05 193.125 181.154 192.23 180.05 192.23ZM190.05 192.23C188.945 192.23 188.05 193.125 188.05 194.23V198.23C188.05 199.334 188.945 200.23 190.05 200.23C191.154 200.23 192.05 199.334 192.05 198.23V194.23C192.05 193.125 191.154 192.23 190.05 192.23ZM200.05 192.23C198.945 192.23 198.05 193.125 198.05 194.23V198.23C198.05 199.334 198.945 200.23 200.05 200.23C201.154 200.23 202.05 199.334 202.05 198.23V194.23C202.05 193.125 201.154 192.23 200.05 192.23ZM193.75 132.47H194.11L200.41 131.33C201.514 131.131 202.249 130.074 202.05 128.97C201.851 127.865 200.794 127.131 199.69 127.33L193.39 128.47C192.285 128.569 191.47 129.545 191.57 130.65C191.669 131.754 192.645 132.569 193.75 132.47ZM185.85 133.85C186.954 133.69 187.72 132.664 187.56 131.56C187.4 130.455 186.374 129.69 185.27 129.85C168.18 132.391 150.788 132.107 133.79 129.01L128.35 128.03C127.245 127.831 126.189 128.565 125.99 129.67C125.791 130.774 126.525 131.831 127.63 132.03L133.07 133.01C142.632 134.745 152.331 135.615 162.05 135.61C170.016 135.608 177.971 135.02 185.85 133.85Z" fill="#1B0F24"/>
</svg>
