<svg xmlns="http://www.w3.org/2000/svg" xmlns:xlink="http://www.w3.org/1999/xlink" viewBox="0,0,256,256" width="128px" height="128px"><g fill="none" fill-rule="none" stroke="none" stroke-width="1" stroke-linecap="butt" stroke-linejoin="miter" stroke-miterlimit="10" stroke-dasharray="" stroke-dashoffset="0" font-family="none" font-weight="none" font-size="none" text-anchor="none" style="mix-blend-mode: normal"><g transform="scale(4,4)"><path d="M38,49h-10c-0.552,0 -1,0.448 -1,1v8c0,0.552 0.448,1 1,1h10c0.552,0 1,-0.448 1,-1v-8c0,-0.552 -0.448,-1 -1,-1z" fill="#19e6ac" fill-rule="evenodd"></path><path d="M34,49h5v10h-5z" fill="#14b88a" fill-rule="evenodd"></path><path d="M38,45h-10c-0.552,0 -1,-0.448 -1,-1v-10c0,-2.761 2.239,-5 5,-5h7v-9c0,-0.552 -0.448,-1 -1,-1h-10c-0.552,0 -1,0.448 -1,1v4c0,0.552 -0.448,1 -1,1h-10c-0.552,0 -1,-0.448 -1,-1v-12c0,-2.761 2.239,-5 5,-5h28c2.761,0 5,2.239 5,5v22c0,2.761 -2.239,5 -5,5h-9v5c0,0.552 -0.448,1 -1,1z" fill="#19e6ac" fill-rule="nonzero"></path><path d="M48,7v32v0c2.761,0 5,-2.239 5,-5v-22c0,-2.761 -2.239,-5 -5,-5z" fill="#14b88a" fill-rule="nonzero"></path><path d="M38,60h-10c-1.103,0 -2,-0.897 -2,-2v-8c0,-1.103 0.897,-2 2,-2h10c1.103,0 2,0.897 2,2v8c0,1.103 -0.897,2 -2,2zM28,50v8h10v-8zM38,46h-10c-1.103,0 -2,-0.897 -2,-2v-10c0,-3.309 2.691,-6 6,-6h6v-8h-10v4c0,1.103 -0.897,2 -2,2h-10c-1.103,0 -2,-0.897 -2,-2v-12c0,-3.309 2.691,-6 6,-6h28c3.309,0 6,2.691 6,6v22c0,3.309 -2.691,6 -6,6h-8v4c0,1.103 -0.897,2 -2,2zM32,30c-2.206,0 -4,1.794 -4,4v10h10.001l-0.001,-4c0,-1.103 0.897,-2 2,-2h8c2.206,0 4,-1.794 4,-4v-22c0,-2.206 -1.794,-4 -4,-4h-28c-2.206,0 -4,1.794 -4,4v12h10v-4c0,-1.103 0.897,-2 2,-2h10c1.103,0 2,0.897 2,2v8c0,1.103 -0.897,2 -2,2z" fill="#1b0f24" fill-rule="nonzero"></path><path d="M49,14h-2c-0.553,0 -1,-0.448 -1,-1c0,-0.552 0.447,-1 1,-1h2c0.553,0 1,0.448 1,1c0,0.552 -0.447,1 -1,1zM49,19h-2c-0.553,0 -1,-0.448 -1,-1c0,-0.552 0.447,-1 1,-1h2c0.553,0 1,0.448 1,1c0,0.552 -0.447,1 -1,1zM49,24h-2c-0.553,0 -1,-0.448 -1,-1c0,-0.552 0.447,-1 1,-1h2c0.553,0 1,0.448 1,1c0,0.552 -0.447,1 -1,1zM49,29h-2c-0.553,0 -1,-0.448 -1,-1c0,-0.552 0.447,-1 1,-1h2c0.553,0 1,0.448 1,1c0,0.552 -0.447,1 -1,1zM49,34h-2c-0.553,0 -1,-0.448 -1,-1c0,-0.552 0.447,-1 1,-1h2c0.553,0 1,0.448 1,1c0,0.552 -0.447,1 -1,1z" fill="#1b0f24" fill-rule="nonzero" opacity="0.98"></path></g></g></svg>