<svg xmlns="http://www.w3.org/2000/svg" xmlns:xlink="http://www.w3.org/1999/xlink" viewBox="0,0,256,256" width="64px" height="64px" fill-rule="nonzero"><g fill="none" fill-rule="nonzero" stroke="none" stroke-width="1" stroke-linecap="butt" stroke-linejoin="miter" stroke-miterlimit="10" stroke-dasharray="" stroke-dashoffset="0" font-family="none" font-weight="none" font-size="none" text-anchor="none" style="mix-blend-mode: normal"><g transform="scale(4,4)"><path d="M56,57h-48c-0.552,0 -1,-0.448 -1,-1v-48c0,-0.552 0.448,-1 1,-1h48c0.552,0 1,0.448 1,1v48c0,0.552 -0.448,1 -1,1z" fill="#e8d6ee"></path><path d="M13.938,56.998l-5.741,0.198l49.139,-49.139l-0.336,23.943l-24.917,24.917zM7,48l41.063,-41.063l5.75,0.25l-46.813,46.813zM7.5,41.5l34.5,-34.5h3l-38,38z" fill="#f1e6f4"></path><path d="M22,25h-8c-0.552,0 -1,-0.448 -1,-1v-8c0,-0.552 0.448,-1 1,-1h8c0.552,0 1,0.448 1,1v8c0,0.552 -0.448,1 -1,1zM22,43h-8c-0.552,0 -1,-0.448 -1,-1v-8c0,-0.552 0.448,-1 1,-1h8c0.552,0 1,0.448 1,1v8c0,0.552 -0.448,1 -1,1z" fill="#73e9c7"></path><path d="M56,52h-48c-0.552,0 -1,0.448 -1,1v3c0,0.552 0.448,1 1,1h48c0.552,0 1,-0.448 1,-1v-3c0,-0.552 -0.448,-1 -1,-1z" fill="#dbbee4"></path><path d="M56,58h-48c-1.103,0 -2,-0.897 -2,-2v-48c0,-1.103 0.897,-2 2,-2h48c1.103,0 2,0.897 2,2v48c0,1.103 -0.897,2 -2,2zM8,8v48h48.001l-0.001,-48z" fill="#30223a"></path><path d="M12,54c-0.552,0 -1,-0.448 -1,-1v-2c0,-0.552 0.448,-1 1,-1c0.552,0 1,0.448 1,1v2c0,0.552 -0.448,1 -1,1zM17,54c-0.552,0 -1,-0.448 -1,-1v-2c0,-0.552 0.448,-1 1,-1c0.552,0 1,0.448 1,1v2c0,0.552 -0.448,1 -1,1zM22,54c-0.552,0 -1,-0.448 -1,-1v-2c0,-0.552 0.448,-1 1,-1c0.552,0 1,0.448 1,1v2c0,0.552 -0.448,1 -1,1zM27,54c-0.552,0 -1,-0.448 -1,-1v-2c0,-0.552 0.448,-1 1,-1c0.552,0 1,0.448 1,1v2c0,0.552 -0.448,1 -1,1zM32,54c-0.552,0 -1,-0.448 -1,-1v-2c0,-0.552 0.448,-1 1,-1c0.552,0 1,0.448 1,1v2c0,0.552 -0.448,1 -1,1zM37,54c-0.552,0 -1,-0.448 -1,-1v-2c0,-0.552 0.448,-1 1,-1c0.552,0 1,0.448 1,1v2c0,0.552 -0.448,1 -1,1zM42,54c-0.552,0 -1,-0.448 -1,-1v-2c0,-0.552 0.448,-1 1,-1c0.552,0 1,0.448 1,1v2c0,0.552 -0.448,1 -1,1zM47,54c-0.552,0 -1,-0.448 -1,-1v-2c0,-0.552 0.448,-1 1,-1c0.552,0 1,0.448 1,1v2c0,0.552 -0.448,1 -1,1zM52,54c-0.552,0 -1,-0.448 -1,-1v-2c0,-0.552 0.448,-1 1,-1c0.552,0 1,0.448 1,1v2c0,0.552 -0.448,1 -1,1zM51,18h-22c-0.552,0 -1,-0.448 -1,-1c0,-0.552 0.448,-1 1,-1h22c0.552,0 1,0.448 1,1c0,0.552 -0.448,1 -1,1z" fill="#30223a"></path><g fill="#30223a"><path d="M45,22h-16c-0.552,0 -1,-0.448 -1,-1c0,-0.552 0.448,-1 1,-1h16c0.552,0 1,0.448 1,1c0,0.552 -0.448,1 -1,1z"></path></g><g fill="#30223a"><path d="M39,36h-10c-0.552,0 -1,-0.448 -1,-1c0,-0.552 0.448,-1 1,-1h10c0.552,0 1,0.448 1,1c0,0.552 -0.448,1 -1,1z"></path></g><g fill="#30223a"><path d="M51,36h-8c-0.552,0 -1,-0.448 -1,-1c0,-0.552 0.448,-1 1,-1h8c0.552,0 1,0.448 1,1c0,0.552 -0.448,1 -1,1z"></path></g><g fill="#30223a"><path d="M37,40h-8c-0.552,0 -1,-0.448 -1,-1c0,-0.552 0.448,-1 1,-1h8c0.552,0 1,0.448 1,1c0,0.552 -0.448,1 -1,1z"></path></g><g fill="#30223a"><path d="M22,44h-8c-1.103,0 -2,-0.897 -2,-2v-8c0,-1.103 0.897,-2 2,-2h6c0.552,0 1,0.448 1,1c0,0.552 -0.448,1 -1,1h-6v8h8v-2.917c0,-0.552 0.448,-1 1,-1c0.552,0 1,0.448 1,1v2.917c0,1.103 -0.897,2 -2,2z"></path></g><g fill="#14b88a"><path d="M18,41c-0.256,0 -0.512,-0.098 -0.707,-0.293l-2,-2c-0.391,-0.391 -0.391,-1.023 0,-1.414c0.391,-0.391 1.023,-0.391 1.414,0l1.293,1.293l5.793,-5.793c0.391,-0.391 1.023,-0.391 1.414,0c0.391,0.391 0.391,1.023 0,1.414l-6.5,6.5c-0.195,0.195 -0.451,0.293 -0.707,0.293z"></path></g><g fill="#30223a"><path d="M22,26h-8c-1.103,0 -2,-0.897 -2,-2v-8c0,-1.103 0.897,-2 2,-2h6c0.552,0 1,0.448 1,1c0,0.552 -0.448,1 -1,1h-6v8h8v-2.917c0,-0.552 0.448,-1 1,-1c0.552,0 1,0.448 1,1v2.917c0,1.103 -0.897,2 -2,2z"></path></g><g fill="#14b88a"><path d="M18,23c-0.256,0 -0.512,-0.098 -0.707,-0.293l-2,-2c-0.391,-0.391 -0.391,-1.023 0,-1.414c0.391,-0.391 1.023,-0.391 1.414,0l1.293,1.293l5.793,-5.793c0.391,-0.391 1.023,-0.391 1.414,0c0.391,0.391 0.391,1.023 0,1.414l-6.5,6.5c-0.195,0.195 -0.451,0.293 -0.707,0.293z"></path></g></g></g></svg>