<svg xmlns="http://www.w3.org/2000/svg" xmlns:xlink="http://www.w3.org/1999/xlink" viewBox="0,0,256,256" width="64px" height="64px" fill-rule="nonzero"><g fill="none" fill-rule="nonzero" stroke="none" stroke-width="1" stroke-linecap="butt" stroke-linejoin="miter" stroke-miterlimit="10" stroke-dasharray="" stroke-dashoffset="0" font-family="none" font-weight="none" font-size="none" text-anchor="none" style="mix-blend-mode: normal"><g transform="scale(4,4)"><path d="M1.42,26c-1.93,-11.7 6.75,-22.79 18.58,-23.07c11,-0.26 19,6.78 19.3,17.62c0.00569,0.32287 0.05962,0.64308 0.16,0.95l4.13,10.31c0.08046,0.22134 0.06187,0.46659 -0.05104,0.67327c-0.11291,0.20668 -0.30923,0.35484 -0.53896,0.40673l-3.3,1.19c-0.40491,0.12707 -0.68552,0.49587 -0.7,0.92v10.23c-0.00005,0.93255 -0.39706,1.821 -1.09174,2.44315c-0.69468,0.62216 -1.62134,0.9192 -2.54826,0.81685l-6.52,-0.85l0.67,9.21c0.04181,0.55591 -0.15029,1.10404 -0.52999,1.51222c-0.3797,0.40818 -0.91253,0.63935 -1.47001,0.63778h-22c-0.5728,0.0038 -1.11973,-0.23818 -1.50218,-0.66461c-0.38245,-0.42643 -0.5637,-0.99638 -0.49782,-1.56539l2.1,-17.93c0.13314,-1.18912 -0.07133,-2.3917 -0.59,-3.47c-1.69,-3.53 -2.94,-5.37 -3.6,-9.37z" fill="#e8d6ee"></path><path d="M35.45,14l-0.19,0.15c-0.63065,0.50299 -1.44077,0.72373 -2.23941,0.61017c-0.79864,-0.11355 -1.51513,-0.55134 -1.98059,-1.21017c-2.19,-2.94 -5.84,-4.64 -10.42,-4.64h-0.44c-3.80553,0.09096 -7.37999,1.84529 -9.78,4.8l-0.31,0.39c-0.48382,0.62779 -1.20424,1.02932 -1.99265,1.11062c-0.78841,0.0813 -1.57561,-0.16477 -2.17735,-0.68062l-0.16,-0.14c-1.19205,-1.00388 -1.37754,-2.77041 -0.42,-4c3.50447,-4.6001 8.90878,-7.35928 14.69,-7.5c6.85,-0.12 12.55,2.55 15.97,7.2c0.87437,1.24494 0.63388,2.95458 -0.55,3.91z" fill="#f5edf8"></path><path d="M40.46,21.19c-0.0698,-0.21318 -0.10689,-0.43571 -0.11,-0.66c-0.27,-11.22 -8.6,-18.88 -20.35,-18.6c-5.82689,0.15948 -11.29856,2.83695 -15,7.34c-3.89849,4.71354 -5.56193,10.88577 -4.56,16.92v0c0.46481,2.74825 1.41279,5.39244 2.8,7.81c0.29,0.57 0.6,1.17 0.92,1.83c0.43478,0.90786 0.60462,1.91995 0.49,2.92l-2.09,17.9c-0.10038,0.85432 0.1708,1.71063 0.74465,2.35143c0.57385,0.6408 1.39517,1.00445 2.25535,0.99857h22c0.83528,0.00225 1.63367,-0.34384 2.20306,-0.95498c0.56938,-0.61114 0.8582,-1.43199 0.79694,-2.26502l-0.58,-8l5.32,0.69c1.19902,0.11824 2.39235,-0.27436 3.28695,-1.0814c0.8946,-0.80704 1.40761,-1.95377 1.41305,-3.1586v-10.23l3.16,-1.16c0.49159,-0.09387 0.92238,-0.38709 1.19,-0.81c0.3024,-0.48157 0.36516,-1.0759 0.17,-1.61zM39.35,33.19c-0.78012,0.26732 -1.31619,0.98605 -1.35,1.81v10.23c0.00046,0.645 -0.27229,1.26001 -0.75067,1.69265c-0.47838,0.43264 -1.11762,0.64241 -1.75933,0.57735l-2.84,-0.37c-0.05184,-0.02112 -0.10536,-0.03784 -0.16,-0.05l-6.49,-0.85c-0.55228,-0.0718 -1.0582,0.31772 -1.13,0.87c-0.0718,0.55228 0.31772,1.0582 0.87,1.13l2.19,0.28l0.62,8.43c0.01945,0.27712 -0.07726,0.54984 -0.26695,0.75281c-0.18969,0.20296 -0.45525,0.31787 -0.73305,0.31719h-22c-0.28738,0.00208 -0.56176,-0.11959 -0.75317,-0.33396c-0.1914,-0.21437 -0.28133,-0.50073 -0.24683,-0.78604l2.1,-17.94c0.15204,-1.37069 -0.08355,-2.75655 -0.68,-4c-0.33,-0.67 -0.64,-1.28 -0.93,-1.86c-1.29419,-2.22885 -2.18136,-4.67025 -2.62,-7.21v0c-0.90918,-5.47172 0.60134,-11.06867 4.14,-15.34c3.3143,-4.08018 8.25455,-6.49728 13.51,-6.61c10.52,-0.25 18,6.6 18.28,16.65c0.00865,0.44265 0.08625,0.88125 0.23,1.3l4,10.07z" fill="#1b0f24"></path><path d="M21,7.31c-0.55228,0 -1,0.44772 -1,1v2.3c0,0.55228 0.44772,1 1,1c0.55228,0 1,-0.44772 1,-1v-2.3c0,-0.55228 -0.44772,-1 -1,-1zM26.25,8.18c-0.25997,-0.05632 -0.53166,-0.00674 -0.75498,0.13776c-0.22332,0.1445 -0.37987,0.37203 -0.43502,0.63224l-0.47,2.22c-0.05632,0.25997 -0.00674,0.53166 0.13776,0.75498c0.1445,0.22332 0.37203,0.37987 0.63224,0.43502h0.21c0.47969,0.01067 0.89936,-0.32086 1,-0.79l0.43,-2.21c0.1122,-0.53179 -0.22088,-1.05583 -0.75,-1.18zM12.16,11.21c-0.2292,-0.50258 -0.82242,-0.7242 -1.325,-0.495c-0.50258,0.2292 -0.7242,0.82242 -0.495,1.325l0.91,2c0.2292,0.50258 0.82242,0.7242 1.325,0.495c0.50258,-0.2292 0.7242,-0.82242 0.495,-1.325zM31.17,10.71c-0.2425,-0.11137 -0.51946,-0.1212 -0.76925,-0.02729c-0.24979,0.0939 -0.45168,0.28375 -0.56075,0.52729l-0.91,2c-0.2292,0.50258 -0.00758,1.0958 0.495,1.325c0.50258,0.2292 1.0958,0.00758 1.325,-0.495l0.91,-2c0.11201,-0.24126 0.12329,-0.51721 0.03133,-0.76681c-0.09196,-0.2496 -0.27956,-0.45227 -0.52133,-0.56319zM16.93,8.95c-0.11322,-0.55228 -0.65272,-0.90822 -1.205,-0.795c-0.55228,0.11322 -0.90822,0.65272 -0.795,1.205l0.47,2.22c0.10064,0.46914 0.52031,0.80067 1,0.79h0.21c0.26022,-0.05515 0.48774,-0.2117 0.63224,-0.43502c0.1445,-0.22332 0.19408,-0.49501 0.13776,-0.75498zM55,34c-0.55228,0 -1,0.44772 -1,1v12c0,0.55228 0.44772,1 1,1c0.55228,0 1,-0.44772 1,-1v-12c0,-0.55228 -0.44772,-1 -1,-1zM59,32c-0.55228,0 -1,0.44772 -1,1v16c0,0.55228 0.44772,1 1,1c0.55228,0 1,-0.44772 1,-1v-16c0,-0.55228 -0.44772,-1 -1,-1zM51,29c-0.55228,0 -1,0.44772 -1,1v22c0,0.55228 0.44772,1 1,1c0.55228,0 1,-0.44772 1,-1v-22c0,-0.55228 -0.44772,-1 -1,-1zM43,38c-0.55228,0 -1,0.44772 -1,1v4c0,0.55228 0.44772,1 1,1c0.55228,0 1,-0.44772 1,-1v-4c0,-0.55228 -0.44772,-1 -1,-1zM47,36c-0.55228,0 -1,0.44772 -1,1v8c0,0.55228 0.44772,1 1,1c0.55228,0 1,-0.44772 1,-1v-8c0,-0.55228 -0.44772,-1 -1,-1zM63,38c-0.55228,0 -1,0.44772 -1,1v4c0,0.55228 0.44772,1 1,1c0.55228,0 1,-0.44772 1,-1v-4c0,-0.55228 -0.44772,-1 -1,-1z" fill="#1b0f24"></path></g></g></svg>