<svg xmlns="http://www.w3.org/2000/svg" xmlns:xlink="http://www.w3.org/1999/xlink" viewBox="0,0,256,256" width="128px" height="128px"><g fill="none" fill-rule="nonzero" stroke="none" stroke-width="1" stroke-linecap="butt" stroke-linejoin="miter" stroke-miterlimit="10" stroke-dasharray="" stroke-dashoffset="0" font-family="none" font-weight="none" font-size="none" text-anchor="none" style="mix-blend-mode: normal"><g transform="scale(4,4)"><path d="M55,47.96v-1.84c-4.75,7.72 -13.27,12.88 -23,12.88c-13.9,0 -25.34,-10.5 -26.83,-24h6.07c1.46,10.17 10.18,18 20.76,18c7.56,0 14.17,-4.01 17.86,-10h-4.86v-6h14.55c-0.72,4.02 -2.3,7.73 -4.55,10.96zM58.83,29h-6.07c-1.46,-10.17 -10.18,-18 -20.76,-18c-7.56,0 -14.17,4.01 -17.86,10h4.86v6h-14.55c0.72,-4.02 2.3,-7.73 4.55,-10.96v1.84c4.75,-7.72 13.27,-12.88 23,-12.88c13.9,0 25.34,10.5 26.83,24z" fill="#c86bfa"></path><path d="M9,11v6.883c4.749,-7.725 13.266,-12.883 23,-12.883c13.897,0 25.337,10.501 26.83,24h-6.069c-1.459,-10.173 -10.184,-18 -20.761,-18c-7.56,0 -14.169,4.005 -17.865,10h4.865v6h-16v-16zM11.239,35c1.459,10.173 10.184,18 20.761,18c7.56,0 14.169,-4.005 17.865,-10h-4.865v-6h16v16h-6v-6.883c-4.749,7.725 -13.266,12.883 -23,12.883c-13.897,0 -25.337,-10.501 -26.83,-24z" fill="#c86bfa"></path><path d="M9,11l1,5.04c-2.25,3.23 -3.83,6.94 -4.55,10.96h-2.45v-16z" fill="#d184fb"></path><path d="M61,37v16h-6l-1,-5.04c2.25,-3.23 3.83,-6.94 4.55,-10.96z" fill="#b05edc"></path><path d="M20,27v-6c0,-0.552 -0.447,-1 -1,-1h-2.978c3.771,-5.041 9.618,-8 15.978,-8c9.87,0 18.37,7.37 19.771,17.142c0.072,0.492 0.494,0.858 0.991,0.858h6.068c0.284,0 0.556,-0.121 0.745,-0.333c0.189,-0.212 0.28,-0.494 0.249,-0.777c-1.569,-14.19 -13.531,-24.89 -27.824,-24.89c-8.704,0 -16.715,3.945 -22,10.695v-3.695c0,-0.552 -0.447,-1 -1,-1h-6c-0.553,0 -1,0.448 -1,1v16c0,0.552 0.447,1 1,1h16c0.553,0 1,-0.448 1,-1zM18,26h-14v-14h4v5.883c0,0.447 0.297,0.84 0.728,0.962c0.432,0.121 0.891,-0.057 1.124,-0.438c4.776,-7.769 13.055,-12.407 22.148,-12.407c12.896,0 23.749,9.381 25.689,22h-4.078c-1.903,-10.321 -11.044,-18 -21.611,-18c-7.676,0 -14.672,3.916 -18.717,10.475c-0.189,0.309 -0.198,0.696 -0.021,1.012c0.177,0.316 0.51,0.513 0.873,0.513h3.865zM61,36h-16c-0.553,0 -1,0.448 -1,1v6c0,0.552 0.447,1 1,1h2.978c-3.771,5.041 -9.618,8 -15.978,8c-9.87,0 -18.37,-7.37 -19.771,-17.142c-0.072,-0.492 -0.494,-0.858 -0.991,-0.858h-6.068c-0.284,0 -0.556,0.121 -0.745,0.333c-0.189,0.212 -0.28,0.494 -0.249,0.777c1.569,14.19 13.531,24.89 27.824,24.89c8.704,0 16.715,-3.945 22,-10.695v3.695c0,0.552 0.447,1 1,1h6c0.553,0 1,-0.448 1,-1v-16c0,-0.552 -0.447,-1 -1,-1zM60,52h-4v-5.883c0,-0.447 -0.297,-0.84 -0.728,-0.962c-0.431,-0.121 -0.891,0.057 -1.124,0.438c-4.776,7.769 -13.055,12.407 -22.148,12.407c-12.896,0 -23.749,-9.381 -25.689,-22h4.078c1.903,10.321 11.044,18 21.611,18c7.676,0 14.672,-3.916 18.717,-10.475c0.189,-0.309 0.198,-0.696 0.021,-1.012c-0.177,-0.316 -0.51,-0.513 -0.873,-0.513h-3.865v-4h14z" fill="#1b0f24"></path><path d="M30.844,46v2.312c0,0.552 0.447,1 1,1c0.553,0 1,-0.448 1,-1v-2.312c0,-0.552 -0.447,-1 -1,-1c-0.553,0 -1,0.448 -1,1zM20.419,44.581c0.256,0 0.512,-0.098 0.707,-0.293l1.636,-1.635c0.391,-0.39 0.391,-1.023 0,-1.414c-0.391,-0.391 -1.023,-0.391 -1.414,0l-1.636,1.635c-0.391,0.39 -0.391,1.023 0,1.414c0.195,0.195 0.451,0.293 0.707,0.293zM25.73,44.618l-0.866,2.144c-0.207,0.512 0.04,1.095 0.552,1.302c0.123,0.049 0.25,0.073 0.375,0.073c0.396,0 0.77,-0.237 0.927,-0.626l0.866,-2.144c0.207,-0.512 -0.04,-1.095 -0.552,-1.302c-0.511,-0.206 -1.095,0.041 -1.302,0.553zM20.021,37.175c-0.217,-0.509 -0.808,-0.745 -1.312,-0.53l-2.129,0.904c-0.509,0.216 -0.746,0.803 -0.53,1.311c0.162,0.381 0.532,0.61 0.921,0.61c0.131,0 0.264,-0.026 0.391,-0.08l2.129,-0.904c0.509,-0.216 0.746,-0.803 0.53,-1.311zM37.235,47.419c0.162,0.381 0.532,0.61 0.921,0.61c0.131,0 0.264,-0.026 0.391,-0.08c0.509,-0.216 0.746,-0.803 0.53,-1.311l-0.843,-1.985c-0.217,-0.509 -0.808,-0.746 -1.312,-0.53c-0.509,0.216 -0.746,0.803 -0.53,1.311zM42.098,20.589c0.29,0 0.578,-0.125 0.775,-0.368c0.35,-0.428 0.286,-1.058 -0.143,-1.407c-0.951,-0.776 -1.99,-1.45 -3.09,-2.005c-0.494,-0.25 -1.095,-0.05 -1.343,0.443c-0.249,0.493 -0.051,1.094 0.442,1.343c0.97,0.489 1.888,1.084 2.727,1.769c0.186,0.152 0.41,0.225 0.632,0.225zM36.896,16.73c0.135,-0.536 -0.189,-1.079 -0.726,-1.214c-4.123,-1.04 -8.667,-0.462 -12.399,1.605c-0.483,0.268 -0.658,0.876 -0.391,1.359c0.183,0.329 0.524,0.515 0.876,0.515c0.164,0 0.33,-0.04 0.483,-0.125c3.293,-1.823 7.301,-2.332 10.942,-1.415c0.535,0.133 1.08,-0.19 1.215,-0.725z" fill="#1b0f24"></path></g></g></svg>