<?xml version="1.0"?><svg xmlns="http://www.w3.org/2000/svg"  viewBox="0 0 64 64" width="128px" height="128px" style="fill: currentColor;">    <path d="M 33.585938 1.5859375 C 33.073937 1.5859375 32.561875 1.780875 32.171875 2.171875 L 22.757812 11.585938 C 22.382812 11.960938 22.171875 12.47 22.171875 13 C 22.171875 13.53 22.382813 14.039063 22.757812 14.414062 L 32.171875 23.828125 C 32.562875 24.218125 33.073937 24.414062 33.585938 24.414062 C 34.097938 24.414062 34.61 24.219125 35 23.828125 L 37.828125 21 C 38.609125 20.219 38.609125 18.952875 37.828125 18.171875 L 36.136719 16.480469 C 44.074719 18.353469 50 25.498 50 34 C 50 43.925 41.925 52 32 52 C 22.075 52 14 43.925 14 34 C 14 29.643 15.594234 25.430719 18.490234 22.136719 C 19.186234 21.344719 19.148344 20.146391 18.402344 19.400391 L 15.556641 16.556641 C 15.180641 16.180641 14.671578 15.970703 14.142578 15.970703 C 14.124578 15.970703 14.105891 15.969703 14.087891 15.970703 C 13.538891 15.985703 13.021297 16.225766 12.654297 16.634766 C 8.3632969 21.411766 6 27.578 6 34 C 6 48.336 17.664 60 32 60 C 46.336 60 58 48.336 58 34 C 58 21.361 49.131484 10.882766 37.146484 8.5097656 L 37.828125 7.828125 C 38.609125 7.047125 38.609125 5.781 37.828125 5 L 35 2.171875 C 34.61 1.780875 34.097938 1.5859375 33.585938 1.5859375 z M 33.585938 3.5859375 L 36.414062 6.4140625 L 32.808594 10.019531 C 45.688594 10.446531 56 21.016 56 34 C 56 47.255 45.255 58 32 58 C 18.745 58 8 47.255 8 34 C 8 27.838 10.325578 22.220703 14.142578 17.970703 L 16.988281 20.814453 C 13.892281 24.336453 12 28.943 12 34 C 12 45.046 20.954 54 32 54 C 43.046 54 52 45.046 52 34 C 52 22.954 43.046 14 32 14 C 31.623 14 31.253812 14.031687 30.882812 14.054688 L 36.414062 19.585938 L 33.585938 22.414062 L 24.171875 13 L 33.585938 3.5859375 z M 40.792969 22.189453 C 40.538469 22.214328 40.293188 22.335828 40.117188 22.548828 C 39.766188 22.974828 39.826906 23.604078 40.253906 23.955078 C 43.269906 26.437078 45 30.099 45 34 C 45 34.552 45.448 35 46 35 C 46.552 35 47 34.552 47 34 C 47 29.499 45.003437 25.275109 41.523438 22.412109 C 41.310437 22.236609 41.047469 22.164578 40.792969 22.189453 z M 19.619141 36.513672 C 19.490391 36.497078 19.357359 36.505719 19.224609 36.542969 L 17.298828 37.080078 C 16.766828 37.229078 16.454516 37.7805 16.603516 38.3125 C 16.726516 38.7535 17.128406 39.044922 17.566406 39.044922 C 17.655406 39.044922 17.745938 39.032812 17.835938 39.007812 L 19.761719 38.46875 C 20.293719 38.31975 20.604078 37.768328 20.455078 37.236328 C 20.343328 36.838078 20.005391 36.563453 19.619141 36.513672 z M 45.359375 36.773438 C 44.972375 36.8235 44.633688 37.099797 44.523438 37.498047 C 44.232437 38.545047 43.806766 39.555953 43.259766 40.501953 C 42.982766 40.979953 43.147 41.591187 43.625 41.867188 C 43.783 41.958188 43.955 42.001953 44.125 42.001953 C 44.47 42.001953 44.806188 41.823906 44.992188 41.503906 C 45.623188 40.411906 46.114172 39.244156 46.451172 38.035156 C 46.599172 37.503156 46.287859 36.950734 45.755859 36.802734 C 45.622609 36.765484 45.488375 36.75675 45.359375 36.773438 z M 21.556641 40.503906 C 21.304516 40.460656 21.036547 40.514328 20.810547 40.673828 L 19.177734 41.828125 C 18.726734 42.147125 18.6185 42.771656 18.9375 43.222656 C 19.1315 43.498656 19.441859 43.644531 19.755859 43.644531 C 19.954859 43.644531 20.156031 43.584938 20.332031 43.460938 L 21.964844 42.306641 C 22.415844 41.987641 22.522125 41.363109 22.203125 40.912109 C 22.043625 40.686609 21.808766 40.547156 21.556641 40.503906 z M 24.339844 43.626953 C 24.087594 43.670203 23.852859 43.809156 23.693359 44.035156 L 22.539062 45.667969 C 22.220063 46.118969 22.326344 46.7435 22.777344 47.0625 C 22.952344 47.1865 23.153516 47.246094 23.353516 47.246094 C 23.667516 47.246094 23.976875 47.098266 24.171875 46.822266 L 25.326172 45.189453 C 25.645172 44.738453 25.538891 44.115875 25.087891 43.796875 C 24.862391 43.636875 24.592094 43.583703 24.339844 43.626953 z M 28.367188 45.513672 C 27.980797 45.562937 27.643 45.839281 27.53125 46.238281 L 26.992188 48.164062 C 26.843187 48.696062 27.1555 49.248484 27.6875 49.396484 C 27.7775 49.422484 27.868031 49.433594 27.957031 49.433594 C 28.394031 49.433594 28.795922 49.144172 28.919922 48.701172 L 29.457031 46.775391 C 29.606031 46.243391 29.295672 45.692922 28.763672 45.544922 C 28.630672 45.507172 28.495984 45.49725 28.367188 45.513672 z"/></svg>