<svg xmlns="http://www.w3.org/2000/svg" xmlns:xlink="http://www.w3.org/1999/xlink" viewBox="0,0,256,256" width="64px" height="64px" fill-rule="nonzero"><g fill="none" fill-rule="nonzero" stroke="none" stroke-width="1" stroke-linecap="butt" stroke-linejoin="miter" stroke-miterlimit="10" stroke-dasharray="" stroke-dashoffset="0" font-family="none" font-weight="none" font-size="none" text-anchor="none" style="mix-blend-mode: normal"><g transform="scale(4,4)"><path d="M5,8h-2c-1.105,0 -2,0.895 -2,2v40c0,1.105 0.895,2 2,2h21.22c1.046,0 1.958,0.712 2.212,1.727v0.001c0.334,1.335 1.534,2.272 2.91,2.272h3.315c1.377,0 2.577,-0.937 2.91,-2.272v-0.001c0.255,-1.015 1.167,-1.727 2.213,-1.727h21.22c1.105,0 2,-0.895 2,-2v-40c0,-1.105 -0.895,-2 -2,-2h-2z" fill="#c86bfa"></path><path d="M31,52v0c0,-2.209 -1.791,-4 -4,-4h-20c-1.105,0 -2,-0.895 -2,-2v-38c0,-1.105 0.895,-2 2,-2h20c2.209,0 4,1.791 4,4v2.833zM31,36v-26c0,-2.209 1.791,-4 4,-4h20c1.105,0 2,0.895 2,2v38c0,1.105 -0.895,2 -2,2h-20c-2.209,0 -4,1.791 -4,4v0z" fill="#e8d6ee"></path><path d="M37,6h-2c-2.209,0 -4,1.791 -4,4v41l2.333,-3h3.667z" fill="#dbbee4"></path><path d="M5,6h5v42h-5z" fill="#f1e6f4"></path><path d="M59,7h-1.184c-0.414,-1.161 -1.514,-2 -2.816,-2h-20c-1.641,0 -3.088,0.806 -4,2.031c-0.912,-1.225 -2.359,-2.031 -4,-2.031h-20c-1.302,0 -2.402,0.839 -2.816,2h-1.184c-1.654,0 -3,1.346 -3,3v40c0,1.654 1.346,3 3,3h21.22c0.589,0 1.1,0.398 1.242,0.97c0.445,1.784 2.041,3.03 3.88,3.03h3.315c1.839,0 3.435,-1.246 3.881,-3.031c0.143,-0.571 0.653,-0.969 1.242,-0.969h21.22c1.654,0 3,-1.346 3,-3v-40c0,-1.654 -1.346,-3 -3,-3zM7,7h20c1.654,0 3,1.346 3,3v2.833v23.167c0,0.553 0.448,1 1,1c0.552,0 1,-0.447 1,-1v-23.167v-2.833c0,-1.654 1.346,-3 3,-3h20c0.551,0 1,0.448 1,1v38c0,0.552 -0.449,1 -1,1h-20c-1.641,0 -3.088,0.806 -4,2.031c-0.912,-1.225 -2.359,-2.031 -4,-2.031h-20c-0.551,0 -1,-0.448 -1,-1v-38c0,-0.552 0.449,-1 1,-1zM60,50c0,0.552 -0.449,1 -1,1h-21.22c-1.508,0 -2.817,1.021 -3.183,2.485c-0.222,0.892 -1.02,1.515 -1.939,1.515h-3.315c-0.919,0 -1.717,-0.623 -1.94,-1.516c-0.366,-1.463 -1.675,-2.484 -3.183,-2.484h-21.22c-0.551,0 -1,-0.448 -1,-1v-40c0,-0.552 0.449,-1 1,-1h1v37c0,1.654 1.346,3 3,3h20c1.654,0 3,1.346 3,3c0,0.553 0.448,1 1,1c0.552,0 1,-0.447 1,-1c0,-1.654 1.346,-3 3,-3h20c1.654,0 3,-1.346 3,-3v-37h1c0.551,0 1,0.448 1,1z" fill="#30223a"></path><path d="M31,45c0.552,0 1,-0.447 1,-1v-4c0,-0.553 -0.448,-1 -1,-1c-0.552,0 -1,0.447 -1,1v4c0,0.553 0.448,1 1,1zM10,15c0.552,0 1,-0.447 1,-1v-2c0,-0.553 -0.448,-1 -1,-1c-0.552,0 -1,0.447 -1,1v2c0,0.553 0.448,1 1,1zM15,15c0.552,0 1,-0.447 1,-1v-2c0,-0.553 -0.448,-1 -1,-1c-0.552,0 -1,0.447 -1,1v2c0,0.553 0.448,1 1,1zM20,15c0.552,0 1,-0.447 1,-1v-2c0,-0.553 -0.448,-1 -1,-1c-0.552,0 -1,0.447 -1,1v2c0,0.553 0.448,1 1,1zM25,15c0.552,0 1,-0.447 1,-1v-2c0,-0.553 -0.448,-1 -1,-1c-0.552,0 -1,0.447 -1,1v2c0,0.553 0.448,1 1,1zM37,15c0.552,0 1,-0.447 1,-1v-2c0,-0.553 -0.448,-1 -1,-1c-0.552,0 -1,0.447 -1,1v2c0,0.553 0.448,1 1,1zM42,15c0.552,0 1,-0.447 1,-1v-2c0,-0.553 -0.448,-1 -1,-1c-0.552,0 -1,0.447 -1,1v2c0,0.553 0.448,1 1,1zM47,15c0.552,0 1,-0.447 1,-1v-2c0,-0.553 -0.448,-1 -1,-1c-0.552,0 -1,0.447 -1,1v2c0,0.553 0.448,1 1,1zM52,15c0.552,0 1,-0.447 1,-1v-2c0,-0.553 -0.448,-1 -1,-1c-0.552,0 -1,0.447 -1,1v2c0,0.553 0.448,1 1,1z" fill="#30223a"></path><path d="M43.126,41.813l0.01,-1.233c0.015,-1.751 1.445,-3.151 3.196,-3.129v0c1.551,0.021 2.866,1.16 3.108,2.694l0.297,1.766v0c0.012,-1.619 1.334,-2.914 2.953,-2.894c0.001,0 0.002,0 0.003,0l-0.207,-0.003c1.38,0.027 2.559,1.014 2.831,2.369l0.254,1.304l-0.04,0.461c0.01,-1.461 1.203,-2.631 2.664,-2.613c0.002,0 0.003,0 0.005,0v0c1.41,0.015 2.576,1.115 2.674,2.523l0.503,7.826c0.329,5.253 -3.661,9.755 -8.911,10.057c-0.22,0.013 -0.441,0.018 -0.661,0.015l-8.777,-0.116c-2.797,-0.042 -5.414,-1.411 -7.049,-3.689l-8.865,-12.439c-0.09,-0.126 -0.138,-0.277 -0.136,-0.432v0c0.014,-1.696 1.4,-3.052 3.095,-3.029c0.593,0.008 1.171,0.187 1.666,0.516l5.51,3.601l0.176,-18.248c0.015,-1.616 1.335,-2.908 2.951,-2.889v0c1.619,0.02 2.921,1.349 2.909,2.968c0,0.001 0,0.002 0,0.003l-0.099,12.928" fill="#bf9e99"></path><path d="M38.818,56.061l-0.042,3.988l-10.753,-14.65v0c0.009,-0.606 0.508,-1.09 1.114,-1.081c0.311,0.005 0.606,0.142 0.81,0.376l8.156,9.441c0.464,0.534 0.718,1.219 0.715,1.926z" fill="#ab8d89"></path><path d="M52.646,62.006c-0.172,0 -0.357,-0.002 -0.503,-0.004l-0.152,-0.002h-8.991c-2.928,-0.036 -5.694,-1.585 -7.603,-4.249l-8.203,-11.159c-0.021,-0.029 -1.2,-2.003 -1.194,-2.602c0.012,-1.08 0.426,-2.085 1.166,-2.832c0.742,-0.748 1.734,-1.158 2.799,-1.158c0.015,0 0.03,0 0.046,0c0.762,0.008 1.561,0.505 2.379,1.058l0.163,0.109l3.447,2.067v-16.234c0.026,-2.182 1.843,-4 3.975,-4c0.011,0 0.022,0 0.034,0c1.028,0.01 2.049,0.445 2.804,1.194c0.765,0.759 1.197,1.785 1.187,2.815v10.483c0.579,-0.316 1.257,-0.492 2,-0.492c1.499,0 2.658,0.678 3.353,1.913c0.686,-0.58 1.597,-0.913 2.647,-0.913c1.973,0 3.217,1.406 3.73,2.72c0.59,-0.408 1.345,-0.72 2.27,-0.72c2.664,0 4,2.564 4,4v6.971c0.35,6.06 -3.406,10.695 -8.94,11.027c-0.095,0.006 -0.249,0.008 -0.414,0.008zM52,60l0.168,0.002c0.242,0.004 0.612,0.011 0.774,0c4.385,-0.264 7.355,-4.024 7.06,-8.942c-0.002,-0.02 -0.002,-0.04 -0.002,-0.06v-7c0,-0.482 -0.602,-2 -2,-2c-1.342,0 -2.101,1.438 -2.108,1.453c-0.212,0.409 -0.677,0.621 -1.126,0.516c-0.449,-0.11 -0.766,-0.508 -0.766,-0.969v-1c0,-0.482 -0.602,-2 -2,-2c-1.787,0 -1.994,1.405 -2,2.01c-0.005,0.549 -0.452,0.99 -1,0.99c-0.001,0 -0.003,0 -0.005,0c-0.55,-0.003 -0.995,-0.449 -0.995,-1v-0.92c-0.351,-2.08 -1.546,-2.08 -2,-2.08c-1.183,0 -1.986,0.809 -2,2.012c-0.006,0.548 -0.453,0.988 -1,0.988c-0.002,0 -0.004,0 -0.006,0c-0.55,-0.003 -0.994,-0.45 -0.994,-1v-14c0.005,-0.504 -0.212,-1.005 -0.596,-1.387c-0.388,-0.385 -0.903,-0.608 -1.414,-0.613c-0.005,0 -0.01,0 -0.015,0c-1.023,0 -1.962,0.955 -1.975,2.012v17.988c0,0.36 -0.194,0.692 -0.507,0.87c-0.313,0.178 -0.698,0.173 -1.007,-0.013l-5.214,-3.142c-0.251,-0.17 -1.016,-0.687 -1.292,-0.717c-0.541,0.018 -1.025,0.196 -1.393,0.567c-0.335,0.339 -0.538,0.789 -0.579,1.282c0.178,0.396 0.714,1.417 0.831,1.605l8.178,11.123c1.542,2.15 3.725,3.395 5.997,3.423h8.986z" fill="#30223a"></path></g></g></svg>