<svg xmlns="http://www.w3.org/2000/svg"  viewBox="0 0 64 64" width="128px" height="128px"><path d="M 9 6 C 7.347656 6 6 7.347656 6 9 L 6 55 C 6 56.652344 7.347656 58 9 58 L 55 58 C 56.652344 58 58 56.652344 58 55 L 58 17.65625 C 58 16.320313 57.480469 15.066406 56.535156 14.121094 L 49.878906 7.464844 C 48.9375 6.519531 47.679688 6 46.34375 6 Z M 9 8 L 14 8 L 14 23 C 14 24.652344 15.347656 26 17 26 L 43 26 C 44.652344 26 46 24.652344 46 23 L 46 8 L 46.34375 8 C 47.148438 8 47.898438 8.3125 48.464844 8.878906 L 55.121094 15.535156 C 55.679688 16.09375 56 16.867188 56 17.65625 L 56 55 C 56 55.550781 55.550781 56 55 56 L 50 56 L 50 33 C 50 31.347656 48.652344 30 47 30 L 17 30 C 15.347656 30 14 31.347656 14 33 L 14 56 L 9 56 C 8.449219 56 8 55.550781 8 55 L 8 9 C 8 8.449219 8.449219 8 9 8 Z M 16 8 L 44 8 L 44 23 C 44 23.550781 43.550781 24 43 24 L 17 24 C 16.449219 24 16 23.550781 16 23 Z M 39 10 C 37.347656 10 36 11.347656 36 13 L 36 19 C 36 20.652344 37.347656 22 39 22 C 40.652344 22 42 20.652344 42 19 L 42 13 C 42 11.347656 40.652344 10 39 10 Z M 39 12 C 39.550781 12 40 12.449219 40 13 L 40 19 C 40 19.550781 39.550781 20 39 20 C 38.449219 20 38 19.550781 38 19 L 38 13 C 38 12.449219 38.449219 12 39 12 Z M 17 32 L 47 32 C 47.550781 32 48 32.449219 48 33 L 48 56 L 16 56 L 16 33 C 16 32.449219 16.449219 32 17 32 Z M 21 36 C 20.445313 36 20 36.445313 20 37 C 20 37.554688 20.445313 38 21 38 L 35 38 C 35.554688 38 36 37.554688 36 37 C 36 36.445313 35.554688 36 35 36 Z M 39 36 C 38.445313 36 38 36.445313 38 37 C 38 37.554688 38.445313 38 39 38 L 43 38 C 43.554688 38 44 37.554688 44 37 C 44 36.445313 43.554688 36 43 36 Z M 21 40 C 20.445313 40 20 40.445313 20 41 C 20 41.554688 20.445313 42 21 42 L 39 42 C 39.554688 42 40 41.554688 40 41 C 40 40.445313 39.554688 40 39 40 Z M 19 48 C 18.445313 48 18 48.445313 18 49 L 18 51 C 18 51.554688 18.445313 52 19 52 C 19.554688 52 20 51.554688 20 51 L 20 49 C 20 48.445313 19.554688 48 19 48 Z M 24 48 C 23.445313 48 23 48.445313 23 49 L 23 51 C 23 51.554688 23.445313 52 24 52 C 24.554688 52 25 51.554688 25 51 L 25 49 C 25 48.445313 24.554688 48 24 48 Z M 29 48 C 28.445313 48 28 48.445313 28 49 L 28 51 C 28 51.554688 28.445313 52 29 52 C 29.554688 52 30 51.554688 30 51 L 30 49 C 30 48.445313 29.554688 48 29 48 Z M 34 48 C 33.445313 48 33 48.445313 33 49 L 33 51 C 33 51.554688 33.445313 52 34 52 C 34.554688 52 35 51.554688 35 51 L 35 49 C 35 48.445313 34.554688 48 34 48 Z M 39 48 C 38.445313 48 38 48.445313 38 49 L 38 51 C 38 51.554688 38.445313 52 39 52 C 39.554688 52 40 51.554688 40 51 L 40 49 C 40 48.445313 39.554688 48 39 48 Z M 44 48 C 43.445313 48 43 48.445313 43 49 L 43 51 C 43 51.554688 43.445313 52 44 52 C 44.554688 52 45 51.554688 45 51 L 45 49 C 45 48.445313 44.554688 48 44 48 Z"/></svg>