<svg
  xmlns="http://www.w3.org/2000/svg"
  xmlns:xlink="http://www.w3.org/1999/xlink"
  viewBox="0,0,256,256"
  width="auto"
  height="auto"
  fill-rule="nonzero"
><g
    fill="none"
    fill-rule="nonzero"
    stroke="none"
    stroke-width="1"
    stroke-linecap="butt"
    stroke-linejoin="miter"
    stroke-miterlimit="10"
    stroke-dasharray=""
    stroke-dashoffset="0"
    font-family="none"
    font-weight="none"
    font-size="none"
    text-anchor="none"
    style="mix-blend-mode: normal"
  ><g transform="scale(4,4)"><path
        d="M58.8,26.83l-6.66,-1.67c-0.29878,-0.87315 -0.65626,-1.72509 -1.07,-2.55l3.54,-5.9c0.68225,-1.14133 0.5009,-2.60042 -0.44,-3.54l-3.33,-3.34c-0.93958,-0.9409 -2.39867,-1.12225 -3.54,-0.44l-5.9,3.54c-0.82801,-0.41163 -1.68337,-0.76579 -2.56,-1.06l-1.67,-6.67c-0.32113,-1.29108 -1.47958,-2.19805 -2.81,-2.2h-4.72c-1.33042,0.00195 -2.48887,0.90892 -2.81,2.2l-1.67,6.66c-0.87323,0.29855 -1.72519,0.65604 -2.55,1.07l-5.91,-3.54c-1.14133,-0.68225 -2.60042,-0.5009 -3.54,0.44l-3.33,3.33c-0.9409,0.93958 -1.12225,2.39867 -0.44,3.54l3.54,5.9c-0.4114,0.82812 -0.76556,1.68346 -1.06,2.56l-6.67,1.67c-1.29108,0.32113 -2.19805,1.47958 -2.2,2.81v4.71c0.00195,1.33042 0.90892,2.48887 2.2,2.81l6.66,1.67c0.29878,0.87315 0.65626,1.72509 1.07,2.55l-3.54,5.92c-0.68225,1.14133 -0.5009,2.60042 0.44,3.54l3.33,3.33c0.93958,0.9409 2.39867,1.12225 3.54,0.44l5.9,-3.54c0.82801,0.41163 1.68337,0.76579 2.56,1.06l1.67,6.67c0.32113,1.29108 1.47958,2.19805 2.81,2.2h4.71c1.33042,-0.00195 2.48887,-0.90892 2.81,-2.2l1.67,-6.66c0.87323,-0.29855 1.72519,-0.65604 2.55,-1.07l5.9,3.54c1.14054,0.68597 2.60209,0.50431 3.54,-0.44l3.33,-3.33c0.9409,-0.93958 1.12225,-2.39867 0.44,-3.54l-3.54,-5.9c0.4114,-0.82812 0.76556,-1.68346 1.06,-2.56l6.67,-1.67c1.29902,-0.31333 2.21578,-1.47373 2.22,-2.81v-4.72c-0.00195,-1.33042 -0.90892,-2.48887 -2.2,-2.81z"
        fill="#19e6ac"
      /><path
        d="M52.14,25.16c-0.29881,-0.87314 -0.65629,-1.72508 -1.07,-2.55l3.54,-5.9c0.68225,-1.14133 0.5009,-2.60042 -0.44,-3.54l-0.67,-0.67l-40.79,40.79c0.62,0.59 1.26,1.14 1.93,1.67c0.70627,0.14533 1.44136,0.02043 2.06,-0.35l5.9,-3.54c0.82801,0.41163 1.68337,0.76579 2.56,1.06l0.74,3l29.2,-29.23zM51.51,10.49l-0.51,-0.49h-4.72l-0.7,0.42l-35.16,35.16l-1,1.72c-0.29535,0.48366 -0.44145,1.0437 -0.42,1.61c0.54967,0.80329 1.14045,1.57765 1.77,2.32zM38.84,11.86l-0.74,-3l-29.2,29.24l3,0.74c0.11,0.31 0.23,0.63 0.36,0.94l27.52,-27.56c-0.31,-0.13 -0.63,-0.22 -0.94,-0.36z"
        fill="#73e9c7"
      /><path
        d="M32,19c-7.1797,0 -13,5.8203 -13,13c0,7.1797 5.8203,13 13,13c7.1797,0 13,-5.8203 13,-13c0,-7.1797 -5.8203,-13 -13,-13z"
        fill="#0f8a67"
      /><path
        d="M32,25c-3.86599,0 -7,3.13401 -7,7c0,3.86599 3.13401,7 7,7c3.86599,0 7,-3.13401 7,-7c0,-3.86599 -3.13401,-7 -7,-7z"
        fill="#6930c3"
      /><path
        d="M45,31h-2c-0.55228,0 -1,0.44772 -1,1c0,0.55228 0.44772,1 1,1h2c0.55228,0 1,-0.44772 1,-1c0,-0.55228 -0.44772,-1 -1,-1zM32,42c-0.55228,0 -1,0.44772 -1,1v2c0,0.55228 0.44772,1 1,1c0.55228,0 1,-0.44772 1,-1v-2c0,-0.55228 -0.44772,-1 -1,-1zM40.49,39.07c-0.39676,-0.33978 -0.98819,-0.31693 -1.35756,0.05244c-0.36937,0.36937 -0.39221,0.9608 -0.05244,1.35756l1.41,1.41c0.39676,0.33978 0.98819,0.31693 1.35756,-0.05244c0.36937,-0.36937 0.39221,-0.9608 0.05244,-1.35756zM39.78,25.22c0.2658,0.00154 0.52128,-0.10281 0.71,-0.29l1.41,-1.41c0.33978,-0.39676 0.31693,-0.98819 -0.05244,-1.35756c-0.36937,-0.36937 -0.9608,-0.39221 -1.35756,-0.05244l-1.41,1.41c-0.28846,0.28609 -0.37516,0.71827 -0.21937,1.09348c0.15579,0.37521 0.52311,0.61888 0.92937,0.61652zM44.43,35.94l-1.85,-0.75c-0.3353,-0.22449 -0.77267,-0.22546 -1.10896,-0.00247c-0.3363,0.22299 -0.50562,0.62625 -0.42933,1.02249c0.07629,0.39623 0.38324,0.70779 0.7783,0.78998l1.85,0.75c0.33545,0.16057 0.7323,0.12172 1.03024,-0.10086c0.29794,-0.22258 0.44775,-0.59211 0.38892,-0.95933c-0.05883,-0.36722 -0.31659,-0.67145 -0.66916,-0.78981zM37.22,41.74c-0.12987,-0.34273 -0.43682,-0.58695 -0.79997,-0.63648c-0.36315,-0.04953 -0.72429,0.10356 -0.94121,0.39899c-0.21691,0.29543 -0.25483,0.68585 -0.09883,1.01749l0.78,1.84c0.12987,0.34273 0.43682,0.58695 0.79997,0.63648c0.36315,0.04953 0.72429,-0.10356 0.94121,-0.39899c0.21691,-0.29543 0.25483,-0.68585 0.09883,-1.01749zM41.21,28.09c0.21571,0.50778 0.80189,0.74494 1.31,0.53l1.84,-0.78c0.48612,-0.22867 0.7047,-0.80057 0.49503,-1.29518c-0.20967,-0.49461 -0.77267,-0.73518 -1.27503,-0.54482l-1.84,0.78c-0.50778,0.21571 -0.74494,0.80189 -0.53,1.31z"
        fill="#1b0f24"
      /><path
        d="M59.73,26.65l-6.89,-1.73c-0.31001,-0.90404 -0.68086,-1.78605 -1.11,-2.64l3.66,-6.11c0.7113,-1.18137 0.52565,-2.69548 -0.45,-3.67l-3.45,-3.44c-0.97292,-0.97061 -2.48094,-1.15602 -3.66,-0.45l-6.11,3.66c-0.85379,-0.42666 -1.73586,-0.79419 -2.64,-1.1l-1.72,-6.9c-0.33567,-1.33802 -1.54053,-2.27468 -2.92,-2.27h-4.88c-1.37575,-0.00008 -2.57523,0.9356 -2.91,2.27l-1.73,6.89c-0.90412,0.30978 -1.78615,0.68064 -2.64,1.11l-6.1,-3.66c-1.17906,-0.70602 -2.68708,-0.52061 -3.66,0.45l-3.46,3.45c-0.97565,0.97452 -1.1613,2.48863 -0.45,3.67l3.66,6.11c-0.42682,0.85714 -0.79435,1.74256 -1.1,2.65l-6.9,1.72c-1.33079,0.33385 -2.2655,1.52798 -2.27,2.9v4.88c-0.00008,1.37575 0.9356,2.57523 2.27,2.91l6.89,1.73c0.31001,0.90404 0.68086,1.78605 1.11,2.64l-3.66,6.1c-0.7113,1.18137 -0.52565,2.69548 0.45,3.67l3.45,3.45c0.97292,0.97061 2.48094,1.15602 3.66,0.45l6.11,-3.66c0.85379,0.42666 1.73586,0.79419 2.64,1.1l1.72,6.9c0.33567,1.33802 1.54053,2.27468 2.92,2.27h4.88c1.37575,0.00008 2.57523,-0.9356 2.91,-2.27l1.73,-6.89c0.90412,-0.30978 1.78615,-0.68064 2.64,-1.11l6.11,3.66c1.17906,0.70602 2.68708,0.52061 3.66,-0.45l3.45,-3.45c0.97565,-0.97452 1.1613,-2.48863 0.45,-3.67l-3.66,-6.11c0.42682,-0.85714 0.79435,-1.74256 1.1,-2.65l6.9,-1.72c1.33079,-0.33385 2.2655,-1.52798 2.27,-2.9v-4.88c0.00008,-1.37575 -0.9356,-2.57523 -2.27,-2.91zM60,34.44c0.01371,0.4707 -0.30282,0.88718 -0.76,1l-6.9,1.72c-0.65685,0.16802 -1.18385,0.65738 -1.4,1.3c-0.28047,0.82101 -0.61452,1.62274 -1,2.4c-0.2979,0.60027 -0.27537,1.30984 0.06,1.89l3.66,6.11c0.23534,0.39302 0.17354,0.89569 -0.15,1.22l-3.45,3.45c-0.32431,0.32354 -0.82698,0.38534 -1.22,0.15l-6.09,-3.68c-0.58615,-0.34934 -1.30996,-0.37573 -1.92,-0.07c-0.77746,0.38504 -1.57916,0.71907 -2.4,1c-0.64262,0.21615 -1.13198,0.74315 -1.3,1.4l-1.72,6.9c-0.11282,0.45718 -0.5293,0.77371 -1,0.76h-4.85c-0.4707,0.01371 -0.88718,-0.30282 -1,-0.76l-1.72,-6.9c-0.16802,-0.65685 -0.65738,-1.18385 -1.3,-1.4c-0.82084,-0.28093 -1.62254,-0.61496 -2.4,-1c-0.27949,-0.1393 -0.58772,-0.21122 -0.9,-0.21c-0.35217,0.00366 -0.69713,0.10025 -1,0.28l-6.11,3.66c-0.39302,0.23534 -0.89569,0.17354 -1.22,-0.15l-3.45,-3.45c-0.32354,-0.32431 -0.38534,-0.82698 -0.15,-1.22l3.69,-6.09c0.34934,-0.58615 0.37573,-1.30996 0.07,-1.92c-0.38527,-0.77736 -0.71931,-1.57907 -1,-2.4c-0.21615,-0.64262 -0.74315,-1.13198 -1.4,-1.3l-6.9,-1.72c-0.45718,-0.11282 -0.77371,-0.5293 -0.76,-1v-4.85c-0.01371,-0.4707 0.30282,-0.88718 0.76,-1l6.9,-1.72c0.65685,-0.16802 1.18385,-0.65738 1.4,-1.3c0.28047,-0.82101 0.61452,-1.62274 1,-2.4c0.29484,-0.60193 0.26856,-1.31153 -0.07,-1.89l-3.66,-6.11c-0.23534,-0.39302 -0.17354,-0.89569 0.15,-1.22l3.45,-3.45c0.32431,-0.32354 0.82698,-0.38534 1.22,-0.15l6.09,3.68c0.58615,0.34934 1.30996,0.37573 1.92,0.07c0.77746,-0.38504 1.57916,-0.71907 2.4,-1c0.64262,-0.21615 1.13198,-0.74315 1.3,-1.4l1.72,-6.9c0.11282,-0.45718 0.5293,-0.77371 1,-0.76h4.88c0.4707,-0.01371 0.88718,0.30282 1,0.76l1.72,6.9c0.16802,0.65685 0.65738,1.18385 1.3,1.4c0.82084,0.28093 1.62254,0.61496 2.4,1c0.59374,0.28417 1.2893,0.25799 1.86,-0.07l6.11,-3.66c0.39302,-0.23534 0.89569,-0.17354 1.22,0.15l3.45,3.45c0.32354,0.32431 0.38534,0.82698 0.15,1.22l-3.68,6.09c-0.34934,0.58615 -0.37573,1.30996 -0.07,1.92c0.38527,0.77736 0.71931,1.57907 1,2.4c0.21615,0.64262 0.74315,1.13198 1.4,1.3l6.9,1.72c0.45718,0.11282 0.77371,0.5293 0.76,1z"
        fill="#1b0f24"
      /><path
        d="M32,24c-4.41828,0 -8,3.58172 -8,8c0,4.41828 3.58172,8 8,8c4.41828,0 8,-3.58172 8,-8c0,-4.41828 -3.58172,-8 -8,-8zM32,38c-3.31371,0 -6,-2.68629 -6,-6c0,-3.31371 2.68629,-6 6,-6c3.31371,0 6,2.68629 6,6c0,3.31371 -2.68629,6 -6,6z"
        fill="#1b0f24"
      /><path
        d="M26.39,42.61c-4.40187,-2.3277 -6.90888,-7.13205 -6.30055,-12.07417c0.60833,-4.94213 4.20559,-8.9951 9.04055,-10.18583c0.35892,-0.07418 0.64851,-0.33877 0.7547,-0.68956c0.10619,-0.35079 0.01198,-0.73156 -0.24553,-0.99236c-0.25751,-0.2608 -0.63706,-0.35983 -0.98917,-0.25808c-5.66009,1.37578 -9.87695,6.11245 -10.58849,11.89372c-0.71154,5.78127 2.23092,11.39909 7.38849,14.10628c0.48877,0.25957 1.09543,0.07377 1.355,-0.415c0.25957,-0.48877 0.07377,-1.09543 -0.415,-1.355zM33.61,20.11c0.71973,0.09554 1.42931,0.2562 2.12,0.48c0.51708,0.14757 1.05828,-0.14019 1.2251,-0.65139c0.16681,-0.5112 -0.1005,-1.06279 -0.6051,-1.24861c-0.80472,-0.26091 -1.63144,-0.44834 -2.47,-0.56c-0.55228,-0.0718 -1.0582,0.31772 -1.13,0.87c-0.0718,0.55228 0.31772,1.0582 0.87,1.13zM32,30c-1.10457,0 -2,0.89543 -2,2c0,1.10457 0.89543,2 2,2c1.10457,0 2,-0.89543 2,-2c0,-1.10457 -0.89543,-2 -2,-2z"
        fill="#1b0f24"
      /><path
        d="M32.5,9l1.24,2.26l2.26,1.24l-2.26,1.24l-1.24,2.26l-1.24,-2.26l-2.26,-1.24l2.26,-1.24zM18.42,42l0.85,1.56l1.57,0.86l-1.57,0.85l-0.85,1.57l-0.86,-1.57l-1.56,-0.85l1.56,-0.86zM46.35,19l0.59,1.07l1.06,0.58l-1.06,0.58l-0.59,1.07l-0.58,-1.07l-1.07,-0.58l1.07,-0.58z"
        fill="#e8d6ee"
      /></g></g></svg>
