<svg width="161" height="152" viewBox="0 0 161 152" fill="none" xmlns="http://www.w3.org/2000/svg">
<g clip-path="url(#clip0_2_26)">
<path d="M59.5 15.84C59.5 15.84 67.66 0.680004 74.5 2C78.9394 9.15988 80.6175 17.6922 79.22 26C76.66 39.34 59.5 15.84 59.5 15.84ZM16.38 29.5C16.38 29.5 13 7.02 21.5 2C21.5 2 35.5 8.32 37 18.5C38.5 28.68 16.38 29.5 16.38 29.5Z" fill="#F1E6F4"/>
<path d="M86.82 73.28C88.7023 76.4018 90.149 79.7663 91.12 83.28C93.0361 91.6175 94.0023 100.145 94 108.7V114.1C94 116.309 92.2091 118.1 90 118.1H6.00001C3.79087 118.1 2.00001 116.309 2.00001 114.1V108.7C1.99723 100.173 2.95663 91.6722 4.86001 83.36C5.80507 79.9008 7.21101 76.5844 9.04001 73.5" fill="#E8D6EE"/>
<path d="M88 46C88 69.38 70 78 48 78C26 78 8 71.5 8 46C8 28.32 26 14 48 14C70 14 88 28.32 88 46Z" fill="#E8D6EE"/>
<path d="M8 108H88C91.3137 108 94 110.686 94 114C94 116.209 92.2091 118 90 118H6C3.79086 118 2 116.209 2 114C2 110.686 4.6863 108 8 108Z" fill="#DBBEE4"/>
<path d="M48 86C44.6863 86 42 88.6863 42 92C42 95.3137 44.6863 98 48 98C51.3137 98 54 95.3137 54 92C54 88.6863 51.3137 86 48 86Z" fill="#FFC409"/>
<path d="M86.88 69.38C87.7637 70.8927 87.4721 72.8169 86.18 74C85.2734 74.8 84.32 75.5467 83.32 76.24C73.02 83.6 58.58 86 48.28 86H47.72C39.621 85.9061 31.5855 84.5567 23.9 82C19.9073 80.6359 16.1294 78.7099 12.68 76.28C11.6357 75.5801 10.634 74.8188 9.68002 74C8.42038 72.8465 8.14466 70.9666 9.02002 69.5C9.35336 68.9533 9.69337 68.4133 10.04 67.88C10.5173 67.1912 11.2761 66.7503 12.1109 66.6769C12.9457 66.6035 13.7698 66.9051 14.36 67.5C25.72 78.4 48 78 48 78C48 78 70.28 78.38 81.58 67.48C82.1766 66.8866 83.0056 66.5883 83.8435 66.6655C84.6814 66.7427 85.442 67.1875 85.92 67.88C86.2667 68.3733 86.5867 68.8733 86.88 69.38ZM46.44 56L42.6 51.2C42.1496 50.5997 42.0731 49.7978 42.402 49.1232C42.7308 48.4486 43.4097 48.0149 44.16 48H51.84C52.605 48.0035 53.301 48.4431 53.6328 49.1323C53.9647 49.8216 53.8743 50.6398 53.4 51.24L49.56 56C49.1804 56.4731 48.6066 56.7484 48 56.7484C47.3934 56.7484 46.8196 56.4731 46.44 56Z" fill="#ED576B"/>
<path d="M26 42C27.1046 42 28 41.1046 28 40C28 37.7909 29.7909 36 32 36C34.2091 36 36 37.7909 36 40C36 41.1046 36.8954 42 38 42C39.1046 42 40 41.1046 40 40C40 35.5817 36.4183 32 32 32C27.5817 32 24 35.5817 24 40C24 41.1046 24.8954 42 26 42ZM58 42C59.1046 42 60 41.1046 60 40C60 37.7909 61.7909 36 64 36C66.2091 36 68 37.7909 68 40C68 41.1046 68.8954 42 70 42C71.1046 42 72 41.1046 72 40C72 35.5817 68.4183 32 64 32C59.5817 32 56 35.5817 56 40C56 41.1046 56.8954 42 58 42ZM44.88 57.3C45.0958 57.5639 45.3445 57.7992 45.62 58C44.7 60.48 42.02 62 38.24 62C35.5858 62.1821 33.0347 60.9408 31.54 58.74C31.1031 58.1374 30.3678 57.8273 29.6313 57.935C28.8949 58.0427 28.2792 58.5505 28.0332 59.253C27.7872 59.9554 27.9516 60.7364 28.46 61.28C30.7107 64.4076 34.3911 66.1839 38.24 66C41.9559 66.1885 45.553 64.6627 48 61.86C50.447 64.6627 54.0441 66.1885 57.76 66C61.6089 66.1839 65.2893 64.4076 67.54 61.28C68.16 60.4249 68.0081 59.2351 67.1933 58.5631C66.3784 57.8911 65.1814 57.9685 64.46 58.74C62.9681 60.944 60.415 62.1863 57.76 62C53.98 62 51.3 60.48 50.38 58C50.6555 57.7992 50.9042 57.5639 51.12 57.3L54.96 52.5C55.9209 51.2998 56.1089 49.6551 55.4436 48.2691C54.7783 46.883 53.3775 46.001 51.84 46H44.16C42.6225 46.001 41.2217 46.883 40.5564 48.2691C39.8911 49.6551 40.0791 51.2998 41.04 52.5L44.88 57.3ZM51.84 50L48.56 54.12C48.2082 53.9722 47.8118 53.9722 47.46 54.12L44.16 50H51.84Z" fill="#1B0F24"/>
<path d="M93.06 82.82C92.1296 79.4666 90.7859 76.2419 89.06 73.22C89.6378 71.6034 89.4617 69.813 88.58 68.34C88.26 67.8067 87.9334 67.2867 87.6 66.78C87.2014 66.1727 86.6674 65.6662 86.04 65.3C88.7014 61.3818 90.0848 56.7358 90 52C90 41.44 87.38 32.82 82.2 26.24C82.2 26.24 82.2 26.24 82.2 26.1C82.2 10.36 78.78 3.88 76.68 1.42C75.5236 0.0733181 73.618 -0.350162 72 0.379998C66.3618 3.12488 61.7045 7.53778 58.66 13.02C51.5671 11.705 44.2929 11.705 37.2 13.02C34.1924 7.55884 29.5864 3.14822 24 0.379998C22.3843 -0.320742 20.5003 0.117778 19.36 1.46C17.18 4 13.68 10.38 13.76 26.12C13.7565 26.1866 13.7565 26.2534 13.76 26.32C8.64001 32.94 6.00001 41.56 6.00001 52C5.93119 56.7333 7.32839 61.3721 10 65.28C9.38165 65.6423 8.85479 66.1418 8.46001 66.74C8.08001 67.3 7.74001 67.86 7.36001 68.48C6.51813 69.9322 6.36427 71.6832 6.94001 73.26C5.21865 76.263 3.87513 79.4673 2.94001 82.8C0.982273 91.2941 -0.00404752 99.9832 1.24829e-05 108.7V114.1C0.0545925 117.375 2.72497 120 6.00001 120H90C93.2751 120 95.9454 117.375 96 114.1V108.7C96.0026 99.9899 95.0163 91.3076 93.06 82.82ZM17.64 27.9C18.1868 27.232 18.2433 26.2885 17.78 25.56C17.78 11.02 20.96 5.68 22.32 4.04C26.8228 6.25718 30.5876 9.73026 33.16 14.04C31.84 14.4 30.54 14.8 29.3 15.28C28.2672 15.6721 27.7479 16.8272 28.14 17.86C28.5321 18.8928 29.6872 19.4121 30.72 19.02C36.2514 16.9817 42.1052 15.9586 48 16C51.8105 15.982 55.6121 16.3709 59.34 17.16C59.9283 17.2759 60.5376 17.1218 61 16.74C61.1665 16.5975 61.3083 16.4286 61.42 16.24C64.0424 10.9246 68.3446 6.62244 73.66 4C74.92 5.48 77.66 10 78.14 22C77.1976 21.1594 76.2094 20.3716 75.18 19.64C74.2743 19.0049 73.0251 19.2243 72.39 20.13C71.7549 21.0357 71.9743 22.2849 72.88 22.92C81.58 29.02 86 38.82 86 52C86.163 57.2505 84.1172 62.3288 80.36 66L79.88 66.44L79.24 67.02L78.8 67.38L78.16 67.88L77.64 68.26L77.04 68.7L76.44 69.1L75.88 69.46L75.18 69.88L74.68 70.16L73.86 70.6L73.44 70.82L72.46 71.28L72.16 71.42L71.04 71.9H70.86L69.58 72.4C62.6258 74.7474 55.3397 75.9629 48 76C47.8 76 26.74 76.24 16 66.22L15.66 66C11.8955 62.3322 9.84223 57.2535 10 52C10 42 12.56 33.88 17.64 27.9ZM47.72 88H48.3C50.447 88.1561 52.0855 89.9833 52.0074 92.1346C51.9293 94.2858 50.1627 95.9895 48.01 95.9895C45.8573 95.9895 44.0907 94.2858 44.0127 92.1346C43.9346 89.9833 45.573 88.1561 47.72 88ZM24.58 80.2C20.7584 78.8915 17.1422 77.0464 13.84 74.72C12.8623 74.0305 11.9273 73.2825 11.04 72.48C10.4912 71.9588 10.3827 71.1242 10.78 70.48C11.1 69.96 11.4267 69.44 11.76 68.92C11.873 68.7371 12.0659 68.6185 12.28 68.6C12.5373 68.6068 12.7815 68.7146 12.96 68.9C13.54 69.46 14.14 69.98 14.76 70.48L15.06 70.72C15.72 71.22 16.38 71.7 17.06 72.16L17.46 72.42C18.14 72.86 18.8067 73.2667 19.46 73.64L19.92 73.88C20.6267 74.2533 21.34 74.6 22.06 74.92L22.6 75.16C23.3 75.46 24 75.76 24.72 76.02L25.36 76.24L27.36 76.94L28.08 77.16L29.74 77.62L30.92 77.92L32.18 78.22L33.78 78.56L34.62 78.72L36.62 79.08H36.9C39.9121 79.5696 42.9509 79.8768 46 80V84C38.7084 83.7813 31.4868 82.5081 24.56 80.22L24.58 80.2ZM50 84V80C52.9129 79.9002 55.8177 79.6331 58.7 79.2H59.06L61.06 78.86L61.86 78.7L63.54 78.34L64.66 78.08L66.04 77.72L67.48 77.32L68.46 77.02L70.28 76.4L71.08 76.1L73.08 75.3L73.8 74.98C74.4667 74.6733 75.1334 74.3533 75.8 74.02L76.42 73.68C77.0867 73.32 77.7534 72.94 78.42 72.54L78.94 72.2C79.6 71.76 80.24 71.32 80.94 70.82L81.32 70.52C81.94 70.02 82.54 69.5 83.1 68.96C83.3017 68.764 83.5805 68.6686 83.86 68.7C84.0804 68.7155 84.2806 68.8341 84.4 69.02C84.7067 69.4867 85 69.96 85.28 70.44C85.5718 70.9691 85.5718 71.6109 85.28 72.14C85.194 72.3058 85.0788 72.4549 84.94 72.58C84.1 73.32 83.18 74.04 82.24 74.7C71.08 82.54 56.3 83.82 50 84ZM92 114.1C92 115.205 91.1046 116.1 90 116.1H6.00001C4.89545 116.1 4.00001 115.205 4.00001 114.1V108.7C3.99401 100.348 4.93331 92.0212 6.80001 83.88C7.49391 81.3557 8.44557 78.9095 9.64001 76.58C10.26 77.08 10.88 77.56 11.52 78C15.1287 80.5472 19.0817 82.5675 23.26 84C29.0882 85.9608 35.132 87.2099 41.26 87.72C39.1091 91.0669 39.7444 95.4858 42.7511 98.0912C45.7578 100.697 50.2222 100.697 53.2289 98.0912C56.2356 95.4858 56.871 91.0669 54.72 87.72C62.56 87.02 74.72 84.82 84.46 77.94C85.1 77.48 85.7 76.98 86.3 76.5C87.5158 78.8593 88.4811 81.3395 89.18 83.9C91.0519 92.0339 91.998 100.353 92 108.7V114.1Z" fill="#1B0F24"/>
<path d="M58 104C56.8954 104 56 104.895 56 106V110C56 111.105 56.8954 112 58 112C59.1046 112 60 111.105 60 110V106C60 104.895 59.1046 104 58 104ZM68 104C66.8954 104 66 104.895 66 106V110C66 111.105 66.8954 112 68 112C69.1046 112 70 111.105 70 110V106C70 104.895 69.1046 104 68 104ZM78 104C76.8954 104 76 104.895 76 106V110C76 111.105 76.8954 112 78 112C79.1046 112 80 111.105 80 110V106C80 104.895 79.1046 104 78 104ZM86 106V110C86 111.105 86.8954 112 88 112C89.1046 112 90 111.105 90 110V106C90 104.895 89.1046 104 88 104C86.8954 104 86 104.895 86 106ZM38 104C36.8954 104 36 104.895 36 106V110C36 111.105 36.8954 112 38 112C39.1046 112 40 111.105 40 110V106C40 104.895 39.1046 104 38 104ZM48 104C46.8954 104 46 104.895 46 106V110C46 111.105 46.8954 112 48 112C49.1046 112 50 111.105 50 110V106C50 104.895 49.1046 104 48 104ZM28 104C26.8954 104 26 104.895 26 106V110C26 111.105 26.8954 112 28 112C29.1046 112 30 111.105 30 110V106C30 104.895 29.1046 104 28 104ZM18 104C16.8954 104 16 104.895 16 106V110C16 111.105 16.8954 112 18 112C19.1046 112 20 111.105 20 110V106C20 104.895 19.1046 104 18 104ZM8 104C7.45178 103.999 6.9273 104.224 6.54922 104.621C6.17114 105.018 5.97258 105.552 6 106.1V110.1C6.05334 111.165 6.93334 112.001 8 112C9.10456 112 10 111.105 10 110V106C10 104.895 9.10456 104 8 104Z" fill="#1B0F24"/>
</g>
<g clip-path="url(#clip1_2_26)">
<path d="M124.5 47.84C124.5 47.84 132.66 32.68 139.5 34C143.939 41.1599 145.617 49.6922 144.22 58C141.66 71.34 124.5 47.84 124.5 47.84ZM81.38 61.5C81.38 61.5 78 39.02 86.5 34C86.5 34 100.5 40.32 102 50.5C103.5 60.68 81.38 61.5 81.38 61.5Z" fill="#F1E6F4"/>
<path d="M151.82 105.28C153.702 108.402 155.149 111.766 156.12 115.28C158.036 123.618 159.002 132.145 159 140.7V146.1C159 148.309 157.209 150.1 155 150.1H71C68.7909 150.1 67 148.309 67 146.1V140.7C66.9972 132.173 67.9566 123.672 69.86 115.36C70.8051 111.901 72.211 108.584 74.04 105.5" fill="#E8D6EE"/>
<path d="M153 78C153 101.38 135 110 113 110C91 110 73 103.5 73 78C73 60.32 91 46 113 46C135 46 153 60.32 153 78Z" fill="#E8D6EE"/>
<path d="M73 140H153C156.314 140 159 142.686 159 146C159 148.209 157.209 150 155 150H71C68.7909 150 67 148.209 67 146C67 142.686 69.6863 140 73 140Z" fill="#DBBEE4"/>
<path d="M113 118C109.686 118 107 120.686 107 124C107 127.314 109.686 130 113 130C116.314 130 119 127.314 119 124C119 120.686 116.314 118 113 118Z" fill="#FFC409"/>
<path d="M151.88 101.38C152.764 102.893 152.472 104.817 151.18 106C150.273 106.8 149.32 107.547 148.32 108.24C138.02 115.6 123.58 118 113.28 118H112.72C104.621 117.906 96.5855 116.557 88.9 114C84.9073 112.636 81.1294 110.71 77.68 108.28C76.6357 107.58 75.634 106.819 74.68 106C73.4204 104.847 73.1447 102.967 74.02 101.5C74.3534 100.953 74.6934 100.413 75.04 99.88C75.5173 99.1912 76.2761 98.7503 77.1109 98.6769C77.9457 98.6035 78.7698 98.9051 79.36 99.5C90.72 110.4 113 110 113 110C113 110 135.28 110.38 146.58 99.48C147.177 98.8866 148.006 98.5883 148.844 98.6655C149.681 98.7427 150.442 99.1875 150.92 99.88C151.267 100.373 151.587 100.873 151.88 101.38ZM111.44 88L107.6 83.2C107.15 82.5997 107.073 81.7978 107.402 81.1232C107.731 80.4486 108.41 80.0149 109.16 80H116.84C117.605 80.0035 118.301 80.4431 118.633 81.1323C118.965 81.8216 118.874 82.6398 118.4 83.24L114.56 88C114.18 88.4731 113.607 88.7484 113 88.7484C112.393 88.7484 111.82 88.4731 111.44 88Z" fill="#C86BFA"/>
<path d="M91 74C92.1046 74 93 73.1046 93 72C93 69.7909 94.7909 68 97 68C99.2091 68 101 69.7909 101 72C101 73.1046 101.895 74 103 74C104.105 74 105 73.1046 105 72C105 67.5817 101.418 64 97 64C92.5817 64 89 67.5817 89 72C89 73.1046 89.8954 74 91 74ZM123 74C124.105 74 125 73.1046 125 72C125 69.7909 126.791 68 129 68C131.209 68 133 69.7909 133 72C133 73.1046 133.895 74 135 74C136.105 74 137 73.1046 137 72C137 67.5817 133.418 64 129 64C124.582 64 121 67.5817 121 72C121 73.1046 121.895 74 123 74ZM109.88 89.3C110.096 89.5639 110.344 89.7992 110.62 90C109.7 92.48 107.02 94 103.24 94C100.586 94.1821 98.0347 92.9408 96.54 90.74C96.1031 90.1374 95.3678 89.8273 94.6313 89.935C93.8949 90.0427 93.2792 90.5505 93.0332 91.253C92.7872 91.9554 92.9516 92.7364 93.46 93.28C95.7107 96.4076 99.3911 98.1839 103.24 98C106.956 98.1885 110.553 96.6627 113 93.86C115.447 96.6627 119.044 98.1885 122.76 98C126.609 98.1839 130.289 96.4076 132.54 93.28C133.16 92.4249 133.008 91.2351 132.193 90.5631C131.378 89.8911 130.181 89.9685 129.46 90.74C127.968 92.944 125.415 94.1863 122.76 94C118.98 94 116.3 92.48 115.38 90C115.655 89.7992 115.904 89.5639 116.12 89.3L119.96 84.5C120.921 83.2998 121.109 81.6551 120.444 80.2691C119.778 78.883 118.377 78.001 116.84 78H109.16C107.623 78.001 106.222 78.883 105.556 80.2691C104.891 81.6551 105.079 83.2998 106.04 84.5L109.88 89.3ZM116.84 82L113.56 86.12C113.208 85.9722 112.812 85.9722 112.46 86.12L109.16 82H116.84Z" fill="#1B0F24"/>
<path d="M158.06 114.82C157.13 111.467 155.786 108.242 154.06 105.22C154.638 103.603 154.462 101.813 153.58 100.34C153.26 99.8067 152.933 99.2867 152.6 98.78C152.201 98.1727 151.667 97.6662 151.04 97.3C153.701 93.3818 155.085 88.7358 155 84C155 73.44 152.38 64.82 147.2 58.24C147.2 58.24 147.2 58.24 147.2 58.1C147.2 42.36 143.78 35.88 141.68 33.42C140.524 32.0733 138.618 31.6498 137 32.38C131.362 35.1249 126.705 39.5378 123.66 45.02C116.567 43.705 109.293 43.705 102.2 45.02C99.1924 39.5588 94.5864 35.1482 89 32.38C87.3843 31.6793 85.5003 32.1178 84.36 33.46C82.18 36 78.68 42.38 78.76 58.12C78.7565 58.1866 78.7565 58.2534 78.76 58.32C73.64 64.94 71 73.56 71 84C70.9312 88.7333 72.3284 93.3721 75 97.28C74.3817 97.6423 73.8548 98.1418 73.46 98.74C73.08 99.3 72.74 99.86 72.36 100.48C71.5181 101.932 71.3643 103.683 71.94 105.26C70.2187 108.263 68.8751 111.467 67.94 114.8C65.9823 123.294 64.996 131.983 65 140.7V146.1C65.0546 149.375 67.725 152 71 152H155C158.275 152 160.945 149.375 161 146.1V140.7C161.003 131.99 160.016 123.308 158.06 114.82ZM82.64 59.9C83.1868 59.232 83.2433 58.2885 82.78 57.56C82.78 43.02 85.96 37.68 87.32 36.04C91.8228 38.2572 95.5876 41.7303 98.16 46.04C96.84 46.4 95.54 46.8 94.3 47.28C93.2672 47.6721 92.7479 48.8272 93.14 49.86C93.5321 50.8928 94.6872 51.4121 95.72 51.02C101.251 48.9817 107.105 47.9586 113 48C116.811 47.982 120.612 48.3709 124.34 49.16C124.928 49.2759 125.538 49.1218 126 48.74C126.166 48.5975 126.308 48.4286 126.42 48.24C129.042 42.9246 133.345 38.6224 138.66 36C139.92 37.48 142.66 42 143.14 54C142.198 53.1594 141.209 52.3716 140.18 51.64C139.274 51.0049 138.025 51.2243 137.39 52.13C136.755 53.0357 136.974 54.2849 137.88 54.92C146.58 61.02 151 70.82 151 84C151.163 89.2505 149.117 94.3288 145.36 98L144.88 98.44L144.24 99.02L143.8 99.38L143.16 99.88L142.64 100.26L142.04 100.7L141.44 101.1L140.88 101.46L140.18 101.88L139.68 102.16L138.86 102.6L138.44 102.82L137.46 103.28L137.16 103.42L136.04 103.9H135.86L134.58 104.4C127.626 106.747 120.34 107.963 113 108C112.8 108 91.74 108.24 81 98.22L80.66 98C76.8955 94.3322 74.8422 89.2535 75 84C75 74 77.56 65.88 82.64 59.9ZM112.72 120H113.3C115.447 120.156 117.085 121.983 117.007 124.135C116.929 126.286 115.163 127.989 113.01 127.989C110.857 127.989 109.091 126.286 109.013 124.135C108.935 121.983 110.573 120.156 112.72 120ZM89.58 112.2C85.7584 110.892 82.1422 109.046 78.84 106.72C77.8623 106.031 76.9273 105.282 76.04 104.48C75.4912 103.959 75.3827 103.124 75.78 102.48C76.1 101.96 76.4267 101.44 76.76 100.92C76.873 100.737 77.0659 100.618 77.28 100.6C77.5373 100.607 77.7815 100.715 77.96 100.9C78.54 101.46 79.14 101.98 79.76 102.48L80.06 102.72C80.72 103.22 81.38 103.7 82.06 104.16L82.46 104.42C83.14 104.86 83.8067 105.267 84.46 105.64L84.92 105.88C85.6267 106.253 86.34 106.6 87.06 106.92L87.6 107.16C88.3 107.46 89 107.76 89.72 108.02L90.36 108.24L92.36 108.94L93.08 109.16L94.74 109.62L95.92 109.92L97.18 110.22L98.78 110.56L99.62 110.72L101.62 111.08H101.9C104.912 111.57 107.951 111.877 111 112V116C103.708 115.781 96.4868 114.508 89.56 112.22L89.58 112.2ZM115 116V112C117.913 111.9 120.818 111.633 123.7 111.2H124.06L126.06 110.86L126.86 110.7L128.54 110.34L129.66 110.08L131.04 109.72L132.48 109.32L133.46 109.02L135.28 108.4L136.08 108.1L138.08 107.3L138.8 106.98C139.467 106.673 140.133 106.353 140.8 106.02L141.42 105.68C142.087 105.32 142.753 104.94 143.42 104.54L143.94 104.2C144.6 103.76 145.24 103.32 145.94 102.82L146.32 102.52C146.94 102.02 147.54 101.5 148.1 100.96C148.302 100.764 148.581 100.669 148.86 100.7C149.08 100.715 149.281 100.834 149.4 101.02C149.707 101.487 150 101.96 150.28 102.44C150.572 102.969 150.572 103.611 150.28 104.14C150.194 104.306 150.079 104.455 149.94 104.58C149.1 105.32 148.18 106.04 147.24 106.7C136.08 114.54 121.3 115.82 115 116ZM157 146.1C157 147.205 156.105 148.1 155 148.1H71C69.8955 148.1 69 147.205 69 146.1V140.7C68.994 132.348 69.9333 124.021 71.8 115.88C72.4939 113.356 73.4456 110.91 74.64 108.58C75.26 109.08 75.88 109.56 76.52 110C80.1287 112.547 84.0817 114.567 88.26 116C94.0882 117.961 100.132 119.21 106.26 119.72C104.109 123.067 104.744 127.486 107.751 130.091C110.758 132.697 115.222 132.697 118.229 130.091C121.236 127.486 121.871 123.067 119.72 119.72C127.56 119.02 139.72 116.82 149.46 109.94C150.1 109.48 150.7 108.98 151.3 108.5C152.516 110.859 153.481 113.34 154.18 115.9C156.052 124.034 156.998 132.353 157 140.7V146.1Z" fill="#1B0F24"/>
<path d="M123 136C121.895 136 121 136.895 121 138V142C121 143.105 121.895 144 123 144C124.105 144 125 143.105 125 142V138C125 136.895 124.105 136 123 136ZM133 136C131.895 136 131 136.895 131 138V142C131 143.105 131.895 144 133 144C134.105 144 135 143.105 135 142V138C135 136.895 134.105 136 133 136ZM143 136C141.895 136 141 136.895 141 138V142C141 143.105 141.895 144 143 144C144.105 144 145 143.105 145 142V138C145 136.895 144.105 136 143 136ZM151 138V142C151 143.105 151.895 144 153 144C154.105 144 155 143.105 155 142V138C155 136.895 154.105 136 153 136C151.895 136 151 136.895 151 138ZM103 136C101.895 136 101 136.895 101 138V142C101 143.105 101.895 144 103 144C104.105 144 105 143.105 105 142V138C105 136.895 104.105 136 103 136ZM113 136C111.895 136 111 136.895 111 138V142C111 143.105 111.895 144 113 144C114.105 144 115 143.105 115 142V138C115 136.895 114.105 136 113 136ZM93 136C91.8954 136 91 136.895 91 138V142C91 143.105 91.8954 144 93 144C94.1046 144 95 143.105 95 142V138C95 136.895 94.1046 136 93 136ZM83 136C81.8954 136 81 136.895 81 138V142C81 143.105 81.8954 144 83 144C84.1046 144 85 143.105 85 142V138C85 136.895 84.1046 136 83 136ZM73 136C72.4518 135.999 71.9273 136.224 71.5492 136.621C71.1711 137.018 70.9726 137.552 71 138.1V142.1C71.0533 143.165 71.9333 144.001 73 144C74.1046 144 75 143.105 75 142V138C75 136.895 74.1046 136 73 136Z" fill="#1B0F24"/>
</g>
<defs>
<clipPath id="clip0_2_26">
<rect width="96" height="120" fill="white"/>
</clipPath>
<clipPath id="clip1_2_26">
<rect width="96" height="120" fill="white" transform="translate(65 32)"/>
</clipPath>
</defs>
</svg>
