<svg xmlns="http://www.w3.org/2000/svg"  viewBox="0 0 64 64" width="64px" height="64px"><path d="M 41 0 C 39.347656 0 38 1.347656 38 3 L 38 4.453125 L 16.707031 18 L 7 18 C 4.242188 18 2 20.242188 2 23 L 2 41 C 2 43.757813 4.242188 46 7 46 L 16.707031 46 L 38 59.546875 L 38 61 C 38 62.652344 39.347656 64 41 64 C 42.652344 64 44 62.652344 44 61 L 44 3 C 44 1.347656 42.652344 0 41 0 Z M 41 2 C 41.550781 2 42 2.449219 42 3 L 42 61 C 42 61.550781 41.550781 62 41 62 C 40.449219 62 40 61.550781 40 61 L 40 3 C 40 2.449219 40.449219 2 41 2 Z M 38 6.820313 L 38 57.179688 L 18 44.453125 L 18 19.546875 L 22 17.003906 L 22 35 C 22 35.554688 22.449219 36 23 36 C 23.550781 36 24 35.554688 24 35 L 24 16 C 24 15.914063 23.972656 15.839844 23.953125 15.761719 Z M 53.875 12.28125 C 53.621094 12.269531 53.359375 12.355469 53.15625 12.539063 C 52.746094 12.90625 52.710938 13.539063 53.078125 13.953125 C 57.542969 18.914063 60 25.320313 60 32 C 60 38.679688 57.542969 45.089844 53.078125 50.050781 C 52.710938 50.460938 52.742188 51.09375 53.15625 51.464844 C 53.34375 51.636719 53.585938 51.71875 53.824219 51.71875 C 54.097656 51.71875 54.367188 51.609375 54.566406 51.390625 C 59.359375 46.058594 62 39.175781 62 32 C 62 24.828125 59.363281 17.941406 54.566406 12.613281 C 54.382813 12.40625 54.132813 12.296875 53.875 12.28125 Z M 50.589844 17.621094 C 50.332031 17.585938 50.066406 17.652344 49.847656 17.820313 C 49.410156 18.15625 49.328125 18.785156 49.667969 19.222656 C 52.5 22.914063 54 27.332031 54 32 C 54 36.667969 52.5 41.085938 49.664063 44.78125 C 49.328125 45.21875 49.410156 45.84375 49.847656 46.183594 C 50.03125 46.320313 50.246094 46.390625 50.457031 46.390625 C 50.757813 46.390625 51.054688 46.253906 51.25 46 C 54.359375 41.953125 56 37.113281 56 32 C 56 26.886719 54.359375 22.046875 51.25 18.003906 C 51.082031 17.785156 50.84375 17.65625 50.589844 17.621094 Z M 7 20 L 16 20 L 16 44 L 7 44 C 5.347656 44 4 42.652344 4 41 L 4 23 C 4 21.347656 5.347656 20 7 20 Z M 6.957031 21.042969 C 6.40625 21.042969 5.957031 21.488281 5.957031 22.042969 C 5.957031 22.597656 6.40625 23.042969 6.957031 23.042969 L 8.957031 23.042969 C 9.507813 23.042969 9.957031 22.597656 9.957031 22.042969 C 9.957031 21.488281 9.507813 21.042969 8.957031 21.042969 Z M 46.839844 23.167969 C 46.710938 23.183594 46.582031 23.222656 46.460938 23.292969 C 45.980469 23.5625 45.808594 24.171875 46.078125 24.652344 C 47.335938 26.882813 48 29.425781 48 32 C 48 34.496094 47.375 36.96875 46.1875 39.148438 C 45.925781 39.632813 46.105469 40.242188 46.59375 40.503906 C 46.742188 40.585938 46.90625 40.625 47.066406 40.625 C 47.421875 40.625 47.765625 40.4375 47.949219 40.105469 C 49.289063 37.632813 50 34.828125 50 32 C 50 29.082031 49.246094 26.199219 47.824219 23.671875 C 47.617188 23.3125 47.226563 23.125 46.839844 23.167969 Z M 6.957031 26.042969 C 6.40625 26.042969 5.957031 26.488281 5.957031 27.042969 C 5.957031 27.597656 6.40625 28.042969 6.957031 28.042969 L 8.957031 28.042969 C 9.507813 28.042969 9.957031 27.597656 9.957031 27.042969 C 9.957031 26.488281 9.511719 26.042969 8.957031 26.042969 Z M 6.957031 31.042969 C 6.40625 31.042969 5.957031 31.488281 5.957031 32.042969 C 5.957031 32.597656 6.40625 33.042969 6.957031 33.042969 L 8.957031 33.042969 C 9.507813 33.042969 9.957031 32.597656 9.957031 32.042969 C 9.957031 31.488281 9.511719 31.042969 8.957031 31.042969 Z M 6.957031 36.042969 C 6.40625 36.042969 5.957031 36.488281 5.957031 37.042969 C 5.957031 37.597656 6.40625 38.042969 6.957031 38.042969 L 8.957031 38.042969 C 9.507813 38.042969 9.957031 37.597656 9.957031 37.042969 C 9.957031 36.488281 9.511719 36.042969 8.957031 36.042969 Z M 23 38 C 22.449219 38 22 38.445313 22 39 L 22 43 C 22 43.554688 22.449219 44 23 44 C 23.550781 44 24 43.554688 24 43 L 24 39 C 24 38.445313 23.550781 38 23 38 Z M 6.957031 41.042969 C 6.40625 41.042969 5.957031 41.488281 5.957031 42.042969 C 5.957031 42.597656 6.40625 43.042969 6.957031 43.042969 L 8.957031 43.042969 C 9.507813 43.042969 9.957031 42.597656 9.957031 42.042969 C 9.957031 41.488281 9.511719 41.042969 8.957031 41.042969 Z"/></svg>