<svg xmlns="http://www.w3.org/2000/svg"  viewBox="0 0 64 64" width="128px" height="128px"><path d="M 49 0 C 47.347656 0 46 1.347656 46 3 L 46 4.453125 L 24.707031 18 L 15 18 C 12.242188 18 10 20.242188 10 23 L 10 41 C 10 43.757813 12.242188 46 15 46 L 24.707031 46 L 46 59.546875 L 46 61 C 46 62.652344 47.347656 64 49 64 C 50.652344 64 52 62.652344 52 61 L 52 3 C 52 1.347656 50.652344 0 49 0 Z M 49 2 C 49.550781 2 50 2.449219 50 3 L 50 61 C 50 61.550781 49.550781 62 49 62 C 48.449219 62 48 61.550781 48 61 L 48 3 C 48 2.449219 48.449219 2 49 2 Z M 46 6.820313 L 46 57.179688 L 26 44.453125 L 26 19.546875 L 30 17.003906 L 30 35 C 30 35.554688 30.449219 36 31 36 C 31.550781 36 32 35.554688 32 35 L 32 16 C 32 15.914063 31.972656 15.839844 31.953125 15.761719 Z M 15 20 L 24 20 L 24 44 L 15 44 C 13.347656 44 12 42.652344 12 41 L 12 23 C 12 21.347656 13.347656 20 15 20 Z M 14.957031 21.042969 C 14.40625 21.042969 13.957031 21.488281 13.957031 22.042969 C 13.957031 22.597656 14.40625 23.042969 14.957031 23.042969 L 16.957031 23.042969 C 17.507813 23.042969 17.957031 22.597656 17.957031 22.042969 C 17.957031 21.488281 17.507813 21.042969 16.957031 21.042969 Z M 14.957031 26.042969 C 14.40625 26.042969 13.957031 26.488281 13.957031 27.042969 C 13.957031 27.597656 14.40625 28.042969 14.957031 28.042969 L 16.957031 28.042969 C 17.507813 28.042969 17.957031 27.597656 17.957031 27.042969 C 17.957031 26.488281 17.511719 26.042969 16.957031 26.042969 Z M 14.957031 31.042969 C 14.40625 31.042969 13.957031 31.488281 13.957031 32.042969 C 13.957031 32.597656 14.40625 33.042969 14.957031 33.042969 L 16.957031 33.042969 C 17.507813 33.042969 17.957031 32.597656 17.957031 32.042969 C 17.957031 31.488281 17.511719 31.042969 16.957031 31.042969 Z M 14.957031 36.042969 C 14.40625 36.042969 13.957031 36.488281 13.957031 37.042969 C 13.957031 37.597656 14.40625 38.042969 14.957031 38.042969 L 16.957031 38.042969 C 17.507813 38.042969 17.957031 37.597656 17.957031 37.042969 C 17.957031 36.488281 17.511719 36.042969 16.957031 36.042969 Z M 31 38 C 30.449219 38 30 38.445313 30 39 L 30 43 C 30 43.554688 30.449219 44 31 44 C 31.550781 44 32 43.554688 32 43 L 32 39 C 32 38.445313 31.550781 38 31 38 Z M 14.957031 41.042969 C 14.40625 41.042969 13.957031 41.488281 13.957031 42.042969 C 13.957031 42.597656 14.40625 43.042969 14.957031 43.042969 L 16.957031 43.042969 C 17.507813 43.042969 17.957031 42.597656 17.957031 42.042969 C 17.957031 41.488281 17.511719 41.042969 16.957031 41.042969 Z"/></svg>