<svg xmlns="http://www.w3.org/2000/svg" xmlns:xlink="http://www.w3.org/1999/xlink" viewBox="0,0,256,256" width="128px" height="128px"><g fill="none" fill-rule="nonzero" stroke="none" stroke-width="1" stroke-linecap="butt" stroke-linejoin="miter" stroke-miterlimit="10" stroke-dasharray="" stroke-dashoffset="0" font-family="none" font-weight="none" font-size="none" text-anchor="none" style="mix-blend-mode: normal"><g transform="scale(4,4)"><path d="M49,14v7h-9c-0.552,0 -1,0.448 -1,1v7h-9c-0.552,0 -1,0.448 -1,1v7h-9c-0.552,0 -1,0.448 -1,1v7h-9c-0.552,0 -1,0.448 -1,1v9c0,1.105 0.895,2 2,2h48c1.105,0 2,-0.895 2,-2v-40c0,-1.105 -0.895,-2 -2,-2h-9c-0.552,0 -1,0.448 -1,1z" fill="#c86bfa"></path><path d="M60,57h-50c-0.552,0 -1,-0.448 -1,-1v-1c0,-2.209 1.791,-4 4,-4h44c2.209,0 4,1.791 4,4v1c0,0.552 -0.448,1 -1,1z" fill="#b05edc"></path><path d="M17,5v6h5.757l-17.878,17.879l4.242,4.242l17.879,-17.878v5.757h6v-16z" fill="#e8d6ee"></path><path d="M59,12h-9c-1.103,0 -2,0.897 -2,2v6h-8c-1.103,0 -2,0.897 -2,2v6h-8c-1.103,0 -2,0.897 -2,2v6h-8c-1.103,0 -2,0.897 -2,2v6h-8c-1.103,0 -2,0.897 -2,2v9c0,1.654 1.346,3 3,3h48c1.654,0 3,-1.346 3,-3v-40c0,-1.654 -1.346,-3 -3,-3zM60,55c0,0.551 -0.448,1 -1,1h-48c-0.552,0 -1,-0.449 -1,-1v-1c0.553,0 1,-0.448 1,-1v-2c0,-0.552 -0.447,-1 -1,-1v-4h9c0.553,0 1,-0.448 1,-1v-7h9c0.553,0 1,-0.448 1,-1v-7h9c0.553,0 1,-0.448 1,-1v-7h9c0.553,0 1,-0.448 1,-1v-7h9c0.552,0 1,0.449 1,1v35c-0.553,0 -1,0.448 -1,1v2c0,0.552 0.447,1 1,1zM9.121,34.121c0.256,0 0.512,-0.098 0.707,-0.293l16.172,-16.171v3.343c0,0.552 0.447,1 1,1h6c0.553,0 1,-0.448 1,-1v-16c0,-0.552 -0.447,-1 -1,-1h-16c-0.553,0 -1,0.448 -1,1v6c0,0.552 0.447,1 1,1h3.344l-16.172,16.172c-0.391,0.391 -0.391,1.023 0,1.414l4.242,4.242c0.195,0.195 0.451,0.293 0.707,0.293zM23.465,11.707c0.286,-0.286 0.372,-0.716 0.217,-1.09c-0.155,-0.373 -0.52,-0.617 -0.924,-0.617h-4.758v-4h14v14h-4v-4.757c0,-0.404 -0.243,-0.769 -0.617,-0.924c-0.374,-0.154 -0.804,-0.069 -1.09,0.217l-17.172,17.171l-2.828,-2.828z" fill="#1b0f24"></path><path d="M45,50c-0.553,0 -1,0.448 -1,1v2c0,0.552 0.447,1 1,1c0.553,0 1,-0.448 1,-1v-2c0,-0.552 -0.447,-1 -1,-1zM50,50c-0.553,0 -1,0.448 -1,1v2c0,0.552 0.447,1 1,1c0.553,0 1,-0.448 1,-1v-2c0,-0.552 -0.447,-1 -1,-1zM55,50c-0.553,0 -1,0.448 -1,1v2c0,0.552 0.447,1 1,1c0.553,0 1,-0.448 1,-1v-2c0,-0.552 -0.447,-1 -1,-1zM40,50c-0.553,0 -1,0.448 -1,1v2c0,0.552 0.447,1 1,1c0.553,0 1,-0.448 1,-1v-2c0,-0.552 -0.447,-1 -1,-1zM35,50c-0.553,0 -1,0.448 -1,1v2c0,0.552 0.447,1 1,1c0.553,0 1,-0.448 1,-1v-2c0,-0.552 -0.447,-1 -1,-1zM25,50c-0.553,0 -1,0.448 -1,1v2c0,0.552 0.447,1 1,1c0.553,0 1,-0.448 1,-1v-2c0,-0.552 -0.447,-1 -1,-1zM30,50c-0.553,0 -1,0.448 -1,1v2c0,0.552 0.447,1 1,1c0.553,0 1,-0.448 1,-1v-2c0,-0.552 -0.447,-1 -1,-1zM20,50c-0.553,0 -1,0.448 -1,1v2c0,0.552 0.447,1 1,1c0.553,0 1,-0.448 1,-1v-2c0,-0.552 -0.447,-1 -1,-1zM15,50c-0.553,0 -1,0.448 -1,1v2c0,0.552 0.447,1 1,1c0.553,0 1,-0.448 1,-1v-2c0,-0.552 -0.447,-1 -1,-1z" fill="#1b0f24"></path></g></g></svg>