<?xml version="1.0"?><svg xmlns="http://www.w3.org/2000/svg"  viewBox="0 0 64 64" width="64px" height="64px">    <path d="M 16 4 C 13.791 4 12 5.791 12 8 L 12 10 L 11 10 C 9.343 10 8 11.343 8 13 C 8 14.657 9.343 16 11 16 L 12 16 L 12 18 L 11 18 C 9.343 18 8 19.343 8 21 C 8 22.657 9.343 24 11 24 L 12 24 L 12 26 L 11 26 C 9.343 26 8 27.343 8 29 C 8 30.657 9.343 32 11 32 L 12 32 L 12 34 L 11 34 C 9.343 34 8 35.343 8 37 C 8 38.657 9.343 40 11 40 L 12 40 L 12 42 L 11 42 C 9.343 42 8 43.343 8 45 C 8 46.657 9.343 48 11 48 L 12 48 L 12 57 C 12 58.657 13.343 60 15 60 L 53 60 C 54.657 60 56 58.657 56 57 L 56 55.820312 L 56 7 C 56 5.343 54.657 4 53 4 L 16 4 z M 16 6 L 53 6 C 53.552 6 54 6.448 54 7 L 54 48 C 53.448 48 53 48.448 53 49 L 53 51 C 53 51.552 53.448 52 54 52 L 54 53 C 54 53.552 53.552 54 53 54 L 15 54 C 14.657 54.005 14.318 54.072219 14 54.199219 L 14 52 C 14.552 52 15 51.552 15 51 L 15 49 C 15 48.448 14.552 48 14 48 L 14 44 L 17 44 C 17.552 44 18 43.552 18 43 C 18 42.448 17.552 42 17 42 L 14 42 L 14 36 L 17 36 C 17.552 36 18 35.552 18 35 C 18 34.448 17.552 34 17 34 L 14 34 L 14 28 L 17 28 C 17.552 28 18 27.552 18 27 C 18 26.448 17.552 26 17 26 L 14 26 L 14 20 L 17 20 C 17.552 20 18 19.552 18 19 C 18 18.448 17.552 18 17 18 L 14 18 L 14 12 L 17 12 C 17.552 12 18 11.552 18 11 C 18 10.448 17.552 10 17 10 L 14 10 L 14 8 C 14 6.895 14.895 6 16 6 z M 11 12 L 12 12 L 12 14 L 11 14 C 10.448 14 10 13.552 10 13 C 10 12.448 10.448 12 11 12 z M 27 14 C 26.448 14 26 14.447 26 15 L 26 25 C 26 25.553 26.448 26 27 26 L 45 26 C 45.552 26 46 25.553 46 25 L 46 15 C 46 14.447 45.552 14 45 14 L 27 14 z M 28 16 L 44 16 L 44 24 L 28 24 L 28 16 z M 11 20 L 12 20 L 12 22 L 11 22 C 10.448 22 10 21.552 10 21 C 10 20.448 10.448 20 11 20 z M 11 28 L 12 28 L 12 30 L 11 30 C 10.448 30 10 29.552 10 29 C 10 28.448 10.448 28 11 28 z M 27 30 C 26.448 30 26 30.448 26 31 C 26 31.552 26.448 32 27 32 L 31 32 C 31.552 32 32 31.552 32 31 C 32 30.448 31.552 30 31 30 L 27 30 z M 35 30 C 34.448 30 34 30.448 34 31 C 34 31.552 34.448 32 35 32 L 45 32 C 45.552 32 46 31.552 46 31 C 46 30.448 45.552 30 45 30 L 35 30 z M 27 34 C 26.448 34 26 34.448 26 35 C 26 35.552 26.448 36 27 36 L 43 36 C 43.552 36 44 35.552 44 35 C 44 34.448 43.552 34 43 34 L 27 34 z M 11 36 L 12 36 L 12 38 L 11 38 C 10.448 38 10 37.552 10 37 C 10 36.448 10.448 36 11 36 z M 27 38 C 26.448 38 26 38.448 26 39 C 26 39.552 26.448 40 27 40 L 41 40 C 41.552 40 42 39.552 42 39 C 42 38.448 41.552 38 41 38 L 27 38 z M 11 44 L 12 44 L 12 46 L 11 46 C 10.448 46 10 45.552 10 45 C 10 44.448 10.448 44 11 44 z M 19 48 C 18.448 48 18 48.448 18 49 L 18 51 C 18 51.552 18.448 52 19 52 C 19.552 52 20 51.552 20 51 L 20 49 C 20 48.448 19.552 48 19 48 z M 24 48 C 23.448 48 23 48.448 23 49 L 23 51 C 23 51.552 23.448 52 24 52 C 24.552 52 25 51.552 25 51 L 25 49 C 25 48.448 24.552 48 24 48 z M 29 48 C 28.448 48 28 48.448 28 49 L 28 51 C 28 51.552 28.448 52 29 52 C 29.552 52 30 51.552 30 51 L 30 49 C 30 48.448 29.552 48 29 48 z M 34 48 C 33.448 48 33 48.448 33 49 L 33 51 C 33 51.552 33.448 52 34 52 C 34.552 52 35 51.552 35 51 L 35 49 C 35 48.448 34.552 48 34 48 z M 39 48 C 38.448 48 38 48.448 38 49 L 38 51 C 38 51.552 38.448 52 39 52 C 39.552 52 40 51.552 40 51 L 40 49 C 40 48.448 39.552 48 39 48 z M 44 48 C 43.448 48 43 48.448 43 49 L 43 51 C 43 51.552 43.448 52 44 52 C 44.552 52 45 51.552 45 51 L 45 49 C 45 48.448 44.552 48 44 48 z M 49 48 C 48.448 48 48 48.448 48 49 L 48 51 C 48 51.552 48.448 52 49 52 C 49.552 52 50 51.552 50 51 L 50 49 C 50 48.448 49.552 48 49 48 z M 15 56 L 54 56 L 54 57 C 54 57.552 53.552 58 53 58 L 15 58 C 14.448 58 14 57.552 14 57 C 14 56.27 14.83 56 15 56 z"/></svg>