<svg xmlns="http://www.w3.org/2000/svg" xmlns:xlink="http://www.w3.org/1999/xlink" viewBox="0,0,256,256" width="128px" height="128px"><g fill="none" fill-rule="nonzero" stroke="none" stroke-width="1" stroke-linecap="butt" stroke-linejoin="miter" stroke-miterlimit="10" stroke-dasharray="" stroke-dashoffset="0" font-family="none" font-weight="none" font-size="none" text-anchor="none" style="mix-blend-mode: normal"><g transform="scale(4,4)"><path d="M31.745,59.963c-0.693,-0.199 -1.196,-0.906 -2.341,-3.292c-0.747,-1.559 -1.449,-3.023 -2.304,-3.219c-0.074,-0.016 -0.151,-0.024 -0.231,-0.024c-0.888,0 -2.134,0.997 -3.34,1.961c-2.057,1.644 -2.667,1.94 -3.19,1.957l-0.723,-0.275c-0.508,-0.485 -0.645,-1.328 -0.639,-3.92c0.004,-1.67 0.007,-3.389 -0.692,-3.947c-0.239,-0.19 -0.602,-0.283 -1.112,-0.283c-0.811,0 -1.827,0.233 -2.902,0.479c-1.088,0.251 -2.308,0.519 -3.032,0.519c-0.344,0 -0.607,-0.059 -0.828,-0.186l-0.443,-0.529c-0.234,-0.649 0.007,-1.459 1.118,-3.765c0.729,-1.512 1.482,-3.072 1.087,-3.892c-0.385,-0.798 -2.052,-1.176 -3.664,-1.541c-2.566,-0.581 -3.319,-0.87 -3.671,-1.407l-0.155,-0.676c0.086,-0.669 0.648,-1.28 2.614,-2.843c1.329,-1.056 2.703,-2.146 2.703,-3.08c0,-0.933 -1.374,-2.024 -2.702,-3.08c-1.97,-1.564 -2.508,-2.124 -2.618,-2.722l0.117,-0.682c0.355,-0.615 1.151,-0.941 3.703,-1.52c1.621,-0.367 3.288,-0.745 3.673,-1.543c0.395,-0.819 -0.358,-2.381 -1.087,-3.891c-1.116,-2.315 -1.356,-3.066 -1.176,-3.665l0.412,-0.549c0.253,-0.165 0.566,-0.241 0.986,-0.241c0.752,0 1.866,0.241 2.942,0.488c1.105,0.254 2.116,0.485 2.922,0.485c0.509,0 0.872,-0.093 1.11,-0.283c0.701,-0.561 0.697,-2.28 0.693,-3.943c-0.006,-2.604 0.105,-3.396 0.541,-3.859l0.543,-0.297l0.233,-0.021c0.702,0 1.533,0.571 3.132,1.852l0.103,0.082c1.204,0.964 2.449,1.959 3.347,1.959c0.081,0 0.155,-0.008 0.229,-0.024c0.849,-0.193 1.552,-1.658 2.295,-3.209c1.157,-2.411 1.625,-3.086 2.279,-3.293l0.577,-0.007c0.693,0.199 1.196,0.906 2.341,3.292c0.747,1.559 1.449,3.023 2.304,3.219c0.069,0.015 0.144,0.022 0.225,0.022c0.896,0 2.142,-0.995 3.346,-1.959c2.224,-1.777 2.774,-1.94 3.182,-1.957l0.732,0.275c0.508,0.485 0.645,1.328 0.639,3.92c-0.004,1.67 -0.007,3.389 0.692,3.947c0.239,0.19 0.603,0.283 1.111,0.283c0.809,0 1.823,-0.232 2.896,-0.479c1.15,-0.264 2.323,-0.52 3.04,-0.52c0.344,0 0.607,0.06 0.828,0.187l0.441,0.528c0.234,0.649 -0.007,1.459 -1.118,3.765c-0.729,1.512 -1.482,3.072 -1.087,3.892c0.385,0.798 2.052,1.176 3.664,1.541c2.566,0.581 3.319,0.87 3.671,1.407l0.155,0.676c-0.086,0.669 -0.648,1.28 -2.614,2.843c-1.328,1.057 -2.702,2.147 -2.702,3.081c0,0.933 1.374,2.024 2.702,3.08c1.97,1.564 2.508,2.124 2.618,2.722l-0.117,0.682c-0.355,0.615 -1.151,0.941 -3.703,1.52c-1.621,0.367 -3.288,0.745 -3.673,1.543c-0.395,0.819 0.358,2.381 1.087,3.891c1.116,2.315 1.356,3.066 1.176,3.665l-0.412,0.549c-0.253,0.165 -0.566,0.241 -0.986,0.241c-0.752,0 -1.866,-0.241 -2.942,-0.488c-1.104,-0.253 -2.114,-0.484 -2.922,-0.484c-0.509,0 -0.873,0.093 -1.112,0.284c-0.7,0.559 -0.695,2.278 -0.691,3.941c0.006,2.604 -0.105,3.396 -0.541,3.859l-0.56,0.3l-0.214,0.019c-0.705,0 -1.535,-0.57 -3.129,-1.848l-0.108,-0.086c-1.205,-0.964 -2.451,-1.96 -3.347,-1.96c-0.08,0 -0.154,0.008 -0.228,0.024c-0.851,0.194 -1.554,1.659 -2.297,3.21c-1.157,2.411 -1.625,3.086 -2.279,3.293z" fill="#ffd857"></path><path d="M26.869,52.428c0.152,0 0.303,0.017 0.453,0.05c1.325,0.302 2.092,1.9 2.979,3.753c0.443,0.923 1.267,2.642 1.719,2.771c0.412,-0.13 1.235,-1.849 1.678,-2.771c0.888,-1.853 1.655,-3.451 2.98,-3.753c1.362,-0.305 2.848,0.875 4.417,2.13c0.771,0.616 2.208,1.788 2.659,1.711c0.276,-0.293 0.271,-2.164 0.269,-3.17c-0.005,-1.989 -0.01,-3.867 1.068,-4.728c1.085,-0.865 2.921,-0.441 4.865,0.004c0.974,0.224 2.786,0.642 3.176,0.388c0.115,-0.382 -0.688,-2.047 -1.12,-2.941c-0.87,-1.803 -1.691,-3.506 -1.086,-4.76c0.595,-1.233 2.418,-1.646 4.349,-2.083c0.988,-0.224 2.827,-0.64 3.061,-1.045c-0.071,-0.384 -1.493,-1.514 -2.257,-2.12c-1.583,-1.26 -3.079,-2.449 -3.079,-3.864c0,-1.415 1.496,-2.604 3.08,-3.862c0.764,-0.607 2.187,-1.738 2.245,-2.188c-0.222,-0.339 -2.061,-0.755 -3.049,-0.979c-1.931,-0.438 -3.754,-0.85 -4.349,-2.083c-0.604,-1.254 0.216,-2.956 1.086,-4.759c0.431,-0.895 1.234,-2.561 1.079,-2.994c-0.347,-0.2 -2.161,0.216 -3.134,0.439c-1.947,0.446 -3.783,0.869 -4.865,0.004c-1.078,-0.86 -1.073,-2.738 -1.068,-4.728c0.002,-1.005 0.007,-2.876 -0.329,-3.197c-0.4,0.017 -1.829,1.124 -2.599,1.739c-1.569,1.255 -3.049,2.434 -4.417,2.13c-1.325,-0.302 -2.092,-1.9 -2.979,-3.753c-0.443,-0.923 -1.267,-2.642 -1.719,-2.771c-0.412,0.13 -1.235,1.849 -1.678,2.771c-0.888,1.853 -1.655,3.451 -2.98,3.753c-1.367,0.303 -2.849,-0.875 -4.417,-2.13c-0.771,-0.616 -2.216,-1.794 -2.659,-1.711c-0.276,0.293 -0.271,2.164 -0.269,3.17c0.005,1.989 0.01,3.867 -1.068,4.728c-1.083,0.867 -2.92,0.442 -4.865,-0.004c-0.974,-0.224 -2.786,-0.642 -3.176,-0.388c-0.115,0.382 0.688,2.047 1.12,2.941c0.87,1.803 1.691,3.506 1.086,4.76c-0.595,1.233 -2.418,1.646 -4.349,2.083c-0.988,0.224 -2.827,0.64 -3.061,1.045c0.071,0.384 1.493,1.514 2.257,2.12c1.581,1.26 3.077,2.449 3.077,3.864c0,1.415 -1.496,2.604 -3.08,3.862c-0.764,0.607 -2.187,1.738 -2.245,2.188c0.222,0.339 2.061,0.755 3.049,0.979c1.931,0.438 3.754,0.85 4.349,2.083c0.604,1.254 -0.216,2.956 -1.086,4.759c-0.431,0.895 -1.234,2.561 -1.079,2.994c0.349,0.2 2.161,-0.215 3.134,-0.439c1.946,-0.446 3.783,-0.868 4.865,-0.004c1.078,0.86 1.073,2.738 1.068,4.728c-0.002,1.005 -0.007,2.876 0.329,3.197c0.42,-0.014 1.829,-1.124 2.599,-1.739c1.399,-1.118 2.727,-2.18 3.966,-2.18z" fill="#ffd857"></path><path d="M32,61c-1.629,0 -2.539,-1.896 -3.501,-3.905c-0.421,-0.877 -1.204,-2.51 -1.628,-2.669c-0.437,-0.047 -1.925,1.11 -2.717,1.743c-1.705,1.362 -3.319,2.648 -4.741,1.963c-1.446,-0.697 -1.441,-2.781 -1.436,-4.987c0.002,-0.992 0.007,-2.839 -0.32,-3.163c-0.381,-0.248 -2.192,0.171 -3.165,0.394c-2.144,0.494 -4.167,0.957 -5.164,-0.291c-0.993,-1.243 -0.094,-3.107 0.858,-5.082c0.437,-0.904 1.249,-2.589 1.084,-3.023c-0.242,-0.377 -2.028,-0.781 -2.988,-0.998c-2.162,-0.489 -4.203,-0.952 -4.562,-2.528c-0.348,-1.53 1.256,-2.806 2.955,-4.155c0.805,-0.641 2.301,-1.829 2.325,-2.3c-0.024,-0.469 -1.521,-1.657 -2.324,-2.296c-1.698,-1.35 -3.302,-2.624 -2.955,-4.154c0.358,-1.576 2.4,-2.039 4.562,-2.528c0.959,-0.217 2.746,-0.621 2.992,-1.007c0.16,-0.426 -0.653,-2.11 -1.089,-3.016c-0.952,-1.974 -1.852,-3.838 -0.858,-5.081c0.997,-1.248 3.02,-0.784 5.164,-0.291c0.973,0.225 2.786,0.643 3.172,0.388c0.319,-0.318 0.315,-2.165 0.312,-3.157c-0.005,-2.206 -0.01,-4.29 1.436,-4.988c1.424,-0.687 3.035,0.6 4.741,1.963c0.792,0.633 2.28,1.81 2.728,1.74c0.415,-0.156 1.197,-1.789 1.618,-2.666c0.962,-2.01 1.872,-3.906 3.501,-3.906c1.629,0 2.539,1.896 3.501,3.905c0.421,0.877 1.204,2.51 1.628,2.669c0.438,0.062 1.926,-1.109 2.717,-1.743c1.705,-1.363 3.314,-2.65 4.741,-1.963c1.446,0.697 1.441,2.781 1.436,4.987c-0.002,0.992 -0.007,2.839 0.32,3.163c0.38,0.248 2.192,-0.17 3.165,-0.394c2.144,-0.494 4.167,-0.957 5.164,0.291c0.993,1.243 0.094,3.107 -0.858,5.082c-0.437,0.904 -1.249,2.589 -1.084,3.023c0.242,0.377 2.028,0.781 2.988,0.998c2.162,0.489 4.203,0.952 4.562,2.528c0.348,1.53 -1.256,2.806 -2.955,4.155c-0.804,0.641 -2.298,1.827 -2.325,2.299c0.027,0.472 1.521,1.659 2.324,2.297c1.698,1.35 3.302,2.624 2.955,4.154c-0.358,1.576 -2.4,2.039 -4.562,2.528c-0.959,0.217 -2.746,0.621 -2.992,1.007c-0.16,0.426 0.653,2.11 1.089,3.016c0.952,1.974 1.852,3.838 0.858,5.081c-0.997,1.248 -3.021,0.784 -5.164,0.291c-0.972,-0.224 -2.783,-0.641 -3.172,-0.388c-0.319,0.318 -0.315,2.165 -0.312,3.157c0.005,2.206 0.01,4.29 -1.436,4.988c-1.425,0.687 -3.035,-0.601 -4.741,-1.963c-0.792,-0.632 -2.266,-1.791 -2.728,-1.74c-0.415,0.156 -1.197,1.789 -1.618,2.666c-0.962,2.01 -1.872,3.906 -3.501,3.906zM26.869,52.428c0.152,0 0.303,0.017 0.453,0.05c1.325,0.302 2.092,1.9 2.979,3.753c0.443,0.923 1.267,2.642 1.719,2.771c0.412,-0.13 1.235,-1.849 1.678,-2.771c0.888,-1.853 1.655,-3.451 2.98,-3.753c1.362,-0.305 2.848,0.875 4.417,2.13c0.771,0.616 2.208,1.788 2.659,1.711c0.276,-0.293 0.271,-2.164 0.269,-3.17c-0.005,-1.989 -0.01,-3.867 1.068,-4.728c1.085,-0.865 2.921,-0.441 4.865,0.004c0.974,0.224 2.786,0.642 3.176,0.388c0.115,-0.382 -0.688,-2.047 -1.12,-2.941c-0.87,-1.803 -1.691,-3.506 -1.086,-4.76c0.595,-1.233 2.418,-1.646 4.349,-2.083c0.988,-0.224 2.827,-0.64 3.061,-1.045c-0.071,-0.384 -1.493,-1.514 -2.257,-2.12c-1.583,-1.26 -3.079,-2.449 -3.079,-3.864c0,-1.415 1.496,-2.604 3.08,-3.862c0.764,-0.607 2.187,-1.738 2.245,-2.188c-0.222,-0.339 -2.061,-0.755 -3.049,-0.979c-1.931,-0.438 -3.754,-0.85 -4.349,-2.083c-0.604,-1.254 0.216,-2.956 1.086,-4.759c0.431,-0.895 1.234,-2.561 1.079,-2.994c-0.347,-0.2 -2.161,0.216 -3.134,0.439c-1.947,0.446 -3.783,0.869 -4.865,0.004c-1.078,-0.86 -1.073,-2.738 -1.068,-4.728c0.002,-1.005 0.007,-2.876 -0.329,-3.197c-0.4,0.017 -1.829,1.124 -2.599,1.739c-1.569,1.255 -3.049,2.434 -4.417,2.13c-1.325,-0.302 -2.092,-1.9 -2.979,-3.753c-0.443,-0.923 -1.267,-2.642 -1.719,-2.771c-0.412,0.13 -1.235,1.849 -1.678,2.771c-0.888,1.853 -1.655,3.451 -2.98,3.753c-1.367,0.303 -2.849,-0.875 -4.417,-2.13c-0.771,-0.616 -2.216,-1.794 -2.659,-1.711c-0.276,0.293 -0.271,2.164 -0.269,3.17c0.005,1.989 0.01,3.867 -1.068,4.728c-1.083,0.867 -2.92,0.442 -4.865,-0.004c-0.974,-0.224 -2.786,-0.642 -3.176,-0.388c-0.115,0.382 0.688,2.047 1.12,2.941c0.87,1.803 1.691,3.506 1.086,4.76c-0.595,1.233 -2.418,1.646 -4.349,2.083c-0.988,0.224 -2.827,0.64 -3.061,1.045c0.071,0.384 1.493,1.514 2.257,2.12c1.581,1.26 3.077,2.449 3.077,3.864c0,1.415 -1.496,2.604 -3.08,3.862c-0.764,0.607 -2.187,1.738 -2.245,2.188c0.222,0.339 2.061,0.755 3.049,0.979c1.931,0.438 3.754,0.85 4.349,2.083c0.604,1.254 -0.216,2.956 -1.086,4.759c-0.431,0.895 -1.234,2.561 -1.079,2.994c0.349,0.2 2.161,-0.215 3.134,-0.439c1.946,-0.446 3.783,-0.868 4.865,-0.004c1.078,0.86 1.073,2.738 1.068,4.728c-0.002,1.005 -0.007,2.876 0.329,3.197c0.42,-0.014 1.829,-1.124 2.599,-1.739c1.399,-1.118 2.727,-2.18 3.966,-2.18z" fill="#30223a"></path><path d="M32.081,16.004c-0.386,2.386 0.99,4.764 3.358,5.543c3.526,1.159 6.291,4.109 7.215,7.699c0.581,2.257 2.612,3.755 4.839,3.755c0.152,0 0.305,-0.015 0.458,-0.029c0.019,-0.323 0.049,-0.644 0.049,-0.972c0,-8.809 -7.12,-15.952 -15.919,-15.996z" fill="#ffe48a"></path><path d="M28.562,42.453c-3.08,-1.013 -5.545,-3.319 -6.764,-6.329c-0.934,-2.307 -3.393,-3.52 -5.74,-2.984c0.585,8.276 7.447,14.814 15.862,14.856c0.386,-2.385 -0.99,-4.764 -3.358,-5.543z" fill="#ffca22"></path><path d="M43.619,22c-0.265,0 -0.529,-0.104 -0.726,-0.312c-0.655,-0.691 -1.377,-1.322 -2.147,-1.875c-0.448,-0.322 -0.551,-0.947 -0.229,-1.396c0.321,-0.449 0.945,-0.553 1.396,-0.229c0.872,0.627 1.69,1.342 2.432,2.125c0.38,0.401 0.362,1.034 -0.039,1.414c-0.193,0.182 -0.44,0.273 -0.687,0.273z" fill="#30223a"></path><path d="M32,49c-9.374,0 -17,-7.626 -17,-17c0,-9.374 7.626,-17 17,-17c2.204,0 4.349,0.416 6.375,1.236c0.512,0.207 0.759,0.79 0.552,1.302c-0.207,0.513 -0.792,0.761 -1.302,0.552c-1.787,-0.723 -3.679,-1.09 -5.625,-1.09c-8.271,0 -15,6.729 -15,15c0,8.271 6.729,15 15,15c8.271,0 15,-6.729 15,-15c0,-2.637 -0.694,-5.23 -2.006,-7.499c-0.276,-0.479 -0.113,-1.09 0.365,-1.366c0.477,-0.278 1.089,-0.113 1.366,0.364c1.488,2.573 2.275,5.513 2.275,8.501c0,9.374 -7.626,17 -17,17z" fill="#30223a"></path><path d="M20.733,37.101c-0.409,0 -0.792,-0.252 -0.94,-0.658c-0.188,-0.519 0.079,-1.093 0.598,-1.281l1.879,-0.684c0.518,-0.188 1.092,0.078 1.282,0.598c0.188,0.519 -0.079,1.093 -0.598,1.281l-1.879,0.684c-0.113,0.04 -0.228,0.06 -0.342,0.06zM23.515,41.485c-0.256,0 -0.512,-0.098 -0.707,-0.293c-0.391,-0.391 -0.391,-1.023 0,-1.414l1.414,-1.414c0.391,-0.391 1.023,-0.391 1.414,0c0.391,0.391 0.391,1.023 0,1.414l-1.414,1.414c-0.196,0.196 -0.451,0.293 -0.707,0.293zM27.899,44.267c-0.114,0 -0.229,-0.02 -0.342,-0.061c-0.519,-0.188 -0.786,-0.763 -0.597,-1.281l0.684,-1.879c0.188,-0.52 0.762,-0.786 1.282,-0.598c0.519,0.188 0.786,0.763 0.597,1.281l-0.684,1.879c-0.148,0.407 -0.531,0.659 -0.94,0.659z" fill="#30223a"></path></g></g></svg>