<svg xmlns="http://www.w3.org/2000/svg" xmlns:xlink="http://www.w3.org/1999/xlink" viewBox="0,0,256,256" width="128px" height="128px"><g fill="none" fill-rule="nonzero" stroke="none" stroke-width="1" stroke-linecap="butt" stroke-linejoin="miter" stroke-miterlimit="10" stroke-dasharray="" stroke-dashoffset="0" font-family="none" font-weight="none" font-size="none" text-anchor="none" style="mix-blend-mode: normal"><g transform="scale(4,4)"><path d="M5.265,57h53.47c2.325,0 3.766,-2.53 2.581,-4.529l-26.735,-45.116c-1.162,-1.961 -4,-1.961 -5.162,0l-26.735,45.116c-1.185,1.999 0.256,4.529 2.581,4.529z" fill="#ed576b"></path><path d="M11.872,48.735l18.838,-31.788c0.581,-0.98 2,-0.98 2.581,0l18.837,31.788c0.592,1 -0.128,2.265 -1.291,2.265h-37.674c-1.163,0 -1.883,-1.265 -1.291,-2.265z" fill="#e8d6ee"></path><path d="M50.84,51h-12.59l6.96,-13.93l6.92,11.67c0.59,1 -0.13,2.26 -1.29,2.26z" fill="#f1e6f4"></path><path d="M43.59,34.33l-8.34,16.67h-5.25l10.74,-21.48z" fill="#f1e6f4"></path><path d="M38.98,26.55l-12.23,24.45h-1.75l13.03,-26.06z" fill="#f1e6f4"></path><path d="M21.955,43.49l9.185,-15.5c0.387,-0.654 1.333,-0.654 1.721,0l9.185,15.5c0.395,0.667 -0.085,1.51 -0.86,1.51h-18.371c-0.774,0 -1.255,-0.843 -0.86,-1.51z" fill="#ed576b"></path><path d="M50.837,52h-37.674c-0.91,0 -1.723,-0.472 -2.173,-1.263c-0.45,-0.79 -0.442,-1.729 0.021,-2.512l9.158,-15.454c0.281,-0.476 0.895,-0.631 1.37,-0.351c0.476,0.282 0.632,0.895 0.351,1.37l-9.158,15.454c-0.134,0.226 -0.048,0.426 -0.005,0.502c0.044,0.077 0.173,0.254 0.436,0.254h37.674c0.263,0 0.392,-0.177 0.436,-0.252c0.043,-0.076 0.129,-0.277 -0.005,-0.502l-18.838,-31.789c-0.131,-0.221 -0.344,-0.245 -0.43,-0.245c-0.086,0 -0.299,0.024 -0.43,0.245l-3.604,6.082c-0.28,0.475 -0.893,0.634 -1.37,0.351c-0.476,-0.282 -0.632,-0.895 -0.351,-1.37l3.604,-6.082c0.455,-0.768 1.259,-1.226 2.15,-1.226c0.891,0 1.695,0.458 2.15,1.226l18.838,31.788c0.464,0.782 0.472,1.722 0.021,2.512c-0.448,0.79 -1.261,1.262 -2.171,1.262z" fill="#1b0f24"></path><path d="M23.054,30.864c-0.173,0 -0.349,-0.045 -0.509,-0.14c-0.476,-0.282 -0.632,-0.895 -0.351,-1.37l2.025,-3.417c0.281,-0.474 0.894,-0.631 1.37,-0.351c0.476,0.282 0.632,0.895 0.351,1.37l-2.025,3.417c-0.186,0.316 -0.519,0.491 -0.861,0.491z" fill="#1b0f24"></path><path d="M41.13,44h-18.26c0.81,-1.68 1.97,-3 3.63,-3h11c1.66,0 2.82,1.32 3.63,3z" fill="#eb445a"></path><path d="M57.5,54h-51c-1.657,0 -3,1.343 -3,3c2.5,0 54.5,0 57,0c0,-1.657 -1.343,-3 -3,-3z" fill="#eb445a"></path><path d="M41.185,46h-18.37c-0.728,0 -1.377,-0.377 -1.737,-1.009c-0.36,-0.632 -0.354,-1.384 0.017,-2.01v0l9.185,-15.5c0.364,-0.614 1.008,-0.98 1.721,-0.98c0.713,0 1.356,0.366 1.721,0.979l9.185,15.5c0.371,0.626 0.377,1.378 0.017,2.01c-0.362,0.633 -1.012,1.01 -1.739,1.01zM22.815,44l-0.002,0.005l18.372,-0.005l-9.185,-15.5l-9.185,15.5z" fill="#1b0f24"></path><path d="M58.735,58h-53.47c-1.455,0 -2.755,-0.755 -3.476,-2.02c-0.72,-1.265 -0.707,-2.767 0.035,-4.019l26.735,-45.115c0.727,-1.228 2.014,-1.961 3.441,-1.961c1.427,0 2.714,0.733 3.441,1.961l26.734,45.115c0.742,1.252 0.755,2.754 0.035,4.019c-0.72,1.265 -2.02,2.02 -3.475,2.02zM32,6.885c-0.714,0 -1.356,0.367 -1.721,0.98l-26.734,45.115c-0.371,0.626 -0.378,1.377 -0.018,2.01c0.36,0.633 1.01,1.01 1.738,1.01h53.471c0.728,0 1.377,-0.377 1.737,-1.01c0.36,-0.633 0.354,-1.384 -0.018,-2.009l-26.734,-45.116c-0.365,-0.614 -1.007,-0.98 -1.721,-0.98z" fill="#1b0f24"></path><path d="M28,43c-0.553,0 -1,-0.448 -1,-1v-2c0,-0.552 0.447,-1 1,-1c0.553,0 1,0.448 1,1v2c0,0.552 -0.447,1 -1,1z" fill="#1b0f24"></path><path d="M32,43c-0.553,0 -1,-0.448 -1,-1v-2c0,-0.552 0.447,-1 1,-1c0.553,0 1,0.448 1,1v2c0,0.552 -0.447,1 -1,1z" fill="#1b0f24"></path><path d="M36,43c-0.553,0 -1,-0.448 -1,-1v-2c0,-0.552 0.447,-1 1,-1c0.553,0 1,0.448 1,1v2c0,0.552 -0.447,1 -1,1z" fill="#1b0f24"></path></g></g></svg>